<svg width="35" height="38" viewBox="0 0 35 38" fill="none" xmlns="http://www.w3.org/2000/svg">
<rect width="35" height="38" rx="17.5" fill="#F0F5FE"/>
<path fill-rule="evenodd" clip-rule="evenodd" d="M7 5H8H29.6667H30.6667V6V32V33H29.6667H24.3335H13.3335H8H7V32V6V5ZM13.3335 31H24.3335V23.25H13.3335V31ZM26.3335 31V23.25C26.3335 22.1454 25.4381 21.25 24.3335 21.25H13.3335C12.2289 21.25 11.3335 22.1454 11.3335 23.25V31H9V7H28.6667V31H26.3335ZM18.8333 11.3333C16.9924 11.3333 15.5 12.8257 15.5 14.6666C15.5 16.5076 16.9924 18 18.8333 18C20.6743 18 22.1667 16.5076 22.1667 14.6666C22.1667 12.8257 20.6743 11.3333 18.8333 11.3333ZM13.5 14.6666C13.5 11.7211 15.8878 9.33331 18.8333 9.33331C21.7789 9.33331 24.1667 11.7211 24.1667 14.6666C24.1667 17.6122 21.7789 20 18.8333 20C15.8878 20 13.5 17.6122 13.5 14.6666Z" fill="#2274E5"/>
</svg>
