<svg width="35" height="38" viewBox="0 0 35 38" fill="none" xmlns="http://www.w3.org/2000/svg">
<rect width="35" height="38" rx="17.5" fill="#F0F5FE"/>
<mask id="path-2-outside-1_427_363463" maskUnits="userSpaceOnUse" x="3.5" y="5" width="28" height="28" fill="black">
<rect fill="white" x="3.5" y="5" width="28" height="28"/>
<path fill-rule="evenodd" clip-rule="evenodd" d="M16.6455 6.12913C15.7034 6.44838 7.7612 9.35627 7.57807 9.44902C6.95103 9.76665 6.55345 10.5707 6.68015 11.265C6.70852 11.4203 6.81173 11.762 6.90945 12.0243C7.00722 12.2865 7.08719 12.5182 7.08719 12.5392C7.08719 12.5601 6.93512 12.606 6.74919 12.641C6.07269 12.7686 5.32663 13.2751 4.94862 13.8637C4.85807 14.0046 4.72456 14.2726 4.65185 14.4591L4.51966 14.7984L4.50593 22.136C4.49251 29.3193 4.49434 29.482 4.59348 29.8736C4.72649 30.3991 4.94613 30.7759 5.35495 31.18C5.73987 31.5604 6.19628 31.8077 6.7167 31.9179C7.23392 32.0274 26.2605 32.0274 26.7777 31.9179C27.5247 31.7597 28.2634 31.2211 28.6359 30.5629C28.9626 29.9857 29.0002 29.6954 29.0002 27.7431V25.9988L29.1146 25.9983C29.3156 25.9974 29.7517 25.7586 29.9938 25.5167C30.1229 25.3877 30.2896 25.1521 30.3643 24.9929L30.5 24.7035V22.2399V19.7764L30.3678 19.4947C30.1326 18.9937 29.7485 18.6576 29.2398 18.5077L29.0256 18.4446L28.9985 16.6215C28.9717 14.8171 28.9702 14.7949 28.8409 14.4591C28.4687 13.492 27.6463 12.7978 26.6757 12.6315L26.3122 12.5692L26.2962 11.4221L26.2801 10.275L26.113 9.9361C25.9282 9.56128 25.6316 9.26606 25.2488 9.07598L25.009 8.95692L22.3157 8.93152L19.6223 8.90612L19.2854 7.97834C18.8845 6.87384 18.822 6.74939 18.5356 6.48445C18.2306 6.20228 17.8428 6.03577 17.4229 6.00666C17.1353 5.9867 17.0055 6.00717 16.6455 6.12913ZM17.4443 7.54988C17.5159 7.59539 17.5998 7.78745 17.8344 8.44322L18.0043 8.91806L17.5847 8.94422C17.2387 8.96581 17.1105 8.99948 16.8536 9.13633C16.4803 9.33504 16.2235 9.60598 16.0423 9.99213C15.9118 10.2703 15.9079 10.3073 15.8921 11.4332L15.876 12.5888L12.3078 12.5885L8.73956 12.5882L8.44712 11.792C8.18701 11.0837 8.16235 10.9841 8.22397 10.8907C8.27502 10.8132 9.46762 10.3566 12.7617 9.1536C15.2194 8.25604 17.2645 7.5192 17.3065 7.5162C17.3484 7.51326 17.4104 7.52839 17.4443 7.54988ZM24.7004 10.5352C24.7675 10.6023 24.7803 10.7725 24.7803 11.6019V12.5888H21.0942H17.4081V11.6019C17.4081 10.7725 17.4209 10.6023 17.488 10.5352C17.5591 10.4642 17.9563 10.4554 21.0942 10.4554C24.2321 10.4554 24.6293 10.4642 24.7004 10.5352ZM26.6234 14.1851C26.9046 14.2854 27.1493 14.4914 27.3085 14.762L27.4495 15.0016L27.4647 16.7124L27.4799 18.4232L25.7106 18.4401L23.9414 18.4571L23.5346 18.5992C22.2449 19.0501 21.3339 20.0063 20.9855 21.2748C20.8722 21.6876 20.8592 22.6973 20.962 23.0998C21.2432 24.2007 21.991 25.1393 22.9686 25.6183C23.7595 26.0058 23.8207 26.015 25.759 26.0372L27.4749 26.0568V27.7204C27.4749 29.5931 27.4577 29.7077 27.1254 30.0498C27.0216 30.1567 26.8461 30.289 26.7355 30.3438C26.5377 30.4417 26.3692 30.4434 16.7472 30.4434C7.12522 30.4434 6.95668 30.4417 6.7589 30.3438C6.64827 30.289 6.47236 30.1562 6.36798 30.0487C5.99388 29.6636 6.01661 30.1943 6.0315 22.1867L6.04493 15.0016L6.18586 14.762C6.3451 14.4914 6.5898 14.2854 6.87101 14.1851C7.1542 14.0842 26.3402 14.0842 26.6234 14.1851ZM28.9203 20.0339C28.9903 20.104 29.0002 20.3736 29.0002 22.2269C29.0002 24.1218 28.9915 24.3495 28.916 24.4328C28.837 24.5201 28.6989 24.5257 26.6388 24.5257C24.265 24.5257 24.1395 24.514 23.6016 24.2416C23.062 23.9685 22.5796 23.3268 22.4479 22.7073C22.2461 21.7578 22.6769 20.7766 23.5165 20.2735C24.0209 19.9713 24.1194 19.9612 26.5943 19.9575C28.5713 19.9546 28.8499 19.9637 28.9203 20.0339ZM24.3338 21.5625C23.7851 21.8327 23.7936 22.6321 24.3481 22.9003C24.4636 22.9562 24.6123 23.0019 24.6786 23.0019C24.9053 23.0019 25.2131 22.8093 25.3362 22.5905C25.697 21.9491 25 21.2344 24.3338 21.5625Z"/>
</mask>
<path fill-rule="evenodd" clip-rule="evenodd" d="M16.6455 6.12913C15.7034 6.44838 7.7612 9.35627 7.57807 9.44902C6.95103 9.76665 6.55345 10.5707 6.68015 11.265C6.70852 11.4203 6.81173 11.762 6.90945 12.0243C7.00722 12.2865 7.08719 12.5182 7.08719 12.5392C7.08719 12.5601 6.93512 12.606 6.74919 12.641C6.07269 12.7686 5.32663 13.2751 4.94862 13.8637C4.85807 14.0046 4.72456 14.2726 4.65185 14.4591L4.51966 14.7984L4.50593 22.136C4.49251 29.3193 4.49434 29.482 4.59348 29.8736C4.72649 30.3991 4.94613 30.7759 5.35495 31.18C5.73987 31.5604 6.19628 31.8077 6.7167 31.9179C7.23392 32.0274 26.2605 32.0274 26.7777 31.9179C27.5247 31.7597 28.2634 31.2211 28.6359 30.5629C28.9626 29.9857 29.0002 29.6954 29.0002 27.7431V25.9988L29.1146 25.9983C29.3156 25.9974 29.7517 25.7586 29.9938 25.5167C30.1229 25.3877 30.2896 25.1521 30.3643 24.9929L30.5 24.7035V22.2399V19.7764L30.3678 19.4947C30.1326 18.9937 29.7485 18.6576 29.2398 18.5077L29.0256 18.4446L28.9985 16.6215C28.9717 14.8171 28.9702 14.7949 28.8409 14.4591C28.4687 13.492 27.6463 12.7978 26.6757 12.6315L26.3122 12.5692L26.2962 11.4221L26.2801 10.275L26.113 9.9361C25.9282 9.56128 25.6316 9.26606 25.2488 9.07598L25.009 8.95692L22.3157 8.93152L19.6223 8.90612L19.2854 7.97834C18.8845 6.87384 18.822 6.74939 18.5356 6.48445C18.2306 6.20228 17.8428 6.03577 17.4229 6.00666C17.1353 5.9867 17.0055 6.00717 16.6455 6.12913ZM17.4443 7.54988C17.5159 7.59539 17.5998 7.78745 17.8344 8.44322L18.0043 8.91806L17.5847 8.94422C17.2387 8.96581 17.1105 8.99948 16.8536 9.13633C16.4803 9.33504 16.2235 9.60598 16.0423 9.99213C15.9118 10.2703 15.9079 10.3073 15.8921 11.4332L15.876 12.5888L12.3078 12.5885L8.73956 12.5882L8.44712 11.792C8.18701 11.0837 8.16235 10.9841 8.22397 10.8907C8.27502 10.8132 9.46762 10.3566 12.7617 9.1536C15.2194 8.25604 17.2645 7.5192 17.3065 7.5162C17.3484 7.51326 17.4104 7.52839 17.4443 7.54988ZM24.7004 10.5352C24.7675 10.6023 24.7803 10.7725 24.7803 11.6019V12.5888H21.0942H17.4081V11.6019C17.4081 10.7725 17.4209 10.6023 17.488 10.5352C17.5591 10.4642 17.9563 10.4554 21.0942 10.4554C24.2321 10.4554 24.6293 10.4642 24.7004 10.5352ZM26.6234 14.1851C26.9046 14.2854 27.1493 14.4914 27.3085 14.762L27.4495 15.0016L27.4647 16.7124L27.4799 18.4232L25.7106 18.4401L23.9414 18.4571L23.5346 18.5992C22.2449 19.0501 21.3339 20.0063 20.9855 21.2748C20.8722 21.6876 20.8592 22.6973 20.962 23.0998C21.2432 24.2007 21.991 25.1393 22.9686 25.6183C23.7595 26.0058 23.8207 26.015 25.759 26.0372L27.4749 26.0568V27.7204C27.4749 29.5931 27.4577 29.7077 27.1254 30.0498C27.0216 30.1567 26.8461 30.289 26.7355 30.3438C26.5377 30.4417 26.3692 30.4434 16.7472 30.4434C7.12522 30.4434 6.95668 30.4417 6.7589 30.3438C6.64827 30.289 6.47236 30.1562 6.36798 30.0487C5.99388 29.6636 6.01661 30.1943 6.0315 22.1867L6.04493 15.0016L6.18586 14.762C6.3451 14.4914 6.5898 14.2854 6.87101 14.1851C7.1542 14.0842 26.3402 14.0842 26.6234 14.1851ZM28.9203 20.0339C28.9903 20.104 29.0002 20.3736 29.0002 22.2269C29.0002 24.1218 28.9915 24.3495 28.916 24.4328C28.837 24.5201 28.6989 24.5257 26.6388 24.5257C24.265 24.5257 24.1395 24.514 23.6016 24.2416C23.062 23.9685 22.5796 23.3268 22.4479 22.7073C22.2461 21.7578 22.6769 20.7766 23.5165 20.2735C24.0209 19.9713 24.1194 19.9612 26.5943 19.9575C28.5713 19.9546 28.8499 19.9637 28.9203 20.0339ZM24.3338 21.5625C23.7851 21.8327 23.7936 22.6321 24.3481 22.9003C24.4636 22.9562 24.6123 23.0019 24.6786 23.0019C24.9053 23.0019 25.2131 22.8093 25.3362 22.5905C25.697 21.9491 25 21.2344 24.3338 21.5625Z" fill="#2274E5"/>
<path fill-rule="evenodd" clip-rule="evenodd" d="M16.6455 6.12913C15.7034 6.44838 7.7612 9.35627 7.57807 9.44902C6.95103 9.76665 6.55345 10.5707 6.68015 11.265C6.70852 11.4203 6.81173 11.762 6.90945 12.0243C7.00722 12.2865 7.08719 12.5182 7.08719 12.5392C7.08719 12.5601 6.93512 12.606 6.74919 12.641C6.07269 12.7686 5.32663 13.2751 4.94862 13.8637C4.85807 14.0046 4.72456 14.2726 4.65185 14.4591L4.51966 14.7984L4.50593 22.136C4.49251 29.3193 4.49434 29.482 4.59348 29.8736C4.72649 30.3991 4.94613 30.7759 5.35495 31.18C5.73987 31.5604 6.19628 31.8077 6.7167 31.9179C7.23392 32.0274 26.2605 32.0274 26.7777 31.9179C27.5247 31.7597 28.2634 31.2211 28.6359 30.5629C28.9626 29.9857 29.0002 29.6954 29.0002 27.7431V25.9988L29.1146 25.9983C29.3156 25.9974 29.7517 25.7586 29.9938 25.5167C30.1229 25.3877 30.2896 25.1521 30.3643 24.9929L30.5 24.7035V22.2399V19.7764L30.3678 19.4947C30.1326 18.9937 29.7485 18.6576 29.2398 18.5077L29.0256 18.4446L28.9985 16.6215C28.9717 14.8171 28.9702 14.7949 28.8409 14.4591C28.4687 13.492 27.6463 12.7978 26.6757 12.6315L26.3122 12.5692L26.2962 11.4221L26.2801 10.275L26.113 9.9361C25.9282 9.56128 25.6316 9.26606 25.2488 9.07598L25.009 8.95692L22.3157 8.93152L19.6223 8.90612L19.2854 7.97834C18.8845 6.87384 18.822 6.74939 18.5356 6.48445C18.2306 6.20228 17.8428 6.03577 17.4229 6.00666C17.1353 5.9867 17.0055 6.00717 16.6455 6.12913ZM17.4443 7.54988C17.5159 7.59539 17.5998 7.78745 17.8344 8.44322L18.0043 8.91806L17.5847 8.94422C17.2387 8.96581 17.1105 8.99948 16.8536 9.13633C16.4803 9.33504 16.2235 9.60598 16.0423 9.99213C15.9118 10.2703 15.9079 10.3073 15.8921 11.4332L15.876 12.5888L12.3078 12.5885L8.73956 12.5882L8.44712 11.792C8.18701 11.0837 8.16235 10.9841 8.22397 10.8907C8.27502 10.8132 9.46762 10.3566 12.7617 9.1536C15.2194 8.25604 17.2645 7.5192 17.3065 7.5162C17.3484 7.51326 17.4104 7.52839 17.4443 7.54988ZM24.7004 10.5352C24.7675 10.6023 24.7803 10.7725 24.7803 11.6019V12.5888H21.0942H17.4081V11.6019C17.4081 10.7725 17.4209 10.6023 17.488 10.5352C17.5591 10.4642 17.9563 10.4554 21.0942 10.4554C24.2321 10.4554 24.6293 10.4642 24.7004 10.5352ZM26.6234 14.1851C26.9046 14.2854 27.1493 14.4914 27.3085 14.762L27.4495 15.0016L27.4647 16.7124L27.4799 18.4232L25.7106 18.4401L23.9414 18.4571L23.5346 18.5992C22.2449 19.0501 21.3339 20.0063 20.9855 21.2748C20.8722 21.6876 20.8592 22.6973 20.962 23.0998C21.2432 24.2007 21.991 25.1393 22.9686 25.6183C23.7595 26.0058 23.8207 26.015 25.759 26.0372L27.4749 26.0568V27.7204C27.4749 29.5931 27.4577 29.7077 27.1254 30.0498C27.0216 30.1567 26.8461 30.289 26.7355 30.3438C26.5377 30.4417 26.3692 30.4434 16.7472 30.4434C7.12522 30.4434 6.95668 30.4417 6.7589 30.3438C6.64827 30.289 6.47236 30.1562 6.36798 30.0487C5.99388 29.6636 6.01661 30.1943 6.0315 22.1867L6.04493 15.0016L6.18586 14.762C6.3451 14.4914 6.5898 14.2854 6.87101 14.1851C7.1542 14.0842 26.3402 14.0842 26.6234 14.1851ZM28.9203 20.0339C28.9903 20.104 29.0002 20.3736 29.0002 22.2269C29.0002 24.1218 28.9915 24.3495 28.916 24.4328C28.837 24.5201 28.6989 24.5257 26.6388 24.5257C24.265 24.5257 24.1395 24.514 23.6016 24.2416C23.062 23.9685 22.5796 23.3268 22.4479 22.7073C22.2461 21.7578 22.6769 20.7766 23.5165 20.2735C24.0209 19.9713 24.1194 19.9612 26.5943 19.9575C28.5713 19.9546 28.8499 19.9637 28.9203 20.0339ZM24.3338 21.5625C23.7851 21.8327 23.7936 22.6321 24.3481 22.9003C24.4636 22.9562 24.6123 23.0019 24.6786 23.0019C24.9053 23.0019 25.2131 22.8093 25.3362 22.5905C25.697 21.9491 25 21.2344 24.3338 21.5625Z" stroke="#2274E5" stroke-width="0.4" mask="url(#path-2-outside-1_427_363463)"/>
</svg>
