<svg width="14" height="9" viewBox="0 0 14 9" fill="none" xmlns="http://www.w3.org/2000/svg" class="icon">
<path d="M7.1031 0.514147C7.43117 0.508331 7.73429 0.637418 8.01245 0.901409L13.162 5.98573C13.2641 6.08876 13.3436 6.2013 13.4004 6.32336C13.4528 6.45005 13.4803 6.58631 13.4829 6.73212C13.4865 6.93716 13.4419 7.12255 13.3492 7.28828C13.2519 7.45865 13.1221 7.59314 12.9598 7.69173C12.7975 7.79489 12.6161 7.84824 12.4156 7.8518C12.1103 7.85721 11.8394 7.74578 11.6029 7.51752L6.86346 2.80879L7.41709 2.79898L2.86115 7.67249C2.63289 7.909 2.36839 8.02992 2.06765 8.03525C1.86717 8.0388 1.68401 7.99191 1.5182 7.89458C1.35247 7.8018 1.22026 7.67196 1.12158 7.50506C1.01843 7.3428 0.965038 7.15915 0.961403 6.9541C0.956152 6.65793 1.05423 6.4055 1.25564 6.19681L6.21488 0.933277C6.34915 0.794157 6.48863 0.691408 6.63331 0.625031C6.77799 0.558654 6.93459 0.521692 7.1031 0.514147Z" fill="#1F3B59"/>
</svg>