<svg width="24" height="24" viewBox="0 0 24 24" fill="none" xmlns="http://www.w3.org/2000/svg">
<path d="M3 3H4.875L5.80319 7.125M18.75 16.5H7.875L7.125 13.5M5.80319 7.125H19.5L18.5089 13.5H7.125M5.80319 7.125L7.125 13.5M10.5 20.0999C10.5 20.7212 9.99632 21.2249 9.375 21.2249C8.75368 21.2249 8.25 20.7212 8.25 20.0999C8.25 19.4785 8.75368 18.9749 9.375 18.9749C9.99632 18.9749 10.5 19.4785 10.5 20.0999ZM17.25 20.0999C17.25 20.7212 16.7463 21.2249 16.125 21.2249C15.5037 21.2249 15 20.7212 15 20.0999C15 19.4785 15.5037 18.9749 16.125 18.9749C16.7463 18.9749 17.25 19.4785 17.25 20.0999Z" stroke="white" stroke-width="2"/>
</svg>
