<svg width="16" height="16" viewBox="0 0 16 16" fill="none" xmlns="http://www.w3.org/2000/svg">
<g clip-path="url(#clip0_602_120385)">
<circle cx="8" cy="8" r="6" fill="#F7F7F7"/>
<path d="M6.60248 5.04472L6.95217 8.54867C6.97549 8.80966 7.09538 9.05262 7.28846 9.22992C7.45972 9.38719 7.67756 9.48268 7.90747 9.50298C7.54415 9.52591 7.20028 9.6804 6.94134 9.93934C6.66004 10.2206 6.502 10.6022 6.502 11C6.502 11.3978 6.66004 11.7794 6.94134 12.0607C7.22264 12.342 7.60418 12.5 8.002 12.5C8.39983 12.5 8.78136 12.342 9.06266 12.0607C9.34396 11.7794 9.502 11.3978 9.502 11C9.502 10.6022 9.34396 10.2206 9.06266 9.93934C8.80316 9.67984 8.45837 9.52524 8.09417 9.50283C8.32348 9.48223 8.54069 9.38681 8.71154 9.22992C8.90462 9.05262 9.02451 8.80966 9.04783 8.54867L9.39752 5.04472C9.41704 4.84947 9.39544 4.6523 9.33411 4.4659C9.27279 4.27951 9.1731 4.10803 9.04147 3.9625C8.90984 3.81698 8.74919 3.70064 8.56986 3.62098C8.39053 3.54132 8.19651 3.50011 8.00028 3.5L7.99972 3.5C7.80349 3.50011 7.60947 3.54132 7.43014 3.62098C7.25081 3.70064 7.09016 3.81698 6.95853 3.9625C6.8269 4.10803 6.72721 4.27951 6.66589 4.46591C6.60457 4.65228 6.58297 4.84943 6.60247 5.04465C6.60247 5.04468 6.60248 5.0447 6.60248 5.04472ZM15.5 8C15.5 9.98912 14.7098 11.8968 13.3033 13.3033C11.8968 14.7098 9.98912 15.5 8 15.5C6.01088 15.5 4.10322 14.7098 2.6967 13.3033C1.29018 11.8968 0.5 9.98912 0.5 8C0.5 6.01088 1.29018 4.10322 2.6967 2.6967C4.10322 1.29018 6.01088 0.5 8 0.5C9.98912 0.5 11.8968 1.29018 13.3033 2.6967C14.7098 4.10322 15.5 6.01088 15.5 8Z" stroke="#2274E5"/>
</g>
<defs>
<clipPath id="clip0_602_120385">
<rect width="16" height="16" fill="white"/>
</clipPath>
</defs>
</svg>
