<svg width="14" height="8" viewBox="0 0 14 8" fill="none" xmlns="http://www.w3.org/2000/svg">
<path d="M7.00195 7.49512C7.17057 7.49056 7.3278 7.45638 7.47363 7.39258C7.61947 7.32878 7.76074 7.22852 7.89746 7.0918L12.9492 1.91699C13.1543 1.71191 13.2568 1.46126 13.2568 1.16504C13.2568 0.959961 13.2067 0.775391 13.1064 0.611328C13.0107 0.442708 12.8809 0.310547 12.7168 0.214844C12.5527 0.114583 12.3704 0.0644531 12.1699 0.0644531C11.8691 0.0644531 11.6025 0.180664 11.3701 0.413086L6.72852 5.20508H7.28223L2.62695 0.413086C2.39453 0.180664 2.12565 0.0644531 1.82031 0.0644531C1.61979 0.0644531 1.4375 0.114583 1.27344 0.214844C1.10938 0.310547 0.977214 0.442708 0.876953 0.611328C0.78125 0.775391 0.733398 0.959961 0.733398 1.16504C0.733398 1.31087 0.758464 1.44759 0.808594 1.5752C0.863281 1.69824 0.940755 1.81217 1.04102 1.91699L6.09961 7.0918C6.37305 7.36068 6.67383 7.49512 7.00195 7.49512Z" fill="#1F3B59"/>
</svg>
