<svg width="20" height="20" viewBox="0 0 20 20" fill="none" xmlns="http://www.w3.org/2000/svg">
<rect width="20" height="20" rx="10" fill="#62768B"/>
<path fill-rule="evenodd" clip-rule="evenodd" d="M12.0455 3.25C13.012 3.25 13.7955 4.0335 13.7955 5V6.45455V13.5455V15C13.7955 15.9665 13.012 16.75 12.0455 16.75H7.5C6.5335 16.75 5.75 15.9665 5.75 15V14.125V5.875V5C5.75 4.0335 6.5335 3.25 7.5 3.25H12.0455ZM12.2955 5C12.2955 4.86193 12.1835 4.75 12.0455 4.75H7.5C7.36193 4.75 7.25 4.86193 7.25 5V5.875V14.125V15C7.25 15.1381 7.36193 15.25 7.5 15.25H12.0455C12.1835 15.25 12.2955 15.1381 12.2955 15V13.5455V6.45455V5ZM8.68168 14.8636H10.8635V13.8636H8.68168V14.8636Z" fill="white"/>
</svg>
