<svg width="16" height="16" viewBox="0 0 16 16" fill="none" xmlns="http://www.w3.org/2000/svg">
<path fill-rule="evenodd" clip-rule="evenodd" d="M10.0455 1.25C11.012 1.25 11.7955 2.0335 11.7955 3V4.45455V11.5455V13C11.7955 13.9665 11.012 14.75 10.0455 14.75H5.5C4.5335 14.75 3.75 13.9665 3.75 13V12.125V3.875V3C3.75 2.0335 4.5335 1.25 5.5 1.25H10.0455ZM10.2955 3C10.2955 2.86193 10.1835 2.75 10.0455 2.75H5.5C5.36193 2.75 5.25 2.86193 5.25 3V3.875V12.125V13C5.25 13.1381 5.36193 13.25 5.5 13.25H10.0455C10.1835 13.25 10.2955 13.1381 10.2955 13V11.5455V4.45455V3ZM6.68168 12.8636H8.8635V11.8636H6.68168V12.8636Z" fill="white"/>
</svg>
