<svg width="24" height="24" viewBox="0 0 24 24" fill="none" xmlns="http://www.w3.org/2000/svg">
<path d="M21.0985 4.52987L1.08643 7.1543L2.70146 19.4694L22.7135 16.845L21.0985 4.52987Z" fill="#2274E5"/>
<path d="M22.7135 16.845L15.0166 17.8544L1.08643 7.1543L21.0985 4.52987L22.7135 16.845Z" fill="#4D97FF"/>
<path d="M21.3986 6.81698L1.38647 9.44141L1.68641 11.7285L21.6985 9.10407L21.3986 6.81698Z" fill="#163B99"/>
<path d="M12.1838 14.3336L4.39893 15.3545L4.50275 16.1462L12.2877 15.1252L12.1838 14.3336Z" fill="#F5F9FC"/>
<path d="M9.30111 16.2334L4.59497 16.8506L4.69879 17.6423L9.40493 17.0251L9.30111 16.2334Z" fill="#AAC7F2"/>
<path d="M13.9191 15.6275L10.8403 16.0312L10.9442 16.8229L14.0229 16.4192L13.9191 15.6275Z" fill="#AAC7F2"/>
<path d="M19.0373 15.7612C20.1061 15.621 20.8589 14.641 20.7187 13.5722C20.5786 12.5034 19.5985 11.7506 18.5297 11.8907C17.4609 12.0309 16.7081 13.011 16.8483 14.0798C16.9884 15.1486 17.9685 15.9014 19.0373 15.7612Z" fill="#FBB03B"/>
</svg>
