<svg width="12" height="13" viewBox="0 0 12 13" fill="none" xmlns="http://www.w3.org/2000/svg">
<path fill-rule="evenodd" clip-rule="evenodd" d="M6.91549 0H4.16631V0.916392H6.91549V0ZM5.54182 2.56328C3.28834 2.56328 1.46153 4.39009 1.46153 6.64358C1.46153 8.89706 3.28834 10.7239 5.54182 10.7239C7.7953 10.7239 9.62211 8.89706 9.62211 6.64358C9.62211 4.39009 7.7953 2.56328 5.54182 2.56328ZM0 6.64358C0 3.58291 2.48116 1.10175 5.54182 1.10175C8.60248 1.10175 11.0836 3.58291 11.0836 6.64358C11.0836 9.70424 8.60248 12.1854 5.54182 12.1854C2.48116 12.1854 0 9.70424 0 6.64358ZM4.81055 7.10181V4.12354H6.27208V6.79912L7.43263 7.95967L6.39917 8.99312L5.02458 7.61854L4.81055 7.4045V7.10181Z" fill="#BCC4CD"/>
</svg>