<svg width="20" height="20" viewBox="0 0 20 20" fill="none" xmlns="http://www.w3.org/2000/svg">
<circle cx="10" cy="10" r="10" fill="#62768B"/>
<path fill-rule="evenodd" clip-rule="evenodd" d="M14.75 8.52274V4.25H13.25V8.52274H6.45455H5C4.0335 8.52274 3.25 9.30624 3.25 10.2727V13.2727C3.25 14.2392 4.0335 15.0227 5 15.0227H5.875H14.125H15C15.9665 15.0227 16.75 14.2392 16.75 13.2727V10.2727C16.75 9.30624 15.9665 8.52274 15 8.52274H14.75ZM4.75 10.2727C4.75 10.1347 4.86193 10.0227 5 10.0227H6.45455H13.5455H15C15.1381 10.0227 15.25 10.1347 15.25 10.2727V13.2727C15.25 13.4108 15.1381 13.5227 15 13.5227H14.125H5.875H5C4.86193 13.5227 4.75 13.4108 4.75 13.2727V10.2727ZM7 12C7 12.2761 6.77614 12.5 6.5 12.5C6.22386 12.5 6 12.2761 6 12C6 11.7239 6.22386 11.5 6.5 11.5C6.77614 11.5 7 11.7239 7 12ZM8.5 12.5C8.77614 12.5 9 12.2761 9 12C9 11.7239 8.77614 11.5 8.5 11.5C8.22386 11.5 8 11.7239 8 12C8 12.2761 8.22386 12.5 8.5 12.5ZM11 12C11 12.2761 10.7761 12.5 10.5 12.5C10.2239 12.5 10 12.2761 10 12C10 11.7239 10.2239 11.5 10.5 11.5C10.7761 11.5 11 11.7239 11 12Z" fill="white"/>
</svg>