<svg width="96" height="57" viewBox="0 0 96 57" fill="none" xmlns="http://www.w3.org/2000/svg">
    <g clip-path="url(#clip0_1724_50905)">
        <path
            d="M93.9338 0.5H27.2004C12.4706 0.5 0.528362 12.4413 0.528362 27.172C-0.707169 42.7767 11.374 56.5819 27.2004 56.5H78.9961C87.8343 56.5 94.9991 49.3352 94.9991 40.497V1.56717C94.9991 0.978389 94.5216 0.5 93.9319 0.5H93.9338Z"
            fill="#1F2E8D" />

        <path
            d="M95.5584 35.0977H50.2532C48.9523 35.0977 48.2872 33.5384 49.1869 32.5991L55.0104 26.5226C56.5054 24.9623 58.5735 24.0801 60.7345 24.0801H95.5584V35.0977Z"
            fill="#B77EDF" />
        <path
            d="M60.9628 26.6201H63.5489C64.8654 26.6201 65.7964 27.4821 65.7964 28.6919C65.7964 29.9016 64.8654 30.7728 63.5489 30.7728H62.1662V32.9192H60.9619V26.6191L60.9628 26.6201ZM62.1671 29.8078H63.3612C64.076 29.8078 64.5655 29.3487 64.5655 28.6919C64.5655 28.035 64.076 27.5759 63.3612 27.5759H62.1671V29.8069V29.8078Z"
            fill="white" />
        <path d="M68.7515 26.6201H70.0026V31.9633H72.815V32.9192H68.7515V26.6191V26.6201Z"
            fill="white" />
        <path
            d="M81.0442 30.4536C81.0442 31.9817 79.8123 33.0314 78.1095 33.0314C76.4066 33.0314 75.1655 31.9817 75.1655 30.4536V26.6191H76.4167V30.4067C76.4167 31.3727 77.1223 32.047 78.1095 32.047C79.0966 32.047 79.793 31.3717 79.793 30.4067V26.6191H81.0442V30.4536Z"
            fill="white" />
        <path
            d="M86.4058 26.5078C87.0921 26.5078 87.7977 26.6578 88.5595 26.9485L88.277 27.8767C87.6377 27.6237 87.0351 27.4922 86.4996 27.4922C85.7664 27.4922 85.2954 27.8105 85.2954 28.3082C85.2954 29.6578 88.7849 28.7765 88.7849 31.1951C88.7849 32.2917 87.8161 33.0323 86.4049 33.0323C85.6809 33.0323 84.8814 32.8731 84.0249 32.5171L84.3073 31.5889C85.0406 31.8704 85.737 32.0479 86.311 32.0479C87.082 32.0479 87.5622 31.7195 87.5622 31.1951C87.5622 29.8078 84.0635 30.6698 84.0635 28.3082C84.0635 27.2392 85.0231 26.5087 86.4058 26.5087V26.5078Z"
            fill="white" />
        <path
            d="M37.6174 13.6217C34.2328 10.8802 29.8933 9.27022 25.1757 9.36958C14.6907 9.58854 6.29587 18.3053 6.45134 28.7912C6.60682 39.2256 15.1129 47.6361 25.5841 47.6361C31.2006 47.6361 36.2513 45.2156 39.7518 41.3609C40.026 41.0592 40.1768 40.6654 40.1768 40.2579V27.9476C40.1768 26.2227 38.7785 24.8252 37.0544 24.8252H22.9337C22.1315 24.8252 21.481 25.4756 21.481 26.2779V31.3157C21.481 32.1179 22.1315 32.7683 22.9337 32.7683H31.7599C32.0231 32.7683 32.2356 32.9817 32.2356 33.2439V36.7546C32.2356 37.1428 32.0405 37.5053 31.7176 37.7215C29.9779 38.8843 27.8979 39.5706 25.6679 39.5863C19.5233 39.6313 14.526 34.6773 14.4993 28.5493C14.4736 22.505 19.2427 17.5776 25.2851 17.4185C28.0488 17.3458 30.5916 18.2842 32.5695 19.8914L37.6174 13.6217Z"
            fill="white" />
        <path
            d="M37.6174 13.6217C34.2328 10.8802 29.8933 9.27022 25.1757 9.36958C14.6907 9.58854 6.29587 18.3053 6.45134 28.7912C6.53414 34.3746 9.0098 39.3784 12.8967 42.8237C10.1607 40.0628 8.46886 36.2495 8.46886 32.0378C8.46886 23.6108 15.2417 16.78 23.5961 16.78C25.9862 16.78 27.3827 17.021 29.9218 18.2952L29.92 18.297C30.8795 18.7055 31.7701 19.2428 32.5686 19.8905L33.8005 20.8362C34.426 21.3164 35.3212 21.2097 35.8161 20.5952L39.002 16.6392C39.4979 16.0229 39.4096 15.1231 38.8033 14.6144L37.6174 13.6208V13.6217Z"
            fill="#0063C5" />
        <path
            d="M13.5664 31.7105C13.5664 28.4216 14.4735 25.4188 16.043 22.8769C16.2527 22.5236 16.48 22.1832 16.7265 21.8567C16.7302 21.8521 16.733 21.8475 16.7367 21.8419C18.7247 19.2099 21.8545 17.4803 25.3743 17.415C26.9907 17.3846 28.528 17.703 29.9209 18.2963L29.9227 18.2945C27.3836 17.0194 25.987 16.7793 23.5969 16.7793C15.2426 16.7793 8.46973 23.6101 8.46973 32.0371C8.46973 36.2488 10.1616 40.0621 12.8976 42.823C16.2748 45.8166 20.7174 47.6354 25.5859 47.6354C25.6641 47.6354 25.8472 47.6372 25.8573 47.6335C18.8609 46.2094 13.5664 39.6214 13.5664 31.7105Z"
            fill="#4091E3" />

    </g>
    <defs>
        <clipPath id="clip0_1724_50905">
            <rect width="95.1166" height="56" fill="white" transform="translate(0.441895 0.5)" />
        </clipPath>
    </defs>
</svg>
    