<svg width="19" height="18" viewBox="0 0 19 18" fill="none" xmlns="http://www.w3.org/2000/svg">
<rect width="19" height="18" fill="#F5F5F5"/>
<g clip-path="url(#clip0_2576_390685)">
<rect width="375" height="1054" transform="translate(-96 -385)" fill="white"/>
<rect width="375" height="730" transform="translate(-96 -135)" fill="white"/>
<rect x="-70" y="-134.5" width="323" height="804" rx="7.5" fill="white"/>
<rect x="0.5" width="18" height="18" rx="9" fill="#F0F5FE"/>
<mask id="path-3-outside-1_2576_390685" maskUnits="userSpaceOnUse" x="3.5" y="3" width="12" height="12" fill="black">
<rect fill="white" x="3.5" y="3" width="12" height="12"/>
<path fill-rule="evenodd" clip-rule="evenodd" d="M9.17135 4.04967C8.80898 4.17245 5.75431 5.29087 5.68387 5.32655C5.44271 5.44871 5.28979 5.75798 5.33852 6.02499C5.34943 6.08475 5.38913 6.21617 5.42671 6.31702C5.46431 6.41787 5.49507 6.507 5.49507 6.51507C5.49507 6.52313 5.43659 6.54076 5.36507 6.55424C5.10488 6.60329 4.81793 6.79813 4.67254 7.02451C4.63772 7.0787 4.58637 7.18176 4.5584 7.25351L4.50756 7.384L4.50228 10.2061C4.49712 12.9689 4.49782 13.0315 4.53596 13.1822C4.58711 13.3843 4.67159 13.5292 4.82883 13.6846C4.97687 13.8309 5.15242 13.926 5.35258 13.9684C5.55151 14.0105 12.8694 14.0105 13.0683 13.9684C13.3556 13.9076 13.6398 13.7004 13.783 13.4473C13.9087 13.2253 13.9231 13.1136 13.9231 12.3627V11.6919L13.9671 11.6917C14.0445 11.6913 14.2122 11.5995 14.3053 11.5064C14.3549 11.4568 14.4191 11.3662 14.4478 11.3049L14.5 11.1937V10.2461V9.2986L14.4491 9.19025C14.3587 8.99758 14.211 8.86832 14.0153 8.81067L13.9329 8.78639L13.9225 8.08519C13.9122 7.39119 13.9116 7.38265 13.8619 7.25351C13.7187 6.88155 13.4024 6.61455 13.0291 6.55058L12.8893 6.52663L12.8831 6.08543L12.877 5.64422L12.8127 5.51389C12.7416 5.36972 12.6275 5.25618 12.4803 5.18307L12.3881 5.13728L11.3522 5.12751L10.3163 5.11774L10.1867 4.7609C10.0325 4.33609 10.0084 4.28823 9.8983 4.18633C9.78099 4.0778 9.63186 4.01376 9.47034 4.00256C9.35974 3.99488 9.3098 4.00276 9.17135 4.04967ZM9.47858 4.59611C9.50613 4.61361 9.53839 4.68748 9.62862 4.9397L9.69395 5.12233L9.53258 5.13239C9.39952 5.14069 9.3502 5.15365 9.25137 5.20628C9.10782 5.28271 9.00905 5.38692 8.93934 5.53543C8.88914 5.64242 8.88765 5.65664 8.88159 6.08969L8.87539 6.53415L7.50299 6.53405L6.1306 6.53394L6.01812 6.22768C5.91808 5.95526 5.9086 5.91697 5.9323 5.88102C5.95193 5.85123 6.41062 5.67563 7.67759 5.21292C8.62284 4.86771 9.40943 4.58431 9.42556 4.58316C9.44169 4.58202 9.46555 4.58784 9.47858 4.59611ZM12.2694 5.7443C12.2952 5.77011 12.3001 5.83556 12.3001 6.15457V6.53415H10.8824H9.46467V6.15457C9.46467 5.83556 9.46958 5.77011 9.49539 5.7443C9.52275 5.71699 9.67549 5.71361 10.8824 5.71361C12.0893 5.71361 12.242 5.71699 12.2694 5.7443ZM13.009 7.14813C13.1172 7.1867 13.2113 7.26594 13.2725 7.37001L13.3267 7.46215L13.3326 8.12014L13.3384 8.77816L12.6579 8.78467L11.9774 8.79117L11.821 8.84586C11.325 9.01926 10.9746 9.38704 10.8406 9.87493C10.797 10.0337 10.792 10.422 10.8315 10.5769C10.9397 11.0003 11.2273 11.3613 11.6033 11.5455C11.9075 11.6945 11.931 11.6981 12.6765 11.7066L13.3365 11.7142V12.354C13.3365 13.0743 13.3299 13.1183 13.2021 13.2499C13.1621 13.291 13.0947 13.3419 13.0521 13.363C12.976 13.4007 12.9112 13.4013 9.21046 13.4013C5.5097 13.4013 5.44488 13.4007 5.36881 13.363C5.32626 13.3419 5.2586 13.2908 5.21845 13.2495C5.07457 13.1014 5.08331 13.3055 5.08904 10.2256L5.0942 7.46215L5.14841 7.37001C5.20965 7.26594 5.30377 7.1867 5.41193 7.14813C5.52085 7.10929 12.9001 7.10929 13.009 7.14813ZM13.8924 9.39767C13.9194 9.42461 13.9231 9.52831 13.9231 10.2411C13.9231 10.9699 13.9198 11.0575 13.8908 11.0896C13.8604 11.1231 13.8073 11.1253 13.0149 11.1253C12.1019 11.1253 12.0537 11.1208 11.8468 11.016C11.6392 10.911 11.4537 10.6641 11.403 10.4259C11.3254 10.0607 11.4911 9.6833 11.814 9.48981C12.008 9.37356 12.0459 9.36968 12.9978 9.36827C13.7582 9.36714 13.8654 9.37065 13.8924 9.39767ZM12.1284 9.98557C11.9173 10.0895 11.9206 10.397 12.1339 10.5001C12.1783 10.5216 12.2355 10.5392 12.261 10.5392C12.3482 10.5392 12.4666 10.4651 12.5139 10.381C12.6527 10.1343 12.3846 9.85938 12.1284 9.98557Z"/>
</mask>
<path fill-rule="evenodd" clip-rule="evenodd" d="M9.17135 4.04967C8.80898 4.17245 5.75431 5.29087 5.68387 5.32655C5.44271 5.44871 5.28979 5.75798 5.33852 6.02499C5.34943 6.08475 5.38913 6.21617 5.42671 6.31702C5.46431 6.41787 5.49507 6.507 5.49507 6.51507C5.49507 6.52313 5.43659 6.54076 5.36507 6.55424C5.10488 6.60329 4.81793 6.79813 4.67254 7.02451C4.63772 7.0787 4.58637 7.18176 4.5584 7.25351L4.50756 7.384L4.50228 10.2061C4.49712 12.9689 4.49782 13.0315 4.53596 13.1822C4.58711 13.3843 4.67159 13.5292 4.82883 13.6846C4.97687 13.8309 5.15242 13.926 5.35258 13.9684C5.55151 14.0105 12.8694 14.0105 13.0683 13.9684C13.3556 13.9076 13.6398 13.7004 13.783 13.4473C13.9087 13.2253 13.9231 13.1136 13.9231 12.3627V11.6919L13.9671 11.6917C14.0445 11.6913 14.2122 11.5995 14.3053 11.5064C14.3549 11.4568 14.4191 11.3662 14.4478 11.3049L14.5 11.1937V10.2461V9.2986L14.4491 9.19025C14.3587 8.99758 14.211 8.86832 14.0153 8.81067L13.9329 8.78639L13.9225 8.08519C13.9122 7.39119 13.9116 7.38265 13.8619 7.25351C13.7187 6.88155 13.4024 6.61455 13.0291 6.55058L12.8893 6.52663L12.8831 6.08543L12.877 5.64422L12.8127 5.51389C12.7416 5.36972 12.6275 5.25618 12.4803 5.18307L12.3881 5.13728L11.3522 5.12751L10.3163 5.11774L10.1867 4.7609C10.0325 4.33609 10.0084 4.28823 9.8983 4.18633C9.78099 4.0778 9.63186 4.01376 9.47034 4.00256C9.35974 3.99488 9.3098 4.00276 9.17135 4.04967ZM9.47858 4.59611C9.50613 4.61361 9.53839 4.68748 9.62862 4.9397L9.69395 5.12233L9.53258 5.13239C9.39952 5.14069 9.3502 5.15365 9.25137 5.20628C9.10782 5.28271 9.00905 5.38692 8.93934 5.53543C8.88914 5.64242 8.88765 5.65664 8.88159 6.08969L8.87539 6.53415L7.50299 6.53405L6.1306 6.53394L6.01812 6.22768C5.91808 5.95526 5.9086 5.91697 5.9323 5.88102C5.95193 5.85123 6.41062 5.67563 7.67759 5.21292C8.62284 4.86771 9.40943 4.58431 9.42556 4.58316C9.44169 4.58202 9.46555 4.58784 9.47858 4.59611ZM12.2694 5.7443C12.2952 5.77011 12.3001 5.83556 12.3001 6.15457V6.53415H10.8824H9.46467V6.15457C9.46467 5.83556 9.46958 5.77011 9.49539 5.7443C9.52275 5.71699 9.67549 5.71361 10.8824 5.71361C12.0893 5.71361 12.242 5.71699 12.2694 5.7443ZM13.009 7.14813C13.1172 7.1867 13.2113 7.26594 13.2725 7.37001L13.3267 7.46215L13.3326 8.12014L13.3384 8.77816L12.6579 8.78467L11.9774 8.79117L11.821 8.84586C11.325 9.01926 10.9746 9.38704 10.8406 9.87493C10.797 10.0337 10.792 10.422 10.8315 10.5769C10.9397 11.0003 11.2273 11.3613 11.6033 11.5455C11.9075 11.6945 11.931 11.6981 12.6765 11.7066L13.3365 11.7142V12.354C13.3365 13.0743 13.3299 13.1183 13.2021 13.2499C13.1621 13.291 13.0947 13.3419 13.0521 13.363C12.976 13.4007 12.9112 13.4013 9.21046 13.4013C5.5097 13.4013 5.44488 13.4007 5.36881 13.363C5.32626 13.3419 5.2586 13.2908 5.21845 13.2495C5.07457 13.1014 5.08331 13.3055 5.08904 10.2256L5.0942 7.46215L5.14841 7.37001C5.20965 7.26594 5.30377 7.1867 5.41193 7.14813C5.52085 7.10929 12.9001 7.10929 13.009 7.14813ZM13.8924 9.39767C13.9194 9.42461 13.9231 9.52831 13.9231 10.2411C13.9231 10.9699 13.9198 11.0575 13.8908 11.0896C13.8604 11.1231 13.8073 11.1253 13.0149 11.1253C12.1019 11.1253 12.0537 11.1208 11.8468 11.016C11.6392 10.911 11.4537 10.6641 11.403 10.4259C11.3254 10.0607 11.4911 9.6833 11.814 9.48981C12.008 9.37356 12.0459 9.36968 12.9978 9.36827C13.7582 9.36714 13.8654 9.37065 13.8924 9.39767ZM12.1284 9.98557C11.9173 10.0895 11.9206 10.397 12.1339 10.5001C12.1783 10.5216 12.2355 10.5392 12.261 10.5392C12.3482 10.5392 12.4666 10.4651 12.5139 10.381C12.6527 10.1343 12.3846 9.85938 12.1284 9.98557Z" fill="#2274E5"/>
<path fill-rule="evenodd" clip-rule="evenodd" d="M9.17135 4.04967C8.80898 4.17245 5.75431 5.29087 5.68387 5.32655C5.44271 5.44871 5.28979 5.75798 5.33852 6.02499C5.34943 6.08475 5.38913 6.21617 5.42671 6.31702C5.46431 6.41787 5.49507 6.507 5.49507 6.51507C5.49507 6.52313 5.43659 6.54076 5.36507 6.55424C5.10488 6.60329 4.81793 6.79813 4.67254 7.02451C4.63772 7.0787 4.58637 7.18176 4.5584 7.25351L4.50756 7.384L4.50228 10.2061C4.49712 12.9689 4.49782 13.0315 4.53596 13.1822C4.58711 13.3843 4.67159 13.5292 4.82883 13.6846C4.97687 13.8309 5.15242 13.926 5.35258 13.9684C5.55151 14.0105 12.8694 14.0105 13.0683 13.9684C13.3556 13.9076 13.6398 13.7004 13.783 13.4473C13.9087 13.2253 13.9231 13.1136 13.9231 12.3627V11.6919L13.9671 11.6917C14.0445 11.6913 14.2122 11.5995 14.3053 11.5064C14.3549 11.4568 14.4191 11.3662 14.4478 11.3049L14.5 11.1937V10.2461V9.2986L14.4491 9.19025C14.3587 8.99758 14.211 8.86832 14.0153 8.81067L13.9329 8.78639L13.9225 8.08519C13.9122 7.39119 13.9116 7.38265 13.8619 7.25351C13.7187 6.88155 13.4024 6.61455 13.0291 6.55058L12.8893 6.52663L12.8831 6.08543L12.877 5.64422L12.8127 5.51389C12.7416 5.36972 12.6275 5.25618 12.4803 5.18307L12.3881 5.13728L11.3522 5.12751L10.3163 5.11774L10.1867 4.7609C10.0325 4.33609 10.0084 4.28823 9.8983 4.18633C9.78099 4.0778 9.63186 4.01376 9.47034 4.00256C9.35974 3.99488 9.3098 4.00276 9.17135 4.04967ZM9.47858 4.59611C9.50613 4.61361 9.53839 4.68748 9.62862 4.9397L9.69395 5.12233L9.53258 5.13239C9.39952 5.14069 9.3502 5.15365 9.25137 5.20628C9.10782 5.28271 9.00905 5.38692 8.93934 5.53543C8.88914 5.64242 8.88765 5.65664 8.88159 6.08969L8.87539 6.53415L7.50299 6.53405L6.1306 6.53394L6.01812 6.22768C5.91808 5.95526 5.9086 5.91697 5.9323 5.88102C5.95193 5.85123 6.41062 5.67563 7.67759 5.21292C8.62284 4.86771 9.40943 4.58431 9.42556 4.58316C9.44169 4.58202 9.46555 4.58784 9.47858 4.59611ZM12.2694 5.7443C12.2952 5.77011 12.3001 5.83556 12.3001 6.15457V6.53415H10.8824H9.46467V6.15457C9.46467 5.83556 9.46958 5.77011 9.49539 5.7443C9.52275 5.71699 9.67549 5.71361 10.8824 5.71361C12.0893 5.71361 12.242 5.71699 12.2694 5.7443ZM13.009 7.14813C13.1172 7.1867 13.2113 7.26594 13.2725 7.37001L13.3267 7.46215L13.3326 8.12014L13.3384 8.77816L12.6579 8.78467L11.9774 8.79117L11.821 8.84586C11.325 9.01926 10.9746 9.38704 10.8406 9.87493C10.797 10.0337 10.792 10.422 10.8315 10.5769C10.9397 11.0003 11.2273 11.3613 11.6033 11.5455C11.9075 11.6945 11.931 11.6981 12.6765 11.7066L13.3365 11.7142V12.354C13.3365 13.0743 13.3299 13.1183 13.2021 13.2499C13.1621 13.291 13.0947 13.3419 13.0521 13.363C12.976 13.4007 12.9112 13.4013 9.21046 13.4013C5.5097 13.4013 5.44488 13.4007 5.36881 13.363C5.32626 13.3419 5.2586 13.2908 5.21845 13.2495C5.07457 13.1014 5.08331 13.3055 5.08904 10.2256L5.0942 7.46215L5.14841 7.37001C5.20965 7.26594 5.30377 7.1867 5.41193 7.14813C5.52085 7.10929 12.9001 7.10929 13.009 7.14813ZM13.8924 9.39767C13.9194 9.42461 13.9231 9.52831 13.9231 10.2411C13.9231 10.9699 13.9198 11.0575 13.8908 11.0896C13.8604 11.1231 13.8073 11.1253 13.0149 11.1253C12.1019 11.1253 12.0537 11.1208 11.8468 11.016C11.6392 10.911 11.4537 10.6641 11.403 10.4259C11.3254 10.0607 11.4911 9.6833 11.814 9.48981C12.008 9.37356 12.0459 9.36968 12.9978 9.36827C13.7582 9.36714 13.8654 9.37065 13.8924 9.39767ZM12.1284 9.98557C11.9173 10.0895 11.9206 10.397 12.1339 10.5001C12.1783 10.5216 12.2355 10.5392 12.261 10.5392C12.3482 10.5392 12.4666 10.4651 12.5139 10.381C12.6527 10.1343 12.3846 9.85938 12.1284 9.98557Z" stroke="#2274E5" stroke-width="0.4" mask="url(#path-3-outside-1_2576_390685)"/>
<rect x="-70" y="-134.5" width="323" height="804" rx="7.5" stroke="#E9E9E9"/>
</g>
<path d="M-362.842 1501.15C-360.552 1504.92 -355.632 1506.13 -351.854 1503.84C-348.075 1501.55 -346.868 1496.63 -349.158 1492.85C-351.448 1489.08 -356.368 1487.87 -360.146 1490.16C-363.925 1492.45 -365.132 1497.37 -362.842 1501.15ZM-236 1497L-236 1495.5L-236 1497ZM-216 1477L-214.5 1477L-216 1477ZM-216 1008L-214.5 1008L-214.5 1008L-216 1008ZM-196 988.001L-196 989.501L-196 989.501L-196 988.001ZM1826 988.001L1826 989.501L1826 988.001ZM1846 968.001L1844.5 968.001L1846 968.001ZM1847.06 95.94C1846.47 95.3542 1845.52 95.3542 1844.94 95.94L1835.39 105.486C1834.81 106.072 1834.81 107.021 1835.39 107.607C1835.98 108.193 1836.93 108.193 1837.51 107.607L1846 99.122L1854.48 107.607C1855.07 108.193 1856.02 108.193 1856.61 107.607C1857.19 107.022 1857.19 106.072 1856.61 105.486L1847.06 95.94ZM-356 1498.5L-236 1498.5L-236 1495.5L-356 1495.5L-356 1498.5ZM-214.5 1477L-214.5 1008L-217.5 1008L-217.5 1477L-214.5 1477ZM-196 989.501L1826 989.501L1826 986.501L-196 986.501L-196 989.501ZM1847.5 968.001L1847.5 97.0007L1844.5 97.0006L1844.5 968.001L1847.5 968.001ZM1826 989.501C1837.87 989.501 1847.5 979.875 1847.5 968.001L1844.5 968.001C1844.5 978.219 1836.22 986.501 1826 986.501L1826 989.501ZM-214.5 1008C-214.5 997.784 -206.217 989.501 -196 989.501L-196 986.501C-207.874 986.501 -217.5 996.127 -217.5 1008L-214.5 1008ZM-236 1498.5C-224.126 1498.5 -214.5 1488.87 -214.5 1477L-217.5 1477C-217.5 1487.22 -225.783 1495.5 -236 1495.5L-236 1498.5Z" fill="#F8A629"/>
<defs>
<clipPath id="clip0_2576_390685">
<rect width="375" height="1176" fill="white" transform="translate(-96 -385)"/>
</clipPath>
</defs>
</svg>
