<svg width="43" height="30" viewBox="0 0 43 30" fill="none" xmlns="http://www.w3.org/2000/svg">
    <path fill-rule="evenodd" clip-rule="evenodd"
        d="M11.2179 24.3399C10.3499 24.3399 9.76647 25.0383 9.76647 26.0763C9.76647 27.1091 10.3499 27.8027 11.2179 27.8027C12.0729 27.8027 12.6696 27.093 12.6696 26.0763C12.6696 25.0539 12.0729 24.3399 11.2179 24.3399ZM11.2179 28.7388C9.79749 28.7388 8.76692 27.6197 8.76692 26.0777C8.76692 24.5306 9.79749 23.4078 11.2179 23.4078C12.6332 23.4078 13.6599 24.5306 13.6599 26.0777C13.6599 27.6197 12.6332 28.7388 11.2179 28.7388Z"
        fill="white" />
    <path fill-rule="evenodd" clip-rule="evenodd"
        d="M16.8997 24.3406C16.0313 24.3406 15.4481 25.039 15.4481 26.077C15.4481 27.1101 16.0313 27.8038 16.8997 27.8038C17.754 27.8038 18.351 27.0938 18.351 26.077C18.351 25.0547 17.754 24.3406 16.8997 24.3406ZM16.8997 28.7389C15.3875 28.7389 14.4484 27.7191 14.4484 26.0784V21.6191H15.4494L15.445 23.8576L15.6119 23.7593C15.9997 23.5298 16.445 23.4086 16.8997 23.4086C18.3143 23.4086 19.342 24.5313 19.342 26.0784C19.342 27.6198 18.3143 28.7389 16.8997 28.7389Z"
        fill="white" />
    <path fill-rule="evenodd" clip-rule="evenodd"
        d="M22.4088 24.3399C21.9621 24.3409 21.5797 24.5403 21.3324 24.9009C21.2428 25.0303 21.1674 25.1963 21.1156 25.3806L21.0748 25.525H23.7512L23.7113 25.3809C23.5352 24.7469 23.0422 24.3482 22.4242 24.3406L22.412 24.3399H22.4088ZM22.5598 28.7388C21.1075 28.7388 20.0533 27.6197 20.0533 26.0777C20.0533 24.5306 21.0456 23.4078 22.412 23.4078C22.4531 23.4078 22.4931 23.4088 22.5323 23.4108C23.851 23.4759 24.7715 24.5726 24.7715 26.0777C24.7715 26.1597 24.757 26.3377 24.7473 26.452H21.0661L21.0984 26.5907C21.2748 27.35 21.8523 27.8218 22.6064 27.8218C23.1388 27.8218 23.5538 27.5017 23.7446 27.3227L24.3858 27.9751C24.1825 28.1804 23.5413 28.7388 22.5598 28.7388Z"
        fill="white" />
    <path fill-rule="evenodd" clip-rule="evenodd"
        d="M3.38678 28.7429C1.39249 28.7429 0 27.2797 0 25.1841C0 23.0893 1.36281 21.6262 3.31339 21.6262C4.67771 21.6262 5.52771 22.4317 5.76119 22.6849L5.05098 23.3751C4.88989 23.2005 4.2881 22.6301 3.31339 22.6301C1.89471 22.6301 0.985299 23.6326 0.985299 25.1841C0.985299 26.7225 1.98829 27.7967 3.41471 27.7967C3.88091 27.7967 4.33215 27.7147 4.78305 27.5387L4.78241 25.8426H3.60611V24.9154H5.7687V28.1577C5.53778 28.2822 4.60008 28.7429 3.38678 28.7429Z"
        fill="white" />
    <path fill-rule="evenodd" clip-rule="evenodd"
        d="M6.9261 28.6499H7.92257V21.6295H6.9261V28.6499Z" fill="white" />
    <path fill-rule="evenodd" clip-rule="evenodd"
        d="M28.8054 28.7392C26.8799 28.7392 25.4829 27.2469 25.4829 25.1904C25.4829 23.1272 26.8799 21.6299 28.8054 21.6299C30.724 21.6299 32.1157 23.1272 32.1157 25.1904C32.1157 27.2469 30.724 28.7392 28.8054 28.7392ZM26.5102 25.1895C26.5102 23.6327 27.4328 22.5853 28.8056 22.5853C30.1576 22.5853 31.1013 23.6562 31.1013 25.1895C31.1013 26.7143 30.1576 27.7786 28.8056 27.7786C27.4328 27.7786 26.5102 26.7383 26.5102 25.1895Z"
        fill="white" />
    <path fill-rule="evenodd" clip-rule="evenodd"
        d="M38.2821 26.0781C38.2821 27.6201 39.3363 28.7392 40.7886 28.7392C41.7701 28.7392 42.4113 28.1808 42.6146 27.9755L41.9733 27.3231C41.7826 27.5021 41.3675 27.8222 40.8352 27.8222C40.0811 27.8222 39.5035 27.3504 39.3272 26.5911L39.2949 26.4524H42.976C42.9858 26.3381 43.0003 26.1601 43.0003 26.0781C43.0003 24.573 42.0797 23.4763 40.7611 23.4112C40.7219 23.4092 40.6819 23.4082 40.6408 23.4082C39.2744 23.4082 38.2821 24.531 38.2821 26.0781ZM39.5612 24.9014C39.8084 24.5407 40.1908 24.3413 40.6375 24.3403H40.6408L40.653 24.341C41.2709 24.3486 41.764 24.7473 41.9401 25.3813L41.98 25.5254H39.3036L39.3444 25.381C39.3962 25.1967 39.4715 25.0307 39.5612 24.9014Z"
        fill="white" />
    <path
        d="M35.0986 24.2902C35.9493 24.2902 36.5438 25.0014 36.5438 26.0195V28.6673H37.5307V26.0208C37.5307 24.4801 36.5073 23.362 35.0986 23.362C33.6898 23.362 32.6664 24.4801 32.6664 26.0208V28.6673H33.6533V26.0195C33.6533 25.0014 34.2479 24.2902 35.0986 24.2902Z"
        fill="white" />
    <g clip-path="url(#clip0_427_434981)">
        <path fill-rule="evenodd" clip-rule="evenodd"
            d="M21.427 12.3423C22.8825 12.3423 24.0624 11.1293 24.0624 9.633C24.0624 8.13668 22.8825 6.92367 21.427 6.92367C19.9714 6.92367 18.7915 8.13668 18.7915 9.633C18.7915 11.1293 19.9714 12.3423 21.427 12.3423ZM21.427 14.4496C24.0145 14.4496 26.1122 12.2931 26.1122 9.633C26.1122 6.97287 24.0145 4.81641 21.427 4.81641C18.8394 4.81641 16.7417 6.97287 16.7417 9.633C16.7417 12.2931 18.8394 14.4496 21.427 14.4496Z"
            fill="white" />
        <path
            d="M22.5951 1.20415C22.5951 1.86918 22.0707 2.4083 21.4238 2.4083C20.7769 2.4083 20.2524 1.86918 20.2524 1.20415C20.2524 0.539116 20.7769 0 21.4238 0C22.0707 0 22.5951 0.539116 22.5951 1.20415Z"
            fill="white" />
        <path
            d="M30.7971 9.63851C30.7971 10.3035 30.2727 10.8427 29.6258 10.8427C28.9789 10.8427 28.4544 10.3035 28.4544 9.63851C28.4544 8.97348 28.9789 8.43436 29.6258 8.43436C30.2727 8.43436 30.7971 8.97348 30.7971 9.63851Z"
            fill="white" />
        <path fill-rule="evenodd" clip-rule="evenodd"
            d="M24.0884 2.78234C25.9138 3.5324 27.3694 5.03115 28.096 6.90934L30.0008 6.12915C29.0661 3.71468 27.1944 1.78814 24.8473 0.824219L24.0884 2.78234Z"
            fill="white" />
        <path fill-rule="evenodd" clip-rule="evenodd"
            d="M12.2026 9.63361C12.2026 5.64068 14.6032 2.22415 18.0017 0.826172L18.7606 2.78429C16.1185 3.87218 14.2524 6.52886 14.2524 9.63361C14.2524 13.7069 17.4645 17.009 21.4267 17.009C24.4483 17.009 27.0335 15.0888 28.0908 12.3706L29.9955 13.1508C28.6366 16.6465 25.3122 19.1163 21.4267 19.1163C16.3324 19.1163 12.2026 14.8707 12.2026 9.63361Z"
            fill="white" />
    </g>
    <defs>
        <clipPath id="clip0_427_434981">
            <rect width="18.5946" height="19.1159" fill="white" transform="translate(12.2026)" />
        </clipPath>
    </defs>
</svg>
    