<svg width="86" height="32" viewBox="0 0 86 32" fill="none" xmlns="http://www.w3.org/2000/svg">
<path fill-rule="evenodd" clip-rule="evenodd" d="M59.2242 14.4129C57.543 14.4129 56.4222 15.7441 56.4222 17.6897C56.4222 19.6353 57.543 20.9409 59.2242 20.9409C60.8799 20.9409 62.0262 19.6097 62.0262 17.6897C62.0007 15.7441 60.8544 14.4129 59.2242 14.4129ZM59.2242 22.7073C56.4986 22.7073 54.5117 20.5825 54.5117 17.6897C54.5117 14.7713 56.4986 12.6465 59.2242 12.6465C61.9497 12.6465 63.9366 14.7713 63.9366 17.6897C63.9111 20.6081 61.9497 22.7073 59.2242 22.7073Z" fill="white"/>
<path fill-rule="evenodd" clip-rule="evenodd" d="M50.9453 22.5538H52.8558V9.29297H50.9453V22.5538Z" fill="white"/>
<path fill-rule="evenodd" clip-rule="evenodd" d="M70.1519 14.4132C68.4707 14.4132 67.3499 15.7444 67.3499 17.69C67.3499 19.6356 68.4707 20.9412 70.1519 20.9412C71.8076 20.9412 72.9539 19.61 72.9539 17.69C72.9539 15.7444 71.8076 14.4132 70.1519 14.4132ZM70.1519 22.7076C67.248 22.7076 65.4395 20.7876 65.4395 17.69V9.26758H67.3754V13.4916L67.7065 13.3124C68.4452 12.8772 69.3113 12.6468 70.1774 12.6468C72.9029 12.6468 74.8898 14.7716 74.8898 17.69C74.8643 20.6084 72.8775 22.7076 70.1519 22.7076Z" fill="white"/>
<path fill-rule="evenodd" clip-rule="evenodd" d="M80.7734 14.4129C79.9073 14.4129 79.1686 14.7969 78.7101 15.4625C78.5318 15.7185 78.4044 16.0257 78.3025 16.3585L78.2007 16.6401H83.3461L83.2952 16.3841C82.964 15.1809 81.9961 14.4385 80.8243 14.4129H80.7734ZM81.0791 22.7073C78.2771 22.7073 76.2393 20.5825 76.2393 17.6897C76.2393 14.7713 78.1497 12.6465 80.7734 12.6465C80.8498 12.6465 80.9262 12.6465 81.0026 12.6465C83.5499 12.7745 85.333 14.8481 85.333 17.6897C85.333 17.8433 85.3075 18.1761 85.282 18.4065H78.2007L78.2516 18.6625C78.5827 20.0961 79.7035 20.9921 81.1555 20.9921C82.1744 20.9921 82.9895 20.3777 83.3461 20.0449L84.5943 21.2737C84.1867 21.6577 82.964 22.7073 81.0791 22.7073Z" fill="white"/>
<path fill-rule="evenodd" clip-rule="evenodd" d="M44.1186 22.7332C40.2723 22.7332 37.5977 19.9684 37.5977 16.0004C37.5977 12.0324 40.2213 9.26758 43.9913 9.26758C46.615 9.26758 48.2707 10.778 48.7037 11.2644L47.3282 12.57C47.0225 12.2372 45.8508 11.162 43.9913 11.162C41.2657 11.162 39.5081 13.0564 39.5081 16.0004C39.5081 18.9188 41.444 20.9412 44.1951 20.9412C45.0866 20.9412 45.9527 20.7876 46.8442 20.4548V17.2548H44.5772V15.514H48.7547V21.6324C48.2707 21.8628 46.4621 22.7332 44.1186 22.7332Z" fill="white"/>
<path fill-rule="evenodd" clip-rule="evenodd" d="M27.8671 9.1392C28.351 8.7296 27.8671 7.6288 26.9755 6.5792C26.0585 5.5296 25.0651 4.8896 24.5811 5.3248C24.0971 5.7344 24.5302 6.8608 25.4472 7.9104C26.3387 8.96 27.3831 9.5488 27.8671 9.1392ZM15.8695 30.208C15.0034 30.208 14.2901 29.5936 14.2901 29.0816C14.2901 28.4416 15.0289 27.8272 15.8695 27.8272C16.7355 27.8272 17.4997 28.3904 17.4997 29.0304C17.4997 29.696 16.7355 30.208 15.8695 30.208ZM15.8695 27.1104C14.4685 27.1104 13.3477 28.0832 13.3477 29.1072C13.3477 29.952 14.4939 30.6944 15.8695 30.6944C17.2704 30.6944 18.3912 30.0032 18.3912 29.056C18.4167 28.032 17.2704 27.1104 15.8695 27.1104ZM15.8949 0C7.10687 0 0 7.168 0 16C0 24.832 7.10687 32 15.8949 32C24.683 32 31.7899 24.832 31.7899 16C31.7899 7.168 24.683 0 15.8949 0ZM3.28597 22.4768C3.2605 22.4768 3.20955 22.4768 3.18408 22.4768C3.23503 22.784 3.28597 23.0912 3.36239 23.3984C3.97373 23.5008 4.68697 24.0128 5.24736 24.8064C5.78229 25.5488 6.06249 26.368 6.03702 26.9568C6.31721 27.0592 6.59741 27.1872 6.90308 27.264C7.05592 26.3936 6.75025 25.2928 5.98607 24.2432C5.22189 23.2448 4.20299 22.5536 3.28597 22.4768ZM6.36816 7.8592C5.45114 8.9088 4.43224 9.5232 3.94826 9.088C3.46428 8.6784 3.94826 7.5776 4.8398 6.528C5.75682 5.4784 6.75025 4.8384 7.23423 5.2736C7.71821 5.7088 7.28517 6.8096 6.36816 7.8592ZM7.76915 7.296C8.43144 6.144 8.58428 5.0432 8.04935 4.5824C7.36159 3.968 5.75682 4.7104 4.45771 6.1952C3.15861 7.7056 2.7001 9.3952 3.38786 10.0096C4.07562 10.624 5.6804 9.8816 6.9795 8.3968C7.03045 8.3456 7.08139 8.2944 7.10687 8.2176C8.73711 8.8576 9.47582 9.2928 9.78149 9.4464L10.3928 8.4992C9.98527 8.32 8.99184 7.7568 7.76915 7.296ZM3.31144 20.8128C3.20955 20.8128 3.10766 20.8128 3.00577 20.8128C3.03124 21.12 3.03124 21.4016 3.08219 21.7088C3.13313 21.7088 3.18408 21.7088 3.23502 21.7088C4.40677 21.8112 5.62945 22.5792 6.57194 23.8592C7.46348 25.088 7.8201 26.4192 7.64179 27.5456C7.92199 27.6224 8.20219 27.6992 8.50786 27.776C8.76259 26.4192 8.35503 24.8064 7.28517 23.3472C6.21532 21.8368 4.76338 20.9152 3.31144 20.8128ZM3.84637 24.3968C3.66806 24.5248 3.79542 25.0624 4.17751 25.6C4.53413 26.1376 4.99264 26.4448 5.19642 26.3168C5.37473 26.1888 5.24736 25.6512 4.86527 25.1136C4.48318 24.576 4.02468 24.2432 3.84637 24.3968ZM28.4275 10.0352C29.1152 9.4208 28.6567 7.7312 27.3576 6.2208C26.0585 4.7104 24.4537 3.9936 23.766 4.608C23.0782 5.2224 23.5367 6.912 24.8358 8.4224C26.1349 9.9072 27.7397 10.6496 28.4275 10.0352ZM21.1678 2.2016L21.1168 1.8176C19.4866 1.2032 17.729 0.8704 15.8949 0.8704C14.0864 0.8704 12.3288 1.2032 10.724 1.792L10.6985 2.176C12.8127 2.176 14.2137 2.432 15.9459 3.1232C17.3214 2.4832 18.8752 2.2272 21.1678 2.2016ZM6.49552 20.736C5.90965 17.5616 5.80776 15.3856 6.31721 12.16C4.43224 12.1856 2.92935 12.2112 1.27363 12.3904C0.993433 13.568 0.815124 14.7968 0.815124 16.0512C0.815124 16.9728 0.891542 17.8688 1.06985 18.7392C2.26706 18.816 3.31144 18.816 4.66149 18.8416C5.17095 19.4304 5.73134 20.0448 6.49552 20.736ZM21.4734 5.3504L21.2187 2.8928C18.9262 2.9184 17.3723 3.1488 16.0478 3.7632L15.9459 3.8144L15.844 3.7632C14.0864 3.0464 12.7363 2.8416 10.6221 2.8416L10.3928 5.3248C14.5703 4.2752 17.1686 4.3008 21.4734 5.3504ZM24.1226 9.3952C24.4283 9.1136 24.3773 8.576 23.9952 8.1664C23.6386 7.7568 23.0782 7.68 22.798 7.9616C22.4923 8.2432 22.5433 8.7808 22.9254 9.1904C23.282 9.6 23.8424 9.6768 24.1226 9.3952ZM21.7027 9.1904C21.5244 9.3696 21.5244 9.6768 21.7282 9.8816C21.9319 10.0864 22.2376 10.1376 22.4159 9.9584C22.5942 9.7792 22.5942 9.472 22.3904 9.2672C22.1867 9.0624 21.9065 9.0112 21.7027 9.1904ZM18.4677 25.0624C16.6082 25.2416 15.4874 25.2416 13.3986 25.0624L12.7108 26.1888C12.074 26.0864 11.4372 25.9584 10.724 25.7792C10.8004 27.3664 10.8768 28.7488 11.0551 30.3872C12.5835 30.8992 14.1883 31.1808 15.8949 31.1808C17.5761 31.1808 19.2064 30.8992 20.7347 30.3872C20.913 28.9536 21.0404 27.4432 21.0659 25.728C20.4036 25.9072 19.7922 26.0608 19.1809 26.1632L18.4677 25.0624ZM20.2507 14.0032C19.7668 14.6944 19.3083 14.8736 19.1554 14.8224C18.8243 14.6944 13.3222 9.2928 13.0929 9.2928C12.8637 9.2928 12.6599 9.7792 12.6599 10.4192C12.6599 11.0592 14.4685 12.9024 15.0289 13.6192C15.5893 14.336 15.4619 14.8736 15.4619 14.8736C15.4619 14.8736 11.157 11.008 10.8768 11.008C10.5966 11.008 10.4947 11.8528 10.6476 12.3648C10.8004 12.8256 13.9335 15.6672 14.0864 15.8464C14.4939 16.3584 14.2647 16.7168 14.2647 16.7168C14.2647 16.7168 10.5202 13.0304 10.2655 13.0304C10.0107 13.0304 9.85791 13.3888 9.90886 14.0544C9.9598 14.848 12.0231 16.5632 12.5835 17.2032C13.1439 17.8176 13.2458 18.0224 13.1184 18.5344C13.1184 18.5344 10.9023 16.1536 10.673 16.1536C10.4438 16.1536 10.1381 16.9472 10.7749 17.8432C10.9532 18.1248 11.2589 18.56 11.9467 19.4816C13.042 20.992 14.392 22.784 17.245 22.7072C20.6074 22.6304 21.7027 19.84 22.0338 16.3072C22.1612 14.7968 22.3904 13.312 22.5178 12.16C21.0913 11.7504 20.8621 13.1328 20.2507 14.0032ZM28.2746 18.2528C28.3765 16.512 28.351 15.5392 28.2746 13.7472C29.1407 14.5408 29.5992 15.104 30.2615 16.0256C29.6502 16.9216 29.0898 17.5104 28.2746 18.2528ZM28.4529 11.264C27.0774 11.264 25.9566 13.3888 25.9566 16.0256C25.9566 18.6624 27.0774 20.7872 28.4529 20.7872C29.8285 20.7872 30.9493 18.6624 30.9493 16.0256C30.9747 13.3888 29.8539 11.264 28.4529 11.264ZM25.2179 26.0096C25.2943 25.4464 25.3707 24.6784 25.3962 24.0896C25.4726 24.0384 25.6509 23.8848 25.8038 23.6544C26.9755 23.7824 26.9755 23.7824 27.5359 23.8592C27.5104 23.936 27.5104 23.9872 27.5104 24.064V24.0896C27.001 24.8064 26.3897 25.472 25.7528 26.0608C25.6509 26.0096 25.4981 25.9584 25.2179 26.0096ZM28.3765 22.6048C28.1473 22.7072 27.969 22.9376 27.8925 23.0656C26.8482 22.9376 26.7717 22.9376 26.1349 22.8608C26.1604 22.528 26.1349 21.76 25.2434 21.8368C23.9698 22.144 23.4603 23.7824 24.2245 24.2688C24.4028 24.3712 24.5811 24.3712 24.6575 24.3712C24.632 24.9344 24.6066 25.7024 24.5302 26.2656C23.1546 27.1104 22.6452 28.5952 23.4348 28.8256C24.199 29.056 26.084 27.6224 26.0076 26.3936C26.0076 26.3936 26.0076 26.3936 26.0076 26.368C26.6444 25.7792 27.2303 25.1136 27.7652 24.3968C28.1727 24.4224 28.6058 23.7824 28.7586 23.3472C28.9624 22.784 28.7841 22.4 28.3765 22.6048Z" fill="white"/>
</svg>
