<svg width="65" height="36" viewBox="0 0 65 36" fill="none" xmlns="http://www.w3.org/2000/svg">
<rect x="0.865234" y="0.5" width="64" height="35" rx="4" fill="#2274E5"/>
<path d="M13.8809 23.5V12.125H17.8652C19.2454 12.125 20.2923 12.3906 21.0059 12.9219C21.7194 13.4479 22.0762 14.2214 22.0762 15.2422C22.0762 15.7995 21.9329 16.2917 21.6465 16.7188C21.36 17.1406 20.9616 17.4505 20.4512 17.6484C21.0345 17.7943 21.4928 18.0885 21.8262 18.5312C22.1647 18.974 22.334 19.5156 22.334 20.1562C22.334 21.25 21.985 22.0781 21.2871 22.6406C20.5892 23.2031 19.5944 23.4896 18.3027 23.5H13.8809ZM16.2246 18.5469V21.6172H18.2324C18.7845 21.6172 19.2142 21.487 19.5215 21.2266C19.834 20.9609 19.9902 20.5964 19.9902 20.1328C19.9902 19.0911 19.4512 18.5625 18.373 18.5469H16.2246ZM16.2246 16.8906H17.959C19.1413 16.8698 19.7324 16.3984 19.7324 15.4766C19.7324 14.9609 19.5814 14.5911 19.2793 14.3672C18.9824 14.138 18.5111 14.0234 17.8652 14.0234H16.2246V16.8906ZM30.9434 18.5703H26.4434V21.6172H31.7246V23.5H24.0996V12.125H31.709V14.0234H26.4434V16.7344H30.9434V18.5703ZM41.8184 14.0234H38.334V23.5H35.9902V14.0234H32.5527V12.125H41.8184V14.0234ZM48.6465 21.1562H44.5371L43.7559 23.5H41.2637L45.498 12.125H47.6699L51.9277 23.5H49.4355L48.6465 21.1562ZM45.1699 19.2578H48.0137L46.584 15L45.1699 19.2578Z" fill="white"/>
</svg>
