<svg width="14" height="8" viewBox="0 0 14 8" fill="none" xmlns="http://www.w3.org/2000/svg">
<path d="M7.00195 7.49515C7.17057 7.49059 7.3278 7.45641 7.47363 7.39261C7.61947 7.32881 7.76074 7.22855 7.89746 7.09183L12.9492 1.91702C13.1543 1.71194 13.2568 1.46129 13.2568 1.16507C13.2568 0.959991 13.2067 0.775421 13.1064 0.611359C13.0107 0.442739 12.8809 0.310577 12.7168 0.214874C12.5527 0.114614 12.3704 0.0644836 12.1699 0.0644836C11.8691 0.0644836 11.6025 0.180695 11.3701 0.413116L6.72852 5.20511H7.28223L2.62695 0.413116C2.39453 0.180695 2.12565 0.0644836 1.82031 0.0644836C1.61979 0.0644836 1.4375 0.114614 1.27344 0.214874C1.10938 0.310577 0.977214 0.442739 0.876953 0.611359C0.78125 0.775421 0.733398 0.959991 0.733398 1.16507C0.733398 1.3109 0.758464 1.44762 0.808594 1.57523C0.863281 1.69827 0.940755 1.8122 1.04102 1.91702L6.09961 7.09183C6.37305 7.36071 6.67383 7.49515 7.00195 7.49515Z" fill="#1F3B59"/>
</svg>
