<svg width="18" height="18" viewBox="0 0 18 18" fill="none" xmlns="http://www.w3.org/2000/svg">
<rect width="18" height="18" rx="9" fill="#4B72AA"/>
<path d="M6.75634 6.17606H13.8491C13.9419 6.17606 14 6.11792 14 6.02517C14 5.9386 13.9419 5.88046 13.8491 5.88046H6.75634C6.66976 5.88046 6.60544 5.9386 6.60544 6.02517C6.60544 6.11792 6.66976 6.17606 6.75634 6.17606ZM6.75634 9.22795H13.8491C13.9419 9.22795 14 9.16364 14 9.07706C14 8.99049 13.9419 8.92617 13.8491 8.92617H6.75634C6.66976 8.92617 6.60544 8.99049 6.60544 9.07706C6.60544 9.16364 6.66976 9.22795 6.75634 9.22795ZM6.75634 12.2737H13.8491C13.9419 12.2737 14 12.2155 14 12.129C14 12.0362 13.9419 11.9781 13.8491 11.9781H6.75634C6.66976 11.9781 6.60544 12.0362 6.60544 12.129C6.60544 12.2155 6.66976 12.2737 6.75634 12.2737ZM4.39963 6.69969L4.79011 6.41027L5.17348 6.69969C5.25926 6.75179 5.32836 6.7054 5.29946 6.61777L5.14478 6.14709L5.53433 5.85766C5.60064 5.81269 5.57792 5.72366 5.49645 5.72366H5.01821L4.85735 5.21929C4.83509 5.16441 4.74466 5.15823 4.72859 5.21929L4.56772 5.72366H4.07664C3.99519 5.72366 3.97247 5.81269 4.03877 5.85766L4.42879 6.14709L4.28075 6.61777C4.24521 6.7054 4.3262 6.75131 4.39963 6.69969ZM4.39963 9.73876L4.79011 9.44935L5.17348 9.73876C5.25926 9.80322 5.32836 9.74448 5.29946 9.66302L5.14478 9.19234L5.53433 8.90291C5.60064 8.85176 5.57792 8.76891 5.49645 8.76891H5.01821L4.85735 8.26454C4.83509 8.20348 4.74466 8.19683 4.72859 8.26454L4.56772 8.76891H4.07664C3.99519 8.76891 3.97247 8.85176 4.03877 8.90291L4.42879 9.19234L4.28075 9.66302C4.25139 9.74448 4.3262 9.79656 4.39963 9.73876ZM4.39963 12.7973L4.79011 12.5079L5.17348 12.7973C5.25926 12.8618 5.32836 12.803 5.29946 12.7154L5.14478 12.2447L5.53433 11.9615C5.60064 11.9103 5.57792 11.8213 5.49645 11.8213H5.01821L4.85735 11.3231C4.83509 11.2615 4.74466 11.2554 4.72859 11.3231L4.56772 11.8213H4.07664C3.99519 11.8213 3.97247 11.9103 4.03877 11.9615L4.42879 12.2447L4.28075 12.7154C4.25139 12.803 4.3262 12.8551 4.39963 12.7973Z" stroke="#F5F9FC" stroke-width="0.5"/>
</svg>
