<svg width="18" height="18" viewBox="0 0 18 18" fill="none" xmlns="http://www.w3.org/2000/svg">
<rect width="18" height="18" rx="9" fill="#4B72AA"/>
<path d="M4.74441 13.5838H10.8653C11.3734 13.5838 11.6151 13.406 11.6151 13.0149C11.6151 11.8459 10.1501 10.2192 7.80485 10.2192C5.46535 10.2192 4 11.8459 4 13.0149C4 13.406 4.23671 13.5838 4.74441 13.5838ZM4.73158 13.325C4.37241 13.325 4.26249 13.2431 4.26249 13.0076C4.26249 11.9499 5.58706 10.4781 7.80485 10.4781C10.028 10.4781 11.3526 11.9499 11.3526 13.0076C11.3526 13.2431 11.2427 13.325 10.8781 13.325H4.73158ZM7.8156 9.51019C8.83798 9.51019 9.62626 8.63565 9.62626 7.5001C9.62626 6.42369 8.81192 5.53706 7.8156 5.53706C6.82009 5.53706 5.99958 6.43028 6.01032 7.50092C6.02107 8.63605 6.799 9.51019 7.8156 9.51019ZM7.8156 9.25175C6.94504 9.25175 6.27281 8.49446 6.27281 7.50092C6.26207 6.57187 6.95994 5.7959 7.8156 5.7959C8.66628 5.7959 9.36377 6.56568 9.36377 7.5001C9.36377 8.49364 8.68697 9.25175 7.8156 9.25175ZM11.4264 9.35104C11.4869 9.39675 11.558 9.38317 11.6054 9.32642C11.9521 8.88022 12.197 8.25162 12.197 7.50022C12.197 6.74305 11.9521 6.12022 11.6054 5.67402C11.558 5.61149 11.4869 5.59791 11.4264 5.64403C11.3635 5.69176 11.3503 5.7691 11.4046 5.8374C11.7656 6.33919 11.9369 6.83661 11.9369 7.50022C11.9369 8.15806 11.7652 8.65506 11.4046 9.15727C11.3507 9.22597 11.3635 9.30828 11.4264 9.35104ZM12.8538 10.5511C12.9209 10.5976 12.9912 10.5836 13.0389 10.5269C13.6222 9.7769 14 8.64743 14 7.50022C14 6.34723 13.6226 5.21695 13.0389 4.47318C12.9912 4.41106 12.9209 4.39707 12.8538 4.44359C12.7924 4.49012 12.7846 4.56126 12.8382 4.62956C13.4195 5.40824 13.7399 6.41312 13.7399 7.50022C13.7399 8.58155 13.4187 9.59138 12.8382 10.3651C12.7851 10.4334 12.7924 10.5099 12.8538 10.5511Z" stroke="#F5F9FC" stroke-width="0.5"/>
</svg>
