<svg width="18" height="18" viewBox="0 0 18 18" fill="none" xmlns="http://www.w3.org/2000/svg">
<rect width="18" height="18" rx="9" fill="#4B72AA"/>
<path fill-rule="evenodd" clip-rule="evenodd" d="M4.405 3.65527H4.875H13H13.47V4.12527V13.8753V14.3453H13L10.3751 14.3453H7.50006L4.875 14.3453H4.405V13.8753V4.12527V3.65527ZM7.50006 13.4053H10.3751C10.6678 13.4053 10.9051 13.168 10.9051 12.8753V11.219C10.9051 10.9263 10.6678 10.689 10.3751 10.689H7.50006C7.20735 10.689 6.97006 10.9263 6.97006 11.219V12.8753C6.97006 13.168 7.20735 13.4053 7.50006 13.4053ZM11.7466 13.4053C11.8102 13.2409 11.8451 13.0621 11.8451 12.8753V11.219C11.8451 10.4072 11.1869 9.74902 10.3751 9.74902H7.50006C6.6882 9.74902 6.03006 10.4072 6.03006 11.219V12.8753C6.03006 13.0621 6.06492 13.2409 6.1285 13.4053H5.345V4.59527H12.53V13.4053H11.7466ZM8.9375 6.22027C8.29961 6.22027 7.7825 6.73738 7.7825 7.37527C7.7825 8.01315 8.29961 8.53027 8.9375 8.53027C9.57539 8.53027 10.0925 8.01315 10.0925 7.37527C10.0925 6.73738 9.57539 6.22027 8.9375 6.22027ZM6.8425 7.37527C6.8425 6.21823 7.78046 5.28027 8.9375 5.28027C10.0945 5.28027 11.0325 6.21823 11.0325 7.37527C11.0325 8.5323 10.0945 9.47027 8.9375 9.47027C7.78046 9.47027 6.8425 8.5323 6.8425 7.37527Z" fill="#F5F9FC"/>
</svg>
