<svg width="18" height="18" viewBox="0 0 18 18" fill="none" xmlns="http://www.w3.org/2000/svg">
<rect width="18" height="18" rx="9" fill="#4B72AA"/>
<path fill-rule="evenodd" clip-rule="evenodd" d="M4.40503 3.6543H4.87503H13H13.47V4.1243V13.8743V14.3443H13H10.3751H7.50009H4.87503H4.40503V13.8743V4.1243V3.6543ZM7.50009 13.4043H10.3751C10.6678 13.4043 10.9051 13.167 10.9051 12.8743V11.218C10.9051 10.9253 10.6678 10.688 10.3751 10.688H7.50009C7.20738 10.688 6.97009 10.9253 6.97009 11.218V12.8743C6.97009 13.167 7.20738 13.4043 7.50009 13.4043ZM11.7466 13.4043C11.8102 13.2399 11.8451 13.0612 11.8451 12.8743V11.218C11.8451 10.4062 11.1869 9.74805 10.3751 9.74805H7.50009C6.68823 9.74805 6.03009 10.4062 6.03009 11.218V12.8743C6.03009 13.0612 6.06496 13.2399 6.12854 13.4043H5.34503V4.5943H12.53V13.4043H11.7466ZM8.93753 6.21929C8.29964 6.21929 7.78253 6.7364 7.78253 7.37429C7.78253 8.01218 8.29964 8.52929 8.93753 8.52929C9.57542 8.52929 10.0925 8.01218 10.0925 7.37429C10.0925 6.7364 9.57542 6.21929 8.93753 6.21929ZM6.84253 7.37429C6.84253 6.21725 7.78049 5.27929 8.93753 5.27929C10.0946 5.27929 11.0325 6.21725 11.0325 7.37429C11.0325 8.53133 10.0946 9.46929 8.93753 9.46929C7.78049 9.46929 6.84253 8.53133 6.84253 7.37429Z" fill="#F5F9FC"/>
</svg>
