<svg width="18" height="18" viewBox="0 0 18 18" fill="none" xmlns="http://www.w3.org/2000/svg">
<rect width="18" height="18" rx="9" fill="#4B72AA"/>
<path d="M8.63926 3.95496L8.63926 3.95495C8.70933 3.93121 8.76319 3.91514 8.81573 3.90686C8.86983 3.89834 8.91833 3.89871 8.97726 3.9028L8.63926 3.95496ZM8.63926 3.95496C8.4566 4.01685 7.60076 4.32774 6.78376 4.62687C6.37481 4.7766 5.97493 4.92363 5.67283 5.03547C5.5218 5.09139 5.39509 5.13855 5.30387 5.17288C5.25828 5.19004 5.22135 5.20406 5.1946 5.21441C5.17122 5.22345 5.1488 5.23222 5.13869 5.23734L5.13869 5.23734M8.63926 3.95496L5.13869 5.23734M5.13869 5.23734C4.8578 5.37962 4.68351 5.73262 4.74014 6.04294L4.74014 6.04295M5.13869 5.23734L4.74014 6.04295M4.74014 6.04295C4.75262 6.11128 4.79468 6.24911 4.83301 6.35194L4.83301 6.35196M4.74014 6.04295L4.83301 6.35196M4.83301 6.35196C4.84638 6.38781 4.85883 6.42204 4.86925 6.45144C4.86197 6.45297 4.85438 6.45449 4.84655 6.45597L4.84655 6.45597M4.83301 6.35196L4.84655 6.45597M4.84655 6.45597C4.55885 6.51021 4.2484 6.72136 4.08842 6.97044L4.84655 6.45597ZM3.96523 7.21721L3.96523 7.21721C3.99515 7.14043 4.04935 7.03124 4.0884 6.97047L3.96523 7.21721ZM3.96523 7.21721L3.91439 7.3477L3.9076 7.36512M3.96523 7.21721L3.9076 7.36512M3.9076 7.36512L3.90756 7.38381M3.9076 7.36512L3.90756 7.38381M3.90756 7.38381L3.90228 10.206M3.90756 7.38381L3.90228 10.206M13.3701 13.4965L13.3701 13.4965C13.2125 13.7749 12.9041 13.9996 12.5891 14.0662C12.5744 14.0693 12.5536 14.0709 12.5355 14.072C12.5145 14.0734 12.4873 14.0746 12.4547 14.0757C12.3892 14.0781 12.2996 14.0802 12.1896 14.0822C11.9696 14.0862 11.6662 14.0895 11.3075 14.0921C10.5901 14.0974 9.65021 14.1 8.71046 14.1C7.77071 14.1 6.83085 14.0974 6.11338 14.0921C5.75469 14.0895 5.45133 14.0862 5.23127 14.0822C5.12131 14.0802 5.03171 14.0781 4.96626 14.0757C4.9336 14.0746 4.90638 14.0734 4.88539 14.072C4.86729 14.0709 4.84654 14.0693 4.83187 14.0662C4.61262 14.0198 4.41996 13.9153 4.25853 13.7557L13.3701 13.4965ZM13.3701 13.4965C13.4378 13.3768 13.4781 13.2811 13.4994 13.1161C13.5197 12.9589 13.5231 12.7362 13.5231 12.3627V11.7847C13.5406 11.7807 13.5576 11.7754 13.5734 11.7697C13.6074 11.7575 13.6433 11.7407 13.6783 11.7215C13.7477 11.6835 13.8212 11.6319 13.876 11.5772C13.9335 11.5197 14.0045 11.4196 14.0383 11.3474L14.0905 11.2361L14.1 11.216M13.3701 13.4965L14.1 11.216M14.1 11.216V11.1937M14.1 11.216V11.1937M14.1 11.1937V10.2461V9.2986V9.2763M14.1 11.1937V9.2763M14.1 9.2763L14.0905 9.25611M14.1 9.2763L14.0905 9.25611M14.0905 9.25611L14.0397 9.14776L13.9544 9.1878M14.0905 9.25611L13.9544 9.1878M13.9544 9.1878L14.0397 9.14775C13.9376 8.93047 13.768 8.78088 13.5436 8.71475L13.5318 8.71128L13.5225 8.08371C13.5174 7.73861 13.5146 7.559 13.5067 7.45026C13.5027 7.39474 13.4971 7.35394 13.4881 7.31684C13.4792 7.27992 13.4675 7.24956 13.4552 7.21759C13.3002 6.81485 12.9562 6.52231 12.546 6.45202L12.4881 6.44211L12.4831 6.08403L12.477 5.64281L12.4766 5.62024M13.9544 9.1878L12.4766 5.62024M12.4766 5.62024L12.4666 5.59998M12.4766 5.62024L12.4666 5.59998M12.4666 5.59998L12.4024 5.46966C12.4024 5.46966 12.4024 5.46966 12.4024 5.46965C12.3214 5.30536 12.1912 5.17612 12.0248 5.09351L11.9803 5.18307L12.0248 5.0935L11.9326 5.04771L11.912 5.0375M12.4666 5.59998L11.912 5.0375M11.912 5.0375L11.889 5.03728L10.8531 5.02751L9.88659 5.0184M11.912 5.0375L9.88659 5.0184M9.88659 5.0184L9.78071 4.72677C9.78071 4.72677 9.7807 4.72677 9.7807 4.72677C9.70433 4.5164 9.65762 4.39188 9.61535 4.30766C9.5695 4.21632 9.52744 4.16957 9.46621 4.11292C9.33193 3.9887 9.16121 3.91555 8.97727 3.9028L9.88659 5.0184ZM12.7375 8.67912L12.7326 8.12103L12.727 7.48979L12.6863 7.42073C12.6379 7.33845 12.5651 7.27663 12.4835 7.24532C12.4805 7.24505 12.4765 7.24473 12.4713 7.24439C12.4557 7.24335 12.4331 7.24229 12.4034 7.24124C12.3443 7.23915 12.2601 7.23719 12.154 7.23537C11.9421 7.23174 11.6449 7.22871 11.2906 7.22628C10.5821 7.22143 9.64635 7.219 8.71046 7.219C7.77457 7.219 6.8388 7.22143 6.13029 7.22628C5.77598 7.22871 5.47878 7.23174 5.26688 7.23537C5.16086 7.23719 5.07667 7.23915 5.01753 7.24124C4.98786 7.24229 4.96524 7.24335 4.94961 7.24439C4.94442 7.24473 4.94041 7.24505 4.93743 7.24532C4.85583 7.27663 4.78301 7.33845 4.73459 7.42073L4.69415 7.48947L4.68904 10.2258C4.6887 10.4092 4.68835 10.581 4.68802 10.7418C4.68558 11.9329 4.68437 12.5247 4.69755 12.8327C4.70518 13.0109 4.71748 13.0793 4.72996 13.1115C4.73619 13.1276 4.73844 13.1297 4.75308 13.1434C4.76097 13.1508 4.77248 13.1616 4.79018 13.1798L12.7375 8.67912ZM12.7375 8.67912L12.157 8.68467L11.4765 8.69118L11.46 8.69134L11.4444 8.69677L11.288 8.75146L11.321 8.84586L11.288 8.75146C10.7624 8.93521 10.3872 9.32745 10.2441 9.84845L10.2441 9.84846C10.2188 9.94068 10.2067 10.088 10.2049 10.2261C10.2031 10.3639 10.2114 10.5107 10.2347 10.6016L12.7375 8.67912ZM12.018 10.3833L12.1011 10.43C12.0672 10.4903 12.012 10.541 11.9554 10.5764C11.8996 10.6113 11.8297 10.6392 11.761 10.6392C11.7323 10.6392 11.6995 10.6308 11.6752 10.6233L12.018 10.3833ZM12.018 10.3833L12.1011 10.43C12.2913 10.0918 11.9226 9.72922 11.5842 9.89586C11.2965 10.0375 11.3041 10.4517 11.5903 10.5901L12.018 10.3833ZM3.90228 10.206C3.8997 11.5869 3.89858 12.2942 3.90289 12.6748M3.90228 10.206L3.90289 12.6748M3.90289 12.6748C3.90718 13.0537 3.91664 13.1183 3.93901 13.2067L3.90289 12.6748ZM9.03446 4.97338L9.055 5.0308L8.70436 5.11802C8.54155 5.2047 8.42761 5.32506 8.34881 5.49294L8.34881 5.49296C8.3211 5.552 8.30344 5.59362 8.29445 5.67992C8.28646 5.75666 8.2846 5.87436 8.2816 6.08829L8.27678 6.43415L7.00299 6.43405L5.70041 6.43394L5.61199 6.19321C5.5615 6.05573 5.53646 5.98405 5.52606 5.94238C5.53864 5.93656 5.55456 5.92953 5.57425 5.92115C5.63806 5.89402 5.73543 5.85535 5.87294 5.80271C6.14764 5.69755 6.57839 5.53821 7.21189 5.30685C7.68443 5.13428 8.11724 4.97718 8.43389 4.8631C8.59224 4.80605 8.72141 4.7598 8.81192 4.72777C8.85722 4.71174 8.89259 4.69936 8.91702 4.69099L8.92388 4.68868C8.92778 4.69632 8.93259 4.70648 8.93845 4.71991C8.95968 4.76851 8.98923 4.84695 9.03446 4.97338ZM4.93092 7.24607C4.93088 7.24606 4.93136 7.24597 4.93247 7.24583L4.93092 7.24607ZM11.3919 10.9268L11.3919 10.9268C11.2129 10.8361 11.0455 10.6154 11.0008 10.4051C10.9322 10.0822 11.0787 9.74736 11.3654 9.57559C11.4136 9.54674 11.4453 9.52908 11.4814 9.51588C11.5168 9.50289 11.5608 9.49275 11.6319 9.48545C11.7783 9.47043 12.0191 9.46898 12.4979 9.46827C12.8789 9.4677 13.0937 9.46831 13.2168 9.47236C13.2617 9.47383 13.2921 9.47571 13.3126 9.47779C13.3146 9.49703 13.3165 9.52502 13.3179 9.56583C13.3222 9.68198 13.3231 9.88398 13.3231 10.2411C13.3231 10.6064 13.3223 10.8082 13.3179 10.9228C13.3162 10.968 13.314 10.9965 13.3117 11.0148C13.2961 11.0167 13.272 11.0186 13.2345 11.0201C13.121 11.0247 12.9123 11.0253 12.5149 11.0253C12.0559 11.0253 11.8215 11.024 11.6754 11.0104C11.6041 11.0037 11.5575 10.9943 11.5184 10.9819C11.4787 10.9694 11.443 10.9527 11.3919 10.9268ZM13.3432 9.48253C13.3432 9.48254 13.3429 9.48247 13.3425 9.4823L13.3432 9.48253ZM11.516 5.81869C11.6057 5.82067 11.6599 5.82336 11.6928 5.82663C11.6935 5.83227 11.6941 5.83899 11.6947 5.84695C11.6988 5.90195 11.7001 5.99406 11.7001 6.15457V6.43415H10.3824H9.06467V6.15457C9.06467 5.99406 9.06595 5.90195 9.07007 5.84695C9.07067 5.83899 9.07132 5.83227 9.07196 5.82663C9.10491 5.82336 9.1591 5.82067 9.24877 5.81869C9.43986 5.81446 9.77844 5.81361 10.3824 5.81361C10.9863 5.81361 11.3249 5.81446 11.516 5.81869Z" fill="#F5F9FC" stroke="#F5F9FC" stroke-width="0.2"/>
</svg>
