<svg width="18" height="18" viewBox="0 0 18 18" fill="none" xmlns="http://www.w3.org/2000/svg">
<rect width="18" height="18" rx="9" fill="#4B72AA"/>
<path d="M6.51276 13.9152H11.6143C12.2116 13.9152 12.6235 13.484 12.6235 12.8569V8.84612C12.6235 8.2132 12.2116 7.78199 11.6143 7.78199H6.51276C5.92177 7.78199 5.50987 8.2132 5.50987 8.84612V12.8569C5.50987 13.484 5.92177 13.9152 6.51276 13.9152ZM6.49047 13.6132C6.10045 13.6132 5.82913 13.3105 5.82913 12.8741V8.82883C5.82913 8.39248 6.10045 8.08396 6.49047 8.08396H11.6429C12.0271 8.08396 12.3042 8.39248 12.3042 8.82883V12.8741C12.3042 13.3105 12.0271 13.6132 11.6429 13.6132H6.49047ZM6.49101 7.92136H6.80886V6.61466C6.80886 5.15395 7.71573 4.15451 9.06644 4.15451C10.4051 4.15451 11.3187 5.15395 11.3187 6.61466V7.92136H11.6365V6.60576C11.6365 4.96603 10.587 3.85254 9.06644 3.85254C7.54009 3.85254 6.49101 4.96603 6.49101 6.60576V7.92136ZM13.3176 14.0997C13.3743 14.1627 13.4705 14.1627 13.533 14.0997C13.6018 14.0305 13.596 13.941 13.533 13.878L9.10689 9.45195L4.68079 5.02585C4.62407 4.97542 4.52744 4.96286 4.46444 5.02585C4.40191 5.08839 4.40191 5.1855 4.46444 5.24802L13.3176 14.0997Z" stroke="#F5F9FC" stroke-width="0.5"/>
</svg>
