<svg width="24" height="24" viewBox="0 0 24 24" fill="none" xmlns="http://www.w3.org/2000/svg">
<path fill-rule="evenodd" clip-rule="evenodd" d="M12.6085 1.45674L12.0001 0.990234L11.3916 1.45674L8.86701 3.39237L5.68887 3.53237L4.9229 3.56611L4.75666 4.31458L4.06692 7.42013L1.7223 9.57025L1.15723 10.0884L1.51099 10.7687L2.97882 13.591L2.56481 16.7452L2.46503 17.5054L3.17327 17.7991L6.11186 19.0176L7.82218 21.7L8.23438 22.3464L8.96569 22.1162L12.0001 21.1607L15.0344 22.1162L15.7657 22.3464L16.1779 21.7L17.8882 19.0176L20.8268 17.7991L21.5351 17.5054L21.4353 16.7452L21.0213 13.591L22.4891 10.7687L22.8429 10.0884L22.2778 9.57025L19.9332 7.42013L19.2434 4.31458L19.0772 3.56611L18.3112 3.53237L15.1331 3.39237L12.6085 1.45674ZM9.83404 5.17113L12.0001 3.51043L14.1661 5.17113L14.4159 5.36272L14.7305 5.37658L17.4573 5.49669L18.049 8.16115L18.1173 8.46853L18.3494 8.68135L20.361 10.5261L19.1016 12.9476L18.9563 13.2269L18.9973 13.5391L19.3525 16.2453L16.8313 17.2908L16.5404 17.4114L16.3712 17.6769L14.9038 19.9782L12.3004 19.1585L12.0001 19.0639L11.6997 19.1585L9.09634 19.9782L7.62894 17.6769L7.45966 17.4114L7.1688 17.2908L4.64758 16.2453L5.00279 13.5391L5.04377 13.2269L4.89848 12.9476L3.63913 10.5261L5.65073 8.68135L5.8828 8.46853L5.95107 8.16115L6.54285 5.49669L9.2696 5.37658L9.58416 5.36272L9.83404 5.17113ZM9.74969 10.1255C9.74969 9.91834 9.91758 9.75045 10.1247 9.75045C10.3318 9.75045 10.4997 9.91834 10.4997 10.1255C10.4997 10.3326 10.3318 10.5005 10.1247 10.5005C9.91758 10.5005 9.74969 10.3326 9.74969 10.1255ZM10.1247 8.25045C9.08916 8.25045 8.24969 9.08992 8.24969 10.1255C8.24969 11.161 9.08916 12.0005 10.1247 12.0005C10.7313 12.0005 11.2707 11.7124 11.6134 11.2655L9.14969 14.5504L10.3497 15.4504L12.3616 12.7679C12.1341 13.0782 11.9997 13.4612 11.9997 13.8755C11.9997 14.911 12.8392 15.7505 13.8747 15.7505C14.9102 15.7505 15.7497 14.911 15.7497 13.8755C15.7497 12.8399 14.9102 12.0005 13.8747 12.0005C13.2681 12.0005 12.7288 12.2885 12.3861 12.7353L14.8497 9.45045L13.6497 8.55045L11.6377 11.2331C11.8653 10.9227 11.9997 10.5398 11.9997 10.1255C11.9997 9.08992 11.1602 8.25045 10.1247 8.25045ZM13.4997 13.8755C13.4997 13.6683 13.6676 13.5005 13.8747 13.5005C14.0818 13.5005 14.2497 13.6683 14.2497 13.8755C14.2497 14.0826 14.0818 14.2505 13.8747 14.2505C13.6676 14.2505 13.4997 14.0826 13.4997 13.8755Z" fill="#1A458B"/>
</svg>
