<svg width="32" height="32" viewBox="0 0 32 32" fill="none" xmlns="http://www.w3.org/2000/svg">
<rect width="32.0001" height="32.0004" rx="6" fill="white"/>
<path fill-rule="evenodd" clip-rule="evenodd" d="M15.9054 19.4957C17.784 19.4957 19.307 17.9728 19.307 16.0941C19.307 14.2155 17.784 12.6925 15.9054 12.6925C14.0268 12.6925 12.5038 14.2155 12.5038 16.0941C12.5038 17.9728 14.0268 19.4957 15.9054 19.4957ZM15.9054 22.1414C19.2452 22.1414 21.9526 19.4339 21.9526 16.0941C21.9526 12.7543 19.2452 10.0469 15.9054 10.0469C12.5656 10.0469 9.85815 12.7543 9.85815 16.0941C9.85815 19.4339 12.5656 22.1414 15.9054 22.1414Z" fill="#4D97FF"/>
<path d="M17.4138 5.5118C17.4138 6.3468 16.7369 7.0236 15.9019 7.0236C15.067 7.0236 14.3901 6.3468 14.3901 5.5118C14.3901 4.6769 15.067 4 15.9019 4C16.7369 4 17.4138 4.6769 17.4138 5.5118Z" fill="#10069F"/>
<path d="M28.0001 16.1012C28.0001 16.9361 27.3232 17.613 26.4883 17.613C25.6533 17.613 24.9764 16.9361 24.9764 16.1012C24.9764 15.2662 25.6533 14.5894 26.4883 14.5894C27.3232 14.5894 28.0001 15.2662 28.0001 16.1012Z" fill="#10069F"/>
<path fill-rule="evenodd" clip-rule="evenodd" d="M19.3406 7.49258C21.6967 8.43428 23.5754 10.316 24.5132 12.6741L26.9717 11.6945C25.7653 8.66318 23.3495 6.24438 20.3201 5.03418L19.3406 7.49258Z" fill="#E1251B"/>
<path fill-rule="evenodd" clip-rule="evenodd" d="M4 16.0949C4 11.0817 7.0985 6.79231 11.4848 5.03711L12.4643 7.49551C9.0542 8.86141 6.6457 12.1968 6.6457 16.0949C6.6457 21.2089 10.7914 25.3547 15.9055 25.3547C19.8054 25.3547 23.1422 22.9438 24.5068 19.5312L26.9652 20.5107C25.2113 24.8996 20.9205 28.0004 15.9055 28.0004C9.3303 28.0004 4 22.6701 4 16.0949Z" fill="#10069F"/>
<mask id="mask0_3380_766559" style="mask-type:luminance" maskUnits="userSpaceOnUse" x="0" y="0" width="32" height="32">
<path d="M32 0H0V31.9999H32V0Z" fill="white"/>
</mask>
<g mask="url(#mask0_3380_766559)">
</g>
</svg>
