<svg width="35" height="38" viewBox="0 0 35 38" fill="none" xmlns="http://www.w3.org/2000/svg">
<rect width="35" height="38" rx="17.5" fill="#F0F5FE"/>
<path d="M16.6134 6.03442L16.6134 6.03442C16.7943 5.97315 16.9235 5.93517 17.0458 5.91589C17.1697 5.89638 17.2824 5.89667 17.4298 5.9069L16.6134 6.03442ZM16.6134 6.03442C16.1409 6.19455 13.9182 7.00192 11.7928 7.78011C10.7296 8.16937 9.69011 8.55157 8.90491 8.84228C8.51233 8.98762 8.18319 9.11014 7.9464 9.19924C7.82804 9.24379 7.73255 9.28006 7.66367 9.30669C7.59816 9.33202 7.55004 9.35113 7.53289 9.35981L7.53288 9.35982M16.6134 6.03442L7.53288 9.35982M7.53288 9.35982C6.86613 9.69756 6.44717 10.5454 6.58177 11.2829L6.58177 11.2829M7.53288 9.35982L6.58177 11.2829M6.58177 11.2829C6.61171 11.4469 6.71728 11.795 6.81574 12.0592L6.81575 12.0592M6.58177 11.2829L6.81575 12.0592M6.81575 12.0592C6.86442 12.1897 6.90856 12.3124 6.94045 12.4048C6.9512 12.4359 6.96046 12.4634 6.968 12.4863C6.96512 12.4872 6.96214 12.4881 6.95906 12.4891C6.90207 12.5062 6.82118 12.5257 6.73067 12.5427L6.74919 12.641M6.81575 12.0592L6.74919 12.641M6.74919 12.641L6.73066 12.5427C6.02666 12.6755 5.2571 13.1984 4.86449 13.8097M6.74919 12.641L4.55867 14.4228M4.55867 14.4228L4.55868 14.4228C4.63334 14.2312 4.76972 13.9571 4.86449 13.8097M4.55867 14.4228L4.42648 14.7621L4.4197 14.7795M4.55867 14.4228L4.4197 14.7795M4.86449 13.8097L4.94862 13.8637L4.86448 13.8097C4.86448 13.8097 4.86449 13.8097 4.86449 13.8097ZM4.4197 14.7795L4.41966 14.7982M4.4197 14.7795L4.41966 14.7982M4.41966 14.7982L4.40593 22.1358M4.41966 14.7982L4.40593 22.1358M28.6359 30.5629L28.7229 30.6122C28.3361 31.2956 27.5731 31.8517 26.7984 32.0157C26.7738 32.0209 26.732 32.0245 26.6824 32.0276C26.6299 32.0309 26.5607 32.034 26.4764 32.037C26.3076 32.0431 26.0758 32.0486 25.7902 32.0538C25.2189 32.0641 24.4308 32.0726 23.4984 32.0795C21.6335 32.0932 19.1903 32.1 16.7472 32.1C14.3041 32.1 11.8608 32.0932 9.99597 32.0795C9.06357 32.0726 8.27548 32.0641 7.70418 32.0538C7.4186 32.0486 7.18676 32.0431 7.01799 32.037C6.93366 32.034 6.86451 32.0309 6.81203 32.0276C6.76243 32.0245 6.72061 32.0209 6.69599 32.0157C6.15649 31.9015 5.68296 31.6447 5.28465 31.2511C4.86368 30.835 4.63429 30.4424 4.49654 29.8981M28.6359 30.5629L4.49654 29.8981L4.59348 29.8736L4.49654 29.8981M28.6359 30.5629L28.723 30.6122C28.8912 30.3148 28.9875 30.0856 29.0397 29.6815C29.0909 29.285 29.1002 28.7173 29.1002 27.7431V26.0984L29.115 26.0983C29.182 26.098 29.2594 26.0786 29.3366 26.0508C29.4155 26.0224 29.5012 25.9825 29.5868 25.9356C29.7574 25.8422 29.9351 25.7166 30.0644 25.5875C30.2014 25.4506 30.375 25.2054 30.4548 25.0353L30.5905 24.746L30.6 24.7258M28.6359 30.5629L30.6 24.7258M4.49654 29.8981C4.44367 29.6893 4.41867 29.5394 4.4075 28.5528M4.49654 29.8981L4.4075 28.5528M30.6 24.7258V24.7035M30.6 24.7258V24.7035M30.6 24.7035V22.2399V19.7764V19.7541M30.6 24.7035V19.7541M30.6 19.7541L30.5905 19.7339M30.6 19.7541L30.5905 19.7339M30.5905 19.7339L30.4583 19.4522L30.3678 19.4947M30.5905 19.7339L30.3678 19.4947M30.3678 19.4947L30.4583 19.4522C30.2115 18.9266 29.8055 18.5702 29.2681 18.4118L29.1245 18.3695L29.0985 16.62C29.0851 15.7197 29.078 15.2591 29.0579 14.9823C29.0477 14.8428 29.034 14.7462 29.0135 14.6614C28.993 14.5768 28.9664 14.5068 28.9342 14.4232C28.5502 13.4253 27.7001 12.7056 26.6926 12.533L26.4111 12.4847L26.3962 11.4207L26.3801 10.2736L26.3798 10.251M30.3678 19.4947L26.3798 10.251M26.3798 10.251L26.3698 10.2307M26.3798 10.251L26.3698 10.2307M26.3698 10.2307L26.2027 9.89187C26.0079 9.49693 25.6952 9.18601 25.2933 8.98642L25.2488 9.07598M26.3698 10.2307L25.2488 9.07598M25.2488 9.07598L25.2933 8.98642L25.0535 8.86735L25.033 8.85714M25.2488 9.07598L25.033 8.85714M25.033 8.85714L25.01 8.85692L22.3166 8.83152L19.6926 8.80678M25.033 8.85714L19.6926 8.80678M19.6926 8.80678L19.3794 7.94421C19.1797 7.394 19.0617 7.08041 18.9569 6.8717C18.8486 6.65587 18.7528 6.54921 18.6035 6.41104C18.2815 6.11318 17.8722 5.93756 17.4298 5.9069L19.6926 8.80678ZM15.9517 9.94965L15.9517 9.94964C16.1421 9.54413 16.4141 9.25703 16.8066 9.04806C16.8066 9.04806 16.8066 9.04806 16.8066 9.04806L15.9517 9.94965ZM15.9517 9.94965C15.8839 10.0943 15.8455 10.1844 15.8247 10.3844C15.8049 10.5748 15.8 10.8714 15.7921 11.4318L15.7774 12.4888L12.3078 12.4885L8.80937 12.4882L8.54099 11.7575C8.41017 11.4013 8.34132 11.2053 8.31196 11.0867C8.29736 11.0277 8.29479 10.9962 8.29603 10.9781C8.29667 10.9687 8.29827 10.9623 8.30173 10.9554C8.31011 10.9501 8.32362 10.9425 8.34368 10.9323C8.38463 10.9116 8.44587 10.8837 8.53043 10.8478C8.69914 10.776 8.95454 10.6746 9.31245 10.5376C10.0279 10.2637 11.149 9.84906 12.796 9.24753C14.0248 8.79879 15.1503 8.39024 15.9739 8.09352C16.3857 7.94515 16.7219 7.82479 16.9576 7.74136C17.0755 7.69963 17.1681 7.66723 17.2324 7.64521C17.2646 7.63417 17.2892 7.62589 17.3063 7.62038L17.3206 7.6159C17.329 7.6162 17.3409 7.61767 17.3547 7.62102C17.3732 7.62555 17.3859 7.63129 17.3906 7.63427C17.3906 7.63427 17.3907 7.63428 17.3907 7.6343C17.3913 7.63479 17.4004 7.64173 17.4176 7.66935C17.4354 7.69794 17.4577 7.74158 17.4866 7.80773C17.5443 7.93982 17.6228 8.14869 17.7403 8.4769L17.8344 8.44322L17.7403 8.47691L17.8653 8.82653L15.9517 9.94965ZM4.40593 22.1358C4.39922 25.727 4.39632 27.5644 4.4075 28.5528M4.40593 22.1358L4.4075 28.5528M6.98839 12.5533C6.98857 12.5542 6.9885 12.554 6.98833 12.5531L6.98839 12.5533ZM23.9404 18.3571L23.9239 18.3572L23.9084 18.3627L23.5016 18.5048C22.1823 18.966 21.2465 19.9467 20.8891 21.2483L20.9855 21.2748L20.8891 21.2484C20.8289 21.4676 20.7973 21.8338 20.7927 22.1899C20.7881 22.5457 20.8103 22.9098 20.8651 23.1246C21.1532 24.2524 21.9194 25.2155 22.9246 25.7081C23.3207 25.9022 23.5457 26.0077 23.9187 26.0636C24.2837 26.1184 24.7922 26.1262 25.7578 26.1372L27.3749 26.1557V27.7204C27.3749 28.6607 27.3703 29.1481 27.3259 29.4442C27.3041 29.5894 27.2735 29.6821 27.2325 29.7568C27.1911 29.8323 27.1358 29.8955 27.0536 29.9801L27.0536 29.9801C26.9562 30.0805 26.7897 30.2053 26.6911 30.2542L26.6902 30.2546C26.6577 30.2707 26.6238 30.2875 26.4373 30.3009C26.2469 30.3146 25.9097 30.324 25.2744 30.3303C24.0055 30.343 21.5585 30.3434 16.7472 30.3434C11.9359 30.3434 9.48893 30.343 8.21997 30.3303C7.58475 30.324 7.24748 30.3146 7.05709 30.3009C6.87064 30.2875 6.83668 30.2707 6.80416 30.2546L6.8033 30.2542L6.7589 30.3438L6.80329 30.2542C6.70475 30.2053 6.53781 30.08 6.4397 29.9791C6.41054 29.949 6.38615 29.926 6.36529 29.9062C6.3089 29.8529 6.2783 29.824 6.24872 29.7477C6.20532 29.6358 6.17347 29.432 6.15378 28.9719C6.11935 28.1673 6.12251 26.6242 6.12884 23.5308C6.1297 23.1119 6.13061 22.6646 6.1315 22.1868L6.14487 15.0289L6.27204 14.8128C6.41912 14.5628 6.64382 14.3737 6.89972 14.2811C6.9014 14.2808 6.90445 14.2804 6.90923 14.2799C6.92052 14.2786 6.93676 14.2772 6.9584 14.2758C7.00149 14.2729 7.06221 14.2701 7.13993 14.2673C7.29516 14.2618 7.51519 14.2567 7.79115 14.252C8.3429 14.2425 9.11629 14.2347 10.0377 14.2283C11.8803 14.2157 14.3137 14.2094 16.7472 14.2094C19.1807 14.2094 21.6141 14.2157 23.4567 14.2283C24.3781 14.2347 25.1515 14.2425 25.7032 14.252C25.9792 14.2567 26.1992 14.2618 26.3545 14.2673C26.4322 14.2701 26.4929 14.2729 26.536 14.2758C26.5576 14.2772 26.5739 14.2786 26.5852 14.2799C26.59 14.2804 26.593 14.2808 26.5947 14.2811C26.8506 14.3737 27.0753 14.5628 27.2224 14.8128L27.3497 15.0292L27.3647 16.7133L27.379 18.3242L25.7097 18.3401L23.9404 18.3571ZM23.6468 24.1524L23.6016 24.2416L23.6467 24.1524C23.1357 23.8937 22.6714 23.278 22.5457 22.6865C22.3529 21.7793 22.7645 20.8406 23.5679 20.3593C23.6936 20.2839 23.7873 20.231 23.8965 20.191C24.0051 20.1513 24.1334 20.1229 24.3267 20.103C24.7173 20.0629 25.3541 20.0593 26.5944 20.0575C27.5836 20.056 28.1455 20.0576 28.469 20.0682C28.6314 20.0736 28.7292 20.0811 28.7894 20.0907C28.8273 20.0968 28.8436 20.1028 28.8493 20.1053C28.8518 20.1108 28.8577 20.1264 28.8637 20.1621C28.8733 20.2193 28.881 20.3119 28.8866 20.4653C28.8977 20.7709 28.9002 21.2995 28.9002 22.2269C28.9002 23.1752 28.898 23.7036 28.8865 24.0054C28.8807 24.157 28.8727 24.2464 28.8626 24.3016C28.8528 24.3555 28.843 24.3645 28.8419 24.3657C28.8416 24.366 28.8413 24.3663 28.841 24.3667C28.8373 24.3711 28.831 24.3783 28.7944 24.3867C28.7479 24.3972 28.6671 24.4059 28.5162 24.4121C28.2169 24.4243 27.67 24.4257 26.6388 24.4257C25.4494 24.4257 24.8305 24.4227 24.4411 24.3863C24.2481 24.3682 24.1152 24.3422 23.9995 24.3056C23.8832 24.2688 23.7806 24.2202 23.6468 24.1524ZM24.6254 10.6073C24.6286 10.6082 24.631 10.6091 24.6328 10.6097C24.64 10.6205 24.6558 10.6573 24.6658 10.7901C24.677 10.9403 24.6803 11.1862 24.6803 11.6019V12.4888H21.0942H17.5081V11.6019C17.5081 11.1862 17.5114 10.9403 17.5226 10.7901C17.5326 10.6573 17.5484 10.6205 17.5556 10.6097C17.5574 10.6091 17.5598 10.6082 17.563 10.6073C17.5786 10.6027 17.6055 10.5973 17.6514 10.5921C17.7427 10.5819 17.8931 10.5742 18.1433 10.5686C18.6423 10.5576 19.5247 10.5554 21.0942 10.5554C22.6637 10.5554 23.5461 10.5576 24.0451 10.5686C24.2953 10.5742 24.4457 10.5819 24.537 10.5921C24.5829 10.5973 24.6098 10.6027 24.6254 10.6073ZM24.2896 21.4728C23.6642 21.7807 23.677 22.6868 24.3046 22.9903C24.3673 23.0207 24.4381 23.0479 24.5024 23.0676C24.5637 23.0864 24.6295 23.1019 24.6786 23.1019C24.8171 23.1019 24.9692 23.0444 25.0993 22.963C25.2301 22.8812 25.3516 22.7672 25.4234 22.6396C25.8357 21.9067 25.038 21.1042 24.2896 21.4728Z" fill="#2274E5" stroke="#2274E5" stroke-width="0.2"/>
</svg>
