<svg width="32" height="32" viewBox="0 0 32 32" fill="none" xmlns="http://www.w3.org/2000/svg">
<path d="M24.7613 11.4344C25.6223 10.7886 26.3973 10.0137 27 9.10959C26.225 9.45401 25.3209 9.71233 24.4168 9.79843C25.364 9.23875 26.0528 8.37769 26.3973 7.30137C25.5362 7.818 24.546 8.20548 23.5558 8.42074C22.6947 7.51663 21.5323 7 20.2407 7C17.7436 7 15.7202 9.02348 15.7202 11.5205C15.7202 11.865 15.7632 12.2094 15.8493 12.5538C12.1037 12.3386 8.7456 10.5303 6.50685 7.818C6.11937 8.4638 5.90411 9.23875 5.90411 10.0998C5.90411 11.6497 6.67906 13.0274 7.92759 13.8454C7.19569 13.8023 6.4638 13.6301 5.86106 13.2857V13.3288C5.86106 15.5245 7.41096 17.3327 9.47749 17.7632C9.13307 17.8493 8.70254 17.9354 8.31507 17.9354C8.0137 17.9354 7.75538 17.8924 7.45401 17.8493C8.0137 19.6575 9.69276 20.9491 11.6732 20.9922C10.1233 22.1977 8.18591 22.9296 6.07632 22.9296C5.68885 22.9296 5.34442 22.8865 5 22.8434C6.98043 24.135 9.34834 24.8669 11.9315 24.8669C20.2407 24.8669 24.7613 18.0215 24.7613 12.0372C24.7613 11.8219 24.7613 11.6497 24.7613 11.4344Z" fill="white"/>
</svg>
