<svg width="32" height="32" viewBox="0 0 32 32" fill="none" xmlns="http://www.w3.org/2000/svg">
<path fill-rule="evenodd" clip-rule="evenodd" d="M23.8458 9.59403C23.8458 10.3893 23.2011 11.034 22.4058 11.034C21.6105 11.034 20.9636 10.3893 20.9636 9.59403C20.9636 8.79876 21.6105 8.15403 22.4058 8.15403C23.2011 8.15403 23.8458 8.79876 23.8458 9.59403ZM16 20.0004C13.7898 20.0004 11.9996 18.2091 11.9996 16C11.9996 13.7909 13.7898 11.9996 16 11.9996C18.2091 11.9996 20.0004 13.7909 20.0004 16C20.0004 18.2091 18.2091 20.0004 16 20.0004ZM15.9999 9.83727C12.5963 9.83727 9.83629 12.5973 9.83629 15.9998C9.83629 19.4034 12.5963 22.1624 15.9999 22.1624C19.4036 22.1624 22.1614 19.4034 22.1614 15.9998C22.1614 12.5973 19.4036 9.83727 15.9999 9.83727ZM25.768 20.8482C25.7134 22.0198 25.5181 22.6547 25.3545 23.078C25.1374 23.6376 24.8767 24.0369 24.4567 24.458C24.0367 24.878 23.6374 25.1376 23.0778 25.3547C22.6534 25.5195 22.0185 25.7136 20.848 25.7682C19.5836 25.826 19.204 25.8391 16 25.8391C12.7949 25.8391 12.4163 25.826 11.1498 25.7682C9.98032 25.7136 9.34432 25.5195 8.92213 25.3547C8.3625 25.1376 7.96214 24.878 7.54214 24.458C7.12323 24.0369 6.8625 23.6376 6.64432 23.078C6.48068 22.6547 6.28432 22.0198 6.23195 20.8482C6.17304 19.5849 6.16104 19.2053 6.16104 16.0002C6.16104 12.7962 6.17304 12.4176 6.23195 11.1511C6.28432 9.98056 6.48068 9.34565 6.64432 8.92347C6.8625 8.36274 7.12323 7.96347 7.54214 7.54238C7.96214 7.12347 8.3625 6.86274 8.92213 6.64565C9.34432 6.48092 9.98032 6.28674 11.1498 6.23219C12.4163 6.17438 12.7949 6.16238 16 6.16238C19.204 6.16238 19.5836 6.17438 20.848 6.23219C22.0185 6.28674 22.6534 6.48092 23.0778 6.64565C23.6374 6.86274 24.0367 7.12347 24.4567 7.54238C24.8767 7.96347 25.1374 8.36274 25.3545 8.92347C25.5181 9.34565 25.7134 9.98056 25.768 11.1511C25.8247 12.4176 25.8367 12.7962 25.8367 16.0002C25.8367 19.2053 25.8247 19.5849 25.768 20.8482ZM27.928 11.0527C27.8691 9.77527 27.6673 8.90255 27.3695 8.13891C27.0629 7.35018 26.6527 6.68036 25.9851 6.01491C25.3185 5.34618 24.6487 4.936 23.8611 4.62945C23.0964 4.33382 22.2247 4.13091 20.9473 4.072C19.6676 4.01418 19.2585 4 16 4C12.7393 4 12.3313 4.01418 11.0516 4.072C9.77418 4.13091 8.90255 4.33382 8.13891 4.62945C7.35018 4.936 6.68036 5.34618 6.01382 6.01491C5.34618 6.68036 4.936 7.35018 4.63055 8.13891C4.33273 8.90255 4.12873 9.77527 4.07091 11.0527C4.012 12.3324 4 12.7404 4 16C4 19.2596 4.012 19.6676 4.07091 20.9473C4.12873 22.2247 4.33273 23.0975 4.63055 23.8611C4.936 24.6498 5.34618 25.3196 6.01382 25.9851C6.68036 26.6538 7.35018 27.064 8.13891 27.3705C8.90255 27.6673 9.77418 27.8702 11.0516 27.9291C12.3313 27.9858 12.7393 28 16 28C19.2585 28 19.6676 27.9858 20.9473 27.9291C22.2247 27.8702 23.0964 27.6673 23.8611 27.3705C24.6487 27.064 25.3185 26.6538 25.9851 25.9851C26.6527 25.3196 27.0629 24.6498 27.3695 23.8611C27.6673 23.0975 27.8691 22.2247 27.928 20.9473C27.9858 19.6676 28 19.2596 28 16C28 12.7404 27.9858 12.3324 27.928 11.0527Z" fill="white"/>
</svg>
