<svg width="18" height="18" viewBox="0 0 18 18" fill="none" xmlns="http://www.w3.org/2000/svg">
<rect width="18" height="18" rx="9" fill="#F0F5FE"/>
<path fill-rule="evenodd" clip-rule="evenodd" d="M4.40527 3.65527H4.87527H13.0003H13.4703V4.12527V13.8753V14.3453H13.0003L10.3753 14.3453H7.50033L4.87527 14.3453H4.40527V13.8753V4.12527V3.65527ZM7.50033 13.4053H10.3753C10.668 13.4053 10.9053 13.168 10.9053 12.8753V11.219C10.9053 10.9263 10.668 10.689 10.3753 10.689H7.50033C7.20762 10.689 6.97033 10.9263 6.97033 11.219V12.8753C6.97033 13.168 7.20762 13.4053 7.50033 13.4053ZM11.7469 13.4053C11.8105 13.2409 11.8453 13.0621 11.8453 12.8753V11.219C11.8453 10.4072 11.1872 9.74902 10.3753 9.74902H7.50033C6.68848 9.74902 6.03033 10.4072 6.03033 11.219V12.8753C6.03033 13.0621 6.0652 13.2409 6.12878 13.4053H5.34527V4.59527H12.5303V13.4053H11.7469ZM8.93777 6.22027C8.29988 6.22027 7.78277 6.73738 7.78277 7.37527C7.78277 8.01315 8.29988 8.53027 8.93777 8.53027C9.57566 8.53027 10.0928 8.01315 10.0928 7.37527C10.0928 6.73738 9.57566 6.22027 8.93777 6.22027ZM6.84277 7.37527C6.84277 6.21823 7.78074 5.28027 8.93777 5.28027C10.0948 5.28027 11.0328 6.21823 11.0328 7.37527C11.0328 8.5323 10.0948 9.47027 8.93777 9.47027C7.78074 9.47027 6.84277 8.5323 6.84277 7.37527Z" fill="#2274E5"/>
</svg>
