<svg width="32" height="32" viewBox="0 0 32 32" fill="none" xmlns="http://www.w3.org/2000/svg">
<rect width="32" height="32" rx="16" fill="white"/>
<path d="M11.1151 26.0271H21.1346C22.3076 26.0271 23.1166 25.1475 23.1166 23.8682V15.6866C23.1166 14.3955 22.3076 13.5158 21.1346 13.5158H11.1151C9.95433 13.5158 9.14535 14.3955 9.14535 15.6866V23.8682C9.14535 25.1475 9.95433 26.0271 11.1151 26.0271ZM11.0713 25.4111C10.3053 25.4111 9.77238 24.7936 9.77238 23.9035V15.6513C9.77238 14.7612 10.3053 14.1318 11.0713 14.1318H21.1907C21.9453 14.1318 22.4895 14.7612 22.4895 15.6513V23.9035C22.4895 24.7936 21.9453 25.4111 21.1907 25.4111H11.0713ZM11.0723 13.8001H11.6966V11.1346C11.6966 8.1548 13.4777 6.11601 16.1305 6.11601C18.7596 6.11601 20.554 8.1548 20.554 11.1346V13.8001H21.1782V11.1164C21.1782 7.77144 19.1169 5.5 16.1305 5.5C13.1327 5.5 11.0723 7.77144 11.0723 11.1164V13.8001ZM24.4798 26.4036C24.5912 26.5321 24.7801 26.5321 24.9029 26.4036C25.038 26.2623 25.0266 26.0799 24.9029 25.9514L16.21 16.9224L7.51703 7.89348C7.40563 7.7906 7.21584 7.76498 7.09211 7.89348C6.9693 8.02105 6.9693 8.21914 7.09211 8.34668L24.4798 26.4036Z" stroke="#2274E5"/>
</svg>
