<svg width="30" height="32" viewBox="0 0 30 32" fill="none" xmlns="http://www.w3.org/2000/svg">
<rect y="0.5" width="30" height="31" rx="15" fill="white"/>
<path fill-rule="evenodd" clip-rule="evenodd" d="M5.90625 4.84375H6.90625H23.8333H24.8333V5.84375V26.1562V27.1562H23.8333H19.448H11.2918H6.90625H5.90625V26.1562V5.84375V4.84375ZM11.2918 25.1562H19.448V19.5391H11.2918V25.1562ZM21.448 25.1562V19.5391C21.448 18.4345 20.5526 17.5391 19.448 17.5391H11.2918C10.1872 17.5391 9.29179 18.4345 9.29179 19.5391V25.1562H7.90625V6.84375H22.8333V25.1562H21.448ZM15.3698 10.2292C14.0524 10.2292 12.9844 11.2971 12.9844 12.6146C12.9844 13.932 14.0524 15 15.3698 15C16.6872 15 17.7552 13.932 17.7552 12.6146C17.7552 11.2971 16.6872 10.2292 15.3698 10.2292ZM10.9844 12.6146C10.9844 10.1926 12.9478 8.22915 15.3698 8.22915C17.7918 8.22915 19.7552 10.1926 19.7552 12.6146C19.7552 15.0366 17.7918 17 15.3698 17C12.9478 17 10.9844 15.0366 10.9844 12.6146Z" fill="#2274E5"/>
</svg>
