<svg width="32" height="32" viewBox="0 0 32 32" fill="none" xmlns="http://www.w3.org/2000/svg">
<rect width="32" height="32" rx="16" fill="white"/>
<path d="M11.254 10.026H26.2573C26.4535 10.026 26.5764 9.90305 26.5764 9.70686C26.5764 9.52374 26.4535 9.40074 26.2573 9.40074H11.254C11.0709 9.40074 10.9348 9.52374 10.9348 9.70686C10.9348 9.90305 11.0709 10.026 11.254 10.026ZM11.254 16.4817H26.2573C26.4535 16.4817 26.5764 16.3456 26.5764 16.1625C26.5764 15.9794 26.4535 15.8433 26.2573 15.8433H11.254C11.0709 15.8433 10.9348 15.9794 10.9348 16.1625C10.9348 16.3456 11.0709 16.4817 11.254 16.4817ZM11.254 22.9242H26.2573C26.4535 22.9242 26.5764 22.8012 26.5764 22.6181C26.5764 22.4219 26.4535 22.2989 26.2573 22.2989H11.254C11.0709 22.2989 10.9348 22.4219 10.9348 22.6181C10.9348 22.8012 11.0709 22.9242 11.254 22.9242ZM6.26891 11.1337L7.09488 10.5215L7.90583 11.1337C8.08728 11.2439 8.23344 11.1457 8.17231 10.9604L7.84512 9.96476L8.66914 9.35253C8.8094 9.2574 8.76133 9.06907 8.589 9.06907H7.57738L7.23713 8.00218C7.19004 7.8861 6.99875 7.87303 6.96475 8.00218L6.62447 9.06907H5.58571C5.41341 9.06907 5.36534 9.2574 5.5056 9.35253L6.33059 9.96476L6.01746 10.9604C5.94228 11.1457 6.1136 11.2429 6.26891 11.1337ZM6.26891 17.5622L7.09488 16.95L7.90583 17.5622C8.08728 17.6985 8.23344 17.5742 8.17231 17.4019L7.84512 16.4063L8.66914 15.7941C8.8094 15.6859 8.76133 15.5106 8.589 15.5106H7.57738L7.23713 14.4438C7.19004 14.3146 6.99875 14.3005 6.96475 14.4438L6.62447 15.5106H5.58571C5.41341 15.5106 5.36534 15.6859 5.5056 15.7941L6.33059 16.4063L6.01746 17.4019C5.95534 17.5742 6.1136 17.6844 6.26891 17.5622ZM6.26891 24.0318L7.09488 23.4196L7.90583 24.0318C8.08728 24.1682 8.23344 24.0439 8.17231 23.8586L7.84512 22.8629L8.66914 22.2638C8.8094 22.1556 8.76133 21.9672 8.589 21.9672H7.57738L7.23713 20.9134C7.19004 20.7833 6.99875 20.7702 6.96475 20.9134L6.62447 21.9672H5.58571C5.41341 21.9672 5.36534 22.1556 5.5056 22.2638L6.33059 22.8629L6.01746 23.8586C5.95534 24.0439 6.1136 24.1541 6.26891 24.0318Z" stroke="#2274E5"/>
</svg>
