<svg width="85" height="32" viewBox="0 0 85 32" fill="none" xmlns="http://www.w3.org/2000/svg">
<path fill-rule="evenodd" clip-rule="evenodd" d="M58.9824 14.4231C57.3161 14.4231 56.1962 15.7271 56.1962 17.6654C56.1962 19.5938 57.3161 20.8891 58.9824 20.8891C60.6236 20.8891 61.7691 19.5639 61.7691 17.6654C61.7691 15.7563 60.6236 14.4231 58.9824 14.4231ZM58.9824 22.637C56.2558 22.637 54.2775 20.5474 54.2775 17.668C54.2775 14.7791 56.2558 12.6826 58.9824 12.6826C61.6993 12.6826 63.6701 14.7791 63.6701 17.668C63.6701 20.5474 61.6993 22.637 58.9824 22.637Z" fill="#10069F"/>
<path fill-rule="evenodd" clip-rule="evenodd" d="M50.7438 22.4708H52.6566V9.36182H50.7438V22.4708Z" fill="#10069F"/>
<path fill-rule="evenodd" clip-rule="evenodd" d="M69.8892 14.4243C68.2223 14.4243 67.1027 15.7284 67.1027 17.6667C67.1027 19.5957 68.2223 20.891 69.8892 20.891C71.5291 20.891 72.6751 19.5652 72.6751 17.6667C72.6751 15.7577 71.5291 14.4243 69.8892 14.4243ZM69.8892 22.637C66.9864 22.637 65.1836 20.7329 65.1836 17.6691V9.34253H67.1052L67.0968 13.5223L67.4172 13.3387C68.1615 12.9102 69.0164 12.6839 69.8892 12.6839C72.6047 12.6839 74.5775 14.7803 74.5775 17.6691C74.5775 20.5474 72.6047 22.637 69.8892 22.637Z" fill="#10069F"/>
<path fill-rule="evenodd" clip-rule="evenodd" d="M80.4644 14.4231C79.6069 14.4249 78.8729 14.7972 78.3982 15.4707C78.2262 15.7122 78.0815 16.0222 77.9821 16.3664L77.9038 16.636H83.0414L82.9649 16.3669C82.6268 15.1831 81.6803 14.4386 80.494 14.4243L80.4707 14.4231H80.4644ZM80.7543 22.637C77.9665 22.637 75.9429 20.5474 75.9429 17.668C75.9429 14.7791 77.8477 12.6826 80.4707 12.6826C80.5496 12.6826 80.6264 12.6845 80.7016 12.6882C83.2329 12.8097 84.9999 14.8575 84.9999 17.668C84.9999 17.821 84.9722 18.1534 84.9535 18.3669H77.887L77.949 18.6258C78.2876 20.0438 79.3962 20.9247 80.8438 20.9247C81.8657 20.9247 82.6625 20.327 83.0287 19.9928L84.2596 21.2109C83.8694 21.5944 82.6385 22.637 80.7543 22.637Z" fill="#10069F"/>
<path fill-rule="evenodd" clip-rule="evenodd" d="M43.9494 22.6445C40.1212 22.6445 37.4481 19.9123 37.4481 15.9992C37.4481 12.0877 40.0642 9.35571 43.8086 9.35571C46.4276 9.35571 48.0592 10.8598 48.5074 11.3326L47.1441 12.6214C46.8349 12.2952 45.6796 11.2302 43.8086 11.2302C41.0852 11.2302 39.3395 13.1022 39.3395 15.9992C39.3395 18.8718 41.2649 20.8776 44.0031 20.8776C44.898 20.8776 45.7642 20.7246 46.6298 20.396L46.6285 17.2288H44.3705V15.4975H48.5218V21.5518C48.0786 21.7842 46.2785 22.6445 43.9494 22.6445Z" fill="#10069F"/>
<path fill-rule="evenodd" clip-rule="evenodd" d="M27.6462 9.18889C28.1258 8.77655 27.6572 7.70486 26.7555 6.66254C25.8525 5.61967 24.8615 5.00215 24.3833 5.41416C23.9065 5.82751 24.3403 6.92423 25.2419 7.96799C26.1426 9.00964 27.1703 9.60212 27.6462 9.18889ZM15.7558 29.957C14.9058 29.957 14.1851 29.343 14.1851 28.8382C14.1851 28.2162 14.9058 27.5956 15.7558 27.5956C16.6062 27.5956 17.362 28.1501 17.362 28.773C17.362 29.4625 16.6062 29.957 15.7558 29.957ZM15.7558 26.9089C14.3688 26.9089 13.2434 27.87 13.2434 28.8859C13.2434 29.7096 14.3688 30.4506 15.7558 30.4506C17.1432 30.4506 18.2686 29.7636 18.2686 28.8312C18.2686 27.8143 17.1432 26.9089 15.7558 26.9089ZM15.7697 0.19043C7.06033 0.19043 0 7.25076 0 15.9601C0 24.6695 7.06033 31.7297 15.7697 31.7297C24.479 31.7297 31.5393 24.6695 31.5393 15.9601C31.5393 7.25076 24.479 0.19043 15.7697 0.19043ZM3.26807 22.3556C3.23225 22.3529 3.19865 22.3565 3.16382 22.3551C3.212 22.6577 3.26874 22.9584 3.33517 23.2569C3.92909 23.368 4.64841 23.8741 5.21707 24.6454C5.75926 25.3845 6.02818 26.1807 5.9888 26.7731C6.26785 26.8857 6.55068 26.9902 6.8364 27.0871C6.98427 26.233 6.67752 25.1404 5.92905 24.1215C5.16801 23.0898 4.17398 22.429 3.26807 22.3556ZM6.32692 7.94827C5.42613 8.98992 4.39839 9.5824 3.92251 9.16928C3.44286 8.75694 3.9115 7.68513 4.81307 6.64293C5.71619 5.59995 6.70744 4.98243 7.18554 5.39444C7.66219 5.8079 7.22848 6.90451 6.32692 7.94827ZM7.70514 7.38172C8.36404 6.24349 8.51124 5.1678 7.98797 4.7144C7.29769 4.11825 5.70373 4.83 4.42465 6.30714C3.14712 7.78472 2.67258 9.46646 3.36564 10.0622C4.05358 10.6603 5.64977 9.94556 6.92607 8.46954C6.97336 8.41469 7.0172 8.35917 7.06237 8.30398L7.06882 8.30721C8.68904 8.93218 9.40903 9.36299 9.72479 9.51231L10.3261 8.58815C9.89592 8.38498 8.93171 7.83924 7.70514 7.38172ZM3.29217 20.6942C3.19025 20.6855 3.089 20.6827 2.98909 20.6818C3.003 20.9782 3.02625 21.2742 3.05763 21.5693C3.11159 21.5706 3.16533 21.571 3.22074 21.5758C4.3949 21.6708 5.59744 22.4451 6.52103 23.6983C7.4117 24.9094 7.7644 26.2326 7.58427 27.323C7.86788 27.4052 8.15282 27.4803 8.44077 27.548C8.68767 26.2085 8.29135 24.6143 7.23301 23.1737C6.15798 21.7138 4.72079 20.8107 3.29217 20.6942ZM3.81088 24.2266C3.62295 24.3592 3.76659 24.8882 4.13165 25.4108C4.49681 25.9338 4.94576 26.2509 5.1338 26.1196C5.32183 25.9884 5.17752 25.4582 4.81236 24.9357C4.44719 24.4126 3.99824 24.0954 3.81088 24.2266ZM28.2026 10.0818C28.8949 9.48601 28.421 7.8046 27.1434 6.32669C25.8643 4.84956 24.2706 4.13802 23.5809 4.73428C22.8909 5.33177 23.3639 7.01107 24.6422 8.4892C25.9189 9.96522 27.5144 10.6796 28.2026 10.0818ZM20.9947 2.35484L20.9553 1.97732C19.3404 1.38006 17.594 1.05272 15.7705 1.05272C13.9688 1.05272 12.2423 1.37172 10.6425 1.95607L10.6097 2.32458C12.702 2.33548 14.0862 2.57458 15.8222 3.25218C17.1751 2.64279 18.7281 2.38299 20.9947 2.35484ZM6.44427 20.6341C5.86258 17.5018 5.77146 15.3687 6.26936 12.1756C4.39046 12.2024 2.89852 12.2291 1.25873 12.4128C0.975115 13.5627 0.821237 14.7643 0.821237 16.0014C0.821237 16.9093 0.907466 17.7965 1.06179 18.6599C2.25053 18.7253 3.28984 18.7422 4.62133 18.7672C5.12713 19.35 5.67744 19.9419 6.44427 20.6341ZM21.3146 5.45774L21.0632 3.02919C18.7929 3.05411 17.2522 3.28454 15.9337 3.89749L15.8367 3.94266L15.7384 3.9035C13.9855 3.20832 12.6569 3.00605 10.5483 3.00271L10.329 5.45774C14.4513 4.40808 17.0239 4.42944 21.3146 5.45774ZM23.9397 9.46028C24.2372 9.18424 24.1818 8.64194 23.8158 8.25029C23.4507 7.85843 22.9144 7.76474 22.6178 8.04134C22.3212 8.31716 22.3759 8.85879 22.7424 9.25133C23.1066 9.64309 23.6432 9.73688 23.9397 9.46028ZM21.5434 9.2438C21.3657 9.40948 21.3779 9.71312 21.5724 9.92262C21.7671 10.1308 22.0688 10.1656 22.2468 9.99951C22.4252 9.83372 22.4121 9.53009 22.2175 9.32147C22.023 9.11263 21.7212 9.0778 21.5434 9.2438ZM18.3228 24.9044C16.4854 25.0878 15.3705 25.0872 13.2992 24.9044L12.6132 26.0101C11.9936 25.9064 11.3415 25.7773 10.6352 25.6189C10.7009 27.1864 10.7788 28.548 10.9712 30.1586C12.4785 30.6695 14.0914 30.9507 15.7706 30.9507C17.4505 30.9507 19.0634 30.6695 20.5713 30.1586C20.7557 28.7332 20.8702 27.247 20.9045 25.5635C20.2469 25.7375 19.629 25.8814 19.03 25.9944L18.3228 24.9044ZM20.0981 13.9804C19.6221 14.6564 19.1659 14.8399 19.0142 14.7848C18.6738 14.6617 13.2252 9.32325 13.0095 9.32325C12.7922 9.32325 12.5905 9.80736 12.5905 10.4265C12.5905 11.0451 14.3723 12.8667 14.9299 13.5787C15.4869 14.2902 15.3636 14.8157 15.3636 14.8157C15.3636 14.8157 11.0927 11.0096 10.8143 11.0096C10.5352 11.0096 10.4425 11.8487 10.5963 12.3373C10.7356 12.7799 13.8643 15.584 14.003 15.7583C14.4094 16.2673 14.1822 16.6268 14.1822 16.6268C14.1822 16.6268 10.436 13.0378 10.1883 13.0378C9.94041 13.0378 9.77719 13.3834 9.82537 14.0567C9.88144 14.839 11.922 16.5383 12.4789 17.1576C13.0364 17.7757 13.1349 17.973 13.0111 18.468C13.0111 18.468 10.8143 16.1159 10.5972 16.1159C10.3798 16.1159 10.0746 16.8979 10.6868 17.7796C10.8761 18.0532 11.17 18.4766 11.842 19.402C12.9243 20.8943 14.2756 22.6469 17.1018 22.5737C20.4479 22.4866 21.5266 19.7463 21.8465 16.2554C21.9821 14.7746 22.2037 13.3133 22.3377 12.1749C20.9362 11.7818 20.6986 13.1277 20.0981 13.9804ZM28.0418 18.1884C28.146 16.4829 28.1234 15.5086 28.0519 13.7568C28.9164 14.5269 29.3748 15.1043 30.0234 15.9923C29.4041 16.8802 28.8538 17.4434 28.0418 18.1884ZM28.2378 11.2941C26.8633 11.2941 25.7498 13.3983 25.7498 15.9945C25.7498 18.5908 26.8633 20.6955 28.2378 20.6955C29.6133 20.6955 30.7268 18.5908 30.7268 15.9945C30.7268 13.3983 29.6133 11.2941 28.2378 11.2941ZM25.0074 25.8271C25.0798 25.2608 25.1596 24.5031 25.1956 23.9335C25.2747 23.8711 25.4396 23.7416 25.6088 23.5008C26.7593 23.6367 26.7593 23.6367 27.3215 23.6964C27.3081 23.7787 27.3004 23.8248 27.3035 23.8937C27.3039 23.9019 27.3063 23.9091 27.3072 23.9169C26.789 24.6228 26.2058 25.2769 25.5674 25.8723L25.5656 25.8738C25.453 25.8191 25.2987 25.7708 25.0074 25.8271ZM28.1547 22.4623C27.9269 22.5674 27.7558 22.7922 27.6638 22.913C26.6285 22.7945 26.5438 22.7847 25.9313 22.7076C25.9603 22.3777 25.931 21.6201 25.0346 21.708C23.7786 22.01 23.2648 23.6233 24.0277 24.1089C24.2004 24.2188 24.375 24.2201 24.4586 24.2209C24.445 24.7845 24.4063 25.5361 24.3408 26.0957C22.9678 26.9297 22.4747 28.4021 23.2502 28.6226C24.0159 28.8403 25.8758 27.4441 25.8034 26.2161C25.803 26.2111 25.8019 26.2072 25.8015 26.2022C26.4397 25.6117 27.0245 24.9637 27.5471 24.266C27.9494 24.2824 28.3869 23.664 28.537 23.225C28.7336 22.6511 28.5477 22.2801 28.1547 22.4623Z" fill="#10069F"/>
</svg>
