<svg width="32" height="32" viewBox="0 0 32 32" fill="none" xmlns="http://www.w3.org/2000/svg">
<path fill-rule="evenodd" clip-rule="evenodd" d="M28.0499 9.12991C28.5366 8.71154 28.0611 7.6242 27.1462 6.56665C26.23 5.50855 25.2245 4.88201 24.7393 5.30004C24.2556 5.71942 24.6958 6.83217 25.6105 7.89118C26.5243 8.94804 27.5671 9.54918 28.0499 9.12991ZM15.9858 30.2014C15.1235 30.2014 14.3922 29.5784 14.3922 29.0662C14.3922 28.4352 15.1235 27.8055 15.9858 27.8055C16.8486 27.8055 17.6155 28.3681 17.6155 29.0001C17.6155 29.6996 16.8486 30.2014 15.9858 30.2014ZM15.9858 27.1087C14.5785 27.1087 13.4368 28.0839 13.4368 29.1146C13.4368 29.9504 14.5785 30.7022 15.9858 30.7022C17.3935 30.7022 18.5354 30.0052 18.5354 29.0591C18.5354 28.0274 17.3935 27.1087 15.9858 27.1087ZM16.0001 0C7.16347 0 0 7.16347 0 16.0001C0 24.8366 7.16347 32 16.0001 32C24.8365 32 32 24.8366 32 16.0001C32 7.16347 24.8365 0 16.0001 0ZM3.31578 22.4889C3.27943 22.4862 3.24534 22.4898 3.21001 22.4885C3.25889 22.7954 3.31646 23.1006 3.38386 23.4035C3.98646 23.5161 4.71628 24.0296 5.29326 24.8122C5.84336 25.5621 6.11622 26.3699 6.07625 26.971C6.35938 27.0852 6.64634 27.1912 6.93624 27.2895C7.08627 26.423 6.77503 25.3144 6.01563 24.2806C5.24347 23.2339 4.23492 22.5634 3.31578 22.4889ZM6.41949 7.87117C5.50554 8.92803 4.46279 9.52917 3.97996 9.11001C3.4933 8.69164 3.96879 7.60419 4.88352 6.54676C5.79984 5.48854 6.80557 4.862 7.29065 5.28003C7.77427 5.69952 7.33423 6.81216 6.41949 7.87117ZM7.81784 7.29634C8.48637 6.14149 8.63572 5.05008 8.10481 4.59005C7.40444 3.9852 5.7872 4.70735 4.48943 6.20606C3.19324 7.70522 2.71177 9.41154 3.41495 10.0159C4.11295 10.6228 5.73245 9.89763 7.02739 8.40005C7.07537 8.3444 7.11985 8.28807 7.16568 8.23207L7.17223 8.23535C8.81612 8.86944 9.54662 9.30655 9.867 9.45805L10.4771 8.52039C10.0406 8.31426 9.06233 7.76054 7.81784 7.29634ZM3.34035 20.8033C3.23694 20.7945 3.13421 20.7916 3.03284 20.7907C3.04695 21.0915 3.07054 21.3917 3.10238 21.6911C3.15713 21.6925 3.21165 21.6929 3.26787 21.6978C4.45919 21.7942 5.67929 22.5798 6.61638 23.8513C7.52005 25.08 7.87791 26.4226 7.69514 27.5289C7.9829 27.6124 8.272 27.6886 8.56416 27.7572C8.81466 26.3981 8.41255 24.7807 7.33875 23.319C6.24802 21.8378 4.78984 20.9214 3.34035 20.8033ZM3.86661 24.3873C3.67594 24.5219 3.82168 25.0585 4.19207 25.5888C4.56257 26.1195 5.01807 26.4412 5.20885 26.308C5.39963 26.1748 5.25322 25.6369 4.88272 25.1067C4.51222 24.576 4.05671 24.2542 3.86661 24.3873ZM28.6146 10.0359C29.317 9.43137 28.8362 7.7254 27.5399 6.22589C26.2422 4.72718 24.6251 4.00526 23.9254 4.61023C23.2253 5.21644 23.7052 6.92027 25.0022 8.42C26.2976 9.91758 27.9164 10.6424 28.6146 10.0359ZM21.3016 2.19603L21.2616 1.813C19.623 1.20701 17.8511 0.874891 16.001 0.874891C14.173 0.874891 12.4213 1.19854 10.7981 1.79143L10.7649 2.16532C12.8877 2.17638 14.2921 2.41898 16.0535 3.10647C17.4261 2.48818 19.0018 2.22459 21.3016 2.19603ZM6.53835 20.7423C5.94816 17.5643 5.85571 15.4 6.36089 12.1602C4.45453 12.1874 2.94081 12.2145 1.27706 12.4009C0.989303 13.5676 0.833178 14.7868 0.833178 16.0419C0.833178 16.9631 0.920667 17.8632 1.07724 18.7392C2.28335 18.8056 3.33784 18.8228 4.68878 18.8482C5.20197 19.4395 5.76032 20.0399 6.53835 20.7423ZM21.626 5.34425L21.371 2.88023C19.0675 2.90551 17.5043 3.13931 16.1665 3.76121L16.0682 3.80704L15.9684 3.76731C14.1899 3.06198 12.8419 2.85675 10.7025 2.85336L10.48 5.34425C14.6625 4.27926 17.2727 4.30093 21.626 5.34425ZM24.2892 9.40527C24.5911 9.12519 24.5349 8.57497 24.1636 8.1776C23.7931 7.78001 23.249 7.68496 22.948 7.9656C22.6472 8.24545 22.7026 8.79499 23.0744 9.19326C23.444 9.59074 23.9884 9.68591 24.2892 9.40527ZM21.8582 9.18563C21.6779 9.35372 21.6903 9.66179 21.8876 9.87436C22.0852 10.0856 22.3912 10.1209 22.5718 9.95237C22.7529 9.78416 22.7396 9.47609 22.5421 9.26442C22.3448 9.05253 22.0385 9.01719 21.8582 9.18563ZM18.5905 25.075C16.7263 25.2611 15.595 25.2604 13.4935 25.075L12.7975 26.1968C12.1689 26.0916 11.5072 25.9607 10.7906 25.7999C10.8572 27.3903 10.9363 28.7718 11.1315 30.4059C12.6608 30.9243 14.2973 31.2096 16.001 31.2096C17.7055 31.2096 19.3419 30.9243 20.8718 30.4059C21.059 28.9597 21.1751 27.4518 21.2099 25.7437C20.5427 25.9203 19.9157 26.0662 19.3081 26.1809L18.5905 25.075ZM20.3918 13.9914C19.9088 14.6773 19.446 14.8635 19.292 14.8076C18.9467 14.6826 13.4185 9.26623 13.1996 9.26623C12.9792 9.26623 12.7745 9.75741 12.7745 10.3856C12.7745 11.0132 14.5823 12.8614 15.1481 13.5839C15.7132 14.3057 15.5881 14.8389 15.5881 14.8389C15.5881 14.8389 11.2548 10.9772 10.9723 10.9772C10.6892 10.9772 10.5952 11.8286 10.7512 12.3243C10.8925 12.7733 14.0669 15.6185 14.2076 15.7953C14.62 16.3117 14.3895 16.6765 14.3895 16.6765C14.3895 16.6765 10.5885 13.035 10.3372 13.035C10.0857 13.035 9.9201 13.3857 9.96898 14.0689C10.0259 14.8626 12.0962 16.5867 12.6613 17.2151C13.2269 17.8422 13.3268 18.0423 13.2012 18.5445C13.2012 18.5445 10.9723 16.1581 10.7521 16.1581C10.5315 16.1581 10.2218 16.9516 10.843 17.8461C11.0351 18.1237 11.3332 18.5532 12.0151 19.4923C13.1132 21.0063 14.4842 22.7845 17.3517 22.7103C20.7467 22.6219 21.8411 19.8415 22.1657 16.2996C22.3033 14.7972 22.5282 13.3145 22.6641 12.1596C21.2422 11.7607 21.001 13.1262 20.3918 13.9914ZM28.4515 18.2609C28.5573 16.5305 28.5343 15.5419 28.4618 13.7645C29.3389 14.5459 29.804 15.1317 30.462 16.0327C29.8337 16.9335 29.2753 17.505 28.4515 18.2609ZM28.6504 11.2658C27.2558 11.2658 26.126 13.4008 26.126 16.0349C26.126 18.6692 27.2558 20.8046 28.6504 20.8046C30.0459 20.8046 31.1757 18.6692 31.1757 16.0349C31.1757 13.4008 30.0459 11.2658 28.6504 11.2658ZM25.3728 26.0112C25.4463 25.4366 25.5272 24.6678 25.5638 24.0899C25.644 24.0266 25.8113 23.8952 25.9829 23.6509C27.1503 23.7887 27.1503 23.7887 27.7207 23.8493C27.7071 23.9329 27.6993 23.9796 27.7025 24.0495C27.7028 24.0579 27.7053 24.0652 27.7062 24.0731C27.1805 24.7893 26.5887 25.4529 25.9409 26.057L25.9391 26.0586C25.8249 26.003 25.6683 25.954 25.3728 26.0112ZM28.5661 22.5972C28.335 22.7039 28.1613 22.9319 28.068 23.0545C27.0176 22.9343 26.9317 22.9243 26.3102 22.8461C26.3397 22.5114 26.3099 21.7427 25.4004 21.8319C24.126 22.1383 23.6047 23.7752 24.3788 24.2678C24.554 24.3794 24.7311 24.3807 24.816 24.3815C24.8022 24.9533 24.7629 25.716 24.6965 26.2837C23.3034 27.1299 22.8031 28.6238 23.5899 28.8475C24.3668 29.0684 26.2539 27.6518 26.1804 26.4058C26.18 26.4007 26.1789 26.3968 26.1785 26.3917C26.826 25.7926 27.4193 25.1351 27.9496 24.4272C28.3578 24.4439 28.8017 23.8165 28.9539 23.371C29.1534 22.7888 28.9648 22.4124 28.5661 22.5972Z" fill="#10069F"/>
</svg>
