<svg width="27" height="26" viewBox="0 0 27 26" fill="none" xmlns="http://www.w3.org/2000/svg">
<path fill-rule="evenodd" clip-rule="evenodd" d="M3.94141 2.75V9.46277H10.6542V2.75H3.94141ZM3.45456 1C2.75694 1 2.19141 1.56553 2.19141 2.26316V9.94961C2.19141 10.6472 2.75694 11.2128 3.45456 11.2128H11.141C11.8386 11.2128 12.4042 10.6472 12.4042 9.94961V2.26316C12.4042 1.56554 11.8386 1 11.141 1H3.45456Z" fill="#62768B"/>
<path fill-rule="evenodd" clip-rule="evenodd" d="M20.3728 14.3245H20.1309C17.9581 14.3245 16.1967 16.0859 16.1967 18.2587V18.5006C16.1967 20.6734 17.9581 22.4348 20.1309 22.4348H20.3728C22.5456 22.4348 24.307 20.6734 24.307 18.5006V18.2587C24.307 16.0859 22.5456 14.3245 20.3728 14.3245ZM20.1309 12.5745C16.9916 12.5745 14.4467 15.1194 14.4467 18.2587V18.5006C14.4467 21.6399 16.9916 24.1848 20.1309 24.1848H20.3728C23.5121 24.1848 26.057 21.6399 26.057 18.5006V18.2587C26.057 15.1194 23.5121 12.5745 20.3728 12.5745H20.1309Z" fill="#62768B"/>
<path fill-rule="evenodd" clip-rule="evenodd" d="M23.6279 9.49863L20.2519 3.0644L16.8758 9.49863H23.6279ZM14.5282 10.2065C14.4747 10.3085 14.4467 10.4219 14.4467 10.5371C14.4467 10.9301 14.7653 11.2486 15.1583 11.2486H25.3455C25.7384 11.2486 26.057 10.9301 26.057 10.5371C26.057 10.4219 26.0291 10.3085 25.9755 10.2065L21.3704 1.42968C20.8973 0.527996 19.6064 0.527996 19.1333 1.42968L14.5282 10.2065Z" fill="#62768B"/>
<path fill-rule="evenodd" clip-rule="evenodd" d="M7.29779 14.3684L2.92648 18.7397L7.29779 23.111L11.6691 18.7397L7.29779 14.3684ZM8.19098 12.7867C7.69768 12.2934 6.8979 12.2934 6.4046 12.7867L1.3448 17.8465C0.851503 18.3398 0.851501 19.1396 1.3448 19.6329L6.4046 24.6927C6.8979 25.186 7.69768 25.186 8.19098 24.6927L13.2508 19.6329C13.7441 19.1396 13.7441 18.3398 13.2508 17.8466L8.19098 12.7867Z" fill="#62768B"/>
</svg>
