<svg width="41" height="41" viewBox="0 0 41 41" fill="none" xmlns="http://www.w3.org/2000/svg">
<path fill-rule="evenodd" clip-rule="evenodd" d="M30.3072 12.297C30.3072 13.2911 29.5013 14.097 28.5072 14.097C27.5131 14.097 26.7045 13.2911 26.7045 12.297C26.7045 11.3029 27.5131 10.497 28.5072 10.497C29.5013 10.497 30.3072 11.3029 30.3072 12.297ZM20.5 25.3049C17.7373 25.3049 15.4996 23.0658 15.4996 20.3045C15.4996 17.5431 17.7373 15.304 20.5 15.304C23.2614 15.304 25.5005 17.5431 25.5005 20.3045C25.5005 23.0658 23.2614 25.3049 20.5 25.3049ZM20.4999 12.601C16.2454 12.601 12.7954 16.051 12.7954 20.3042C12.7954 24.5588 16.2454 28.0074 20.4999 28.0074C24.7545 28.0074 28.2017 24.5588 28.2017 20.3042C28.2017 16.051 24.7545 12.601 20.4999 12.601ZM32.7099 26.3647C32.6418 27.8292 32.3977 28.6229 32.1931 29.152C31.9218 29.8515 31.5958 30.3506 31.0708 30.877C30.5458 31.402 30.0468 31.7265 29.3472 31.9979C28.8168 32.2038 28.0231 32.4465 26.5599 32.5147C24.9795 32.587 24.5049 32.6033 20.4999 32.6033C16.4936 32.6033 16.0204 32.587 14.4372 32.5147C12.9754 32.4465 12.1804 32.2038 11.6527 31.9979C10.9531 31.7265 10.4527 31.402 9.92767 30.877C9.40403 30.3506 9.07812 29.8515 8.8054 29.152C8.60085 28.6229 8.3554 27.8292 8.28994 26.3647C8.21631 24.7856 8.20131 24.3111 8.20131 20.3047C8.20131 16.2997 8.21631 15.8265 8.28994 14.2433C8.3554 12.7801 8.60085 11.9865 8.8054 11.4588C9.07812 10.7579 9.40403 10.2588 9.92767 9.73241C10.4527 9.20878 10.9531 8.88287 11.6527 8.6115C12.1804 8.40559 12.9754 8.16287 14.4372 8.09469C16.0204 8.02241 16.4936 8.00741 20.4999 8.00741C24.5049 8.00741 24.9795 8.02241 26.5599 8.09469C28.0231 8.16287 28.8168 8.40559 29.3472 8.6115C30.0468 8.88287 30.5458 9.20878 31.0708 9.73241C31.5958 10.2588 31.9218 10.7579 32.1931 11.4588C32.3977 11.9865 32.6418 12.7801 32.7099 14.2433C32.7808 15.8265 32.7958 16.2997 32.7958 20.3047C32.7958 24.3111 32.7808 24.7856 32.7099 26.3647ZM35.41 14.1204C35.3364 12.5235 35.0841 11.4326 34.7118 10.4781C34.3286 9.49217 33.8159 8.6549 32.9814 7.82308C32.1482 6.98717 31.3109 6.47444 30.3264 6.09126C29.3705 5.72172 28.2809 5.46808 26.6841 5.39444C25.0845 5.32217 24.5732 5.30444 20.5 5.30444C16.4241 5.30444 15.9141 5.32217 14.3145 5.39444C12.7177 5.46808 11.6282 5.72172 10.6736 6.09126C9.68773 6.47444 8.85045 6.98717 8.01727 7.82308C7.18273 8.6549 6.67 9.49217 6.28818 10.4781C5.91591 11.4326 5.66091 12.5235 5.58864 14.1204C5.515 15.7199 5.5 16.2299 5.5 20.3044C5.5 24.379 5.515 24.889 5.58864 26.4885C5.66091 28.0854 5.91591 29.1763 6.28818 30.1308C6.67 31.1167 7.18273 31.954 8.01727 32.7858C8.85045 33.6217 9.68773 34.1344 10.6736 34.5176C11.6282 34.8885 12.7177 35.1422 14.3145 35.2158C15.9141 35.2867 16.4241 35.3044 20.5 35.3044C24.5732 35.3044 25.0845 35.2867 26.6841 35.2158C28.2809 35.1422 29.3705 34.8885 30.3264 34.5176C31.3109 34.1344 32.1482 33.6217 32.9814 32.7858C33.8159 31.954 34.3286 31.1167 34.7118 30.1308C35.0841 29.1763 35.3364 28.0854 35.41 26.4885C35.4823 24.889 35.5 24.379 35.5 20.3044C35.5 16.2299 35.4823 15.7199 35.41 14.1204Z" fill="#1F3B59"/>
</svg>
