<svg width="41" height="41" viewBox="0 0 41 41" fill="none" xmlns="http://www.w3.org/2000/svg">
<path d="M31.4516 14.5975C32.5279 13.7903 33.4966 12.8216 34.25 11.6914C33.2813 12.122 32.1512 12.4449 31.021 12.5525C32.205 11.8529 33.066 10.7766 33.4966 9.43116C32.4203 10.0769 31.1825 10.5613 29.9447 10.8304C28.8684 9.70024 27.4154 9.05444 25.8009 9.05444C22.6796 9.05444 20.1502 11.5838 20.1502 14.7051C20.1502 15.1357 20.204 15.5662 20.3116 15.9967C15.6296 15.7276 11.432 13.4674 8.63356 10.0769C8.14922 10.8842 7.88014 11.8529 7.88014 12.9292C7.88014 14.8666 8.84883 16.5887 10.4095 17.6112C9.49462 17.5574 8.57975 17.3421 7.82632 16.9116V16.9654C7.82632 19.71 9.7637 21.9703 12.3469 22.5085C11.9163 22.6161 11.3782 22.7237 10.8938 22.7237C10.5171 22.7237 10.1942 22.6699 9.81751 22.6161C10.5171 24.8764 12.6159 26.4908 15.0915 26.5447C13.1541 28.0515 10.7324 28.9664 8.0954 28.9664C7.61106 28.9664 7.18053 28.9126 6.75 28.8587C9.22554 30.4732 12.1854 31.3881 15.4144 31.3881C25.8009 31.3881 31.4516 22.8314 31.4516 15.3509C31.4516 15.0818 31.4516 14.8666 31.4516 14.5975Z" fill="#1F3B59"/>
</svg>
