<svg width="43" height="43" viewBox="0 0 43 43" fill="none" xmlns="http://www.w3.org/2000/svg">
<path fill-rule="evenodd" clip-rule="evenodd" d="M30.6875 12.3125H12.3125C10.8628 12.3125 9.6875 13.4878 9.6875 14.9375V28.0625C9.6875 29.5122 10.8628 30.6875 12.3125 30.6875H30.6875C32.1372 30.6875 33.3125 29.5122 33.3125 28.0625V14.9375C33.3125 13.4878 32.1372 12.3125 30.6875 12.3125ZM12.3125 9.6875C9.41301 9.6875 7.0625 12.038 7.0625 14.9375V28.0625C7.0625 30.962 9.41301 33.3125 12.3125 33.3125H30.6875C33.587 33.3125 35.9375 30.962 35.9375 28.0625V14.9375C35.9375 12.038 33.587 9.6875 30.6875 9.6875H12.3125Z" fill="#2274E5"/>
<path fill-rule="evenodd" clip-rule="evenodd" d="M25.4871 21.9777L19.8594 18.1186V25.8368L25.4871 21.9777ZM26.9951 20.6246C27.9455 21.2764 27.9455 22.6791 26.9951 23.3308L20.4591 27.8127C19.3704 28.5593 17.8906 27.7798 17.8906 26.4597V17.4957C17.8906 16.1756 19.3704 15.3961 20.4591 16.1427L26.9951 20.6246Z" fill="#2274E5"/>
</svg>
