<svg width="33" height="33" viewBox="0 0 33 33" fill="none" xmlns="http://www.w3.org/2000/svg">
<path fill-rule="evenodd" clip-rule="evenodd" d="M16.25 5.50002V17.7222H20.0682V20.922L26.7323 17.7222H30.25V5.50002H16.25ZM22.6136 16.9669V15.2778H18.7955V7.94446H27.7045V15.2778H26.1314L22.6136 16.9669Z" fill="#2274E5"/>
<path d="M17.5227 27.5C18.2257 27.5 18.7955 26.9528 18.7955 26.2778C18.7955 25.6028 18.2257 25.0556 17.5227 25.0556C16.8198 25.0556 16.25 25.6028 16.25 26.2778C16.25 26.9528 16.8198 27.5 17.5227 27.5Z" fill="#2274E5"/>
<path d="M24.5227 26.2778C24.5227 26.9528 23.9529 27.5 23.25 27.5C22.5471 27.5 21.9773 26.9528 21.9773 26.2778C21.9773 25.6028 22.5471 25.0556 23.25 25.0556C23.9529 25.0556 24.5227 25.6028 24.5227 26.2778Z" fill="#2274E5"/>
<path d="M28.9773 27.5C29.6802 27.5 30.25 26.9528 30.25 26.2778C30.25 25.6028 29.6802 25.0556 28.9773 25.0556C28.2744 25.0556 27.7045 25.6028 27.7045 26.2778C27.7045 26.9528 28.2744 27.5 28.9773 27.5Z" fill="#2274E5"/>
<path fill-rule="evenodd" clip-rule="evenodd" d="M14.755 5.5L13.2406 12.8791L10.0217 12.8791C9.97561 13.0138 9.92661 13.1681 9.87721 13.3413C9.65074 14.1356 9.41603 15.3293 9.41603 16.8666C9.41603 18.4039 9.65074 19.5976 9.87721 20.3919C9.9266 20.5651 9.97561 20.7194 10.0217 20.8541H13.2378L14.6203 27.5L7.18933 27.5C7.14155 27.4889 7.07166 27.4728 7.03645 27.4645L7.03059 27.4631L7.01775 27.4599L6.98775 27.4522C6.96585 27.4463 6.9402 27.439 6.91106 27.4301C6.85278 27.4122 6.7805 27.3877 6.69633 27.3548C6.52786 27.2888 6.3122 27.189 6.06657 27.0406C5.57203 26.7418 4.97151 26.2552 4.39514 25.478C3.2417 23.9227 2.25 21.2961 2.25 16.8666C2.25 12.4281 3.24519 9.65569 4.35179 7.951C4.9035 7.10109 5.47222 6.5337 5.93199 6.16761C6.16109 5.98519 6.36116 5.85432 6.51591 5.76401C6.59324 5.71888 6.65916 5.68393 6.71164 5.65776C6.73789 5.64468 6.76077 5.63379 6.78004 5.62492L6.8062 5.61312L6.81719 5.60831L6.82215 5.60617L6.8245 5.60517C6.82759 5.60385 6.8062 5.61312 6.82676 5.60421L7.0724 5.50002L14.755 5.5ZM7.6965 7.94446C7.65545 7.97331 7.60856 8.00806 7.55671 8.04935C7.30056 8.2533 6.91473 8.62358 6.51189 9.24414C5.70938 10.4804 4.79545 12.7801 4.79545 16.8666C4.79545 20.962 5.71286 23.041 6.46853 24.06C6.84672 24.57 7.20076 24.8378 7.42213 24.9716C7.48281 25.0083 7.53483 25.0356 7.5762 25.0555H11.5161L11.1506 23.2985L8.37877 23.2985L8.02379 22.6345L8.02294 22.6329L8.02199 22.6311L8.01983 22.627L8.01444 22.6167L7.99954 22.5876C7.98785 22.5645 7.97272 22.5338 7.95465 22.4958C7.91851 22.4198 7.87062 22.3142 7.81506 22.1799C7.70395 21.9114 7.56201 21.5281 7.42212 21.0374C7.14223 20.0557 6.87058 18.6446 6.87058 16.8666C6.87058 15.0886 7.14223 13.6775 7.42212 12.6958C7.56201 12.2051 7.70395 11.8218 7.81506 11.5533C7.87062 11.4191 7.91851 11.3134 7.95465 11.2374C7.97272 11.1994 7.98785 11.1687 7.99954 11.1456L8.01444 11.1165L8.01983 11.1062L8.02199 11.1021L8.02294 11.1003C8.02294 11.1003 8.01123 11.1224 7.99954 11.1456L8.02379 11.0987L8.37877 10.4347H11.1478L11.6589 7.94445L7.6965 7.94446ZM10.2897 21.5208C10.2909 21.5231 10.2918 21.5248 10.2918 21.5248L10.2908 21.5228L10.2897 21.5208Z" fill="#2274E5"/>
</svg>
