<svg width="47" height="47" viewBox="0 0 47 47" fill="none" xmlns="http://www.w3.org/2000/svg">
<path d="M21.1635 37.72C12.0313 37.72 4.60697 30.2957 4.60697 21.1635C4.60697 12.0313 12.0313 4.60697 21.1635 4.60697C30.2957 4.60697 37.72 12.0313 37.72 21.1635C37.72 21.878 37.6502 22.5751 37.5631 23.2722L41.8852 23.8299C42.0072 22.9585 42.0769 22.0697 42.0769 21.1635C42.0769 9.60878 32.7182 0.25 21.1635 0.25C9.60878 0.25 0.25 9.60878 0.25 21.1635C0.25 32.7182 9.60878 42.0769 21.1635 42.0769C21.9129 42.0769 22.6448 42.0421 23.3594 41.9549L22.9063 37.6328C22.3311 37.6851 21.756 37.72 21.1635 37.72Z" fill="white"/>
<path fill-rule="evenodd" clip-rule="evenodd" d="M36.0557 28.2859C31.7628 28.2859 28.2859 31.7628 28.2859 36.0557C28.2859 40.3487 31.7628 43.8256 36.0557 43.8256C40.3487 43.8256 43.8256 40.3487 43.8256 36.0557C43.8256 31.7628 40.3309 28.2859 36.0557 28.2859ZM25.625 36.0557C25.625 30.3082 30.2905 25.625 36.038 25.625C41.7856 25.625 46.4688 30.2905 46.4688 36.0557C46.4688 41.821 41.8033 46.4688 36.0557 46.4688C30.3082 46.4688 25.625 41.8033 25.625 36.0557Z" fill="white"/>
<path fill-rule="evenodd" clip-rule="evenodd" d="M22.9406 21.8438L22.4352 22.3492L16.2309 28.5535L13.7561 26.0962L19.455 20.3972V8.70312H22.9406V21.1118V21.8438Z" fill="white"/>
<path d="M37.7324 32.3135C37.7324 33.1568 37.0532 33.836 36.2099 33.836C35.3667 33.836 34.6874 33.1568 34.6874 32.3135C34.6874 31.4703 35.3667 30.791 36.2099 30.791C37.0532 30.791 37.7324 31.4703 37.7324 32.3135Z" fill="white"/>
<path d="M34.6874 34.959V41.3027H37.7324V34.959H34.6874Z" fill="white"/>
</svg>
