<svg width="25" height="24" viewBox="0 0 25 24" fill="none" xmlns="http://www.w3.org/2000/svg">
<g clip-path="url(#clip0_1172_97776)">
<circle cx="12.5" cy="12" r="10" fill="#F7F7F7"/>
<path d="M24.5 12C24.5 15.1826 23.2357 18.2348 20.9853 20.4853C18.7348 22.7357 15.6826 24 12.5 24C9.3174 24 6.26516 22.7357 4.01472 20.4853C1.76428 18.2348 0.5 15.1826 0.5 12C0.5 8.8174 1.76428 5.76516 4.01472 3.51472C6.26516 1.26428 9.3174 0 12.5 0C15.6826 0 18.7348 1.26428 20.9853 3.51472C23.2357 5.76516 24.5 8.8174 24.5 12ZM12.5 6C12.3104 6.00011 12.1229 6.03993 11.9497 6.11689C11.7764 6.19386 11.6212 6.30626 11.494 6.44687C11.3668 6.58747 11.2705 6.75316 11.2113 6.93325C11.152 7.11334 11.1311 7.30385 11.15 7.4925L11.675 12.753C11.6926 12.9597 11.7872 13.1522 11.94 13.2925C12.0927 13.4327 12.2926 13.5106 12.5 13.5106C12.7074 13.5106 12.9073 13.4327 13.06 13.2925C13.2128 13.1522 13.3074 12.9597 13.325 12.753L13.85 7.4925C13.8689 7.30385 13.848 7.11334 13.7887 6.93325C13.7295 6.75316 13.6332 6.58747 13.506 6.44687C13.3788 6.30626 13.2236 6.19386 13.0503 6.11689C12.8771 6.03993 12.6896 6.00011 12.5 6ZM12.503 15C12.1052 15 11.7236 15.158 11.4423 15.4393C11.161 15.7206 11.003 16.1022 11.003 16.5C11.003 16.8978 11.161 17.2794 11.4423 17.5607C11.7236 17.842 12.1052 18 12.503 18C12.9008 18 13.2824 17.842 13.5637 17.5607C13.845 17.2794 14.003 16.8978 14.003 16.5C14.003 16.1022 13.845 15.7206 13.5637 15.4393C13.2824 15.158 12.9008 15 12.503 15Z" fill="#F8A629"/>
</g>
<defs>
<clipPath id="clip0_1172_97776">
<rect width="24" height="24" fill="white" transform="translate(0.5)"/>
</clipPath>
</defs>
</svg>
