<svg width="39" height="39" viewBox="0 0 39 39" fill="none" xmlns="http://www.w3.org/2000/svg">
<path fill-rule="evenodd" clip-rule="evenodd" d="M26 2.88889C20.4158 2.88889 15.8889 7.41579 15.8889 13C15.8889 18.5842 20.4158 23.1111 26 23.1111C31.5842 23.1111 36.1111 18.5842 36.1111 13C36.1111 7.41579 31.5842 2.88889 26 2.88889ZM13 13C13 5.8203 18.8203 0 26 0C33.1797 0 39 5.8203 39 13C39 20.1797 33.1797 26 26 26C18.8203 26 13 20.1797 13 13ZM0 5.77778H10.8333V8.66667H2.88889V14.4444H10.8333V17.3333H2.88889V36.1111H31.7778V27.4444H34.6667V39H0V5.77778ZM33.5214 10.4103L24.5556 19.3761L19.2008 14.0214L21.2436 11.9786L24.5556 15.2906L31.4786 8.36751L33.5214 10.4103ZM14.4444 33.2222H5.77778V30.3333H14.4444V33.2222Z" fill="white"/>
</svg>
