<svg width="47" height="46" viewBox="0 0 47 46" fill="none" xmlns="http://www.w3.org/2000/svg">
<path fill-rule="evenodd" clip-rule="evenodd" d="M17.037 0C16.0961 0 15.3333 0.762774 15.3333 1.7037C15.3333 2.64463 16.0961 3.40741 17.037 3.40741V6.09356C15.8847 6.30466 14.806 6.72602 13.8419 7.31639L12.6329 6.10735C12.2423 5.71682 11.6092 5.71682 11.2186 6.10735C10.8281 6.49787 10.8281 7.13104 11.2186 7.52156L12.2447 8.54762C10.4591 10.2576 9.34713 12.6654 9.34713 15.333C9.34713 20.5209 13.5528 24.7265 18.7407 24.7265C23.9285 24.7265 28.1342 20.5209 28.1342 15.333C28.1342 12.6654 27.0223 10.2576 25.2366 8.54765L26.2627 7.52156C26.6533 7.13104 26.6533 6.49787 26.2627 6.10735C25.8722 5.71682 25.239 5.71682 24.8485 6.10735L23.6395 7.31642C22.6754 6.72605 21.5967 6.30469 20.4444 6.09358V3.40741C21.3853 3.40741 22.1481 2.64463 22.1481 1.7037C22.1481 0.762774 21.3853 0 20.4444 0H17.037ZM11.0971 15.333C11.0971 11.1116 14.5193 7.68945 18.7407 7.68945C22.962 7.68945 26.3842 11.1116 26.3842 15.333C26.3842 19.5544 22.962 22.9765 18.7407 22.9765C14.5193 22.9765 11.0971 19.5544 11.0971 15.333ZM31.5184 10.9259C30.9661 10.9259 30.5184 11.3736 30.5184 11.9259C30.5184 12.4782 30.9661 12.9259 31.5184 12.9259H34.7743C35.6568 12.9259 36.4945 13.3144 37.0645 13.9881L44.2901 22.5274C44.7484 23.0691 44.9999 23.7557 44.9999 24.4652V37.1852C44.9999 37.7375 44.5522 38.1852 43.9999 38.1852H40.1037C39.6264 35.2858 37.1085 33.0741 34.074 33.0741C31.0393 33.0741 28.5213 35.286 28.0442 38.1855H18.7407C18.4473 38.1855 18.1834 38.3119 18.0004 38.5133C17.6659 35.4543 15.0738 33.0741 11.9258 33.0741C8.89132 33.0741 6.37338 35.2858 5.89614 38.1852H3.70361C3.15133 38.1852 2.70361 37.7375 2.70361 37.1852V13.9259C2.70361 13.3736 3.15133 12.9259 3.70361 12.9259H5.96287C6.51516 12.9259 6.96287 12.4782 6.96287 11.9259C6.96287 11.3736 6.51516 10.9259 5.96287 10.9259H3.70361C2.04676 10.9259 0.703613 12.2691 0.703613 13.9259V37.1852C0.703613 38.842 2.04676 40.1852 3.70361 40.1852H5.89614C6.37339 43.0846 8.89132 45.2963 11.9258 45.2963C15.0736 45.2963 17.6655 42.9164 18.0004 39.8578C18.1833 40.0591 18.4472 40.1855 18.7407 40.1855H28.0443C28.5217 43.0847 31.0396 45.2963 34.074 45.2963C37.1085 45.2963 39.6264 43.0846 40.1037 40.1852H43.9999C45.6568 40.1852 46.9999 38.842 46.9999 37.1852V24.4652C46.9999 23.2826 46.5807 22.1383 45.8168 21.2355L38.5913 12.6962C37.6413 11.5735 36.2451 10.9259 34.7743 10.9259H31.5184ZM29.9629 39.1962C29.9689 41.4617 31.8072 43.2963 34.074 43.2963C36.3445 43.2963 38.1851 41.4557 38.1851 39.1852C38.1851 36.9147 36.3445 35.0741 34.074 35.0741C31.807 35.0741 29.9685 36.909 29.9629 39.1747L29.9629 39.1855L29.9629 39.1962ZM30.6665 24.7034C30.6665 24.233 31.0479 23.8516 31.5184 23.8516H34.9258C35.3962 23.8516 35.7776 24.233 35.7776 24.7034C35.7776 25.1739 35.3962 25.5553 34.9258 25.5553H31.5184C31.0479 25.5553 30.6665 25.1739 30.6665 24.7034ZM18.7407 11.1759C19.1549 11.1759 19.4907 11.5117 19.4907 11.9259V15.0227L21.8266 17.3586C22.1195 17.6515 22.1195 18.1263 21.8266 18.4192C21.5337 18.7121 21.0588 18.7121 20.7659 18.4192L18.2104 15.8637L17.9907 15.644V15.3333V11.9259C17.9907 11.5117 18.3265 11.1759 18.7407 11.1759ZM11.9258 35.0741C9.65533 35.0741 7.81472 36.9147 7.81472 39.1852C7.81472 41.4557 9.65533 43.2963 11.9258 43.2963C14.1963 43.2963 16.0369 41.4557 16.0369 39.1852C16.0369 36.9147 14.1963 35.0741 11.9258 35.0741Z" fill="#F5F9FC"/>
</svg>
