<svg width="46" height="47" viewBox="0 0 46 47" fill="none" xmlns="http://www.w3.org/2000/svg">
<path fill-rule="evenodd" clip-rule="evenodd" d="M0.75 0.75H2H40.5H41.75V2V9H39.25V3.25H3.25V35.75H19.6346V38.25H2H0.75V37V2V0.75ZM17.25 22.7565C17.25 18.1159 19.7284 14.053 23.4398 11.8212L22.1514 9.67876C17.7195 12.3438 14.75 17.2028 14.75 22.7565C14.75 23.9175 14.88 25.0497 15.1266 26.1387L17.5649 25.5864C17.359 24.6774 17.25 23.7304 17.25 22.7565ZM24.25 22.7539C24.25 17.6453 28.3914 13.5039 33.5 13.5039C38.6086 13.5039 42.75 17.6453 42.75 22.7539H45.25C45.25 16.2646 39.9893 11.0039 33.5 11.0039C27.0107 11.0039 21.75 16.2646 21.75 22.7539H24.25ZM33.7026 18.25C31.7002 18.25 30.077 19.8732 30.077 21.8756V30.8989C29.3299 31.0114 28.48 31.2438 27.6974 31.6932C26.3303 32.4783 25.2466 33.8923 25.2466 36.125C25.2466 38.0401 25.3099 39.6617 25.565 40.9878C25.8231 42.329 26.2995 43.491 27.2193 44.37C28.1348 45.245 29.342 45.6985 30.7722 45.9298C32.194 46.1598 33.9579 46.1886 36.1053 46.116C38.2336 46.044 39.9536 45.9192 41.296 45.5822C42.6799 45.2348 43.7943 44.6294 44.5548 43.5156C45.2746 42.4615 45.5622 41.1113 45.7002 39.5477C45.8382 37.9827 45.8382 36.0001 45.8382 33.5595V33.5594V33.5C45.8382 32.0449 45.4344 30.8581 44.6588 29.9533C43.8993 29.0672 42.8861 28.572 41.8804 28.2878C40.4287 27.8775 38.7346 27.8503 37.3665 27.8625L37.3282 21.8525C37.3154 19.8592 35.6959 18.25 33.7026 18.25ZM28.9423 33.8612C29.2901 33.6615 29.6852 33.5268 30.077 33.44V37.1794H32.577V32.0545V21.8756C32.577 21.254 33.081 20.75 33.7026 20.75C34.3215 20.75 34.8242 21.2496 34.8282 21.8684L34.8746 29.133L34.8825 30.375H36.1246C36.4081 30.375 36.696 30.3721 36.9858 30.3691H36.986C38.4413 30.3542 39.9453 30.3388 41.2005 30.6935C41.916 30.8958 42.4267 31.1907 42.7607 31.5803C43.0787 31.9513 43.3382 32.526 43.3382 33.5C43.3382 36.0127 43.3371 37.8857 43.2098 39.328C43.0814 40.7845 42.8361 41.5993 42.4903 42.1058C42.1852 42.5525 41.7011 42.903 40.6873 43.1574C39.632 43.4223 38.1551 43.5453 36.0209 43.6174C33.9058 43.6889 32.3426 43.6513 31.1714 43.4619C30.0087 43.2738 29.3571 42.9551 28.9466 42.5627C28.5403 42.1744 28.2236 41.5739 28.02 40.5155C27.8134 39.4418 27.7466 38.0265 27.7466 36.125C27.7466 34.8577 28.2888 34.2365 28.9423 33.8612Z" fill="white"/>
</svg>
