<svg width="129" height="129" viewBox="0 0 129 129" fill="none" xmlns="http://www.w3.org/2000/svg">
<g clip-path="url(#clip0_2320_10226)">
<mask id="mask0_2320_10226" style="mask-type:luminance" maskUnits="userSpaceOnUse" x="0" y="0" width="129" height="128">
<path d="M128.135 0H0.865234V128H128.135V0Z" fill="white"/>
</mask>
<g mask="url(#mask0_2320_10226)">
<path d="M8.1561 15.1641L1.9093 21.5008C1.9093 21.5008 2.13741 34.0931 2.53223 34.1369C2.92704 34.1808 15.9119 22.5821 15.9119 22.5821L8.1561 15.1641Z" fill="#8BB3CC"/>
<path d="M117.925 115.271C98.9912 91.6392 88.2282 56.0689 91.9065 26.0128C61.8702 24.3173 31.9874 20.9132 1.90927 21.501C-1.58481 55.0578 3.82411 95.8966 16.2804 127.249C51.831 130.168 86.9473 124.255 117.925 115.271Z" fill="#8BB3CC"/>
<path d="M120.475 111.723C101.299 88.2978 90.1606 52.8482 93.5208 22.7614C63.4735 21.3839 33.3714 21.1492 3.30643 22.0551C0.167695 55.6404 5.23881 90.0197 18.0241 121.234C52.228 124.96 87.7149 122.23 120.475 111.723Z" fill="#8BB3CC"/>
<path d="M123.029 108.174C103.606 84.9546 92.0929 49.6278 95.1352 19.5081C65.0747 18.4487 34.9769 18.532 4.92302 19.7581C2.1396 53.3719 7.57483 87.6942 20.6891 118.77C54.9281 122.133 90.3821 119.027 123.029 108.174Z" fill="#8BB3CC"/>
<path d="M125.582 104.629C105.914 81.6156 94.0275 46.4094 96.7495 16.2567C66.6781 15.5154 36.5803 15.919 6.53957 17.4609C4.11148 51.1076 9.91082 85.3707 23.3541 116.309C57.6281 119.309 93.0493 115.826 125.582 104.629Z" fill="#8BB3CC"/>
<path d="M128.135 99.972C108.219 77.1651 95.96 43.1894 98.3617 13.0061C68.2793 12.5828 38.1815 13.3044 8.15394 15.1666C6.08337 48.8418 12.2446 83.0456 26.017 113.845C60.3283 116.482 98.75 112.02 128.135 99.972Z" fill="#E8ECEF"/>
<path d="M98.3617 13.0061C68.2793 12.5828 38.1815 13.3044 8.15395 15.1666C7.61438 23.9555 7.63851 32.7817 8.20879 41.5729C42.8096 40.2152 69.6041 38.2411 99.2544 36.6772C98.0898 28.656 97.752 20.672 98.3617 13.0061Z" fill="#F7461C"/>
<path d="M17.8685 25.4586C19.9944 25.4586 21.7179 23.7352 21.7179 21.6092C21.7179 19.4832 19.9944 17.7598 17.8685 17.7598C15.7425 17.7598 14.019 19.4832 14.019 21.6092C14.019 23.7352 15.7425 25.4586 17.8685 25.4586Z" fill="#0C4660"/>
<path d="M40.9145 25.4586C43.0405 25.4586 44.7639 23.7352 44.7639 21.6092C44.7639 19.4832 43.0405 17.7598 40.9145 17.7598C38.7884 17.7598 37.0651 19.4832 37.0651 21.6092C37.0651 23.7352 38.7884 25.4586 40.9145 25.4586Z" fill="#0C4660"/>
<path d="M66.8667 24.3785C68.9928 24.3785 70.7162 22.6552 70.7162 20.5291C70.7162 18.4031 68.9928 16.6797 66.8667 16.6797C64.7409 16.6797 63.0173 18.4031 63.0173 20.5291C63.0173 22.6552 64.7409 24.3785 66.8667 24.3785Z" fill="#0C4660"/>
<path d="M91.1586 23.5953C93.2847 23.5953 95.008 21.8719 95.008 19.7459C95.008 17.6199 93.2847 15.8965 91.1586 15.8965C89.0328 15.8965 87.3092 17.6199 87.3092 19.7459C87.3092 21.8719 89.0328 23.5953 91.1586 23.5953Z" fill="#0C4660"/>
<path d="M15.3439 37.6793C16.3918 37.6793 17.2412 36.8298 17.2412 35.7821C17.2412 34.7343 16.3918 33.8848 15.3439 33.8848C14.2961 33.8848 13.4467 34.7343 13.4467 35.7821C13.4467 36.8298 14.2961 37.6793 15.3439 37.6793Z" fill="#7C1B08"/>
<path d="M28.1292 37.0543C29.1772 37.0543 30.0265 36.2048 30.0265 35.1571C30.0265 34.1093 29.1772 33.2598 28.1292 33.2598C27.0814 33.2598 26.2319 34.1093 26.2319 35.1571C26.2319 36.2048 27.0814 37.0543 28.1292 37.0543Z" fill="#7C1B08"/>
<path d="M40.9145 36.4293C41.9625 36.4293 42.8118 35.5798 42.8118 34.5321C42.8118 33.4843 41.9625 32.6348 40.9145 32.6348C39.8667 32.6348 39.0172 33.4843 39.0172 34.5321C39.0172 35.5798 39.8667 36.4293 40.9145 36.4293Z" fill="#7C1B08"/>
<path d="M53.6998 35.8004C54.7478 35.8004 55.5971 34.9509 55.5971 33.9031C55.5971 32.8554 54.7478 32.0059 53.6998 32.0059C52.652 32.0059 51.8025 32.8554 51.8025 33.9031C51.8025 34.9509 52.652 35.8004 53.6998 35.8004Z" fill="#7C1B08"/>
<path d="M66.4853 35.1754C67.5331 35.1754 68.3826 34.3259 68.3826 33.2781C68.3826 32.2304 67.5331 31.3809 66.4853 31.3809C65.4373 31.3809 64.588 32.2304 64.588 33.2781C64.588 34.3259 65.4373 35.1754 66.4853 35.1754Z" fill="#7C1B08"/>
<path d="M79.606 34.5524C80.6538 34.5524 81.5033 33.7029 81.5033 32.6551C81.5033 31.6073 80.6538 30.7578 79.606 30.7578C78.5582 30.7578 77.7087 31.6073 77.7087 32.6551C77.7087 33.7029 78.5582 34.5524 79.606 34.5524Z" fill="#7C1B08"/>
<path d="M91.7464 33.9196C92.7944 33.9196 93.6437 33.0701 93.6437 32.0223C93.6437 30.9745 92.7944 30.125 91.7464 30.125C90.6986 30.125 89.8491 30.9745 89.8491 32.0223C89.8491 33.0701 90.6986 33.9196 91.7464 33.9196Z" fill="#7C1B08"/>
<path d="M27.9997 43.4027C28.4866 49.0025 29.2806 54.5737 30.3313 60.0923C31.3951 65.6087 32.687 71.0834 34.207 76.4945C35.7336 81.9034 37.4203 87.2706 39.2891 92.5743L40.6973 96.5509L42.1603 100.51L43.6584 104.456L45.1915 108.389L45.1937 108.393C45.2595 108.562 45.1762 108.753 45.0073 108.819C44.8406 108.884 44.6542 108.803 44.584 108.641L42.9345 104.745C42.4059 103.438 41.862 102.137 41.3443 100.826L39.8177 96.8799C39.3286 95.5573 38.8263 94.2369 38.3481 92.9098C36.4574 87.5931 34.7005 82.2214 33.2068 76.7752C31.7065 71.3312 30.4015 65.828 29.4122 60.2655C28.4099 54.7053 27.6948 49.0924 27.3439 43.4532C27.3329 43.2711 27.4711 43.1154 27.6509 43.1044C27.8308 43.0912 27.9843 43.225 27.9997 43.4027Z" fill="#9EBDC6"/>
<path d="M46.979 42.594C48.1393 53.5061 50.5257 64.2647 53.7588 74.7404C54.1756 76.0454 54.5901 77.3527 54.9937 78.6622L56.2768 82.5708L57.628 86.4575L59.0493 90.3201C60.9882 95.4548 63.1027 100.524 65.3575 105.529C65.4321 105.696 65.3575 105.889 65.193 105.966C65.0285 106.04 64.8355 105.968 64.7587 105.805C62.4271 100.82 60.2359 95.7663 58.218 90.6403L56.7374 86.7843L55.3249 82.8998L53.9891 78.989C53.5724 77.6751 53.1622 76.3591 52.7586 75.0431C49.6308 64.4775 47.3585 53.6355 46.321 42.6598C46.3035 42.4777 46.4373 42.3176 46.6171 42.3C46.8014 42.2847 46.9593 42.4163 46.979 42.594Z" fill="#9EBDC6"/>
<path d="M65.9584 41.7874C66.6779 47.0932 67.6737 52.3574 68.9151 57.5623C70.1566 62.7672 71.6481 67.9107 73.3436 72.9841L74.6245 76.7852L75.9669 80.5666L77.3838 84.3217L78.8753 88.0483C80.9108 92.9988 83.1349 97.8747 85.5235 102.672C85.6047 102.834 85.5389 103.031 85.3766 103.113C85.2143 103.194 85.019 103.128 84.9379 102.968C82.4747 98.1928 80.1738 93.3322 78.0594 88.3905L76.5087 84.6683L75.0303 80.9154L73.6287 77.134C73.1769 75.8684 72.7514 74.5918 72.3215 73.3175C70.672 68.1981 69.2485 63.0041 68.0663 57.7575C66.8862 52.5109 65.9562 47.2073 65.3048 41.8707C65.2829 41.6909 65.4123 41.5264 65.5921 41.5044C65.772 41.4825 65.9343 41.6075 65.9584 41.7874Z" fill="#9EBDC6"/>
<path d="M84.9381 40.9749L85.6619 44.8265L86.4669 48.6606C86.7608 49.9327 87.0393 51.2071 87.342 52.4771C87.6645 53.7427 87.9715 55.0105 88.3071 56.2717C89.6429 61.3187 91.1805 66.3086 92.944 71.2218C94.6767 76.146 96.6486 80.9825 98.7762 85.7509C99.3202 86.9375 99.8532 88.1307 100.408 89.3108L102.112 92.8378L103.871 96.3406L105.692 99.8128L105.694 99.8193C105.778 99.9795 105.716 100.179 105.556 100.262C105.398 100.346 105.203 100.287 105.117 100.133L103.187 96.7047L101.332 93.2348C100.731 92.0679 100.151 90.89 99.5614 89.7188C98.9846 88.5409 98.4318 87.3499 97.8638 86.1676C95.6506 81.408 93.6766 76.5364 91.8955 71.5947C90.1452 66.6442 88.6032 61.617 87.3245 56.5239C87.0086 55.2495 86.7213 53.9686 86.4164 52.692C86.1335 51.4111 85.8725 50.1236 85.5983 48.8404L84.892 44.9669C84.6814 43.6728 84.484 42.3743 84.2866 41.078C84.2603 40.8981 84.3831 40.7314 84.563 40.7029C84.7385 40.6766 84.903 40.7929 84.9359 40.9661L84.9381 40.9749Z" fill="#9EBDC6"/>
<path d="M15.9097 58.095L21.1212 58.0249C22.8585 57.9832 24.5956 57.959 26.3328 57.9064C29.8071 57.8099 33.2793 57.7112 36.7536 57.5708C43.6979 57.2879 50.64 56.9523 57.5755 56.4939C64.5089 56.0267 71.44 55.5156 78.3558 54.8378L83.5409 54.3268L88.7217 53.7587L93.896 53.1402L99.0614 52.458H99.0636C99.2435 52.4339 99.4102 52.5611 99.4321 52.741C99.4562 52.9164 99.3334 53.0787 99.1601 53.1095C92.2904 54.2478 85.3768 55.1054 78.4545 55.8293C71.5277 56.5246 64.59 57.1058 57.6435 57.5291C50.697 57.959 43.7462 58.3056 36.7887 58.5052C33.31 58.6083 29.8313 58.6938 26.3525 58.7333C24.6132 58.7596 22.8716 58.7552 21.1322 58.7684L15.9119 58.7552C15.7298 58.7552 15.5829 58.6061 15.5829 58.4262C15.5829 58.2464 15.7276 58.1016 15.9075 58.0972L15.9097 58.095Z" fill="#9EBDC6"/>
<path d="M20.5004 76.0001C22.2661 75.9475 24.0317 75.908 25.7974 75.8466C27.5631 75.7764 29.3288 75.7238 31.0922 75.6382C34.6214 75.4803 38.1506 75.3158 41.6776 75.1074C48.7315 74.6885 55.7811 74.2038 62.8219 73.5918C69.8605 72.9711 76.8947 72.2933 83.907 71.4445L89.1668 70.7996C90.9193 70.5759 92.6674 70.328 94.4178 70.0933L99.66 69.33L104.891 68.4943H104.893C105.073 68.4658 105.242 68.5887 105.271 68.7685C105.299 68.944 105.181 69.1085 105.007 69.1436C98.0566 70.4925 91.0487 71.5344 84.0276 72.4337C77.0022 73.3045 69.9636 74.048 62.9096 74.6271C55.8579 75.2127 48.7973 75.7062 41.728 76.044C38.1945 76.2151 34.6587 76.3686 31.1208 76.4695C29.3529 76.5288 27.5828 76.5529 25.8149 76.5946C24.0471 76.6297 22.2771 76.6406 20.507 76.6647C20.325 76.6669 20.1758 76.5222 20.1736 76.3401C20.1714 76.1603 20.314 76.0111 20.4917 76.0067L20.5004 76.0001Z" fill="#9EBDC6"/>
<path d="M25.0935 93.906C26.8877 93.8249 28.6841 93.7612 30.4783 93.6669C32.2725 93.566 34.0667 93.4871 35.8587 93.3664C39.4449 93.1471 43.0311 92.9146 46.6129 92.6382C53.7766 92.0811 60.9358 91.4516 68.0819 90.6839C75.2258 89.9096 82.3631 89.0718 89.4741 88.0453L94.8062 87.2688C96.5829 87.0012 98.353 86.7051 100.127 86.4243L105.438 85.5163L110.732 84.527H110.737C110.915 84.4941 111.088 84.6104 111.121 84.7903C111.154 84.9657 111.042 85.1324 110.868 85.1719C103.836 86.7336 96.7364 87.9575 89.6189 89.0323C82.4969 90.0785 75.353 90.9822 68.1938 91.7148C61.0345 92.454 53.8643 93.0945 46.6831 93.5704C44.8889 93.702 43.0925 93.7985 41.2962 93.9104C39.4998 94.0266 37.7034 94.1078 35.9048 94.1933C34.1084 94.2877 32.3098 94.3359 30.5112 94.4105C28.7126 94.4763 26.9141 94.5136 25.1155 94.5662C24.9334 94.5706 24.7821 94.428 24.7777 94.246C24.7733 94.0661 24.9115 93.9148 25.0913 93.9082L25.0935 93.906Z" fill="#9EBDC6"/>
<path d="M24.0012 10.9565C23.1853 8.14239 21.2946 5.68579 18.8139 4.21841C16.456 2.82341 13.6287 2.3299 10.8541 2.83218C7.99608 3.34763 5.50438 4.9203 4.02164 7.1444C2.46432 9.48037 1.35227 12.5533 2.11777 16.1066C2.39633 17.3963 2.93152 18.6224 3.62903 19.7498L6.82919 16.5102C6.42341 15.896 6.20846 15.2951 6.10976 14.7884C5.68643 12.641 6.48483 10.7701 7.4894 9.45624C8.53127 8.09195 9.84292 7.24968 11.5932 6.93383C13.3853 6.6114 15.1948 6.92067 16.6907 7.80461C18.2699 8.739 19.4741 10.3117 19.9983 12.119C20.2243 12.8977 20.3142 13.707 20.2703 14.4769C20.2484 14.8564 20.1979 15.2293 20.1102 15.5824C19.7549 17.0213 18.8007 18.357 17.4935 19.2432C17.3005 19.3748 16.978 19.5349 16.7236 19.7915C16.3419 20.1907 16.2191 20.4846 16.0985 21.0198C15.9011 21.895 16.2279 22.9105 16.9934 23.3799C17.3092 23.5751 17.6755 23.6651 18.0484 23.6804C18.9784 23.5137 19.4171 23.1518 19.9786 22.7723C22.1259 21.3159 23.5582 19.0063 24.1569 16.5804C24.3412 15.8302 24.4355 15.0538 24.4465 14.2664C24.464 13.1719 24.3193 12.0532 24.0012 10.9565Z" fill="#159AE5"/>
<path d="M49.6441 10.0776C48.8282 7.26348 46.9375 4.8069 44.4568 3.33951C42.0989 1.9445 39.2716 1.45099 36.4947 1.95328C33.6367 2.46874 31.145 4.0414 29.6623 6.2655C28.2103 8.44355 27.6619 11.3366 28.1511 14.1135C29.5592 14.0498 30.9652 13.9885 32.3733 13.9292C32.3602 13.8766 32.3448 13.8218 32.3317 13.7691C31.9084 11.942 32.2132 9.9526 33.1301 8.57515C33.9877 7.28763 35.4836 6.36859 37.2339 6.05274C39.0259 5.73032 40.8355 6.03958 42.3314 6.92352C43.9084 7.85791 45.1148 9.43057 45.639 11.2379C45.8496 11.9639 45.9439 12.7163 45.922 13.4401C45.9088 13.8744 45.8518 14.2999 45.7531 14.7013C45.3977 16.1402 44.4436 17.476 43.1363 18.3621C42.373 18.8797 41.4935 19.257 40.5108 19.4917C39.8967 19.8053 39.3944 20.3318 39.2014 20.9898C38.9294 21.911 39.3878 23.034 40.2893 23.3718C40.7609 23.5473 41.2829 23.5056 41.7808 23.4332C41.8949 23.4157 42.0089 23.3981 42.123 23.3784C43.3447 23.0209 44.4655 22.4988 45.4767 21.8123C47.624 20.3559 49.2011 18.1274 49.7999 15.7015C49.9907 14.9294 50.0828 14.131 50.0916 13.3216C50.1004 12.2469 49.9556 11.1524 49.6441 10.0776Z" fill="#159AE5"/>
<path d="M75.0656 9.19675C74.2497 6.38262 72.359 3.92602 69.8782 2.45864C67.5203 1.06364 64.6952 0.57013 61.9184 1.07242C59.0604 1.58787 56.5687 3.16052 55.086 5.38463C53.6339 7.56486 53.0834 10.458 53.5747 13.237C54.9894 13.2019 56.4042 13.1712 57.8189 13.1427C57.797 13.0593 57.7729 12.976 57.7553 12.8904C57.332 11.0633 57.6369 9.07392 58.5537 7.69647C59.4113 6.40894 60.9072 5.48991 62.6576 5.17406C64.4496 4.84944 66.2591 5.1609 67.755 6.04484C69.3343 6.97923 70.5384 8.55189 71.0627 10.3592C71.3105 11.2147 71.396 12.1052 71.3215 12.9409C71.293 13.2436 71.2469 13.5375 71.1767 13.8226C70.8214 15.2615 69.8673 16.5973 68.56 17.4834C67.9919 17.8694 67.358 18.1743 66.6671 18.4024C66.1429 18.5911 65.6625 18.9881 65.373 19.3763C64.9804 19.9027 64.8334 20.6397 65.1142 21.2319C65.362 21.7583 65.7283 22.2102 66.281 22.3922C66.6627 22.5195 67.1716 22.5677 67.6366 22.469C68.8232 22.1115 69.9133 21.6004 70.9003 20.9314C73.0477 19.475 74.6247 17.2465 75.2235 14.8206C75.3771 14.1977 75.467 13.5572 75.5021 12.9102C75.5657 11.6841 75.4231 10.4272 75.0656 9.19675Z" fill="#159AE5"/>
<path d="M99.612 8.31589C98.796 5.50176 96.9053 3.04516 94.4246 1.57778C92.0667 0.182785 89.2394 -0.31073 86.4626 0.191559C83.6046 0.707006 81.1129 2.27966 79.6302 4.50377C78.0838 6.82438 77.5618 9.95655 78.2286 12.8935C79.674 12.8891 81.1195 12.8869 82.5627 12.8869C82.4574 12.5974 82.3675 12.3035 82.2995 12.0074C81.8762 10.1803 82.1811 8.19086 83.0979 6.81341C83.9555 5.52589 85.4514 4.60685 87.2018 4.29101C88.9938 3.96638 90.8033 4.27785 92.2992 5.16178C93.8763 6.09617 95.0826 7.66884 95.6068 9.47619C95.9446 10.6387 95.9841 11.8692 95.7209 12.9396C95.7187 12.9505 95.7143 12.9615 95.7121 12.9725C95.3502 14.4004 94.4027 15.7208 93.1042 16.6003C92.4089 17.0719 91.6149 17.4251 90.7353 17.6619C90.3471 17.8067 90.0795 17.9932 89.8799 18.2081C89.5618 18.5547 89.3952 19.0197 89.3579 19.489C89.3074 20.1405 89.5948 20.8862 90.1124 21.2832C90.5335 21.6057 91.1104 21.8535 91.753 21.7066C93.1042 21.349 94.3391 20.7963 95.4423 20.0484C96.482 19.3421 97.3857 18.456 98.1117 17.4536C98.886 16.3854 99.4563 15.19 99.7655 13.9376C100.213 12.1434 100.158 10.1978 99.612 8.31589Z" fill="#159AE5"/>
<path d="M82.9355 70.4148C80.9615 70.2305 78.9721 70.7218 77.2525 71.6694C75.5328 72.6213 74.0501 74.0032 73.006 75.6482C71.9576 77.2933 71.3413 79.1774 71.3281 81.1032L71.3391 81.8248C71.3391 82.0661 71.3851 82.3052 71.4049 82.5442L71.4421 82.904C71.4553 83.0224 71.486 83.1408 71.508 83.2593L71.6461 83.9699C71.8874 84.9043 72.2142 85.819 72.6485 86.6876C73.5303 88.4116 74.7739 89.9601 76.2852 91.1577C76.6493 91.4757 77.0616 91.7258 77.4542 92.0043L78.0772 92.3641C78.1825 92.4233 78.2834 92.4869 78.3908 92.5395L78.7154 92.6909C79.5687 93.1208 80.4987 93.4081 81.4331 93.6319L82.1415 93.7788L82.8588 93.8753C82.9794 93.8907 83.0979 93.9104 83.2185 93.9214L83.5804 93.9433C83.8217 93.9543 84.0629 93.9806 84.3042 93.9806C85.2737 94.0025 86.2454 93.9236 87.2061 93.7766C89.1231 93.4454 90.9941 92.7962 92.6764 91.8201L92.9945 91.6424L93.2993 91.445C93.5011 91.3112 93.7073 91.1818 93.9091 91.0458C94.2929 90.7519 94.6965 90.4778 95.0519 90.1509C95.802 89.5412 96.4556 88.8195 97.0786 88.076C98.274 86.5516 99.2434 84.8232 99.7918 82.9676C100.094 82.0463 100.257 81.0944 100.364 80.1403C100.386 79.6621 100.439 79.184 100.406 78.7058L100.397 78.3483C100.395 78.2276 100.393 78.1092 100.373 77.9907L100.29 77.2801L100.27 77.1024L100.233 76.9291L100.158 76.5804L100.084 76.2316C100.07 76.1746 100.059 76.1154 100.046 76.0584L99.9914 75.8895L99.7764 75.2117C99.7457 75.0977 99.6997 74.988 99.6514 74.8783L99.5132 74.5493C99.1316 73.6741 98.649 72.8407 98.0766 72.062C96.9162 70.5135 95.405 69.2084 93.7227 68.1665C92.0359 67.1247 90.1891 66.3328 88.2458 65.8108C86.3134 65.2756 84.3064 64.9839 82.2929 64.9949C81.2861 64.9949 80.2771 65.0695 79.277 65.2142C78.2746 65.3546 77.281 65.5652 76.3027 65.8437H76.3005C76.068 65.9095 75.8246 65.7757 75.7588 65.541C75.6951 65.3173 75.818 65.0848 76.0329 65.008C77.0287 64.6527 78.0508 64.3654 79.0927 64.1526C80.1346 63.9442 81.194 63.8104 82.2578 63.7534C84.3876 63.6372 86.5371 63.8543 88.6208 64.339C90.7002 64.8194 92.7334 65.6046 94.6132 66.6772C96.482 67.7673 98.2016 69.1711 99.5768 70.9105C100.257 71.7834 100.847 72.7376 101.305 73.7575L101.472 74.1435C101.529 74.2707 101.584 74.4002 101.625 74.534L101.893 75.3324L101.959 75.5319C101.979 75.5999 101.992 75.6679 102.007 75.7359L102.101 76.1461L102.196 76.5563L102.242 76.7624L102.27 76.9708L102.382 77.8043C102.404 77.9425 102.411 78.0829 102.417 78.2211L102.435 78.64C102.479 79.1993 102.433 79.7542 102.411 80.3114C102.303 81.4168 102.134 82.5201 101.792 83.5729C101.171 85.6983 100.088 87.657 98.7368 89.3964C98.0371 90.2453 97.2935 91.0678 96.4381 91.774C96.0301 92.1491 95.5717 92.4606 95.133 92.7918C94.9049 92.9475 94.6724 93.0923 94.4399 93.2414L94.0912 93.463L93.7314 93.6648C91.821 94.7593 89.7131 95.4809 87.5461 95.845C86.4581 96.0073 85.357 96.0906 84.2538 96.0621C83.9774 96.0599 83.7032 96.027 83.4269 96.0095L83.0145 95.9788C82.8763 95.9656 82.7403 95.9415 82.6043 95.9218C82.3302 95.8801 82.056 95.845 81.784 95.7989L80.9725 95.6191C79.8977 95.3493 78.8405 95.0005 77.8447 94.4895L77.4674 94.3052C77.3424 94.2416 77.2261 94.1648 77.1055 94.0969L76.3883 93.6691C75.9386 93.3445 75.467 93.0462 75.0525 92.6755C74.8441 92.4935 74.6182 92.329 74.423 92.1338L73.8286 91.5547C73.629 91.3639 73.4579 91.1445 73.2736 90.9406C73.0916 90.7322 72.9073 90.5282 72.7472 90.3023L72.2515 89.6399L71.8041 88.9424C71.7317 88.8261 71.6527 88.7121 71.5847 88.5914L71.3895 88.2273C71.2623 87.9817 71.1219 87.7448 71.0079 87.4925C70.5341 86.4945 70.1831 85.4395 69.9331 84.3626C69.8826 84.0906 69.8388 83.8164 69.7927 83.5422C69.7708 83.4062 69.7423 83.2703 69.7313 83.1321L69.6984 82.7175C69.683 82.4411 69.6436 82.1648 69.6501 81.8862L69.6633 81.0527C69.6611 80.9145 69.6765 80.7764 69.6918 80.6382L69.7379 80.2236C69.7686 79.9473 69.7949 79.6709 69.8541 79.3967C69.9002 79.1203 69.9748 78.8506 70.0384 78.5808C70.1195 78.3154 70.1875 78.0434 70.2862 77.7846C70.6481 76.7339 71.1614 75.7447 71.7865 74.841C73.0433 73.0381 74.7388 71.5619 76.6975 70.6012C77.6736 70.1187 78.7198 69.7721 79.7946 69.5857C80.332 69.4891 80.8759 69.4497 81.4199 69.4365C81.9639 69.4299 82.5078 69.4738 83.0452 69.5484C83.2843 69.5813 83.4532 69.8028 83.4203 70.0419C83.3874 70.2744 83.179 70.4411 82.9465 70.4191L82.9355 70.4148Z" fill="#F7461C"/>
<path d="M24.0012 10.9559C23.2817 8.47517 21.7245 6.273 19.6649 4.7793C19.1517 5.02057 18.6779 5.343 18.2743 5.7422C17.6514 6.35635 17.2039 7.1372 16.967 7.97946C18.4081 8.9292 19.5026 10.4185 19.9961 12.1184C20.222 12.8971 20.312 13.7064 20.2681 14.4763C20.2462 14.8558 20.1957 15.2286 20.108 15.5818C19.7526 17.0206 18.7985 18.3564 17.4913 19.2425C17.2982 19.3742 16.9758 19.5343 16.7214 19.7909C16.3397 20.1901 16.2169 20.484 16.0963 21.0192C15.8988 21.8944 16.2257 22.9099 16.9912 23.3793C17.307 23.5745 17.6733 23.6644 18.0462 23.6798C18.9762 23.5131 19.4149 23.1512 19.9764 22.7717C22.1237 21.3153 23.5559 19.0057 24.1547 16.5798C24.3389 15.8296 24.4333 15.0532 24.4442 14.2657C24.464 13.1712 24.3192 12.0526 24.0012 10.9559Z" fill="#37BCF7"/>
<path d="M28.1511 14.1137C29.5593 14.0501 30.9652 13.9886 32.3734 13.9294C32.3602 13.8768 32.3449 13.8219 32.3317 13.7693C32.2243 13.3087 32.165 12.8393 32.1475 12.3699C30.7415 12.0716 29.3597 11.6636 28.0173 11.1504C27.9384 12.1308 27.9778 13.1288 28.1511 14.1137Z" fill="#0C4660"/>
<path d="M45.3364 3.91992C44.8034 4.03398 44.2989 4.27525 43.8931 4.64155C43.1671 5.29737 42.8008 6.30634 42.871 7.27801C44.1849 8.22994 45.1785 9.64249 45.6413 11.2371C45.8518 11.9631 45.9462 12.7154 45.9242 13.4393C45.9111 13.8736 45.854 14.2991 45.7553 14.7005C45.4 16.1393 44.4459 17.4751 43.1386 18.3612C42.3753 18.8789 41.4958 19.2561 40.5131 19.4908C39.899 19.8045 39.3967 20.3309 39.2037 20.9889C38.9317 21.9102 39.3901 23.0332 40.2916 23.371C40.7632 23.5464 41.2852 23.5048 41.7831 23.4324C41.8971 23.4148 42.0112 23.3973 42.1253 23.3775C43.347 23.02 44.4678 22.498 45.479 21.8115C47.6263 20.355 49.2033 18.1265 49.8021 15.7007C49.993 14.9286 50.0851 14.1302 50.0939 13.3208C50.1026 12.2439 49.9579 11.1515 49.6464 10.0768C48.927 7.60702 47.3806 5.41143 45.3364 3.91992Z" fill="#37BCF7"/>
<path d="M53.5748 13.2348C54.9895 13.1997 56.4043 13.169 57.819 13.1405C57.7971 13.0571 57.773 12.9738 57.7554 12.8882C57.6633 12.489 57.6063 12.0811 57.5821 11.6731C56.1213 11.4472 54.7066 10.9251 53.452 10.1465C53.3555 11.1642 53.3928 12.2083 53.5748 13.2348Z" fill="#0C4660"/>
<path d="M71.8984 3.99414C71.7624 4.0073 71.6286 4.02265 71.4948 4.04898C70.6328 4.20909 69.8037 4.65435 69.2948 5.36501C68.9943 5.78395 68.8232 6.2994 68.8101 6.81046C69.8673 7.73607 70.6657 8.97754 71.0649 10.3572C71.3127 11.2126 71.3983 12.1031 71.3237 12.9388C71.2952 13.2415 71.2491 13.5354 71.1789 13.8206C70.8236 15.2594 69.8695 16.5952 68.5622 17.4813C67.9941 17.8674 67.3602 18.1723 66.6693 18.4004C66.1451 18.589 65.6647 18.986 65.3752 19.3742C64.9826 19.9006 64.8356 20.6376 65.1164 21.2298C65.3642 21.7563 65.7305 22.2081 66.2833 22.3902C66.6649 22.5174 67.1738 22.5656 67.6388 22.4669C68.8254 22.1094 69.9155 21.5983 70.9026 20.9293C73.0499 19.4729 74.627 17.2444 75.2257 14.8185C75.3793 14.1956 75.4692 13.5552 75.5043 12.9081C75.5701 11.682 75.4275 10.4252 75.07 9.19468C74.4888 7.20966 73.3745 5.4023 71.8984 3.99414Z" fill="#37BCF7"/>
<path d="M99.6119 8.31582C99.0021 6.21016 97.7892 4.3063 96.1792 2.86523C95.6133 2.92665 95.0628 3.13722 94.6175 3.49474C93.8586 4.10889 93.455 5.11347 93.5209 6.08075C94.4947 6.98882 95.2295 8.16887 95.609 9.47394C95.9468 10.6364 95.9862 11.8669 95.723 12.9373C95.7208 12.9483 95.7164 12.9592 95.7142 12.9702C95.3523 14.3981 94.4048 15.7185 93.1063 16.5981C92.411 17.0697 91.617 17.4228 90.7374 17.6597C90.3492 17.8045 90.0816 17.9909 89.882 18.2058C89.564 18.5524 89.3973 19.0174 89.36 19.4868C89.3095 20.1382 89.5947 20.884 90.1145 21.281C90.5356 21.6034 91.1125 21.8513 91.7552 21.7043C93.1063 21.3468 94.3412 20.7941 95.4445 20.0461C96.4841 19.3398 97.3878 18.4537 98.1138 17.4513C98.8881 16.3831 99.4584 15.1877 99.7676 13.9353C100.213 12.1433 100.158 10.1978 99.6119 8.31582Z" fill="#37BCF7"/>
<path d="M78.2285 12.8934C79.674 12.889 81.1194 12.8868 82.5627 12.8868C82.4574 12.5973 82.3675 12.3034 82.2995 12.0073C82.2534 11.8055 82.2161 11.5993 82.1854 11.3931C80.7268 11.176 79.2967 10.7658 77.9456 10.1758C77.9346 11.0817 78.0267 11.9963 78.2285 12.8934Z" fill="#0C4660"/>
<path d="M3.62889 19.7504L6.82906 16.5107C6.54172 16.0764 6.35089 15.6487 6.22807 15.2539C4.94054 15.8286 3.63328 16.3616 2.31067 16.8485C2.61336 17.8662 3.06738 18.8401 3.62889 19.7504Z" fill="#0C4660"/>
</g>
</g>
<defs>
<clipPath id="clip0_2320_10226">
<rect width="127.436" height="128.094" fill="white" transform="translate(0.865234)"/>
</clipPath>
</defs>
</svg>
