<svg width="31" height="24" viewBox="0 0 31 24" fill="none" xmlns="http://www.w3.org/2000/svg">
<path d="M20.1456 18.3512V18.289L19.35 9.09041L11.4549 6.04492L11.5161 7.03937L12.1893 14.4356C11.9445 14.3734 11.6997 14.3734 11.3937 14.3734C10.2308 14.4356 9.37401 15.0571 9.43521 15.8029C9.49641 16.5487 10.4756 17.1081 11.6385 17.046C12.6789 16.9838 13.5358 16.4244 13.597 15.8029V15.7408C13.597 15.6786 13.597 15.6786 13.597 15.6165C13.597 15.5543 13.597 15.5543 13.597 15.4921L13.0461 9.52548L18.1871 11.3901L18.7379 17.1703C18.4931 17.1081 18.1871 17.1081 17.9423 17.1081C16.7795 17.1703 15.8614 17.7918 15.9226 18.5376C15.9838 19.2835 17.0243 19.8428 18.1871 19.7807C19.35 19.7807 20.2068 19.097 20.1456 18.3512Z" fill="url(#paint0_linear_1770_5535)"/>
<path d="M23.6338 22.888L21.9201 22.5772L23.695 11.8248C23.8174 10.6439 23.7562 9.52514 23.5114 8.53069C22.4709 4.80152 19.1048 2.12895 15.2491 2.12895C11.3933 2.12895 8.02722 4.80152 6.98678 8.59284C6.74197 9.58729 6.68077 10.706 6.80318 11.8869L8.57804 22.6394L6.86438 22.9501L5.08952 12.1356C4.90591 10.6439 4.96711 9.27652 5.33433 8.09562C6.49717 3.55847 10.5977 0.388672 15.2491 0.388672C19.9004 0.388672 24.001 3.55847 25.225 8.09562C25.531 9.27652 25.6534 10.6439 25.4698 12.1356L23.6338 22.888Z" fill="url(#paint1_linear_1770_5535)"/>
<path d="M5.57889 10.6426C4.59965 10.7669 3.62042 11.202 2.76359 11.8235C0.0706954 13.9367 -0.418921 17.7902 1.60075 20.5249C3.0696 22.4516 5.39528 23.2596 7.59856 22.8245L5.57889 10.6426Z" fill="url(#paint2_linear_1770_5535)"/>
<path d="M3.49805 10.5187L6.49695 23.5708H9.31225L7.65979 10.0215L3.49805 10.5187Z" fill="url(#paint3_linear_1770_5535)"/>
<path d="M24.9181 10.6426C25.8973 10.7669 26.8766 11.202 27.7334 11.8235C30.4263 13.9367 30.9159 17.7902 28.8962 20.5249C27.4274 22.4516 25.1017 23.2596 22.8984 22.8245L24.9181 10.6426Z" fill="url(#paint4_linear_1770_5535)"/>
<path d="M26.9993 10.5187L24.0004 23.5708H21.1851L22.8375 10.0215L26.9993 10.5187Z" fill="url(#paint5_linear_1770_5535)"/>
<defs>
<linearGradient id="paint0_linear_1770_5535" x1="14.7904" y1="6.04492" x2="14.7904" y2="19.7854" gradientUnits="userSpaceOnUse">
<stop stop-color="#5A98F1"/>
<stop offset="1" stop-color="#1574FF"/>
</linearGradient>
<linearGradient id="paint1_linear_1770_5535" x1="15.2727" y1="0.388672" x2="15.2727" y2="22.9501" gradientUnits="userSpaceOnUse">
<stop stop-color="#83B5FF"/>
<stop offset="1" stop-color="#599CFF"/>
</linearGradient>
<linearGradient id="paint2_linear_1770_5535" x1="3.9797" y1="10.6426" x2="3.9797" y2="22.9394" gradientUnits="userSpaceOnUse">
<stop stop-color="#D2E1FA"/>
<stop offset="1" stop-color="#AAC7F2"/>
</linearGradient>
<linearGradient id="paint3_linear_1770_5535" x1="6.40515" y1="10.0215" x2="6.40515" y2="23.5708" gradientUnits="userSpaceOnUse">
<stop stop-color="#83B5FF"/>
<stop offset="1" stop-color="#599CFF"/>
</linearGradient>
<linearGradient id="paint4_linear_1770_5535" x1="26.5173" y1="10.6426" x2="26.5173" y2="22.9394" gradientUnits="userSpaceOnUse">
<stop stop-color="#D2E1FA"/>
<stop offset="1" stop-color="#AAC7F2"/>
</linearGradient>
<linearGradient id="paint5_linear_1770_5535" x1="24.0922" y1="10.0215" x2="24.0922" y2="23.5708" gradientUnits="userSpaceOnUse">
<stop stop-color="#83B5FF"/>
<stop offset="1" stop-color="#599CFF"/>
</linearGradient>
</defs>
</svg>
