<svg width="262" height="192" viewBox="0 0 262 192" fill="none" xmlns="http://www.w3.org/2000/svg">
<path d="M122.42 185.245L25.8545 189.774L0.806274 18.4199L97.4824 39.8036L122.42 185.245Z" fill="#FFECD2"/>
<path d="M122.42 185.244L218.143 156.934L189.052 8.75977L97.4824 39.8028L122.42 185.244Z" fill="#FFECD2"/>
<path d="M112.4 126.045L121.411 180.129" stroke="#F8A629" stroke-width="3" stroke-miterlimit="10"/>
<path d="M109.983 109.354L111.229 118.352" stroke="#F8A629" stroke-width="3" stroke-miterlimit="10"/>
<path d="M125.141 130.705L160.455 124.973L140.494 93.2617L119.421 97.4665L125.141 130.705Z" fill="#FFC880"/>
<path d="M198.035 125.258L127.274 142.603" stroke="#F8A629" stroke-width="2" stroke-miterlimit="10"/>
<path d="M191.603 137.406L129.311 154.739" stroke="#F8A629" stroke-width="2" stroke-miterlimit="10"/>
<path d="M200.737 146.84L130.138 166.942" stroke="#F8A629" stroke-width="2" stroke-miterlimit="10"/>
<path d="M12.8517 32.707L48.6795 41.1402L55.5547 85.9328L21.2064 81.8506L12.8517 32.707Z" fill="#FFC880"/>
<path d="M106.169 171.574L70.9903 171.131L65.1555 132.904L100.39 136.915L106.169 171.574Z" fill="#FFC880"/>
<path d="M29.7944 132.688L57.0619 134.495" stroke="#F8A629" stroke-width="2" stroke-miterlimit="10"/>
<path d="M32.1166 144.521L59.388 146.333" stroke="#F8A629" stroke-width="2" stroke-miterlimit="10"/>
<path d="M33.1609 157.389L60.4323 159.196" stroke="#F8A629" stroke-width="2" stroke-miterlimit="10"/>
<path d="M35.9102 170.139L62.3864 170.364" stroke="#F8A629" stroke-width="2" stroke-miterlimit="10"/>
<path d="M58.8698 47.0449L90.4174 53.1325" stroke="#F8A629" stroke-width="2" stroke-miterlimit="10"/>
<path d="M61.5874 59.2754L92.3439 64.5758" stroke="#F8A629" stroke-width="2" stroke-miterlimit="10"/>
<path d="M62.6317 72.9297L94.1793 77.8346" stroke="#F8A629" stroke-width="2" stroke-miterlimit="10"/>
<path d="M64.9854 86.0781L96.533 90.5835" stroke="#F8A629" stroke-width="2" stroke-miterlimit="10"/>
<path d="M24.0704 95.5566L96.533 103.112" stroke="#F8A629" stroke-width="2" stroke-miterlimit="10"/>
<path d="M26.8395 106.236L99.3021 114.978" stroke="#F8A629" stroke-width="2" stroke-miterlimit="10"/>
<path d="M27.2351 118.104L99.6977 126.845" stroke="#F8A629" stroke-width="2" stroke-miterlimit="10"/>
<path d="M185.456 118.327C153.386 126.682 120.533 110.579 111.85 80.9555C108.282 53.5871 130.225 20.416 162.227 12.0777C184.775 6.20376 208.103 12.9084 223.447 27.0099L223.455 27.0178C227.637 32.607 230.762 39.0426 232.494 46.1666C240.086 77.2887 218.36 109.76 185.452 118.327H185.456Z" fill="#FFF8F0"/>
<path d="M142.128 63.1609L161.393 61.2424C161.393 61.2424 158.09 43.7787 165.372 39.9933C171.005 37.0622 176.005 37.8256 178.818 42.7542C181.69 47.7857 171.025 58.8849 170.562 64.4978C170.175 69.1851 177.429 83.2906 177.429 83.2906L190.314 76.4554C190.314 76.4554 184.59 66.8118 186.623 62.6308C188.656 58.4538 199.697 40.9782 193.498 33.2333C187.299 25.4883 176.377 20.9315 159.28 27.7628C146.42 32.901 141.416 52.3148 142.132 63.1609H142.128Z" fill="#2274E5"/>
<path d="M194.989 97.9841C199.515 95.7914 201.864 91.2902 200.236 87.9303C198.608 84.5704 193.619 83.6242 189.093 85.8169C184.567 88.0096 182.218 92.5108 183.846 95.8707C185.474 99.2306 190.463 100.177 194.989 97.9841Z" fill="#2274E5"/>
<path d="M192.295 132.342C162.405 139.878 132.511 127.481 118.563 103.882C115.79 99.191 110.833 89.8678 108.824 84.5476C108.713 84.2509 108.669 84.0215 108.666 83.8435C119.501 112.992 153.05 129.423 186.67 120.95C222.506 111.916 244.852 78.0209 236.589 45.2374C235.402 40.5264 233.646 36.0962 231.403 31.9824C236.699 40.0992 239.757 46.8948 242.016 55.8501C250.391 89.0648 228.131 123.312 192.295 132.342Z" fill="#4DBFFF"/>
<path d="M223.839 27.132C208.443 12.987 185.033 6.26261 162.409 12.1524C130.296 20.5184 108.274 53.7963 111.854 81.2517C111.628 80.4725 111.407 79.6774 111.217 78.8823C103.598 47.6613 125.114 14.2805 158.133 5.6851C183.593 -0.948336 209.721 8.2562 223.839 27.136V27.132Z" fill="#2274E5"/>
<path d="M243.614 74.3666C241.617 100.968 221.45 125.002 192.295 132.347C191.299 132.6 190.306 132.83 189.309 133.031C184.15 134.107 179.004 134.598 173.96 134.542L165.764 123.111C170.898 123.336 176.16 123.008 181.449 122.07C183.189 121.762 184.926 121.394 186.666 120.955C216.315 113.483 236.731 88.9863 238.211 62.1836L243.61 74.3706L243.614 74.3666Z" fill="#2274E5"/>
<path d="M242.186 83.5587L236.462 73.4365C238.891 63.9788 238.013 50.8978 236.585 45.2374C235.398 40.5264 233.646 36.0962 231.399 31.9824C236.699 40.1031 239.757 46.8988 242.012 55.8501C243.575 62.0445 245.034 74.7853 242.182 83.5547L242.186 83.5587Z" fill="#10069F"/>
<path d="M227.071 135.32L216.382 141.186L206.639 123.727C206.639 123.727 206.912 118.731 209.938 117.069C212.771 115.515 217.328 117.86 217.328 117.86L227.071 135.32Z" fill="#2274E5"/>
<path d="M227.071 135.322L223.119 137.489C223.119 137.489 218.495 126.058 215.089 116.885C216.58 117.276 217.719 117.862 217.719 117.862L227.067 135.322H227.071Z" fill="#10069F"/>
<path d="M261.194 180.211C257.938 179.468 252.784 177.553 247.523 179.495C242.823 181.228 239.69 184.903 238.788 190.286C238.685 190.891 237.89 191.038 237.593 190.5L210.053 140.332C210.053 140.332 214.136 132.717 216.952 130.542C219.769 128.366 228.459 128.651 229.852 129.462L261.19 180.211H261.194Z" fill="#4DBFFF"/>
<path d="M261.194 180.212C257.938 179.469 252.784 177.554 247.522 179.496C241.292 168.793 229.021 144.85 221.244 129.115C223.879 128.885 229.207 129.087 229.852 129.463L261.19 180.212H261.194Z" fill="#2274E5"/>
<path d="M261.194 180.213C261.194 180.213 259.481 186.328 251.019 190.315C243.693 193.768 237.862 190.845 237.862 190.845C238.673 184.418 242.226 180.264 247.594 178.654C252.966 177.041 257.99 179.267 261.194 180.209V180.213Z" fill="#10069F"/>
<path d="M206.639 123.727C206.639 123.727 206.912 118.731 209.938 117.069C212.771 115.515 217.328 117.86 217.328 117.86" stroke="#10069F" stroke-width="2" stroke-miterlimit="10"/>
<path d="M214.844 149.062C214.844 149.062 219.116 141.024 221.932 138.844C224.749 136.669 233.44 136.954 234.832 137.764" stroke="#10069F" stroke-width="2" stroke-miterlimit="10"/>
<path d="M236.589 45.2374C235.402 40.5263 233.646 36.0922 231.403 31.9824C218.048 7.50155 187.426 -5.50426 156.745 2.22486C120.913 11.2593 98.5624 45.1543 106.826 77.9418C107.336 79.9591 107.95 81.9329 108.666 83.8434C119.497 112.992 153.05 129.423 186.67 120.95C222.506 111.912 244.852 78.0209 236.589 45.2374ZM185.258 116.101C153.651 124.182 121.269 108.601 112.712 79.9472C112.491 79.1957 112.273 78.4283 112.087 77.6609C104.607 47.5514 125.735 15.3612 158.169 7.0704C183.173 0.67429 208.839 9.55052 222.708 27.7539L222.716 27.7618C226.834 33.169 229.919 39.3951 231.624 46.2856C239.105 76.3952 217.692 107.806 185.262 116.097L185.258 116.101Z" fill="#4DBFFF"/>
<path d="M119.433 25.5391C107.4 40.1429 102.15 59.2165 106.826 77.942C109.983 90.5839 115.79 99.1951 118.559 103.886C132.511 127.485 162.405 139.091 192.291 131.555" stroke="#2274E5" stroke-width="2" stroke-miterlimit="10"/>
</svg>
