<svg width="100" height="101" viewBox="0 0 100 101" fill="none" xmlns="http://www.w3.org/2000/svg">
<rect y="0.25" width="100" height="100" rx="8" fill="#0C1D5A"/>
<path d="M89.6358 26H32.4361C19.8107 26 9.57453 36.2354 9.57453 48.8616C8.51551 62.2369 18.8707 74.0699 32.4361 73.9997H76.8321C84.4077 73.9997 90.5489 67.8585 90.5489 60.2829V26.9147C90.5489 26.41 90.1397 26 89.6342 26H89.6358Z" fill="white"/>
<path d="M41.3639 37.248C38.4628 34.8981 34.7432 33.5182 30.6996 33.6033C21.7125 33.791 14.517 41.2625 14.6503 50.2504C14.7835 59.1941 22.0744 66.403 31.0497 66.403C35.8638 66.403 40.1929 64.3283 43.1933 61.0243C43.4283 60.7656 43.5576 60.4282 43.5576 60.0788V49.5273C43.5576 48.0487 42.359 46.8509 40.8813 46.8509H28.7779C28.0903 46.8509 27.5328 47.4084 27.5328 48.096V52.4141C27.5328 53.1017 28.0903 53.6593 28.7779 53.6593H36.3432C36.5687 53.6593 36.7509 53.8422 36.7509 54.0669V57.076C36.7509 57.4088 36.5837 57.7195 36.3069 57.9048C34.8158 58.9015 33.0329 59.4898 31.1214 59.5032C25.8547 59.5418 21.5713 55.2955 21.5485 50.043C21.5264 44.8622 25.6142 40.6388 30.7934 40.5023C33.1622 40.44 35.3418 41.2444 37.0371 42.622L41.3639 37.248Z" fill="#1F2E8D"/>
<path d="M41.3639 37.248C38.4628 34.8981 34.7432 33.5182 30.6996 33.6033C21.7125 33.791 14.517 41.2625 14.6503 50.2504C14.7212 55.0361 16.8432 59.325 20.1748 62.2781C17.8297 59.9117 16.3795 56.6431 16.3795 53.0332C16.3795 45.8101 22.1848 39.9551 29.3456 39.9551C31.3943 39.9551 32.5913 40.1617 34.7677 41.2538L34.7661 41.2554C35.5886 41.6055 36.3519 42.066 37.0363 42.6212L38.0922 43.4318C38.6284 43.8434 39.3957 43.7519 39.8199 43.2252L42.5507 39.8344C42.9757 39.3061 42.9 38.5349 42.3803 38.0988L41.3639 37.2472V37.248Z" fill="#0063C5"/>
<path d="M20.7494 52.7532C20.7494 49.9342 21.5269 47.3603 22.8722 45.1816C23.052 44.8788 23.2467 44.587 23.4581 44.3071C23.4612 44.3031 23.4636 44.2992 23.4667 44.2945C25.1708 42.0384 27.8534 40.556 30.8704 40.5C32.2559 40.4739 33.5736 40.7468 34.7674 41.2554L34.769 41.2538C32.5926 40.1609 31.3956 39.9551 29.3469 39.9551C22.1861 39.9551 16.3809 45.8101 16.3809 53.0332C16.3809 56.6431 17.831 59.9117 20.1761 62.2781C23.0709 64.844 26.8788 66.403 31.0518 66.403C31.1188 66.403 31.2757 66.4045 31.2844 66.4014C25.2875 65.1807 20.7494 59.5339 20.7494 52.7532Z" fill="#4091E3"/>
<path d="M47.8672 39.8264L52.0347 39.8067C54.0975 39.7964 55.5634 41.1323 55.5729 43.0342C55.5816 44.9362 54.129 46.2996 52.0662 46.3099L50.3685 46.3177L50.3827 49.2125L47.9129 49.2243L47.868 39.8264H47.8672ZM50.3582 44.3598L51.6491 44.3535C52.4904 44.3495 53.0637 43.8149 53.0598 43.0461C53.0558 42.3048 52.4778 41.7623 51.6364 41.7662L50.3456 41.7726L50.3582 44.3598Z" fill="#1F2E8D"/>
<path d="M57.125 39.7802L59.6933 39.7676L59.7288 47.2075L63.5595 47.1894L63.569 49.1474L57.1707 49.1781L57.1258 39.7802H57.125Z" fill="#1F2E8D"/>
<path d="M68.5467 39.7259L70.9179 39.7148L74.7802 49.0946L72.2119 49.1072L71.5014 47.2084L68.0358 47.225L67.3434 49.1301L64.7617 49.1427L68.5475 39.7267L68.5467 39.7259ZM68.6863 45.375L70.8193 45.3648L69.739 42.5032L68.6863 45.375Z" fill="#1F2E8D"/>
<path d="M76.0254 39.6899L78.4951 39.678L82.8171 45.5732L82.7888 39.6575L85.1457 39.6465L85.1907 49.0444L82.7209 49.0562L78.4131 43.161L78.4415 49.0767L76.0703 49.0878L76.0254 39.6899Z" fill="#1F2E8D"/>
<path d="M68.0297 60.3406C67.3168 60.3406 66.5362 60.1829 65.8233 59.8107L66.4912 58.4008C66.9777 58.6492 67.4872 58.8069 67.9508 58.8069C68.89 58.8069 69.5571 58.2202 69.6367 57.1714C69.207 57.4987 68.6637 57.6903 68.0644 57.6903C66.5819 57.6903 65.541 56.6644 65.541 55.2095C65.541 53.6198 66.7294 52.4922 68.3924 52.4922C70.3385 52.4922 71.504 53.8564 71.504 56.1235C71.504 58.7848 70.18 60.3406 68.0305 60.3406H68.0297ZM68.4713 54.0259C67.8381 54.0259 67.3736 54.4998 67.3736 55.1307C67.3736 55.7615 67.8152 56.1905 68.4374 56.1905C69.0595 56.1905 69.5461 55.7844 69.5461 55.1985C69.5461 54.5109 69.0934 54.0259 68.4713 54.0259Z" fill="#0063C5"/>
<path d="M75.0394 60.3406C74.3266 60.3406 73.5459 60.1829 72.8331 59.8107L73.501 58.4008C73.9875 58.6492 74.4969 58.8069 74.9606 58.8069C75.8997 58.8069 76.5669 58.2202 76.6465 57.1714C76.2167 57.4987 75.6734 57.6903 75.0741 57.6903C73.5917 57.6903 72.5508 56.6644 72.5508 55.2095C72.5508 53.6198 73.7391 52.4922 75.4022 52.4922C77.3483 52.4922 78.5138 53.8564 78.5138 56.1235C78.5138 58.7848 77.1898 60.3406 75.0402 60.3406H75.0394ZM75.481 54.0259C74.8478 54.0259 74.3834 54.4998 74.3834 55.1307C74.3834 55.7615 74.825 56.1905 75.4471 56.1905C76.0693 56.1905 76.5558 55.7844 76.5558 55.1985C76.5558 54.5109 76.1032 54.0259 75.481 54.0259Z" fill="#0063C5"/>
<path d="M82.0492 60.3406C81.3364 60.3406 80.5557 60.1829 79.8428 59.8107L80.5107 58.4008C80.9973 58.6492 81.5067 58.8069 81.9703 58.8069C82.9095 58.8069 83.5766 58.2202 83.6563 57.1714C83.2265 57.4987 82.6832 57.6903 82.0839 57.6903C80.6014 57.6903 79.5605 56.6644 79.5605 55.2095C79.5605 53.6198 80.7489 52.4922 82.4119 52.4922C84.3581 52.4922 85.5235 53.8564 85.5235 56.1235C85.5235 58.7848 84.1996 60.3406 82.05 60.3406H82.0492ZM82.4908 54.0259C81.8576 54.0259 81.3931 54.4998 81.3931 55.1307C81.3931 55.7615 81.8347 56.1905 82.4569 56.1905C83.079 56.1905 83.5656 55.7844 83.5656 55.1985C83.5656 54.5109 83.113 54.0259 82.4908 54.0259Z" fill="#0063C5"/>
</svg>
