<svg width="100" height="101" viewBox="0 0 100 101" fill="none" xmlns="http://www.w3.org/2000/svg">
<rect y="0.25" width="100" height="100" rx="8" fill="#0C1D5A"/>
<path d="M89.6358 26H32.4361C19.8107 26 9.57453 36.2354 9.57453 48.8616C8.51551 62.2369 18.8707 74.0699 32.4361 73.9997H76.8321C84.4077 73.9997 90.5489 67.8585 90.5489 60.2829V26.9147C90.5489 26.41 90.1397 26 89.6342 26H89.6358Z" fill="white"/>
<path d="M41.3649 37.248C38.4638 34.8981 34.7442 33.5182 30.7005 33.6033C21.7135 33.791 14.518 41.2625 14.6512 50.2504C14.7845 59.1941 22.0754 66.403 31.0507 66.403C35.8647 66.403 40.1939 64.3283 43.1943 61.0243C43.4293 60.7656 43.5586 60.4282 43.5586 60.0788V49.5273C43.5586 48.0487 42.36 46.8509 40.8823 46.8509H28.7789C28.0912 46.8509 27.5337 47.4084 27.5337 48.0961V52.4141C27.5337 53.1018 28.0912 53.6593 28.7789 53.6593H36.3442C36.5697 53.6593 36.7519 53.8422 36.7519 54.0669V57.076C36.7519 57.4088 36.5847 57.7195 36.3079 57.9048C34.8168 58.9015 33.0339 59.4898 31.1224 59.5032C25.8557 59.5418 21.5723 55.2955 21.5495 50.043C21.5274 44.8622 25.6152 40.6388 30.7944 40.5023C33.1632 40.44 35.3427 41.2444 37.0381 42.622L41.3649 37.248Z" fill="#1F2E8D"/>
<path d="M41.3649 37.248C38.4638 34.8981 34.7442 33.5182 30.7005 33.6033C21.7135 33.791 14.518 41.2625 14.6512 50.2504C14.7222 55.0361 16.8442 59.325 20.1758 62.2781C17.8307 59.9116 16.3805 56.6431 16.3805 53.0331C16.3805 45.8101 22.1858 39.9551 29.3466 39.9551C31.3953 39.9551 32.5923 40.1617 34.7687 41.2538L34.7671 41.2554C35.5895 41.6055 36.3529 42.066 37.0373 42.6212L38.0932 43.4318C38.6294 43.8434 39.3966 43.7519 39.8209 43.2252L42.5516 39.8344C42.9767 39.3061 42.901 38.5349 42.3813 38.0988L41.3649 37.2472V37.248Z" fill="#0063C5"/>
<path d="M20.7499 52.7532C20.7499 49.9341 21.5274 47.3603 22.8727 45.1816C23.0525 44.8788 23.2472 44.587 23.4586 44.3071C23.4617 44.3031 23.4641 44.2992 23.4672 44.2945C25.1713 42.0384 27.8539 40.556 30.8709 40.5C32.2564 40.4739 33.5741 40.7468 34.7679 41.2554L34.7695 41.2538C32.5931 40.1609 31.3961 39.9551 29.3474 39.9551C22.1866 39.9551 16.3813 45.81 16.3813 53.0331C16.3813 56.6431 17.8315 59.9116 20.1766 62.2781C23.0714 64.844 26.8793 66.403 31.0523 66.403C31.1193 66.403 31.2762 66.4045 31.2849 66.4014C25.288 65.1807 20.7499 59.5339 20.7499 52.7532Z" fill="#4091E3"/>
<path d="M47.8672 39.8245L52.0347 39.8047C54.0975 39.7945 55.5634 41.1303 55.5729 43.0323C55.5816 44.9342 54.129 46.2976 52.0662 46.3079L50.3685 46.3158L50.3827 49.2105L47.9129 49.2224L47.868 39.8245H47.8672ZM50.3582 44.3578L51.6491 44.3515C52.4904 44.3476 53.0637 43.8129 53.0598 43.0441C53.0558 42.3029 52.4778 41.7603 51.6364 41.7643L50.3456 41.7706L50.3582 44.3578Z" fill="#1F2E8D"/>
<path d="M57.1255 39.7802L59.6938 39.7676L59.7293 47.2075L63.56 47.1894L63.5695 49.1474L57.1712 49.1781L57.1263 39.7802H57.1255Z" fill="#1F2E8D"/>
<path d="M68.5467 39.7259L70.9179 39.7148L74.7802 49.0946L72.2119 49.1072L71.5014 47.2084L68.0358 47.225L67.3434 49.1301L64.7617 49.1427L68.5475 39.7267L68.5467 39.7259ZM68.6863 45.375L70.8193 45.3648L69.739 42.5031L68.6863 45.375Z" fill="#1F2E8D"/>
<path d="M76.0247 39.6899L78.4944 39.678L82.8164 45.5732L82.788 39.6575L85.145 39.6465L85.1899 49.0444L82.7202 49.0562L78.4124 43.161L78.4408 49.0767L76.0696 49.0878L76.0247 39.6899Z" fill="#1F2E8D"/>
<path d="M71.1805 54.2056H68.2952V55.435C68.4427 55.4239 68.6233 55.4239 68.7589 55.4239C70.388 55.4239 71.4518 56.371 71.4518 57.8369C71.4518 59.3028 70.2295 60.3405 68.5105 60.3405C67.6281 60.3405 66.7678 60.0921 66.01 59.63L66.7678 58.1752C67.3222 58.5363 67.8765 58.7279 68.352 58.7279C69.0538 58.7279 69.5056 58.3786 69.5056 57.803C69.5056 57.1603 68.9962 56.7881 68.1028 56.7881C67.6502 56.7881 67.1297 56.8441 66.5525 56.9687V52.627H71.1797V54.2056H71.1805Z" fill="#0063C5"/>
<path d="M75.038 60.3406C74.3251 60.3406 73.5445 60.1829 72.8316 59.8107L73.4995 58.4008C73.986 58.6492 74.4955 58.8069 74.9591 58.8069C75.8983 58.8069 76.5654 58.2202 76.645 57.1714C76.2153 57.4987 75.672 57.6903 75.0727 57.6903C73.5902 57.6903 72.5493 56.6644 72.5493 55.2095C72.5493 53.6198 73.7377 52.4922 75.4007 52.4922C77.3468 52.4922 78.5123 53.8564 78.5123 56.1234C78.5123 58.7848 77.1883 60.3406 75.0388 60.3406H75.038ZM75.4796 54.0259C74.8464 54.0259 74.3819 54.4998 74.3819 55.1307C74.3819 55.7615 74.8235 56.1905 75.4457 56.1905C76.0678 56.1905 76.5543 55.7844 76.5543 55.1985C76.5543 54.5109 76.1017 54.0259 75.4796 54.0259Z" fill="#0063C5"/>
<path d="M82.0482 60.3406C81.3354 60.3406 80.5547 60.1829 79.8419 59.8107L80.5098 58.4008C80.9963 58.6492 81.5057 58.8069 81.9694 58.8069C82.9085 58.8069 83.5756 58.2202 83.6553 57.1714C83.2255 57.4987 82.6822 57.6903 82.0829 57.6903C80.6005 57.6903 79.5596 56.6644 79.5596 55.2095C79.5596 53.6198 80.7479 52.4922 82.411 52.4922C84.3571 52.4922 85.5226 53.8564 85.5226 56.1234C85.5226 58.7848 84.1986 60.3406 82.049 60.3406H82.0482ZM82.4898 54.0259C81.8566 54.0259 81.3922 54.4998 81.3922 55.1307C81.3922 55.7615 81.8337 56.1905 82.4559 56.1905C83.0781 56.1905 83.5646 55.7844 83.5646 55.1985C83.5646 54.5109 83.112 54.0259 82.4898 54.0259Z" fill="#0063C5"/>
</svg>
