<svg width="33" height="33" viewBox="0 0 33 33" fill="none" xmlns="http://www.w3.org/2000/svg">
<path fill-rule="evenodd" clip-rule="evenodd" d="M23.9643 11.1429C23.9643 7.00072 20.6064 3.64286 16.4643 3.64286C12.3221 3.64286 8.96428 7.00072 8.96428 11.1429C8.96428 14.2887 10.9014 16.9847 13.652 18.0981C14.2005 18.3201 14.4652 18.9447 14.2431 19.4932C14.0211 20.0417 13.3965 20.3064 12.848 20.0844C9.31605 18.6547 6.82143 15.1914 6.82143 11.1429C6.82143 5.81725 11.1387 1.5 16.4643 1.5C21.7899 1.5 26.1071 5.81725 26.1071 11.1429C26.1071 15.1914 23.6125 18.6547 20.0806 20.0844C19.5321 20.3064 18.9075 20.0417 18.6854 19.4932C18.4634 18.9447 18.7281 18.3201 19.2766 18.0981C22.0271 16.9847 23.9643 14.2887 23.9643 11.1429ZM16.4643 7.92857C14.6891 7.92857 13.25 9.36766 13.25 11.1429C13.25 11.9588 13.5526 12.7014 14.0533 13.2687C14.4449 13.7123 14.4026 14.3894 13.959 14.781C13.5154 15.1725 12.8383 15.1303 12.4467 14.6867C11.6138 13.7429 11.1071 12.5008 11.1071 11.1429C11.1071 8.18419 13.5056 5.78571 16.4643 5.78571C19.423 5.78571 21.8214 8.18419 21.8214 11.1429C21.8214 12.5008 21.3148 13.7429 20.4819 14.6867C20.0903 15.1303 19.4132 15.1725 18.9696 14.781C18.5259 14.3894 18.4837 13.7123 18.8753 13.2687C19.376 12.7014 19.6786 11.9588 19.6786 11.1429C19.6786 9.36766 18.2395 7.92857 16.4643 7.92857ZM7.89286 29.3571V25.0714H16.4643H25.0357V29.3571H7.89286ZM7.89286 22.9286H15.3929L15.3929 11.1429C15.3929 10.5511 15.8726 10.0714 16.4643 10.0714C17.056 10.0714 17.5357 10.5511 17.5357 11.1429L17.5357 22.9286H25.0357C26.2192 22.9286 27.1786 23.888 27.1786 25.0714V29.3571C27.1786 30.5406 26.2192 31.5 25.0357 31.5H7.89286C6.70939 31.5 5.75 30.5406 5.75 29.3571V25.0714C5.75 23.888 6.70939 22.9286 7.89286 22.9286ZM9.49948 28.2857C9.79534 28.2857 10.0352 28.0459 10.0352 27.75C10.0352 27.4541 9.79534 27.2143 9.49948 27.2143C9.20361 27.2143 8.96376 27.4541 8.96376 27.75C8.96376 28.0459 9.20361 28.2857 9.49948 28.2857ZM12.1786 27.75C12.1786 28.0459 11.9387 28.2857 11.6429 28.2857C11.347 28.2857 11.1071 28.0459 11.1071 27.75C11.1071 27.4541 11.347 27.2143 11.6429 27.2143C11.9387 27.2143 12.1786 27.4541 12.1786 27.75ZM13.7857 28.2857C14.0816 28.2857 14.3214 28.0459 14.3214 27.75C14.3214 27.4541 14.0816 27.2143 13.7857 27.2143C13.4898 27.2143 13.25 27.4541 13.25 27.75C13.25 28.0459 13.4898 28.2857 13.7857 28.2857Z" fill="#2274E5"/>
</svg>
