<svg width="37" height="45" viewBox="0 0 37 45" fill="none" xmlns="http://www.w3.org/2000/svg">
<path d="M2.16675 11.884C2.16675 8.45366 2.16675 6.7385 2.83433 5.42829C3.42156 4.2758 4.35856 3.33879 5.51106 2.75157C6.82127 2.08398 8.53643 2.08398 11.9667 2.08398H18.5241C20.0222 2.08398 20.7713 2.08398 21.4762 2.25322C22.1012 2.40326 22.6986 2.65074 23.2467 2.98656C23.8648 3.36534 24.3944 3.89501 25.4538 4.95434L31.9631 11.4636C33.0224 12.523 33.5521 13.0526 33.9308 13.6707C34.2667 14.2188 34.5141 14.8162 34.6642 15.4412C34.8334 16.1461 34.8334 16.8952 34.8334 18.3933V33.1173C34.8334 36.5476 34.8334 38.2628 34.1658 39.573C33.5786 40.7255 32.6416 41.6625 31.4891 42.2497C30.1789 42.9173 28.4637 42.9173 25.0334 42.9173H11.9667C8.53643 42.9173 6.82127 42.9173 5.51106 42.2497C4.35856 41.6625 3.42156 40.7255 2.83433 39.573C2.16675 38.2628 2.16675 36.5476 2.16675 33.1173V11.884Z" stroke="white" stroke-width="2.66667" stroke-linecap="round" stroke-linejoin="round"/>
<path d="M10.3334 26.1756C10.3334 25.6039 10.3334 25.3181 10.4447 25.0997C10.5426 24.9076 10.6987 24.7515 10.8908 24.6536C11.1092 24.5423 11.395 24.5423 11.9667 24.5423H25.0334C25.6051 24.5423 25.891 24.5423 26.1094 24.6536C26.3014 24.7515 26.4576 24.9076 26.5555 25.0997C26.6667 25.3181 26.6667 25.6039 26.6667 26.1756V33.1173C26.6667 33.689 26.6667 33.9749 26.5555 34.1933C26.4576 34.3853 26.3014 34.5415 26.1094 34.6394C25.891 34.7506 25.6051 34.7506 25.0334 34.7506H11.9667C11.395 34.7506 11.1092 34.7506 10.8908 34.6394C10.6987 34.5415 10.5426 34.3853 10.4447 34.1933C10.3334 33.9749 10.3334 33.689 10.3334 33.1173V26.1756Z" stroke="white" stroke-width="2.66667" stroke-linecap="round" stroke-linejoin="round"/>
</svg>
