<svg width="32" height="33" viewBox="0 0 32 33" fill="none" xmlns="http://www.w3.org/2000/svg">
<circle cx="16" cy="16.5" r="16" fill="#62768B"/>
<path d="M8 11.3C8 9.61984 8 8.77976 8.32698 8.13803C8.6146 7.57354 9.07354 7.1146 9.63803 6.82698C10.2798 6.5 11.1198 6.5 12.8 6.5H16.0118C16.7455 6.5 17.1124 6.5 17.4577 6.58289C17.7638 6.65638 18.0564 6.77759 18.3249 6.94208C18.6276 7.1276 18.887 7.38703 19.4059 7.90589L22.5941 11.0941C23.113 11.613 23.3724 11.8724 23.5579 12.1751C23.7224 12.4436 23.8436 12.7362 23.9171 13.0423C24 13.3876 24 13.7545 24 14.4882V21.7C24 23.3802 24 24.2202 23.673 24.862C23.3854 25.4265 22.9265 25.8854 22.362 26.173C21.7202 26.5 20.8802 26.5 19.2 26.5H12.8C11.1198 26.5 10.2798 26.5 9.63803 26.173C9.07354 25.8854 8.6146 25.4265 8.32698 24.862C8 24.2202 8 23.3802 8 21.7V11.3Z" stroke="white" stroke-width="2" stroke-linecap="round" stroke-linejoin="round"/>
<path d="M12 18.3C12 18.02 12 17.88 12.0545 17.773C12.1024 17.6789 12.1789 17.6024 12.273 17.5545C12.38 17.5 12.52 17.5 12.8 17.5H19.2C19.48 17.5 19.62 17.5 19.727 17.5545C19.8211 17.6024 19.8976 17.6789 19.9455 17.773C20 17.88 20 18.02 20 18.3V21.7C20 21.98 20 22.12 19.9455 22.227C19.8976 22.3211 19.8211 22.3976 19.727 22.4455C19.62 22.5 19.48 22.5 19.2 22.5H12.8C12.52 22.5 12.38 22.5 12.273 22.4455C12.1789 22.3976 12.1024 22.3211 12.0545 22.227C12 22.12 12 21.98 12 21.7V18.3Z" stroke="white" stroke-width="2" stroke-linecap="round" stroke-linejoin="round"/>
</svg>
