<svg width="32" height="33" viewBox="0 0 32 33" fill="none" xmlns="http://www.w3.org/2000/svg">
<circle cx="16" cy="16.5" r="16" fill="#62768B"/>
<path fill-rule="evenodd" clip-rule="evenodd" d="M12.0959 4.5C11.8261 4.5 11.6074 4.7187 11.6074 4.98847C11.6074 5.25825 11.8261 5.47694 12.0959 5.47694H14.0498C14.3195 5.47694 14.5382 5.25825 14.5382 4.98847C14.5382 4.7187 14.3195 4.5 14.0498 4.5H12.0959ZM9.42676 11.3388C9.42676 9.355 11.0349 7.74683 13.0187 7.74683C15.0025 7.74683 16.6107 9.355 16.6107 11.3388C16.6107 13.3226 15.0025 14.9307 13.0187 14.9307C11.0349 14.9307 9.42676 13.3226 9.42676 11.3388ZM13.5614 5.47705V6.27541C14.2964 6.35327 14.9847 6.58752 15.5925 6.94424L16.0703 6.4665C16.3631 6.1736 16.838 6.1736 17.1309 6.4665C17.4238 6.75939 17.4238 7.23426 17.1309 7.52716L16.7664 7.89163C17.601 8.79853 18.1107 10.0091 18.1107 11.3388C18.1107 14.151 15.8309 16.4307 13.0187 16.4307C10.2065 16.4307 7.92676 14.151 7.92676 11.3388C7.92676 9.95395 8.47959 8.69822 9.3766 7.78027L9.12348 7.52716C8.83059 7.23426 8.83059 6.75939 9.12348 6.4665C9.41637 6.1736 9.89125 6.1736 10.1841 6.4665L10.5835 6.86582C11.1869 6.53658 11.8644 6.3259 12.5845 6.26508V5.47705H13.5614ZM19.8569 8.72656C19.3737 8.72656 18.9819 9.11831 18.9819 9.60156C18.9819 10.0848 19.3737 10.4766 19.8569 10.4766H20.6069C21.5261 10.4766 22.3987 10.8813 22.9925 11.583L25.6238 14.6928C26.1013 15.257 26.3633 15.9722 26.3633 16.7113V21.4958C26.3633 22.1172 25.8596 22.6208 25.2383 22.6208H24.5291C24.1409 21.1224 22.7796 20.0159 21.1599 20.0159C19.5401 20.0159 18.1788 21.1224 17.7907 22.6208H13.3438C13.309 22.6208 13.2747 22.6229 13.2411 22.6268C12.855 21.1254 11.4922 20.0159 9.87031 20.0159C8.25443 20.0159 6.89577 21.1171 6.50392 22.6101C5.95655 22.534 5.53516 22.0641 5.53516 21.4958V11.6016C5.53516 10.9802 6.03883 10.4766 6.66016 10.4766H6.83114C7.31439 10.4766 7.70614 10.0848 7.70614 9.60156C7.70614 9.11831 7.31439 8.72656 6.83114 8.72656H6.66016C5.07234 8.72656 3.78516 10.0137 3.78516 11.6016V21.4958C3.78516 23.0299 4.98661 24.2833 6.49987 24.3664C6.88633 25.8673 8.24882 26.9762 9.87031 26.9762C11.4924 26.9762 12.8552 25.8665 13.2412 24.3649C13.2748 24.3688 13.309 24.3708 13.3438 24.3708H17.7906C18.1785 25.8695 19.54 26.9762 21.1599 26.9762C22.7798 26.9762 24.1412 25.8695 24.5292 24.3708H25.2383C26.8261 24.3708 28.1133 23.0837 28.1133 21.4958V16.7113C28.1133 15.5583 27.7046 14.4426 26.9598 13.5624L24.3284 10.4526C23.4022 9.35791 22.0409 8.72656 20.6069 8.72656H19.8569ZM8.1402 23.5112C8.14833 24.4598 8.91981 25.2262 9.87031 25.2262C10.8259 25.2262 11.6005 24.4516 11.6005 23.496C11.6005 22.5405 10.8259 21.7659 9.87031 21.7659C8.9199 21.7659 8.14848 22.5322 8.1402 23.4806C8.14029 23.4857 8.14033 23.4908 8.14033 23.4958C8.14033 23.501 8.14029 23.5061 8.1402 23.5112ZM22.8899 23.4757L22.8897 23.4958L22.8899 23.5161C22.8792 24.4624 22.1087 25.2262 21.1599 25.2262C20.2043 25.2262 19.4297 24.4516 19.4297 23.496C19.4297 22.5405 20.2043 21.7659 21.1599 21.7659C22.1086 21.7659 22.879 22.5295 22.8899 23.4757ZM19.5586 15.7348C19.5586 15.465 19.7773 15.2463 20.0471 15.2463H22.0009C22.2707 15.2463 22.4894 15.465 22.4894 15.7348C22.4894 16.0046 22.2707 16.2233 22.0009 16.2233H20.0471C19.7773 16.2233 19.5586 16.0046 19.5586 15.7348ZM12.5845 8.97656C12.9297 8.97656 13.2095 9.25638 13.2095 9.60156V11.0795L14.329 12.199C14.5731 12.4431 14.5731 12.8388 14.329 13.0829C14.0849 13.327 13.6892 13.327 13.4451 13.0829L12.1425 11.7803L11.9595 11.5972V11.3383V9.60156C11.9595 9.25638 12.2393 8.97656 12.5845 8.97656Z" fill="white"/>
</svg>
