<svg width="33" height="33" viewBox="0 0 33 33" fill="none" xmlns="http://www.w3.org/2000/svg">
<circle cx="16.5" cy="16.5" r="16" fill="#BCC4CD"/>
<path d="M8.5 11.3C8.5 9.61984 8.5 8.77976 8.82698 8.13803C9.1146 7.57354 9.57354 7.1146 10.138 6.82698C10.7798 6.5 11.6198 6.5 13.3 6.5H16.5118C17.2455 6.5 17.6124 6.5 17.9577 6.58289C18.2638 6.65638 18.5564 6.77759 18.8249 6.94208C19.1276 7.1276 19.387 7.38703 19.9059 7.90589L23.0941 11.0941C23.613 11.613 23.8724 11.8724 24.0579 12.1751C24.2224 12.4436 24.3436 12.7362 24.4171 13.0423C24.5 13.3876 24.5 13.7545 24.5 14.4882V21.7C24.5 23.3802 24.5 24.2202 24.173 24.862C23.8854 25.4265 23.4265 25.8854 22.862 26.173C22.2202 26.5 21.3802 26.5 19.7 26.5H13.3C11.6198 26.5 10.7798 26.5 10.138 26.173C9.57354 25.8854 9.1146 25.4265 8.82698 24.862C8.5 24.2202 8.5 23.3802 8.5 21.7V11.3Z" stroke="white" stroke-width="2" stroke-linecap="round" stroke-linejoin="round"/>
<path d="M12.5 18.3C12.5 18.02 12.5 17.88 12.5545 17.773C12.6024 17.6789 12.6789 17.6024 12.773 17.5545C12.88 17.5 13.02 17.5 13.3 17.5H19.7C19.98 17.5 20.12 17.5 20.227 17.5545C20.3211 17.6024 20.3976 17.6789 20.4455 17.773C20.5 17.88 20.5 18.02 20.5 18.3V21.7C20.5 21.98 20.5 22.12 20.4455 22.227C20.3976 22.3211 20.3211 22.3976 20.227 22.4455C20.12 22.5 19.98 22.5 19.7 22.5H13.3C13.02 22.5 12.88 22.5 12.773 22.4455C12.6789 22.3976 12.6024 22.3211 12.5545 22.227C12.5 22.12 12.5 21.98 12.5 21.7V18.3Z" stroke="white" stroke-width="2" stroke-linecap="round" stroke-linejoin="round"/>
</svg>
