<svg width="33" height="33" viewBox="0 0 33 33" fill="none" xmlns="http://www.w3.org/2000/svg">
<circle cx="16.5" cy="16.5" r="16" fill="#BCC4CD"/>
<path fill-rule="evenodd" clip-rule="evenodd" d="M6.5 6.5H7.5H24H25V7.5V10.5H23V8.5H8.5V21.5H15.0577V23.5H7.5H6.5V22.5V7.5V6.5ZM14.5 16.3956C14.5 14.5764 15.471 12.983 16.9277 12.107L15.8971 10.393C13.8639 11.6156 12.5 13.8459 12.5 16.3956C12.5 16.928 12.5596 17.4476 12.6729 17.9477L14.6235 17.5059C14.5428 17.1497 14.5 16.7783 14.5 16.3956ZM17.5 16.3945C17.5 14.4615 19.067 12.8945 21 12.8945C22.933 12.8945 24.5 14.4615 24.5 16.3945H26.5C26.5 13.357 24.0376 10.8945 21 10.8945C17.9624 10.8945 15.5 13.357 15.5 16.3945H17.5ZM21.0868 14.125C20.0413 14.125 19.1937 14.9726 19.1937 16.0181V19.6047C18.9173 19.6687 18.6235 19.7711 18.3442 19.9314C17.6615 20.3235 17.1235 21.0371 17.1235 22.125C17.1235 22.9476 17.1502 23.6706 17.2661 24.2732C17.3841 24.8864 17.61 25.4605 18.0738 25.9039C18.5347 26.3444 19.1275 26.557 19.7768 26.662C20.4201 26.766 21.2033 26.7772 22.128 26.7459C23.0394 26.7151 23.8095 26.6614 24.4237 26.5072C25.0671 26.3457 25.6302 26.0516 26.018 25.4837C26.3772 24.9577 26.5062 24.3064 26.5666 23.6217C26.6271 22.9359 26.6271 22.0737 26.6271 21.0399V21C26.6271 20.3111 26.4344 19.7194 26.04 19.2592C25.6567 18.812 25.1543 18.5726 24.6839 18.4397C24.1408 18.2862 23.5249 18.2495 22.9942 18.2441L22.9799 16.006C22.9733 14.9652 22.1277 14.125 21.0868 14.125ZM18.9759 21.6719C19.0238 21.5926 19.0938 21.5231 19.1937 21.462V22.5769H20.9437V20.3805V16.0181C20.9437 15.9391 21.0078 15.875 21.0868 15.875C21.1655 15.875 21.2294 15.9385 21.23 16.0172L21.2498 19.1306L21.2554 20H22.1248C22.2554 20 22.3849 19.9988 22.5128 19.9976H22.5129C23.1361 19.9917 23.7214 19.9862 24.2079 20.1237C24.4752 20.1993 24.6259 20.2985 24.7113 20.3981C24.7855 20.4846 24.8771 20.6479 24.8771 21C24.8771 22.0829 24.8763 22.8681 24.8234 23.4679C24.7696 24.0776 24.6703 24.3541 24.5728 24.4968C24.5039 24.5978 24.3819 24.7134 23.9977 24.8098C23.5844 24.9136 22.9844 24.966 22.0689 24.9969C21.1668 25.0275 20.5241 25.0101 20.0562 24.9344C19.5942 24.8597 19.3904 24.7414 19.283 24.6387C19.1785 24.5389 19.0645 24.3578 18.9846 23.9425C18.9027 23.5166 18.8735 22.9381 18.8735 22.125C18.8735 21.8908 18.9262 21.7542 18.9759 21.6719Z" fill="white"/>
</svg>
