<svg width="32" height="32" viewBox="0 0 32 32" fill="none" xmlns="http://www.w3.org/2000/svg">
<circle cx="16" cy="16" r="16" fill="#00A441"/>
<path fill-rule="evenodd" clip-rule="evenodd" d="M6 6H7H23.5H24.5V7V10H22.5V8H8V21H14.5577V23H7H6V22V7V6ZM14 15.8956C14 14.0764 14.971 12.483 16.4277 11.607L15.3971 9.89301C13.3639 11.1156 12 13.3459 12 15.8956C12 16.428 12.0596 16.9476 12.1729 17.4477L14.1235 17.0059C14.0428 16.6497 14 16.2783 14 15.8956ZM17 15.8945C17 13.9615 18.567 12.3945 20.5 12.3945C22.433 12.3945 24 13.9615 24 15.8945H26C26 12.857 23.5376 10.3945 20.5 10.3945C17.4624 10.3945 15 12.857 15 15.8945H17ZM20.5868 13.625C19.5413 13.625 18.6937 14.4726 18.6937 15.5181V19.1047C18.4173 19.1687 18.1235 19.2711 17.8442 19.4314C17.1615 19.8235 16.6235 20.5371 16.6235 21.625C16.6235 22.4476 16.6502 23.1706 16.7661 23.7732C16.8841 24.3864 17.11 24.9605 17.5738 25.4039C18.0347 25.8444 18.6275 26.057 19.2768 26.162C19.9201 26.266 20.7033 26.2772 21.628 26.2459C22.5394 26.2151 23.3095 26.1614 23.9237 26.0072C24.5671 25.8457 25.1302 25.5516 25.518 24.9837C25.8772 24.4577 26.0062 23.8064 26.0666 23.1217C26.1271 22.4359 26.1271 21.5737 26.1271 20.5399V20.5C26.1271 19.8111 25.9344 19.2194 25.54 18.7592C25.1567 18.312 24.6543 18.0726 24.1839 17.9397C23.6408 17.7862 23.0249 17.7495 22.4942 17.7441L22.4799 15.506C22.4733 14.4652 21.6277 13.625 20.5868 13.625ZM18.4759 21.1719C18.5238 21.0926 18.5938 21.0231 18.6937 20.962V22.0769H20.4437V19.8805V15.5181C20.4437 15.4391 20.5078 15.375 20.5868 15.375C20.6655 15.375 20.7294 15.4385 20.73 15.5172L20.7498 18.6306L20.7554 19.5H21.6248C21.7554 19.5 21.8849 19.4988 22.0128 19.4976H22.0129C22.6361 19.4917 23.2214 19.4862 23.7079 19.6237C23.9752 19.6993 24.1259 19.7985 24.2113 19.8981C24.2855 19.9846 24.3771 20.1479 24.3771 20.5C24.3771 21.5829 24.3763 22.3681 24.3234 22.9679C24.2696 23.5776 24.1703 23.8541 24.0728 23.9968C24.0039 24.0978 23.8819 24.2134 23.4977 24.3098C23.0844 24.4136 22.4844 24.466 21.5689 24.4969C20.6668 24.5275 20.0241 24.5101 19.5562 24.4344C19.0942 24.3597 18.8904 24.2414 18.783 24.1387C18.6785 24.0389 18.5645 23.8578 18.4846 23.4425C18.4027 23.0166 18.3735 22.4381 18.3735 21.625C18.3735 21.3908 18.4262 21.2542 18.4759 21.1719Z" fill="white"/>
</svg>
