<svg width="33" height="33" viewBox="0 0 33 33" fill="none" xmlns="http://www.w3.org/2000/svg">
<circle cx="16.5" cy="16.5" r="16" fill="#BCC4CD"/>
<path fill-rule="evenodd" clip-rule="evenodd" d="M12.5959 4.5C12.3261 4.5 12.1074 4.7187 12.1074 4.98847C12.1074 5.25825 12.3261 5.47694 12.5959 5.47694H14.5498C14.8195 5.47694 15.0382 5.25825 15.0382 4.98847C15.0382 4.7187 14.8195 4.5 14.5498 4.5H12.5959ZM9.92676 11.3388C9.92676 9.355 11.5349 7.74683 13.5187 7.74683C15.5025 7.74683 17.1107 9.355 17.1107 11.3388C17.1107 13.3226 15.5025 14.9307 13.5187 14.9307C11.5349 14.9307 9.92676 13.3226 9.92676 11.3388ZM14.0614 5.47705V6.27541C14.7964 6.35327 15.4847 6.58752 16.0925 6.94424L16.5703 6.4665C16.8631 6.1736 17.338 6.1736 17.6309 6.4665C17.9238 6.75939 17.9238 7.23426 17.6309 7.52716L17.2664 7.89163C18.101 8.79853 18.6107 10.0091 18.6107 11.3388C18.6107 14.151 16.3309 16.4307 13.5187 16.4307C10.7065 16.4307 8.42676 14.151 8.42676 11.3388C8.42676 9.95395 8.97959 8.69822 9.8766 7.78027L9.62348 7.52716C9.33059 7.23426 9.33059 6.75939 9.62348 6.4665C9.91637 6.1736 10.3912 6.1736 10.6841 6.4665L11.0835 6.86582C11.6869 6.53658 12.3644 6.3259 13.0845 6.26508V5.47705H14.0614ZM20.3569 8.72656C19.8737 8.72656 19.4819 9.11831 19.4819 9.60156C19.4819 10.0848 19.8737 10.4766 20.3569 10.4766H21.1069C22.0261 10.4766 22.8987 10.8813 23.4925 11.583L26.1238 14.6928C26.6013 15.257 26.8633 15.9722 26.8633 16.7113V21.4958C26.8633 22.1172 26.3596 22.6208 25.7383 22.6208H25.0291C24.6409 21.1224 23.2796 20.0159 21.6599 20.0159C20.0401 20.0159 18.6788 21.1224 18.2907 22.6208H13.8438C13.809 22.6208 13.7747 22.6229 13.7411 22.6268C13.355 21.1254 11.9922 20.0159 10.3703 20.0159C8.75443 20.0159 7.39577 21.1171 7.00392 22.6101C6.45655 22.534 6.03516 22.0641 6.03516 21.4958V11.6016C6.03516 10.9802 6.53883 10.4766 7.16016 10.4766H7.33114C7.81439 10.4766 8.20614 10.0848 8.20614 9.60156C8.20614 9.11831 7.81439 8.72656 7.33114 8.72656H7.16016C5.57234 8.72656 4.28516 10.0137 4.28516 11.6016V21.4958C4.28516 23.0299 5.48661 24.2833 6.99987 24.3664C7.38633 25.8673 8.74882 26.9762 10.3703 26.9762C11.9924 26.9762 13.3552 25.8665 13.7412 24.3649C13.7748 24.3688 13.809 24.3708 13.8438 24.3708H18.2906C18.6785 25.8695 20.04 26.9762 21.6599 26.9762C23.2798 26.9762 24.6412 25.8695 25.0292 24.3708H25.7383C27.3261 24.3708 28.6133 23.0837 28.6133 21.4958V16.7113C28.6133 15.5583 28.2046 14.4426 27.4598 13.5624L24.8284 10.4526C23.9022 9.35791 22.5409 8.72656 21.1069 8.72656H20.3569ZM8.6402 23.5112C8.64833 24.4598 9.41981 25.2262 10.3703 25.2262C11.3259 25.2262 12.1005 24.4516 12.1005 23.496C12.1005 22.5405 11.3259 21.7659 10.3703 21.7659C9.4199 21.7659 8.64848 22.5322 8.6402 23.4806C8.64029 23.4857 8.64033 23.4908 8.64033 23.4958C8.64033 23.501 8.64029 23.5061 8.6402 23.5112ZM23.3899 23.4757L23.3897 23.4958L23.3899 23.5161C23.3792 24.4624 22.6087 25.2262 21.6599 25.2262C20.7043 25.2262 19.9297 24.4516 19.9297 23.496C19.9297 22.5405 20.7043 21.7659 21.6599 21.7659C22.6086 21.7659 23.379 22.5295 23.3899 23.4757ZM20.0586 15.7348C20.0586 15.465 20.2773 15.2463 20.5471 15.2463H22.5009C22.7707 15.2463 22.9894 15.465 22.9894 15.7348C22.9894 16.0046 22.7707 16.2233 22.5009 16.2233H20.5471C20.2773 16.2233 20.0586 16.0046 20.0586 15.7348ZM13.0845 8.97656C13.4297 8.97656 13.7095 9.25638 13.7095 9.60156V11.0795L14.829 12.199C15.0731 12.4431 15.0731 12.8388 14.829 13.0829C14.5849 13.327 14.1892 13.327 13.9451 13.0829L12.6425 11.7803L12.4595 11.5972V11.3383V9.60156C12.4595 9.25638 12.7393 8.97656 13.0845 8.97656Z" fill="white"/>
</svg>
