<svg width="32" height="25" viewBox="0 0 32 25" fill="none" xmlns="http://www.w3.org/2000/svg">
<path fill-rule="evenodd" clip-rule="evenodd" d="M15.7577 4.56059C10.6652 4.56059 6.02888 6.46556 2.47351 9.58619L0.00537109 6.81647C4.21058 3.10053 9.71547 0.5 15.7577 0.5C21.7875 0.5 27.2799 3.09427 31.4913 6.79767L29.0232 9.57366C25.4741 6.45302 20.8377 4.56059 15.7577 4.56059ZM15.752 12.5563C12.7028 12.5563 9.91598 13.6779 7.76026 15.5391L5.14841 12.6064C7.99145 10.1249 11.6905 8.50195 15.7458 8.50195C19.7948 8.50195 23.4939 10.1187 26.3369 12.5939L23.7313 15.5328C21.5818 13.6779 18.795 12.5563 15.752 12.5563ZM15.747 16.3906C13.7037 16.3906 11.8292 17.2428 10.3733 18.471L15.747 24.4993L21.1144 18.4585C19.6647 17.2366 17.7902 16.3906 15.747 16.3906Z" fill="#2274E5"/>
</svg>
