<svg width="126" height="37" viewBox="0 0 126 37" fill="none" xmlns="http://www.w3.org/2000/svg">
<g clip-path="url(#clip0_1733_330493)">
<path d="M120.949 36.9407H4.77519C2.3613 36.9407 0.396484 34.9754 0.396484 32.5697V4.36433C0.396484 1.95763 2.3613 -0.000244141 4.77519 -0.000244141H120.949C123.362 -0.000244141 125.396 1.95763 125.396 4.36433V32.5697C125.396 34.9754 123.362 36.9407 120.949 36.9407Z" fill="#A6A6A6"/>
<path d="M124.5 32.5712C124.5 34.5253 122.913 36.1083 120.95 36.1083H4.77533C2.8133 36.1083 1.2207 34.5253 1.2207 32.5712V4.36398C1.2207 2.41073 2.8133 0.822266 4.77533 0.822266H120.949C122.913 0.822266 124.499 2.41073 124.499 4.36398L124.5 32.5712Z" fill="black"/>
<path d="M28.2922 18.2713C28.2653 15.2948 30.7357 13.8467 30.8487 13.7793C29.4496 11.7447 27.2811 11.4668 26.519 11.4446C24.6977 11.2534 22.9311 12.5316 22.0033 12.5316C21.057 12.5316 19.6283 11.4631 18.0885 11.4945C16.107 11.5249 14.2533 12.6692 13.2366 14.4461C11.1385 18.069 12.7033 23.3931 14.7135 26.3216C15.719 27.7559 16.894 29.3573 18.432 29.3009C19.9366 29.2391 20.4987 28.3442 22.3144 28.3442C24.1135 28.3442 24.6413 29.3009 26.2098 29.2649C27.8246 29.2391 28.8413 27.8242 29.8116 26.3771C30.9737 24.7332 31.4403 23.1142 31.4588 23.0311C31.4209 23.0182 28.3227 21.8389 28.2922 18.2713Z" fill="white"/>
<path d="M25.3295 9.51744C26.1388 8.50803 26.6925 7.13475 26.5388 5.74115C25.3675 5.79287 23.9027 6.54923 23.0592 7.53648C22.3129 8.40644 21.6462 9.83236 21.8184 11.1733C23.1342 11.2712 24.4851 10.5111 25.3295 9.51744Z" fill="white"/>
<path d="M50.0668 29.0957H47.9641L46.8122 25.4856H42.8085L41.7113 29.0957H39.6641L43.6307 16.8054H46.0807L50.0668 29.0957ZM46.465 23.971L45.4233 20.7618C45.3131 20.4339 45.1067 19.6619 44.802 18.4465H44.765C44.6437 18.9692 44.4483 19.7413 44.1798 20.7618L43.1567 23.971H46.465Z" fill="white"/>
<path d="M60.2674 24.5568C60.2674 26.0639 59.8591 27.2553 59.0424 28.1299C58.3109 28.9084 57.4026 29.2972 56.3183 29.2972C55.148 29.2972 54.3072 28.8779 53.7952 28.0394H53.7582V32.7078H51.7841V23.1521C51.7841 22.2045 51.7591 21.2321 51.7109 20.2347H53.447L53.5572 21.6393H53.5943C54.2526 20.581 55.2517 20.0527 56.5924 20.0527C57.6406 20.0527 58.5156 20.4655 59.2156 21.2921C59.9174 22.1196 60.2674 23.2075 60.2674 24.5568ZM58.2563 24.6288C58.2563 23.7662 58.0619 23.0551 57.6711 22.4955C57.2443 21.9118 56.6711 21.62 55.9526 21.62C55.4656 21.62 55.023 21.7825 54.6276 22.103C54.2313 22.4262 53.972 22.8482 53.8507 23.371C53.7896 23.6148 53.7591 23.8142 53.7591 23.9712V25.4489C53.7591 26.0935 53.9572 26.6375 54.3535 27.0817C54.7498 27.5259 55.2646 27.7475 55.898 27.7475C56.6415 27.7475 57.2202 27.4612 57.6341 26.8905C58.0489 26.3188 58.2563 25.5652 58.2563 24.6288Z" fill="white"/>
<path d="M70.4872 24.5568C70.4872 26.0639 70.0789 27.2553 69.2613 28.1299C68.5307 28.9084 67.6224 29.2972 66.5381 29.2972C65.3678 29.2972 64.527 28.8779 64.0159 28.0394H63.9789V32.7078H62.0048V23.1521C62.0048 22.2045 61.9798 21.2321 61.9316 20.2347H63.6678L63.7779 21.6393H63.815C64.4724 20.581 65.4715 20.0527 66.8131 20.0527C67.8603 20.0527 68.7353 20.4655 69.4372 21.2921C70.1363 22.1196 70.4872 23.2075 70.4872 24.5568ZM68.4761 24.6288C68.4761 23.7662 68.2807 23.0551 67.89 22.4955C67.4631 21.9118 66.8918 21.62 66.1724 21.62C65.6844 21.62 65.2428 21.7825 64.8465 22.103C64.4502 22.4262 64.1918 22.8482 64.0705 23.371C64.0103 23.6148 63.9789 23.8142 63.9789 23.9712V25.4489C63.9789 26.0935 64.177 26.6375 64.5715 27.0817C64.9677 27.525 65.4826 27.7475 66.1178 27.7475C66.8613 27.7475 67.44 27.4612 67.8539 26.8905C68.2687 26.3188 68.4761 25.5652 68.4761 24.6288Z" fill="white"/>
<path d="M81.914 25.6491C81.914 26.6945 81.5501 27.545 80.8195 28.2017C80.0168 28.9193 78.8992 29.2776 77.4631 29.2776C76.1371 29.2776 75.0742 29.0227 74.2695 28.512L74.7269 26.8709C75.5936 27.3936 76.5445 27.6559 77.5806 27.6559C78.3242 27.6559 78.9029 27.4878 79.3186 27.1535C79.7325 26.8192 79.939 26.3703 79.939 25.8107C79.939 25.312 79.7686 24.8918 79.4269 24.551C79.0871 24.2102 78.5195 23.8934 77.7269 23.6007C75.5695 22.7981 74.4918 21.6225 74.4918 20.0765C74.4918 19.0662 74.8695 18.2378 75.626 17.5932C76.3797 16.9476 77.3853 16.6253 78.6427 16.6253C79.764 16.6253 80.6955 16.8202 81.439 17.209L80.9455 18.8141C80.251 18.4373 79.4658 18.2489 78.5871 18.2489C77.8927 18.2489 77.3501 18.4197 76.9612 18.7596C76.6325 19.0634 76.4677 19.4337 76.4677 19.8724C76.4677 20.3582 76.6556 20.7599 77.0334 21.0758C77.3621 21.3676 77.9594 21.6834 78.826 22.0242C79.8862 22.45 80.6649 22.9477 81.1658 23.5185C81.6649 24.0874 81.914 24.7994 81.914 25.6491Z" fill="white"/>
<path d="M88.4404 21.7119H86.2645V26.0146C86.2645 27.109 86.6478 27.6557 87.4163 27.6557C87.7691 27.6557 88.0617 27.6252 88.2932 27.5643L88.3478 29.0595C87.9589 29.2044 87.4469 29.2774 86.8126 29.2774C86.033 29.2774 85.4237 29.0401 84.9839 28.5663C84.546 28.0916 84.3256 27.2955 84.3256 26.1771V21.7101H83.0293V20.2324H84.3256V18.6098L86.2645 18.0261V20.2324H88.4404V21.7119Z" fill="white"/>
<path d="M98.2575 24.5919C98.2575 25.9541 97.8668 27.0724 97.0871 27.947C96.2695 28.8475 95.1843 29.2963 93.8316 29.2963C92.5278 29.2963 91.4899 28.865 90.7158 28.0024C89.9417 27.1399 89.5547 26.051 89.5547 24.7387C89.5547 23.3654 89.9528 22.2406 90.7519 21.366C91.5491 20.4905 92.6251 20.0527 93.9778 20.0527C95.2816 20.0527 96.3306 20.484 97.1223 21.3475C97.8797 22.1852 98.2575 23.2666 98.2575 24.5919ZM96.2093 24.6556C96.2093 23.8383 96.0343 23.1373 95.6797 22.5527C95.2658 21.8453 94.6741 21.4925 93.9075 21.4925C93.114 21.4925 92.5112 21.8462 92.0973 22.5527C91.7427 23.1382 91.5677 23.8503 91.5677 24.6925C91.5677 25.5098 91.7427 26.2108 92.0973 26.7945C92.5241 27.5019 93.1204 27.8547 93.8899 27.8547C94.6436 27.8547 95.2353 27.4945 95.6621 26.776C96.026 26.1803 96.2093 25.472 96.2093 24.6556Z" fill="white"/>
<path d="M104.674 21.9663C104.478 21.9303 104.27 21.9118 104.051 21.9118C103.357 21.9118 102.82 22.1731 102.442 22.6968C102.113 23.1585 101.949 23.7422 101.949 24.4469V29.0968H99.9755L99.994 23.0256C99.994 22.0041 99.969 21.0742 99.9199 20.2356H101.639L101.712 21.9312H101.766C101.975 21.3484 102.303 20.8793 102.753 20.5274C103.193 20.2107 103.668 20.0527 104.18 20.0527C104.363 20.0527 104.527 20.0657 104.674 20.0888V21.9663Z" fill="white"/>
<path d="M113.504 24.2442C113.504 24.5969 113.481 24.8943 113.432 25.1372H107.509C107.532 26.0127 107.819 26.6823 108.369 27.144C108.868 27.5568 109.513 27.7637 110.306 27.7637C111.182 27.7637 111.982 27.6242 112.702 27.3444L113.011 28.7112C112.17 29.077 111.178 29.2589 110.032 29.2589C108.655 29.2589 107.573 28.8544 106.786 28.0463C106.001 27.2382 105.607 26.1531 105.607 24.7918C105.607 23.4555 105.973 22.3426 106.706 21.4551C107.472 20.5076 108.508 20.0338 109.812 20.0338C111.093 20.0338 112.062 20.5076 112.72 21.4551C113.242 22.2078 113.504 23.1387 113.504 24.2442ZM111.621 23.7334C111.634 23.1498 111.506 22.6455 111.238 22.2198C110.896 21.6721 110.371 21.3988 109.665 21.3988C109.019 21.3988 108.494 21.6657 108.094 22.2013C107.765 22.6271 107.569 23.1378 107.509 23.7325H111.621V23.7334Z" fill="white"/>
<path d="M45.8138 9.24374C45.8138 10.3307 45.487 11.149 44.8342 11.6985C44.2296 12.2055 43.3703 12.4594 42.2573 12.4594C41.7055 12.4594 41.2333 12.4354 40.8379 12.3874V6.44823C41.3536 6.36511 41.9092 6.32263 42.5092 6.32263C43.5694 6.32263 44.3684 6.55259 44.9073 7.0125C45.511 7.53245 45.8138 8.27588 45.8138 9.24374ZM44.7907 9.27052C44.7907 8.56587 44.6036 8.02561 44.2296 7.64881C43.8555 7.27294 43.3092 7.08454 42.5897 7.08454C42.2842 7.08454 42.024 7.10486 41.8083 7.14734V11.6624C41.9277 11.6809 42.1462 11.6892 42.4638 11.6892C43.2064 11.6892 43.7796 11.4833 44.1833 11.0714C44.587 10.6595 44.7907 10.0592 44.7907 9.27052Z" fill="white"/>
<path d="M51.2398 10.1923C51.2398 10.8618 51.0482 11.4104 50.6648 11.8408C50.263 12.2831 49.7306 12.5039 49.0658 12.5039C48.425 12.5039 47.9148 12.2924 47.5343 11.8675C47.1547 11.4437 46.9648 10.9089 46.9648 10.2643C46.9648 9.59014 47.1602 9.03695 47.5528 8.60751C47.9454 8.17807 48.4732 7.96289 49.138 7.96289C49.7787 7.96289 50.2935 8.17438 50.6833 8.59827C51.0537 9.01017 51.2398 9.54212 51.2398 10.1923ZM50.2333 10.2237C50.2333 9.82194 50.1463 9.47747 49.9732 9.19025C49.7695 8.84301 49.4796 8.66939 49.1028 8.66939C48.713 8.66939 48.4167 8.84301 48.213 9.19025C48.0389 9.47747 47.9528 9.82749 47.9528 10.2412C47.9528 10.643 48.0398 10.9874 48.213 11.2746C48.4232 11.6219 48.7158 11.7955 49.0935 11.7955C49.4639 11.7955 49.7546 11.6191 49.9639 11.2654C50.1435 10.9727 50.2333 10.6254 50.2333 10.2237Z" fill="white"/>
<path d="M58.5135 8.05298L57.1478 12.4065H56.2589L55.6932 10.516C55.5496 10.0441 55.433 9.57494 55.3422 9.10949H55.3246C55.2404 9.58787 55.1237 10.0561 54.9737 10.516L54.3728 12.4065H53.4737L52.1895 8.05298H53.1867L53.6802 10.1226C53.7996 10.6121 53.8978 11.0784 53.9765 11.5199H53.9941C54.0663 11.156 54.1857 10.6924 54.3543 10.1318L54.9737 8.0539H55.7645L56.358 10.0875C56.5015 10.5834 56.6182 11.0609 56.708 11.5208H56.7348C56.8006 11.0729 56.8996 10.5954 57.0311 10.0875L57.5608 8.0539H58.5135V8.05298Z" fill="white"/>
<path d="M63.5427 12.4054H62.5723V9.91191C62.5723 9.14354 62.2797 8.75936 61.6927 8.75936C61.4048 8.75936 61.1723 8.86464 60.9918 9.07613C60.8131 9.28761 60.7223 9.53696 60.7223 9.82233V12.4045H59.752V9.29592C59.752 8.91359 59.7399 8.49892 59.7168 8.05009H60.5696L60.6149 8.73073H60.6418C60.7548 8.51924 60.9233 8.3447 61.1446 8.20524C61.4075 8.0427 61.702 7.96051 62.0242 7.96051C62.4316 7.96051 62.7705 8.09165 63.0399 8.35485C63.3751 8.67716 63.5427 9.15832 63.5427 9.7974V12.4054Z" fill="white"/>
<path d="M66.2195 12.4059H65.25V6.05481H66.2195V12.4059Z" fill="white"/>
<path d="M71.9312 10.1923C71.9312 10.8618 71.7396 11.4104 71.3562 11.8408C70.9544 12.2831 70.4211 12.5039 69.7572 12.5039C69.1155 12.5039 68.6053 12.2924 68.2257 11.8675C67.8461 11.4437 67.6562 10.9089 67.6562 10.2643C67.6562 9.59014 67.8516 9.03695 68.2442 8.60751C68.6368 8.17807 69.1646 7.96289 69.8285 7.96289C70.4701 7.96289 70.984 8.17438 71.3748 8.59827C71.7451 9.01017 71.9312 9.54212 71.9312 10.1923ZM70.9238 10.2237C70.9238 9.82194 70.8368 9.47747 70.6637 9.19025C70.4609 8.84301 70.1701 8.66939 69.7942 8.66939C69.4035 8.66939 69.1072 8.84301 68.9044 9.19025C68.7303 9.47747 68.6442 9.82749 68.6442 10.2412C68.6442 10.643 68.7312 10.9874 68.9044 11.2746C69.1146 11.6219 69.4072 11.7955 69.785 11.7955C70.1553 11.7955 70.4451 11.6191 70.6544 11.2654C70.8349 10.9727 70.9238 10.6254 70.9238 10.2237Z" fill="white"/>
<path d="M76.6283 12.405H75.757L75.6847 11.9036H75.6579C75.3597 12.3035 74.9347 12.5039 74.3829 12.5039C73.9708 12.5039 73.6375 12.3718 73.3866 12.1095C73.1588 11.8712 73.0449 11.5748 73.0449 11.2229C73.0449 10.691 73.2671 10.2856 73.7144 10.0048C74.1607 9.72405 74.7884 9.58645 75.5968 9.59291V9.51164C75.5968 8.93813 75.2949 8.65184 74.6903 8.65184C74.2597 8.65184 73.8801 8.75989 73.5523 8.97415L73.3551 8.33876C73.7607 8.08849 74.2616 7.96289 74.8523 7.96289C75.9931 7.96289 76.5653 8.56318 76.5653 9.76376V11.367C76.5653 11.802 76.5866 12.1483 76.6283 12.405ZM75.6208 10.9089V10.2375C74.5505 10.2191 74.0153 10.5118 74.0153 11.1149C74.0153 11.3421 74.0764 11.512 74.2014 11.6256C74.3264 11.7392 74.4857 11.7955 74.6755 11.7955C74.8884 11.7955 75.0875 11.7281 75.269 11.5942C75.4514 11.4594 75.5634 11.2885 75.6051 11.0789C75.6153 11.0318 75.6208 10.9745 75.6208 10.9089Z" fill="white"/>
<path d="M82.1432 12.4059H81.2821L81.2368 11.7068H81.2099C80.9349 12.2387 80.4664 12.5047 79.808 12.5047C79.2821 12.5047 78.8442 12.2988 78.4969 11.8869C78.1497 11.475 77.9766 10.9403 77.9766 10.2836C77.9766 9.57898 78.1645 9.00824 78.5423 8.57234C78.908 8.16598 79.3562 7.96281 79.8895 7.96281C80.4756 7.96281 80.8858 8.15952 81.1192 8.55387H81.1377V6.05481H82.109V11.233C82.109 11.6569 82.1201 12.0476 82.1432 12.4059ZM81.1377 10.5699V9.84403C81.1377 9.71843 81.1284 9.61684 81.1108 9.53927C81.0562 9.30654 80.9386 9.11075 80.7599 8.95283C80.5793 8.79491 80.3617 8.71548 80.1108 8.71548C79.7488 8.71548 79.4655 8.85863 79.2571 9.14584C79.0506 9.43306 78.946 9.7997 78.946 10.2476C78.946 10.678 79.0451 11.0271 79.2442 11.2958C79.4543 11.5821 79.7377 11.7252 80.0923 11.7252C80.4108 11.7252 80.6655 11.6061 80.859 11.3669C81.046 11.1462 81.1377 10.8802 81.1377 10.5699Z" fill="white"/>
<path d="M90.441 10.1923C90.441 10.8618 90.2494 11.4104 89.866 11.8408C89.4642 12.2831 88.9327 12.5039 88.2669 12.5039C87.6271 12.5039 87.1169 12.2924 86.7355 11.8675C86.3558 11.4437 86.166 10.9089 86.166 10.2643C86.166 9.59014 86.3614 9.03695 86.754 8.60751C87.1466 8.17807 87.6744 7.96289 88.3401 7.96289C88.9799 7.96289 89.4957 8.17438 89.8845 8.59827C90.2549 9.01017 90.441 9.54212 90.441 10.1923ZM89.4355 10.2237C89.4355 9.82194 89.3484 9.47747 89.1753 9.19025C88.9706 8.84301 88.6818 8.66939 88.304 8.66939C87.9151 8.66939 87.6188 8.84301 87.4142 9.19025C87.2401 9.47747 87.154 9.82749 87.154 10.2412C87.154 10.643 87.241 10.9874 87.4142 11.2746C87.6244 11.6219 87.9169 11.7955 88.2947 11.7955C88.6651 11.7955 88.9568 11.6191 89.166 11.2654C89.3447 10.9727 89.4355 10.6254 89.4355 10.2237Z" fill="white"/>
<path d="M95.659 12.4054H94.6895V9.91191C94.6895 9.14354 94.397 8.75936 93.809 8.75936C93.521 8.75936 93.2886 8.86464 93.109 9.07613C92.9294 9.28761 92.8395 9.53696 92.8395 9.82233V12.4045H91.8682V9.29592C91.8682 8.91359 91.8571 8.49892 91.834 8.05009H92.6858L92.7312 8.73073H92.7581C92.872 8.51924 93.0405 8.3447 93.2608 8.20524C93.5247 8.0427 93.8183 7.96051 94.1414 7.96051C94.5479 7.96051 94.8868 8.09165 95.1562 8.35485C95.4923 8.67716 95.659 9.15832 95.659 9.7974V12.4054Z" fill="white"/>
<path d="M102.19 8.77891H101.121V10.8938C101.121 11.4313 101.311 11.7 101.687 11.7C101.861 11.7 102.005 11.6852 102.119 11.6548L102.144 12.389C101.953 12.461 101.701 12.497 101.39 12.497C101.007 12.497 100.709 12.3807 100.493 12.1479C100.277 11.9152 100.169 11.5236 100.169 10.9741V8.77891H99.5312V8.05394H100.169V7.25602L101.12 6.96973V8.05302H102.189V8.77891H102.19Z" fill="white"/>
<path d="M107.326 12.4059H106.355V9.93084C106.355 9.15046 106.062 8.75981 105.476 8.75981C105.026 8.75981 104.718 8.98607 104.55 9.4386C104.521 9.53372 104.505 9.65009 104.505 9.78677V12.405H103.535V6.05481H104.505V8.67854H104.523C104.829 8.20108 105.267 7.96281 105.834 7.96281C106.236 7.96281 106.568 8.09395 106.832 8.35715C107.161 8.685 107.326 9.17262 107.326 9.81724V12.4059Z" fill="white"/>
<path d="M112.627 10.0236C112.627 10.1972 112.614 10.3431 112.591 10.4623H109.68C109.693 10.8926 109.832 11.2205 110.102 11.4477C110.348 11.6508 110.666 11.7524 111.054 11.7524C111.485 11.7524 111.878 11.6841 112.231 11.5465L112.383 12.2188C111.969 12.398 111.482 12.4875 110.918 12.4875C110.242 12.4875 109.71 12.289 109.325 11.8919C108.938 11.4948 108.746 10.9619 108.746 10.2932C108.746 9.63662 108.925 9.0899 109.285 8.65399C109.661 8.18854 110.169 7.95581 110.811 7.95581C111.439 7.95581 111.916 8.18854 112.238 8.65399C112.498 9.0234 112.627 9.48055 112.627 10.0236ZM111.701 9.7733C111.708 9.48609 111.644 9.23858 111.513 9.02987C111.344 8.76112 111.088 8.62629 110.741 8.62629C110.424 8.62629 110.166 8.75743 109.968 9.02063C109.807 9.23027 109.712 9.48055 109.68 9.7733H111.701Z" fill="white"/>
</g>
<defs>
<clipPath id="clip0_1733_330493">
<rect width="125" height="36.9409" fill="white" transform="translate(0.396484 -0.000244141)"/>
</clipPath>
</defs>
</svg>
