<svg width="32" height="32" viewBox="0 0 32 32" fill="none" xmlns="http://www.w3.org/2000/svg">
<path d="M16 20C18.2091 20 20 18.2091 20 16C20 13.7909 18.2091 12 16 12C13.7909 12 12 13.7909 12 16C12 18.2091 13.7909 20 16 20Z" fill="black" fill-opacity="0.54"/>
<path d="M26.6659 5.33338H22.4393L20.7859 3.53338C20.2926 2.98672 19.5726 2.66672 18.8259 2.66672H13.1726C12.426 2.66672 11.706 2.98672 11.1993 3.53338L9.55932 5.33338H5.33267C3.86601 5.33338 2.66602 6.53338 2.66602 8.00005V24.0001C2.66602 25.4667 3.86601 26.6667 5.33267 26.6667H26.6659C28.1326 26.6667 29.3326 25.4667 29.3326 24.0001V8.00005C29.3326 6.53338 28.1326 5.33338 26.6659 5.33338ZM15.9993 22.6667C12.3193 22.6667 9.33265 19.6801 9.33265 16.0001C9.33265 12.3201 12.3193 9.33338 15.9993 9.33338C19.6793 9.33338 22.6659 12.3201 22.6659 16.0001C22.6659 19.6801 19.6793 22.6667 15.9993 22.6667Z" fill="black" fill-opacity="0.54"/>
</svg>
