<svg width="24" height="24" viewBox="0 0 24 24" fill="none" xmlns="http://www.w3.org/2000/svg">
    <path d="M21.098 4.53036L1.08594 7.15479L2.70097 19.4699L22.7131 16.8455L21.098 4.53036Z"
        fill="#2274E5" />
    <path d="M22.7131 16.8455L15.0161 17.8549L1.08594 7.15479L21.098 4.53036L22.7131 16.8455Z"
        fill="#4D97FF" />
    <path d="M21.3988 6.81746L1.38672 9.44189L1.68665 11.729L21.6987 9.10456L21.3988 6.81746Z"
        fill="#163B99" />
    <path d="M12.1834 14.334L4.39844 15.355L4.50226 16.1467L12.2872 15.1257L12.1834 14.334Z"
        fill="#F5F9FC" />
    <path d="M9.29989 16.2334L4.59375 16.8506L4.69757 17.6423L9.40371 17.0251L9.29989 16.2334Z"
        fill="#AAC7F2" />
    <path d="M13.9186 15.6275L10.8398 16.0312L10.9437 16.8229L14.0224 16.4192L13.9186 15.6275Z"
        fill="#AAC7F2" />
    <path
        d="M19.0366 15.7617C20.1054 15.6215 20.8582 14.6415 20.718 13.5727C20.5778 12.5039 19.5978 11.7511 18.529 11.8912C17.4602 12.0314 16.7074 13.0115 16.8475 14.0803C16.9877 15.1491 17.9678 15.9019 19.0366 15.7617Z"
        fill="#FBB03B" />
</svg>