<svg width="328" height="12" viewBox="0 0 328 12" fill="none" xmlns="http://www.w3.org/2000/svg">
<path fill-rule="evenodd" clip-rule="evenodd" d="M19.0599 12C19.0599 8.6875 16.2529 6 12.7907 6C9.32856 6 6.52148 8.6875 6.52148 12H0.134766V0H327.135V12H319.983C319.983 8.6875 317.176 6 313.714 6C310.252 6 307.445 8.6875 307.445 12H301.175C301.175 8.6875 298.368 6 294.906 6C291.444 6 288.637 8.6875 288.637 12H282.368C282.368 8.6875 279.561 6 276.098 6C272.636 6 269.829 8.6875 269.829 12H263.56C263.56 8.6875 260.753 6 257.291 6C253.829 6 251.021 8.6875 251.021 12H244.752C244.752 8.6875 241.945 6 238.483 6C235.021 6 232.214 8.6875 232.214 12H225.945C225.945 8.6875 223.137 6 219.675 6C216.213 6 213.406 8.6875 213.406 12H207.137C207.137 8.6875 204.33 6 200.868 6C197.405 6 194.598 8.6875 194.598 12H188.329C188.329 11.4766 188.259 10.9727 188.129 10.4883C187.99 9.98047 187.784 9.49609 187.519 9.04688C186.442 7.22656 184.401 6 182.06 6C178.598 6 175.791 8.6875 175.791 12H169.521C169.521 8.6875 166.714 6 163.252 6C159.79 6 156.983 8.6875 156.983 12H150.714C150.714 8.6875 147.907 6 144.445 6C140.982 6 138.175 8.6875 138.175 12H131.906C131.906 8.6875 129.099 6 125.637 6C122.175 6 119.368 8.6875 119.368 12H113.098C113.098 8.6875 110.291 6 106.829 6C103.367 6 100.56 8.6875 100.56 12H94.2907C94.2907 8.6875 91.4836 6 88.0215 6C84.5593 6 81.7522 8.6875 81.7522 12H75.483C75.483 8.6875 72.6759 6 69.2138 6C68.4424 6 67.7036 6.13281 67.021 6.37891C66.6991 6.49219 66.3894 6.63281 66.095 6.79688C64.2124 7.83203 62.9446 9.77344 62.9446 12H56.6753C56.6753 8.6875 53.8683 6 50.4061 6C46.9439 6 44.1369 8.6875 44.1369 12H37.8676C37.8676 8.6875 35.0606 6 31.5984 6C28.1362 6 25.3292 8.6875 25.3292 12H19.0599Z" fill="white"/>
</svg>
