<svg width="328" height="12" viewBox="0 0 328 12" fill="none" xmlns="http://www.w3.org/2000/svg">
<path fill-rule="evenodd" clip-rule="evenodd" d="M18.9683 0C18.9683 3.86458 16.152 7 12.6785 7C9.20494 7 6.38864 3.86458 6.38864 0H0.134766V12H327.135V0H320.88C320.88 3.86458 318.064 7 314.591 7C311.117 7 308.301 3.86458 308.301 0H302.011C302.011 3.86458 299.195 7 295.721 7C292.248 7 289.431 3.86458 289.431 0H283.141C283.141 3.86458 280.325 7 276.852 7C273.378 7 270.562 3.86458 270.562 0H264.272C264.272 3.86458 261.456 7 257.982 7C254.509 7 251.692 3.86458 251.692 0H245.402C245.402 3.86458 242.586 7 239.113 7C235.639 7 232.823 3.86458 232.823 0H226.533C226.533 3.86458 223.717 7 220.243 7C216.77 7 213.953 3.86458 213.953 0H207.663C207.663 3.86458 204.847 7 201.374 7C197.9 7 195.084 3.86458 195.084 0H188.794C188.794 0.610677 188.724 1.19857 188.593 1.76367C188.454 2.35612 188.247 2.92122 187.981 3.44531C186.9 5.56901 184.853 7 182.504 7C179.031 7 176.214 3.86458 176.214 0H169.924C169.924 3.86458 167.108 7 163.635 7C160.161 7 157.345 3.86458 157.345 0H151.055C151.055 3.86458 148.239 7 144.765 7C141.292 7 138.475 3.86458 138.475 0H132.185C132.185 3.86458 129.369 7 125.896 7C122.422 7 119.606 3.86458 119.606 0H113.316C113.316 3.86458 110.5 7 107.026 7C103.552 7 100.736 3.86458 100.736 0H94.4464C94.4464 3.86458 91.6301 7 88.1565 7C84.683 7 81.8667 3.86458 81.8667 0H75.5768C75.5768 3.86458 72.7605 7 69.287 7C68.5131 7 67.7719 6.84505 67.087 6.55794C66.764 6.42578 66.4533 6.26172 66.158 6.07031C64.2692 4.86263 62.9972 2.59766 62.9972 0H56.7073C56.7073 3.86458 53.891 7 50.4175 7C46.944 7 44.1277 3.86458 44.1277 0H37.8378C37.8378 3.86458 35.0215 7 31.548 7C28.0744 7 25.2582 3.86458 25.2582 0H18.9683Z" fill="white"/>
</svg>
