<svg width="15" height="14" viewBox="0 0 15 14" fill="none" xmlns="http://www.w3.org/2000/svg">
<path fill-rule="evenodd" clip-rule="evenodd" d="M2.65828 0.292893C2.26775 -0.0976311 1.63459 -0.0976311 1.24407 0.292893C0.853541 0.683417 0.853541 1.31658 1.24407 1.70711L6.53696 7L1.24407 12.2929C0.853541 12.6834 0.853541 13.3166 1.24407 13.7071C1.63459 14.0976 2.26775 14.0976 2.65828 13.7071L7.95117 8.41421L13.2441 13.7071C13.6346 14.0976 14.2678 14.0976 14.6583 13.7071C15.0488 13.3166 15.0488 12.6834 14.6583 12.2929L9.36539 7L14.6583 1.70711C15.0488 1.31658 15.0488 0.683418 14.6583 0.292894C14.2678 -0.097631 13.6346 -0.097631 13.2441 0.292893L7.95117 5.58579L2.65828 0.292893Z" fill="#1A458B"/>
</svg>
