<svg width="64" height="64" viewBox="0 0 64 64" fill="none" xmlns="http://www.w3.org/2000/svg">
<rect width="64" height="64" rx="16" fill="#1877F2"/>
<path d="M54 32C54 19.8497 44.1503 10 32 10C19.8497 10 10 19.8497 10 32C10 42.9808 18.0451 52.0823 28.5625 53.7327V38.3594H22.9766V32H28.5625V27.1531C28.5625 21.6394 31.8469 18.5938 36.8722 18.5938C39.2792 18.5938 41.7969 19.0234 41.7969 19.0234V24.4375H39.0227C36.2898 24.4375 35.4375 26.1333 35.4375 27.8732V32H41.5391L40.5637 38.3594H35.4375V53.7327C45.9549 52.0823 54 42.9808 54 32Z" fill="#1877F2"/>
<path d="M40.5637 38.3594L41.5391 32H35.4375V27.8732C35.4375 26.1333 36.2898 24.4375 39.0227 24.4375H41.7969V19.0234C41.7969 19.0234 39.2792 18.5938 36.8722 18.5938C31.8469 18.5938 28.5625 21.6394 28.5625 27.1531V32H22.9766V38.3594H28.5625V53.7327C29.6826 53.9085 30.8306 54 32 54C33.1694 54 34.3174 53.9085 35.4375 53.7327V38.3594H40.5637Z" fill="white"/>
</svg>
