<svg width="19" height="20" viewBox="0 0 19 20" fill="none" xmlns="http://www.w3.org/2000/svg">
<path fill-rule="evenodd" clip-rule="evenodd" d="M13.4492 2.82674C13.5355 2.93028 13.608 3.11978 13.608 3.40304C13.608 3.77583 13.2307 4.18108 12.83 4.18108H10.6157C10.7473 3.9082 10.9363 3.64133 11.1758 3.40187C11.6729 2.90478 12.288 2.625 12.83 2.625C13.2395 2.625 13.3863 2.75127 13.4492 2.82674ZM9.52362 2.63771C9.6524 2.46956 9.79154 2.31123 9.93834 2.16443C10.681 1.42174 11.7189 0.875 12.83 0.875C13.6603 0.875 14.3399 1.16199 14.7936 1.70641C15.2239 2.22276 15.358 2.85978 15.358 3.40304C15.358 3.81554 15.2435 4.22466 15.0407 4.58977H17.6622H18.6622V5.58977V9.20698V10.207H17.6622H16.8537V18.25V19.25H15.8537H3.19348H2.19348V18.25V10.207H1.38477H0.384766V9.20698V5.58977V4.58977H1.38477H4.00657C3.8037 4.22466 3.68921 3.81554 3.68921 3.40304C3.68921 2.85978 3.82333 2.22276 4.25362 1.70641C4.7073 1.16199 5.38694 0.875 6.21725 0.875C7.32835 0.875 8.36621 1.42174 9.1089 2.16443C9.2557 2.31123 9.39484 2.46956 9.52362 2.63771ZM12.0823 10.207H14.8537V17.25H4.19348V10.207H6.96509V12.8242V13.9404L7.99851 13.5186L9.52369 12.8961L11.0489 13.5186L12.0823 13.9404V12.8242V10.207ZM12.0823 8.20698H16.6622V6.58977H12.0823V8.20698ZM10.5823 6.58977H8.46509V11.708L9.24027 11.3916L9.52369 11.2759L9.80712 11.3916L10.5823 11.708V6.58977ZM6.96509 6.58977H2.38477V8.20698H6.96509V6.58977ZM5.43921 3.40304C5.43921 3.11978 5.51172 2.93028 5.59801 2.82674C5.6609 2.75127 5.80778 2.625 6.21725 2.625C6.75919 2.625 7.37437 2.90478 7.87146 3.40187C8.11092 3.64133 8.29996 3.9082 8.43158 4.18108H6.21725C5.81655 4.18108 5.43921 3.77583 5.43921 3.40304Z" fill="#911EEB"/>
</svg>
