<svg width="44" height="30" viewBox="0 0 44 30" fill="none" xmlns="http://www.w3.org/2000/svg">
<path fill-rule="evenodd" clip-rule="evenodd" d="M11.3507 24.3396C10.4827 24.3396 9.89929 25.038 9.89929 26.0761C9.89929 27.1088 10.4827 27.8024 11.3507 27.8024C12.2057 27.8024 12.8024 27.0928 12.8024 26.0761C12.8024 25.0537 12.2057 24.3396 11.3507 24.3396ZM11.3507 28.7385C9.93031 28.7385 8.89973 27.6195 8.89973 26.0774C8.89973 24.5303 9.93031 23.4076 11.3507 23.4076C12.766 23.4076 13.7927 24.5303 13.7927 26.0774C13.7927 27.6195 12.766 28.7385 11.3507 28.7385Z" fill="white"/>
<path fill-rule="evenodd" clip-rule="evenodd" d="M17.0325 24.3403C16.1641 24.3403 15.5809 25.0387 15.5809 26.0768C15.5809 27.1099 16.1641 27.8035 17.0325 27.8035C17.8868 27.8035 18.4838 27.0935 18.4838 26.0768C18.4838 25.0544 17.8868 24.3403 17.0325 24.3403ZM17.0325 28.7386C15.5203 28.7386 14.5812 27.7189 14.5812 26.0781V21.6189H15.5822L15.5778 23.8573L15.7447 23.759C16.1325 23.5295 16.5778 23.4083 17.0325 23.4083C18.4471 23.4083 19.4748 24.531 19.4748 26.0781C19.4748 27.6195 18.4471 28.7386 17.0325 28.7386Z" fill="white"/>
<path fill-rule="evenodd" clip-rule="evenodd" d="M22.5416 24.3396C22.0949 24.3406 21.7125 24.54 21.4652 24.9007C21.3756 25.03 21.3002 25.196 21.2484 25.3804L21.2076 25.5247H23.884L23.8442 25.3807C23.6681 24.7467 23.175 24.3479 22.557 24.3403L22.5448 24.3396H22.5416ZM22.6926 28.7385C21.2403 28.7385 20.1861 27.6195 20.1861 26.0774C20.1861 24.5303 21.1784 23.4076 22.5448 23.4076C22.5859 23.4076 22.626 23.4086 22.6651 23.4105C23.9838 23.4756 24.9043 24.5723 24.9043 26.0774C24.9043 26.1594 24.8899 26.3374 24.8801 26.4517H21.1989L21.2312 26.5904C21.4076 27.3498 21.9851 27.8215 22.7392 27.8215C23.2716 27.8215 23.6866 27.5014 23.8774 27.3225L24.5186 27.9748C24.3154 28.1802 23.6741 28.7385 22.6926 28.7385Z" fill="white"/>
<path fill-rule="evenodd" clip-rule="evenodd" d="M3.51959 28.7426C1.5253 28.7426 0.132812 27.2794 0.132812 25.1838C0.132812 23.089 1.49562 21.626 3.4462 21.626C4.81053 21.626 5.66052 22.4314 5.894 22.6847L5.18379 23.3749C5.02271 23.2002 4.42091 22.6298 3.4462 22.6298C2.02753 22.6298 1.11811 23.6323 1.11811 25.1838C1.11811 26.7222 2.1211 27.7964 3.54752 27.7964C4.01372 27.7964 4.46496 27.7144 4.91586 27.5384L4.91522 25.8423H3.73892V24.9151H5.90151V28.1574C5.67059 28.2819 4.7329 28.7426 3.51959 28.7426Z" fill="white"/>
<path fill-rule="evenodd" clip-rule="evenodd" d="M7.05891 28.6496H8.05539V21.6292H7.05891V28.6496Z" fill="white"/>
<path fill-rule="evenodd" clip-rule="evenodd" d="M28.9377 28.7386C27.0123 28.7386 25.6152 27.2462 25.6152 25.1897C25.6152 23.1265 27.0123 21.6292 28.9377 21.6292C30.8563 21.6292 32.248 23.1265 32.248 25.1897C32.248 27.2462 30.8563 28.7386 28.9377 28.7386ZM26.6425 25.1888C26.6425 23.632 27.5651 22.5846 28.9379 22.5846C30.2899 22.5846 31.2336 23.6555 31.2336 25.1888C31.2336 26.7136 30.2899 27.7779 28.9379 27.7779C27.5651 27.7779 26.6425 26.7376 26.6425 25.1888Z" fill="white"/>
<path fill-rule="evenodd" clip-rule="evenodd" d="M38.4144 26.0774C38.4144 27.6195 39.4686 28.7385 40.9209 28.7385C41.9024 28.7385 42.5436 28.1802 42.7469 27.9748L42.1057 27.3225C41.9149 27.5014 41.4999 27.8215 40.9675 27.8215C40.2134 27.8215 39.6359 27.3498 39.4595 26.5904L39.4272 26.4517H43.1084C43.1181 26.3374 43.1326 26.1594 43.1326 26.0774C43.1326 24.5723 42.2121 23.4756 40.8934 23.4105C40.8542 23.4086 40.8142 23.4076 40.7731 23.4076C39.4067 23.4076 38.4144 24.5303 38.4144 26.0774ZM39.6935 24.9007C39.9408 24.54 40.3232 24.3406 40.7699 24.3396H40.7731L40.7853 24.3403C41.4033 24.3479 41.8963 24.7467 42.0724 25.3807L42.1123 25.5247H39.4359L39.4767 25.3804C39.5285 25.196 39.6039 25.03 39.6935 24.9007Z" fill="white"/>
<path d="M35.2309 24.2896C36.0816 24.2896 36.6762 25.0007 36.6762 26.0188V28.6667H37.663V26.0201C37.663 24.4795 36.6396 23.3614 35.2309 23.3614C33.8222 23.3614 32.7988 24.4795 32.7988 26.0201V28.6667H33.7857V26.0188C33.7857 25.0007 34.3802 24.2896 35.2309 24.2896Z" fill="white"/>
<g clip-path="url(#clip0_1733_330480)">
<path fill-rule="evenodd" clip-rule="evenodd" d="M21.5603 12.3425C23.0158 12.3425 24.1957 11.1294 24.1957 9.63312C24.1957 8.1368 23.0158 6.92379 21.5603 6.92379C20.1047 6.92379 18.9248 8.1368 18.9248 9.63312C18.9248 11.1294 20.1047 12.3425 21.5603 12.3425ZM21.5603 14.4497C24.1478 14.4497 26.2455 12.2933 26.2455 9.63312C26.2455 6.97299 24.1478 4.81653 21.5603 4.81653C18.9727 4.81653 16.875 6.97299 16.875 9.63312C16.875 12.2933 18.9727 14.4497 21.5603 14.4497Z" fill="white"/>
<path d="M22.7293 1.20409C22.7293 1.86912 22.2049 2.40824 21.558 2.40824C20.9111 2.40824 20.3867 1.86912 20.3867 1.20409C20.3867 0.539055 20.9111 -6.10352e-05 21.558 -6.10352e-05C22.2049 -6.10352e-05 22.7293 0.539055 22.7293 1.20409Z" fill="white"/>
<path d="M30.9313 9.63845C30.9313 10.3035 30.4069 10.8426 29.76 10.8426C29.1131 10.8426 28.5887 10.3035 28.5887 9.63845C28.5887 8.97342 29.1131 8.4343 29.76 8.4343C30.4069 8.4343 30.9313 8.97342 30.9313 9.63845Z" fill="white"/>
<path fill-rule="evenodd" clip-rule="evenodd" d="M24.2207 2.78179C26.0461 3.53185 27.5018 5.0306 28.2284 6.90879L30.1331 6.1286C29.1985 3.71413 27.3267 1.78759 24.9796 0.823669L24.2207 2.78179Z" fill="white"/>
<path fill-rule="evenodd" clip-rule="evenodd" d="M12.3359 9.63318C12.3359 5.64025 14.7365 2.22373 18.135 0.825745L18.8939 2.78386C16.2518 3.87175 14.3857 6.52843 14.3857 9.63318C14.3857 13.7065 17.5978 17.0086 21.56 17.0086C24.5816 17.0086 27.1668 15.0883 28.2241 12.3702L30.1288 13.1504C28.7699 16.6461 25.4455 19.1158 21.56 19.1158C16.4657 19.1158 12.3359 14.8703 12.3359 9.63318Z" fill="white"/>
</g>
<defs>
<clipPath id="clip0_1733_330480">
<rect width="18.5946" height="19.1159" fill="white" transform="translate(12.3359 -6.10352e-05)"/>
</clipPath>
</defs>
</svg>
