<svg width="126" height="38" viewBox="0 0 126 38" fill="none" xmlns="http://www.w3.org/2000/svg">
<g clip-path="url(#clip0_1733_330525)">
<path fill-rule="evenodd" clip-rule="evenodd" d="M120.765 37.7802H5.02782C2.4753 37.7802 0.396484 35.6983 0.396484 33.1626V5.45691C0.396484 2.91204 2.4753 0.839294 5.02782 0.839294H120.765C123.315 0.839294 125.396 2.91204 125.396 5.45691V33.1626C125.396 35.6983 123.315 37.7802 120.765 37.7802Z" fill="black"/>
<path fill-rule="evenodd" clip-rule="evenodd" d="M120.765 1.57857C122.906 1.57857 124.658 3.32198 124.658 5.45691V33.1626C124.658 35.2975 122.918 37.041 120.765 37.041H5.02782C2.88692 37.041 1.13465 35.2975 1.13465 33.1626V5.45691C1.13465 3.32198 2.87542 1.57857 5.02782 1.57857H120.765ZM120.765 0.839294H5.02782C2.4753 0.839294 0.396484 2.92125 0.396484 5.45691V33.1626C0.396484 35.7075 2.4753 37.7802 5.02782 37.7802H120.765C123.315 37.7802 125.396 35.7075 125.396 33.1626V5.45691C125.396 2.92125 123.315 0.839294 120.765 0.839294Z" fill="#A6A6A6"/>
<path d="M66.246 13.0592C65.4113 13.0592 64.7076 12.7667 64.1511 12.191C63.5992 11.6313 63.2911 10.8598 63.3049 10.0722C63.3049 9.23154 63.59 8.5199 64.1511 7.95565C64.7053 7.37989 65.409 7.0874 66.2437 7.0874C67.0692 7.0874 67.7729 7.37989 68.3386 7.95565C68.8997 8.53832 69.1848 9.24997 69.1848 10.0722C69.1756 10.9151 68.8905 11.6267 68.3386 12.1887C67.7844 12.769 67.0807 13.0592 66.246 13.0592ZM41.4085 13.0592C40.5922 13.0592 39.8839 12.7713 39.3044 12.2025C38.7295 11.6359 38.4375 10.9197 38.4375 10.0745C38.4375 9.22924 38.7295 8.51299 39.3044 7.94644C39.8724 7.37759 40.5807 7.08971 41.4085 7.08971C41.8132 7.08971 42.2065 7.17031 42.5836 7.33383C42.9538 7.49274 43.2551 7.70923 43.4781 7.97408L43.5333 8.04087L42.9101 8.65348L42.8457 8.57748C42.4939 8.15832 42.0225 7.95335 41.3993 7.95335C40.8428 7.95335 40.3576 8.15141 39.9575 8.54293C39.5551 8.93675 39.3504 9.45264 39.3504 10.0768C39.3504 10.7009 39.5551 11.2168 39.9575 11.6106C40.3576 12.0021 40.8428 12.2002 41.3993 12.2002C41.9926 12.2002 42.4916 12.0021 42.8802 11.6106C43.1102 11.3803 43.2528 11.0579 43.3034 10.6502H41.305V9.78888H44.1611L44.1726 9.86718C44.1933 10.0123 44.214 10.162 44.214 10.3002C44.214 11.0947 43.9748 11.7373 43.5011 12.2117C42.963 12.7736 42.2594 13.0592 41.4085 13.0592ZM74.4324 12.9372H73.5517L70.8543 8.61433L70.8773 9.39276V12.9348H69.9966V7.21177H71.0015L71.0291 7.25553L73.5655 11.3273L73.5425 10.5512V7.21177H74.4324V12.9372ZM59.6279 12.9372H58.7357V8.07311H57.1881V7.21177H61.1732V8.07311H59.6256V12.9372H59.6279ZM56.4614 12.9372H55.5715V7.21177H56.4614V12.9372ZM51.4599 12.9372H50.5699V8.07311H49.0223V7.21177H53.0075V8.07311H51.4599V12.9372ZM48.459 12.9279H45.0464V7.21177H48.459V8.07311H45.9386V9.64379H48.2129V10.4959H45.9386V12.0666H48.459V12.9279ZM64.8042 11.5991C65.202 11.9975 65.6849 12.1979 66.246 12.1979C66.8232 12.1979 67.2946 12.0021 67.6878 11.5991C68.0787 11.2076 68.2765 10.694 68.2765 10.0745C68.2765 9.45494 68.0787 8.93906 67.6901 8.54984C67.2923 8.15141 66.8071 7.95105 66.2483 7.95105C65.6711 7.95105 65.1997 8.14681 64.8088 8.54984C64.4179 8.94136 64.2201 9.45494 64.2201 10.0745C64.2201 10.694 64.4155 11.2099 64.8042 11.5991Z" fill="white"/>
<path fill-rule="evenodd" clip-rule="evenodd" d="M63.2232 20.933C61.0501 20.933 59.2887 22.5843 59.2887 24.862C59.2887 27.119 61.0616 28.791 63.2232 28.791C65.3963 28.791 67.1578 27.1282 67.1578 24.862C67.1578 22.5843 65.3963 20.933 63.2232 20.933ZM63.2232 27.2341C62.0344 27.2341 61.0111 26.2484 61.0111 24.8528C61.0111 23.4364 62.0367 22.4714 63.2232 22.4714C64.4121 22.4714 65.4354 23.4364 65.4354 24.8528C65.4377 26.2576 64.4121 27.2341 63.2232 27.2341ZM54.6389 20.933C52.4658 20.933 50.7044 22.5843 50.7044 24.862C50.7044 27.119 52.4773 28.791 54.6389 28.791C56.812 28.791 58.5735 27.1282 58.5735 24.862C58.5735 22.5843 56.8097 20.933 54.6389 20.933ZM54.6389 27.2341C53.4501 27.2341 52.4267 26.2484 52.4267 24.8528C52.4267 23.4364 53.4524 22.4714 54.6389 22.4714C55.8278 22.4714 56.8511 23.4364 56.8511 24.8528C56.8511 26.2576 55.8278 27.2341 54.6389 27.2341ZM44.4242 22.1329V23.7957H48.4094C48.2875 24.7284 47.9794 25.417 47.508 25.8891C46.9239 26.4741 46.0224 27.1097 44.4334 27.1097C41.9844 27.1097 40.0688 25.1291 40.0688 22.6764C40.0688 20.2236 41.9844 18.243 44.4334 18.243C45.7557 18.243 46.7192 18.7658 47.4344 19.4337L48.6118 18.2545C47.6183 17.3011 46.2961 16.571 44.4426 16.571C41.083 16.571 38.2637 19.3116 38.2637 22.6672C38.2637 26.0319 41.0807 28.7633 44.4426 28.7633C46.257 28.7633 47.6183 28.1692 48.6945 27.0499C49.7914 25.9513 50.1387 24.4014 50.1387 23.1508C50.1387 22.7616 50.1088 22.4115 50.0467 22.1144H44.4219C44.4242 22.1121 44.4242 22.1329 44.4242 22.1329ZM86.2052 23.4272C85.8763 22.5451 84.8829 20.9238 82.8455 20.9238C80.8265 20.9238 79.1478 22.5152 79.1478 24.8528C79.1478 27.0591 80.8081 28.7818 83.041 28.7818C84.8346 28.7818 85.8786 27.6832 86.3087 27.0384L84.9772 26.1448C84.5357 26.8011 83.9217 27.2318 83.0502 27.2318C82.1694 27.2318 81.5531 26.8311 81.1438 26.0411L86.3891 23.8647C86.3891 23.8671 86.2052 23.4272 86.2052 23.4272ZM80.8564 24.7399C80.815 23.2222 82.0338 22.4507 82.9053 22.4507C83.5929 22.4507 84.1655 22.7892 84.3609 23.2821L80.8564 24.7399ZM76.5953 28.5469H78.3176V17.004H76.5953V28.5469ZM73.7668 21.8058H73.7047C73.3161 21.3429 72.5779 20.9238 71.6351 20.9238C69.6781 20.9238 67.8753 22.6487 67.8753 24.8643C67.8753 27.0706 69.6689 28.7749 71.6351 28.7749C72.5664 28.7749 73.3161 28.3534 73.7047 27.8813H73.7668V28.4455C73.7668 29.9448 72.9665 30.7532 71.6765 30.7532C70.621 30.7532 69.9656 29.9932 69.6988 29.3575L68.2018 29.984C68.6318 31.0203 69.7793 32.3031 71.6742 32.3031C73.6932 32.3031 75.4041 31.1125 75.4041 28.2083V21.1587H73.776V21.8058C73.7783 21.8058 73.7668 21.8058 73.7668 21.8058ZM71.7892 27.2341C70.6003 27.2341 69.6069 26.2392 69.6069 24.8643C69.6069 23.4778 70.6003 22.4737 71.7892 22.4737C72.9665 22.4737 73.8795 23.4893 73.8795 24.8643C73.891 26.2392 72.9688 27.2341 71.7892 27.2341ZM94.2698 17.004H90.1512V28.5469H91.8736V24.1757H94.2721C96.1784 24.1757 98.0526 22.7915 98.0526 20.5944C98.0526 18.3973 96.1853 17.004 94.2698 17.004ZM94.3204 22.5635H91.8713V18.6023H94.3204C95.6104 18.6023 96.3394 19.6686 96.3394 20.5829C96.3394 21.488 95.6012 22.5635 94.3204 22.5635ZM104.956 20.9122C103.705 20.9122 102.415 21.4673 101.881 22.6764L103.408 23.312C103.737 22.6764 104.34 22.4599 104.977 22.4599C105.869 22.4599 106.77 22.9942 106.791 23.9477V24.0697C106.483 23.8947 105.807 23.6275 104.997 23.6275C103.349 23.6275 101.677 24.5303 101.677 26.2231C101.677 27.773 103.029 28.7679 104.535 28.7679C105.692 28.7679 106.329 28.2452 106.727 27.6394H106.789V28.533H108.449V24.1112C108.449 22.0522 106.922 20.9122 104.956 20.9122ZM104.74 27.2341C104.176 27.2341 103.388 26.9577 103.388 26.2484C103.388 25.3548 104.372 25.0163 105.211 25.0163C105.97 25.0163 106.329 25.1798 106.779 25.4055C106.655 26.4419 105.781 27.2249 104.74 27.2341ZM114.506 21.1587L112.528 26.1655H112.466L110.417 21.1587H108.564L111.638 28.1576L109.886 32.0475H111.68L116.41 21.1587H114.506ZM99.0023 28.5469H100.725V17.004H99.0023V28.5469Z" fill="white"/>
<path fill-rule="evenodd" clip-rule="evenodd" d="M10.0185 7.79668C9.75173 8.08456 9.59766 8.52444 9.59766 9.10021V29.5214C9.59766 30.0971 9.75173 30.537 10.0277 30.8134L10.099 30.8756L21.5232 19.434V19.1784L10.0898 7.7345L10.0185 7.79668Z" fill="url(#paint0_linear_1733_330525)"/>
<path fill-rule="evenodd" clip-rule="evenodd" d="M25.3241 23.2592L21.5137 19.4431V19.1759L25.3241 15.3597L25.4069 15.4104L29.9141 17.976C31.2041 18.7038 31.2041 19.906 29.9141 20.6429L25.4069 23.2085L25.3241 23.2592Z" fill="url(#paint1_linear_1733_330525)"/>
<path fill-rule="evenodd" clip-rule="evenodd" d="M25.4063 23.2101L21.5131 19.311L10.0176 30.824C10.4384 31.2754 11.1444 31.3261 11.9331 30.8862L25.4063 23.2101Z" fill="url(#paint2_linear_1733_330525)"/>
<path fill-rule="evenodd" clip-rule="evenodd" d="M25.4063 15.4118L11.9331 7.74729C11.1444 7.29589 10.4361 7.35808 10.0176 7.80947L21.5131 19.3109L25.4063 15.4118Z" fill="url(#paint3_linear_1733_330525)"/>
<path opacity="0.2" fill-rule="evenodd" clip-rule="evenodd" d="M25.3242 23.1272L11.9429 30.7411C11.1955 31.1717 10.5287 31.1418 10.0986 30.7503L10.0273 30.8217L10.0986 30.8838C10.5287 31.2731 11.1955 31.3053 11.9429 30.8746L25.4162 23.2101L25.3242 23.1272Z" fill="black"/>
<path opacity="0.12" fill-rule="evenodd" clip-rule="evenodd" d="M29.9139 20.5109L25.3125 23.1272L25.3953 23.2101L29.9024 20.6445C30.5486 20.276 30.866 19.7924 30.866 19.311C30.8269 19.7532 30.498 20.1724 29.9139 20.5109Z" fill="black"/>
<path opacity="0.25" fill-rule="evenodd" clip-rule="evenodd" d="M11.934 7.88013L29.9144 18.1103C30.4984 18.4396 30.8273 18.8703 30.8779 19.3102C30.8779 18.8288 30.5605 18.3452 29.9144 17.9767L11.934 7.74655C10.644 7.00727 9.59766 7.62449 9.59766 9.10075V9.23432C9.59766 7.75577 10.644 7.15006 11.934 7.88013Z" fill="white"/>
</g>
<defs>
<linearGradient id="paint0_linear_1733_330525" x1="20.4985" y1="8.87988" x2="2.19512" y2="13.7495" gradientUnits="userSpaceOnUse">
<stop stop-color="#00A0FF"/>
<stop offset="0.00657" stop-color="#00A1FF"/>
<stop offset="0.2601" stop-color="#00BEFF"/>
<stop offset="0.5122" stop-color="#00D2FF"/>
<stop offset="0.7604" stop-color="#00DFFF"/>
<stop offset="1" stop-color="#00E3FF"/>
</linearGradient>
<linearGradient id="paint1_linear_1733_330525" x1="31.5964" y1="19.3095" x2="9.28367" y2="19.3095" gradientUnits="userSpaceOnUse">
<stop stop-color="#FFE000"/>
<stop offset="0.4087" stop-color="#FFBD00"/>
<stop offset="0.7754" stop-color="#FFA500"/>
<stop offset="1" stop-color="#FF9C00"/>
</linearGradient>
<linearGradient id="paint2_linear_1733_330525" x1="23.2893" y1="21.4327" x2="8.56557" y2="46.1766" gradientUnits="userSpaceOnUse">
<stop stop-color="#FF3A44"/>
<stop offset="1" stop-color="#C31162"/>
</linearGradient>
<linearGradient id="paint3_linear_1733_330525" x1="7.12287" y1="1.00556" x2="13.6918" y2="12.0566" gradientUnits="userSpaceOnUse">
<stop stop-color="#32A071"/>
<stop offset="0.0685" stop-color="#2DA771"/>
<stop offset="0.4762" stop-color="#15CF74"/>
<stop offset="0.8009" stop-color="#06E775"/>
<stop offset="1" stop-color="#00F076"/>
</linearGradient>
<clipPath id="clip0_1733_330525">
<rect width="125" height="36.9409" fill="white" transform="translate(0.396484 0.838562)"/>
</clipPath>
</defs>
</svg>
