<svg width="21" height="20" viewBox="0 0 21 20" fill="none" xmlns="http://www.w3.org/2000/svg">
<path fill-rule="evenodd" clip-rule="evenodd" d="M11.1348 13.6223C13.238 13.2923 15.0014 11.938 15.8983 10.0858C18.2689 9.90054 20.1348 7.91817 20.1348 5.5V3.7V2.7H19.1348H16.5348V1V1.13249e-06L15.5348 1.07288e-06L4.73478 1.19209e-07L3.73478 0L3.73478 1L3.73478 2.7H1.13477H0.134766V3.7V5.5C0.134766 7.91818 2.00069 9.90054 4.37129 10.0858C5.26818 11.938 7.03154 13.2923 9.13478 13.6223V14.4001H5.63477H4.63477V15.4001V19.0001V20.0001H5.63477H14.6348H15.6348V19.0001V15.4001V14.4001H14.6348H11.1348V13.6223ZM3.73478 7.3C3.73478 7.50663 3.74457 7.71098 3.76372 7.9126C2.80878 7.52789 2.13477 6.59266 2.13477 5.5V4.7H3.73478L3.73478 7.3ZM16.5058 7.91259C17.4608 7.52787 18.1348 6.59265 18.1348 5.5V4.7H16.5348V7.3C16.5348 7.50663 16.525 7.71098 16.5058 7.91259ZM10.1348 11.7C12.5648 11.7 14.5348 9.73006 14.5348 7.3L14.5348 2L5.73478 2L5.73478 7.3C5.73478 9.73005 7.70473 11.7 10.1348 11.7ZM10.9812 5.23505L10.1348 2.80004L9.28837 5.23505L6.71098 5.28757L8.76526 6.84502L8.01876 9.3125L10.1348 7.84004L12.2508 9.3125L11.5043 6.84502L13.5586 5.28757L10.9812 5.23505ZM6.63477 18.0001V16.4001H13.6348V18.0001H6.63477Z" fill="#FFC42C"/>
</svg>
