<svg width="64" height="64" viewBox="0 0 64 64" fill="none" xmlns="http://www.w3.org/2000/svg">
<rect width="64" height="64" rx="16" fill="black"/>
<path fill-rule="evenodd" clip-rule="evenodd" d="M32 10C19.85 10 10 19.8497 10 31.9997C10 44.1511 19.85 54 32 54C44.1505 54 54 44.1511 54 31.9997C54 19.8497 44.1505 10 32 10V10Z" fill="#1ED760"/>
<path fill-rule="evenodd" clip-rule="evenodd" d="M45.0149 29.5032C37.9233 25.2917 26.2259 24.9045 19.4562 26.9591C18.3689 27.2891 17.2192 26.6754 16.8898 25.5883C16.5604 24.5004 17.1735 23.3516 18.2614 23.0211C26.0326 20.6623 38.9513 21.1178 47.1152 25.964C48.093 26.5446 48.4138 27.8074 47.8342 28.7836C47.2542 29.7614 45.9903 30.0838 45.0149 29.5032Z" fill="black"/>
<path fill-rule="evenodd" clip-rule="evenodd" d="M44.7809 35.7408C44.2833 36.5481 43.2278 36.8014 42.4215 36.3057C36.5092 32.6716 27.4939 31.6187 20.4993 33.7419C19.5921 34.0159 18.6343 33.5047 18.3587 32.5991C18.0855 31.6922 18.597 30.736 19.5025 30.4601C27.4928 28.0353 37.4261 29.2096 44.2166 33.3828C45.0228 33.8793 45.2766 34.9354 44.7809 35.7408Z" fill="black"/>
<path fill-rule="evenodd" clip-rule="evenodd" d="M42.0901 41.7319C41.6947 42.3803 40.8507 42.5833 40.2047 42.1882C35.0385 39.0307 28.5359 38.3177 20.878 40.0669C20.14 40.236 19.4045 39.7737 19.2361 39.0357C19.0671 38.298 19.5279 37.5625 20.2674 37.3941C28.6479 35.4784 35.8363 36.3028 41.6351 39.8462C42.2816 40.241 42.4852 41.0856 42.0901 41.7319Z" fill="black"/>
</svg>
