<svg width="40" height="38" viewBox="0 0 40 38" fill="none" xmlns="http://www.w3.org/2000/svg">
<path d="M19.5245 0.463523C19.6741 0.00286806 20.3259 0.00287008 20.4755 0.463525L24.8271 13.8561C24.894 14.0621 25.086 14.2016 25.3026 14.2016H39.3844C39.8688 14.2016 40.0701 14.8214 39.6783 15.1061L28.2859 23.3832C28.1106 23.5105 28.0373 23.7362 28.1042 23.9422L32.4557 37.3349C32.6054 37.7955 32.0782 38.1786 31.6863 37.8939L20.2939 29.6168C20.1186 29.4895 19.8814 29.4895 19.7061 29.6168L8.31367 37.8939C7.92182 38.1786 7.39458 37.7955 7.54425 37.3349L11.8958 23.9422C11.9627 23.7362 11.8894 23.5105 11.7141 23.3832L0.321705 15.1061C-0.070152 14.8214 0.131237 14.2016 0.615599 14.2016H14.6974C14.914 14.2016 15.106 14.0621 15.1729 13.8561L19.5245 0.463523Z" fill="#F8B917"/>
</svg>
