<svg width="13" height="8" viewBox="0 0 13 8" fill="none" xmlns="http://www.w3.org/2000/svg">
<path d="M6.68359 0.791993C6.85677 0.791993 7.01172 0.858074 7.14844 0.990235L12.4395 6.4043C12.4987 6.46354 12.5443 6.52962 12.5762 6.60254C12.6081 6.68001 12.624 6.76204 12.624 6.84863C12.624 6.96712 12.5967 7.07422 12.542 7.16992C12.4873 7.26563 12.4144 7.34082 12.3232 7.39551C12.2275 7.4502 12.1204 7.47754 12.002 7.47754C11.8288 7.47754 11.6807 7.41829 11.5576 7.2998L6.32129 1.94727L7.05273 1.94727L1.81641 7.29981C1.6888 7.4183 1.54069 7.47754 1.37207 7.47754C1.25358 7.47754 1.14876 7.4502 1.05762 7.39551C0.961914 7.34082 0.886718 7.26563 0.832031 7.16992C0.777343 7.07422 0.749999 6.96712 0.749999 6.84863C0.749999 6.68001 0.811523 6.53418 0.93457 6.41113L6.22558 0.990235C6.28483 0.926433 6.35547 0.876303 6.4375 0.839844C6.51497 0.807943 6.597 0.791993 6.68359 0.791993Z" fill="#1A458B"/>
</svg>
