<svg width="16" height="12" viewBox="0 0 16 12" fill="none" xmlns="http://www.w3.org/2000/svg">
<path d="M14.8645 4.8496L16 3.71408C11.6026 -0.68334 4.45935 -0.68334 0.0619246 3.71408L0 3.77601L1.13552 4.91153C1.15611 4.89093 1.17685 4.8702 1.19745 4.8496C4.99616 1.07154 11.1071 1.07154 14.8646 4.8496H14.8645Z" fill="#2274E5"/>
<path d="M12.594 7.12045L13.7295 5.98493C10.5914 2.84682 5.49212 2.84682 2.33341 5.98493C2.31282 6.00552 2.29208 6.02626 2.27148 6.04685L3.40701 7.18237L3.46893 7.12045C6.0084 4.60174 10.0754 4.60174 12.5941 7.12045H12.594Z" fill="#2274E5"/>
<path d="M10.3225 9.39158L11.458 8.25606C9.55862 6.3567 6.50314 6.3567 4.62442 8.25606C4.60383 8.27665 4.58309 8.29739 4.5625 8.31798L5.69802 9.4535L5.75995 9.39158C7.01915 8.13223 9.0631 8.13223 10.3225 9.39158H10.3225Z" fill="#2274E5"/>
<path d="M9.18648 10.5476C8.56709 9.92816 7.53483 9.92816 6.91544 10.5476L6.85352 10.6095L7.98904 11.745L9.18648 10.5476Z" fill="#2274E5"/>
</svg>
