<svg width="19" height="18" viewBox="0 0 19 18" fill="none" xmlns="http://www.w3.org/2000/svg">
<rect x="0.5" width="18" height="18" rx="9" fill="#F0F5FE"/>
<path d="M9.13926 3.95496L9.13926 3.95495C9.20933 3.93121 9.26319 3.91514 9.31573 3.90686C9.36983 3.89834 9.41833 3.89871 9.47726 3.9028L9.13926 3.95496ZM9.13926 3.95496C8.9566 4.01685 8.10076 4.32774 7.28376 4.62687C6.87481 4.7766 6.47493 4.92363 6.17283 5.03547C6.0218 5.09139 5.89509 5.13855 5.80387 5.17288C5.75828 5.19004 5.72135 5.20406 5.6946 5.21441C5.67122 5.22345 5.6488 5.23222 5.63869 5.23734L5.63869 5.23734M9.13926 3.95496L5.63869 5.23734M5.63869 5.23734C5.3578 5.37962 5.18351 5.73262 5.24014 6.04294L5.24014 6.04295M5.63869 5.23734L5.24014 6.04295M5.24014 6.04295C5.25262 6.11128 5.29468 6.24911 5.33301 6.35194L5.33301 6.35196M5.24014 6.04295L5.33301 6.35196M5.33301 6.35196C5.34638 6.38781 5.35883 6.42204 5.36925 6.45144C5.36197 6.45297 5.35438 6.45449 5.34655 6.45597L5.34655 6.45597M5.33301 6.35196L5.34655 6.45597M5.34655 6.45597C5.05885 6.51021 4.7484 6.72136 4.58842 6.97044L5.34655 6.45597ZM4.46523 7.21721L4.46523 7.21721C4.49515 7.14043 4.54935 7.03124 4.5884 6.97047L4.46523 7.21721ZM4.46523 7.21721L4.41439 7.3477L4.4076 7.36512M4.46523 7.21721L4.4076 7.36512M4.4076 7.36512L4.40756 7.38381M4.4076 7.36512L4.40756 7.38381M4.40756 7.38381L4.40228 10.206M4.40756 7.38381L4.40228 10.206M13.8701 13.4965L13.8701 13.4965C13.7125 13.7749 13.4041 13.9996 13.0891 14.0662C13.0744 14.0693 13.0536 14.0709 13.0355 14.072C13.0145 14.0734 12.9873 14.0746 12.9547 14.0757C12.8892 14.0781 12.7996 14.0802 12.6896 14.0822C12.4696 14.0862 12.1662 14.0895 11.8075 14.0921C11.0901 14.0974 10.1502 14.1 9.21046 14.1C8.27071 14.1 7.33085 14.0974 6.61338 14.0921C6.25469 14.0895 5.95133 14.0862 5.73127 14.0822C5.62131 14.0802 5.53171 14.0781 5.46626 14.0757C5.4336 14.0746 5.40638 14.0734 5.38539 14.072C5.36729 14.0709 5.34654 14.0693 5.33187 14.0662C5.11262 14.0198 4.91996 13.9153 4.75853 13.7557L13.8701 13.4965ZM13.8701 13.4965C13.9378 13.3768 13.9781 13.2811 13.9994 13.1161C14.0197 12.9589 14.0231 12.7362 14.0231 12.3627V11.7847C14.0406 11.7807 14.0576 11.7754 14.0734 11.7697C14.1074 11.7575 14.1433 11.7407 14.1783 11.7215C14.2477 11.6835 14.3212 11.6319 14.376 11.5772C14.4335 11.5197 14.5045 11.4196 14.5383 11.3474L14.5905 11.2361L14.6 11.216M13.8701 13.4965L14.6 11.216M14.6 11.216V11.1937M14.6 11.216V11.1937M14.6 11.1937V10.2461V9.2986V9.2763M14.6 11.1937V9.2763M14.6 9.2763L14.5905 9.25611M14.6 9.2763L14.5905 9.25611M14.5905 9.25611L14.5397 9.14776L14.4544 9.1878M14.5905 9.25611L14.4544 9.1878M14.4544 9.1878L14.5397 9.14775C14.4376 8.93047 14.268 8.78088 14.0436 8.71475L14.0318 8.71128L14.0225 8.08371C14.0174 7.73861 14.0146 7.559 14.0067 7.45026C14.0027 7.39474 13.9971 7.35394 13.9881 7.31684C13.9792 7.27992 13.9675 7.24956 13.9552 7.21759C13.8002 6.81485 13.4562 6.52231 13.046 6.45202L12.9881 6.44211L12.9831 6.08403L12.977 5.64281L12.9766 5.62024M14.4544 9.1878L12.9766 5.62024M12.9766 5.62024L12.9666 5.59998M12.9766 5.62024L12.9666 5.59998M12.9666 5.59998L12.9024 5.46966C12.9024 5.46966 12.9024 5.46966 12.9024 5.46965C12.8214 5.30536 12.6912 5.17612 12.5248 5.09351L12.4803 5.18307L12.5248 5.0935L12.4326 5.04771L12.412 5.0375M12.9666 5.59998L12.412 5.0375M12.412 5.0375L12.389 5.03728L11.3531 5.02751L10.3866 5.0184M12.412 5.0375L10.3866 5.0184M10.3866 5.0184L10.2807 4.72677C10.2807 4.72677 10.2807 4.72677 10.2807 4.72677C10.2043 4.5164 10.1576 4.39188 10.1153 4.30766C10.0695 4.21632 10.0274 4.16957 9.96621 4.11292C9.83193 3.9887 9.66121 3.91555 9.47727 3.9028L10.3866 5.0184ZM13.2375 8.67912L13.2326 8.12103L13.227 7.48979L13.1863 7.42073C13.1379 7.33845 13.0651 7.27663 12.9835 7.24532C12.9805 7.24505 12.9765 7.24473 12.9713 7.24439C12.9557 7.24335 12.9331 7.24229 12.9034 7.24124C12.8443 7.23915 12.7601 7.23719 12.654 7.23537C12.4421 7.23174 12.1449 7.22871 11.7906 7.22628C11.0821 7.22143 10.1463 7.219 9.21046 7.219C8.27457 7.219 7.3388 7.22143 6.63029 7.22628C6.27598 7.22871 5.97878 7.23174 5.76688 7.23537C5.66086 7.23719 5.57667 7.23915 5.51753 7.24124C5.48786 7.24229 5.46524 7.24335 5.44961 7.24439C5.44442 7.24473 5.44041 7.24505 5.43743 7.24532C5.35583 7.27663 5.28301 7.33845 5.23459 7.42073L5.19415 7.48947L5.18904 10.2258C5.1887 10.4092 5.18835 10.581 5.18802 10.7418C5.18558 11.9329 5.18437 12.5247 5.19755 12.8327C5.20518 13.0109 5.21748 13.0793 5.22996 13.1115C5.23619 13.1276 5.23844 13.1297 5.25308 13.1434C5.26097 13.1508 5.27248 13.1616 5.29018 13.1798L13.2375 8.67912ZM13.2375 8.67912L12.657 8.68467L11.9765 8.69118L11.96 8.69134L11.9444 8.69677L11.788 8.75146L11.821 8.84586L11.788 8.75146C11.2624 8.93521 10.8872 9.32745 10.7441 9.84845L10.7441 9.84846C10.7188 9.94068 10.7067 10.088 10.7049 10.2261C10.7031 10.3639 10.7114 10.5107 10.7347 10.6016L13.2375 8.67912ZM12.518 10.3833L12.6011 10.43C12.5672 10.4903 12.512 10.541 12.4554 10.5764C12.3996 10.6113 12.3297 10.6392 12.261 10.6392C12.2323 10.6392 12.1995 10.6308 12.1752 10.6233L12.518 10.3833ZM12.518 10.3833L12.6011 10.43C12.7913 10.0918 12.4226 9.72922 12.0842 9.89586C11.7965 10.0375 11.8041 10.4517 12.0903 10.5901L12.518 10.3833ZM4.40228 10.206C4.3997 11.5869 4.39858 12.2942 4.40289 12.6748M4.40228 10.206L4.40289 12.6748M4.40289 12.6748C4.40718 13.0537 4.41664 13.1183 4.43901 13.2067L4.40289 12.6748ZM9.53446 4.97338L9.555 5.0308L9.20436 5.11802C9.04155 5.2047 8.92761 5.32506 8.84881 5.49294L8.84881 5.49296C8.8211 5.552 8.80344 5.59362 8.79445 5.67992C8.78646 5.75666 8.7846 5.87436 8.7816 6.08829L8.77678 6.43415L7.50299 6.43405L6.20041 6.43394L6.11199 6.19321C6.0615 6.05573 6.03646 5.98405 6.02606 5.94238C6.03864 5.93656 6.05456 5.92953 6.07425 5.92115C6.13806 5.89402 6.23543 5.85535 6.37294 5.80271C6.64764 5.69755 7.07839 5.53821 7.71189 5.30685C8.18443 5.13428 8.61724 4.97718 8.93389 4.8631C9.09224 4.80605 9.22141 4.7598 9.31192 4.72777C9.35722 4.71174 9.39259 4.69936 9.41702 4.69099L9.42388 4.68868C9.42778 4.69632 9.43259 4.70648 9.43845 4.71991C9.45968 4.76851 9.48923 4.84695 9.53446 4.97338ZM5.43092 7.24607C5.43088 7.24606 5.43136 7.24597 5.43247 7.24583L5.43092 7.24607ZM11.8919 10.9268L11.8919 10.9268C11.7129 10.8361 11.5455 10.6154 11.5008 10.4051C11.4322 10.0822 11.5787 9.74736 11.8654 9.57559C11.9136 9.54674 11.9453 9.52908 11.9814 9.51588C12.0168 9.50289 12.0608 9.49275 12.1319 9.48545C12.2783 9.47043 12.5191 9.46898 12.9979 9.46827C13.3789 9.4677 13.5937 9.46831 13.7168 9.47236C13.7617 9.47383 13.7921 9.47571 13.8126 9.47779C13.8146 9.49703 13.8165 9.52502 13.8179 9.56583C13.8222 9.68198 13.8231 9.88398 13.8231 10.2411C13.8231 10.6064 13.8223 10.8082 13.8179 10.9228C13.8162 10.968 13.814 10.9965 13.8117 11.0148C13.7961 11.0167 13.772 11.0186 13.7345 11.0201C13.621 11.0247 13.4123 11.0253 13.0149 11.0253C12.5559 11.0253 12.3215 11.024 12.1754 11.0104C12.1041 11.0037 12.0575 10.9943 12.0184 10.9819C11.9787 10.9694 11.943 10.9527 11.8919 10.9268ZM13.8432 9.48253C13.8432 9.48254 13.8429 9.48247 13.8425 9.4823L13.8432 9.48253ZM12.016 5.81869C12.1057 5.82067 12.1599 5.82336 12.1928 5.82663C12.1935 5.83227 12.1941 5.83899 12.1947 5.84695C12.1988 5.90195 12.2001 5.99406 12.2001 6.15457V6.43415H10.8824H9.56467V6.15457C9.56467 5.99406 9.56595 5.90195 9.57007 5.84695C9.57067 5.83899 9.57132 5.83227 9.57196 5.82663C9.60491 5.82336 9.6591 5.82067 9.74877 5.81869C9.93986 5.81446 10.2784 5.81361 10.8824 5.81361C11.4863 5.81361 11.8249 5.81446 12.016 5.81869Z" fill="#2274E5" stroke="#2274E5" stroke-width="0.2"/>
</svg>
