<svg width="110" height="65" viewBox="0 0 110 65" fill="none" xmlns="http://www.w3.org/2000/svg">
    <path
        d="M107.495 0.5H31.2286C14.3946 0.5 0.74635 14.1472 0.74635 30.9823C-0.665685 48.8162 13.1413 64.5936 31.2286 64.5H90.4237C100.525 64.5 108.713 56.3117 108.713 46.2108V1.71963C108.713 1.04673 108.167 0.5 107.493 0.5H107.495Z"
        fill="#1F2E8D" />
    <path
        d="M51.8037 12.8682L57.3604 12.8419C60.1109 12.8282 62.0654 14.6093 62.078 17.1453C62.0896 19.6813 60.1529 21.4991 57.4024 21.5128L55.1388 21.5233L55.1577 25.383L51.8647 25.3988L51.8048 12.8682H51.8037ZM55.1251 18.9127L56.8462 18.9043C57.9681 18.899 58.7325 18.1862 58.7272 17.161C58.722 16.1727 57.9513 15.4494 56.8294 15.4546L55.1083 15.463L55.1251 18.9127Z"
        fill="white" />
    <path
        d="M64.1484 12.8088L67.5729 12.792L67.6202 22.712L72.7279 22.6878L72.7405 25.2984L64.2094 25.3394L64.1495 12.8088H64.1484Z"
        fill="white" />
    <path
        d="M79.3768 12.7364L82.5384 12.7217L87.6882 25.2281L84.2637 25.245L83.3164 22.7132L78.6955 22.7352L77.7724 25.2754L74.3301 25.2923L79.3779 12.7375L79.3768 12.7364ZM79.5629 20.2687L82.407 20.255L80.9665 16.4394L79.5629 20.2687Z"
        fill="white" />
    <path
        d="M89.3472 12.6877L92.6402 12.6719L98.4029 20.5322L98.3651 12.6446L101.508 12.6299L101.568 25.1605L98.2746 25.1763L92.5308 17.316L92.5687 25.2036L89.4071 25.2183L89.3472 12.6877Z"
        fill="white" />
    <path
        d="M109.352 40.0408H57.5749C56.0882 40.0408 55.3281 38.2587 56.3563 37.1852L63.0117 30.2407C64.7203 28.4575 67.0838 27.4492 69.5536 27.4492H109.352V40.0408Z"
        fill="#B77EDF" />
    <path
        d="M69.8145 30.3507H72.77C74.2746 30.3507 75.3386 31.3358 75.3386 32.7184C75.3386 34.101 74.2746 35.0967 72.77 35.0967H71.1898V37.5496H69.8135V30.3496L69.8145 30.3507ZM71.1908 33.9938H72.5555C73.3725 33.9938 73.9318 33.4691 73.9318 32.7184C73.9318 31.9677 73.3725 31.4431 72.5555 31.4431H71.1908V33.9927V33.9938Z"
        fill="white" />
    <path d="M78.7158 30.3507H80.1457V36.4572H83.3599V37.5496H78.7158V30.3496V30.3507Z" fill="white" />
    <path
        d="M92.7644 34.7319C92.7644 36.4782 91.3565 37.6779 89.4104 37.6779C87.4642 37.6779 86.0459 36.4782 86.0459 34.7319V30.3496H87.4758V34.6782C87.4758 35.7822 88.2822 36.5529 89.4104 36.5529C90.5385 36.5529 91.3345 35.7812 91.3345 34.6782V30.3496H92.7644V34.7319Z"
        fill="white" />
    <path
        d="M98.8919 30.2227C99.6763 30.2227 100.483 30.394 101.353 30.7263L101.03 31.7871C100.3 31.498 99.6111 31.3477 98.9992 31.3477C98.1612 31.3477 97.6229 31.7114 97.6229 32.2803C97.6229 33.8227 101.611 32.8154 101.611 35.5796C101.611 36.8328 100.504 37.6792 98.8909 37.6792C98.0634 37.6792 97.1498 37.4973 96.1709 37.0904L96.4937 36.0296C97.3316 36.3513 98.1276 36.5542 98.7836 36.5542C99.6647 36.5542 100.214 36.1789 100.214 35.5796C100.214 33.994 96.2151 34.9792 96.2151 32.2803C96.2151 31.0585 97.3117 30.2237 98.8919 30.2237V30.2227Z"
        fill="white" />
    <path
        d="M43.1335 15.4964C39.2654 12.3632 34.3059 10.5233 28.9143 10.6368C16.9315 10.887 7.33744 20.8491 7.51512 32.833C7.69281 44.758 17.4141 54.3699 29.3812 54.3699C35.8 54.3699 41.5722 51.6037 45.5728 47.1983C45.8861 46.8535 46.0585 46.4035 46.0585 45.9377V31.8689C46.0585 29.8975 44.4604 28.3004 42.4901 28.3004H26.3521C25.4352 28.3004 24.6919 29.0437 24.6919 29.9606V35.718C24.6919 36.6349 25.4352 37.3782 26.3521 37.3782H36.4392C36.7399 37.3782 36.9828 37.6221 36.9828 37.9218V41.9339C36.9828 42.3776 36.7599 42.7919 36.3909 43.039C34.4027 44.3679 32.0254 45.1523 29.4768 45.1702C22.4545 45.2217 16.7433 39.5599 16.7128 32.5565C16.6834 25.6487 22.1338 20.0174 29.0395 19.8355C32.1979 19.7525 35.104 20.8249 37.3645 22.6617L43.1335 15.4964Z"
        fill="white" />
    <path
        d="M43.1335 15.4964C39.2654 12.3632 34.3059 10.5233 28.9143 10.6368C16.9315 10.887 7.33744 20.8491 7.51512 32.833C7.60975 39.214 10.4391 44.9325 14.8813 48.87C11.7544 45.7148 9.82085 41.3567 9.82085 36.5434C9.82085 26.9125 17.5613 19.1059 27.1091 19.1059C29.8406 19.1059 31.4367 19.3813 34.3385 20.8375L34.3364 20.8396C35.433 21.3064 36.4508 21.9205 37.3634 22.6607L38.7713 23.7415C39.4862 24.2903 40.5092 24.1684 41.0749 23.466L44.7159 18.945C45.2826 18.2406 45.1817 17.2123 44.4888 16.6309L43.1335 15.4953V15.4964Z"
        fill="#0063C5" />
    <path
        d="M15.6466 36.1698C15.6466 32.411 16.6832 28.9792 18.4769 26.0742C18.7167 25.6704 18.9763 25.2814 19.2581 24.9082C19.2623 24.9029 19.2655 24.8977 19.2697 24.8913C21.5418 21.8833 25.1187 19.9066 29.1413 19.832C30.9886 19.7973 32.7455 20.1611 34.3374 20.8392L34.3395 20.8371C31.4376 19.3799 29.8416 19.1055 27.11 19.1055C17.5622 19.1055 9.82178 26.9121 9.82178 36.543C9.82178 41.3563 11.7553 45.7144 14.8822 48.8697C18.7419 52.2909 23.8191 54.3695 29.3831 54.3695C29.4725 54.3695 29.6817 54.3717 29.6933 54.3674C21.6974 52.7399 15.6466 45.2108 15.6466 36.1698Z"
        fill="#4091E3" />
    <path
        d="M84.6349 46.7368C84.6349 50.2851 82.8758 52.3599 80.0191 52.3599C79.0719 52.3599 78.0345 52.1494 77.0873 51.6533L77.9744 49.7739C78.6209 50.1047 79.2975 50.3151 79.9139 50.3151C81.1618 50.3151 82.0489 49.5333 82.1541 48.1351C81.5828 48.5711 80.8611 48.8267 80.0642 48.8267C78.0947 48.8267 76.7114 47.4585 76.7114 45.519C76.7114 43.399 78.2901 41.8955 80.5003 41.8955C83.0863 41.8955 84.6349 43.7148 84.6349 46.7368ZM82.0338 45.5039C82.0338 44.5868 81.4324 43.9403 80.6055 43.9403C79.7635 43.9403 79.1471 44.5718 79.1471 45.4137C79.1471 46.2406 79.7335 46.827 80.5604 46.827C81.4174 46.827 82.0338 46.2857 82.0338 45.5039Z"
        fill="white" />
    <path
        d="M93.2977 46.7368C93.2977 50.2851 91.5386 52.3599 88.6819 52.3599C87.7347 52.3599 86.6973 52.1494 85.7501 51.6533L86.6372 49.7739C87.2837 50.1047 87.9602 50.3151 88.5767 50.3151C89.8246 50.3151 90.7117 49.5333 90.8169 48.1351C90.2456 48.5711 89.5239 48.8267 88.727 48.8267C86.7574 48.8267 85.3742 47.4585 85.3742 45.519C85.3742 43.399 86.9529 41.8955 89.163 41.8955C91.7491 41.8955 93.2977 43.7148 93.2977 46.7368ZM90.6966 45.5039C90.6966 44.5868 90.0952 43.9403 89.2683 43.9403C88.4263 43.9403 87.8099 44.5718 87.8099 45.4137C87.8099 46.2406 88.3963 46.827 89.2232 46.827C90.0802 46.827 90.6966 46.2857 90.6966 45.5039Z"
        fill="white" />
    <path
        d="M101.96 46.7368C101.96 50.2851 100.201 52.3599 97.3447 52.3599C96.3975 52.3599 95.3601 52.1494 94.4129 51.6533L95.2999 49.7739C95.9464 50.1047 96.623 50.3151 97.2395 50.3151C98.4874 50.3151 99.3744 49.5333 99.4797 48.1351C98.9084 48.5711 98.1867 48.8267 97.3898 48.8267C95.4202 48.8267 94.037 47.4585 94.037 45.519C94.037 43.399 95.6157 41.8955 97.8258 41.8955C100.412 41.8955 101.96 43.7148 101.96 46.7368ZM99.3594 45.5039C99.3594 44.5868 98.758 43.9403 97.9311 43.9403C97.0891 43.9403 96.4727 44.5718 96.4727 45.4137C96.4727 46.2406 97.059 46.827 97.886 46.827C98.743 46.827 99.3594 46.2857 99.3594 45.5039Z"
        fill="white" />
</svg>
    