<svg width="110" height="65" viewBox="0 0 110 65" fill="none" xmlns="http://www.w3.org/2000/svg">
    <path
        d="M107.496 0.5H31.2289C14.3949 0.5 0.746594 14.1472 0.746594 30.9823C-0.665441 48.8162 13.1416 64.5936 31.2289 64.5H90.424C100.525 64.5 108.713 56.3117 108.713 46.2108V1.71963C108.713 1.04673 108.167 0.5 107.494 0.5H107.496Z"
        fill="#1F2E8D" />
    <path
        d="M51.8037 12.8682L57.3604 12.8419C60.1109 12.8282 62.0654 14.6093 62.078 17.1453C62.0896 19.6813 60.1529 21.4991 57.4024 21.5128L55.1388 21.5233L55.1577 25.383L51.8647 25.3988L51.8048 12.8682H51.8037ZM55.1251 18.9127L56.8462 18.9043C57.9681 18.899 58.7325 18.1862 58.7272 17.161C58.722 16.1727 57.9513 15.4494 56.8294 15.4546L55.1083 15.463L55.1251 18.9127Z"
        fill="white" />
    <path
        d="M64.1482 12.8088L67.5726 12.792L67.6199 22.712L72.7276 22.6878L72.7403 25.2984L64.2092 25.3394L64.1492 12.8088H64.1482Z"
        fill="white" />
    <path
        d="M79.3768 12.7364L82.5384 12.7217L87.6882 25.2281L84.2637 25.245L83.3164 22.7132L78.6955 22.7352L77.7724 25.2754L74.3301 25.2923L79.3779 12.7375L79.3768 12.7364ZM79.5629 20.2687L82.407 20.255L80.9665 16.4394L79.5629 20.2687Z"
        fill="white" />
    <path
        d="M89.3472 12.6877L92.6402 12.6719L98.4029 20.5322L98.3651 12.6446L101.508 12.6299L101.568 25.1605L98.2746 25.1763L92.5308 17.316L92.5687 25.2036L89.4071 25.2183L89.3472 12.6877Z"
        fill="white" />
    <path
        d="M109.352 40.0408H57.5749C56.0882 40.0408 55.3281 38.2587 56.3563 37.1852L63.0117 30.2407C64.7203 28.4575 67.0838 27.4492 69.5536 27.4492H109.352V40.0408Z"
        fill="#B77EDF" />
    <path
        d="M69.8143 30.3507H72.7698C74.2743 30.3507 75.3384 31.3358 75.3384 32.7184C75.3384 34.101 74.2743 35.0967 72.7698 35.0967H71.1895V37.5496H69.8132V30.3496L69.8143 30.3507ZM71.1906 33.9938H72.5553C73.3722 33.9938 73.9316 33.4691 73.9316 32.7184C73.9316 31.9677 73.3722 31.4431 72.5553 31.4431H71.1906V33.9927V33.9938Z"
        fill="white" />
    <path d="M78.7156 30.3507H80.1455V36.4572H83.3596V37.5496H78.7156V30.3496V30.3507Z" fill="white" />
    <path
        d="M92.7644 34.7319C92.7644 36.4782 91.3565 37.6779 89.4104 37.6779C87.4642 37.6779 86.0459 36.4782 86.0459 34.7319V30.3496H87.4758V34.6782C87.4758 35.7822 88.2822 36.5529 89.4104 36.5529C90.5385 36.5529 91.3345 35.7812 91.3345 34.6782V30.3496H92.7644V34.7319Z"
        fill="white" />
    <path
        d="M98.8919 30.2227C99.6763 30.2227 100.483 30.394 101.353 30.7263L101.03 31.7871C100.3 31.498 99.6111 31.3477 98.9992 31.3477C98.1612 31.3477 97.6229 31.7114 97.6229 32.2803C97.6229 33.8227 101.611 32.8154 101.611 35.5796C101.611 36.8328 100.504 37.6792 98.8909 37.6792C98.0634 37.6792 97.1498 37.4973 96.1709 37.0904L96.4937 36.0296C97.3316 36.3513 98.1276 36.5542 98.7836 36.5542C99.6647 36.5542 100.214 36.1789 100.214 35.5796C100.214 33.994 96.2151 34.9792 96.2151 32.2803C96.2151 31.0585 97.3117 30.2237 98.8919 30.2237V30.2227Z"
        fill="white" />
    <path
        d="M43.134 15.4964C39.2659 12.3632 34.3064 10.5233 28.9148 10.6368C16.932 10.887 7.33793 20.8491 7.51561 32.833C7.6933 44.758 17.4146 54.3699 29.3817 54.3699C35.8005 54.3699 41.5727 51.6037 45.5733 47.1983C45.8866 46.8535 46.059 46.4035 46.059 45.9377V31.8689C46.059 29.8975 44.4609 28.3004 42.4906 28.3004H26.3526C25.4357 28.3004 24.6924 29.0437 24.6924 29.9606V35.718C24.6924 36.6349 25.4357 37.3782 26.3526 37.3782H36.4397C36.7404 37.3782 36.9833 37.6221 36.9833 37.9218V41.9339C36.9833 42.3776 36.7604 42.7919 36.3914 43.039C34.4032 44.3679 32.0259 45.1523 29.4773 45.1702C22.455 45.2217 16.7438 39.5599 16.7133 32.5565C16.6839 25.6487 22.1343 20.0174 29.0399 19.8355C32.1984 19.7525 35.1044 20.8249 37.365 22.6617L43.134 15.4964Z"
        fill="white" />
    <path
        d="M43.134 15.4964C39.2659 12.3632 34.3064 10.5233 28.9148 10.6368C16.932 10.887 7.33793 20.8491 7.51561 32.833C7.61024 39.214 10.4396 44.9325 14.8817 48.87C11.7549 45.7148 9.82134 41.3567 9.82134 36.5434C9.82134 26.9125 17.5618 19.1059 27.1096 19.1059C29.8411 19.1059 31.4371 19.3813 34.339 20.8375L34.3369 20.8396C35.4335 21.3064 36.4513 21.9205 37.3639 22.6607L38.7717 23.7415C39.4867 24.2903 40.5097 24.1684 41.0754 23.466L44.7164 18.945C45.2831 18.2406 45.1821 17.2123 44.4893 16.6309L43.134 15.4953V15.4964Z"
        fill="#0063C5" />
    <path
        d="M15.6473 36.1698C15.6473 32.411 16.684 28.9792 18.4777 26.0742C18.7174 25.6704 18.9771 25.2814 19.2589 24.9082C19.2631 24.9029 19.2662 24.8977 19.2704 24.8913C21.5425 21.8833 25.1194 19.9066 29.1421 19.832C30.9894 19.7973 32.7463 20.1611 34.3381 20.8392L34.3402 20.8371C31.4383 19.3799 29.8423 19.1055 27.1107 19.1055C17.5629 19.1055 9.82251 26.9121 9.82251 36.543C9.82251 41.3563 11.756 45.7144 14.8829 48.8697C18.7426 52.2909 23.8198 54.3695 29.3839 54.3695C29.4732 54.3695 29.6825 54.3717 29.694 54.3674C21.6981 52.7399 15.6473 45.2108 15.6473 36.1698Z"
        fill="#4091E3" />
    <path
        d="M71.5784 52.1795V44.6169L69.5487 45.7595L68.6616 43.9854L72.0144 42.0759H74.2246V52.1795H71.5784Z"
        fill="white" />
    <path
        d="M84.7217 46.7368C84.7217 50.2851 82.9626 52.3599 80.1059 52.3599C79.1587 52.3599 78.1213 52.1494 77.1741 51.6533L78.0611 49.7739C78.7076 50.1047 79.3842 50.3151 80.0007 50.3151C81.2486 50.3151 82.1356 49.5333 82.2409 48.1351C81.6695 48.5711 80.9479 48.8267 80.151 48.8267C78.1814 48.8267 76.7982 47.4585 76.7982 45.519C76.7982 43.399 78.3769 41.8955 80.587 41.8955C83.1731 41.8955 84.7217 43.7148 84.7217 46.7368ZM82.1206 45.5039C82.1206 44.5868 81.5192 43.9403 80.6923 43.9403C79.8503 43.9403 79.2339 44.5718 79.2339 45.4137C79.2339 46.2406 79.8202 46.827 80.6472 46.827C81.5042 46.827 82.1206 46.2857 82.1206 45.5039Z"
        fill="white" />
    <path
        d="M93.3845 46.7368C93.3845 50.2851 91.6253 52.3599 88.7687 52.3599C87.8215 52.3599 86.7841 52.1494 85.8368 51.6533L86.7239 49.7739C87.3704 50.1047 88.047 50.3151 88.6634 50.3151C89.9113 50.3151 90.7984 49.5333 90.9037 48.1351C90.3323 48.5711 89.6106 48.8267 88.8138 48.8267C86.8442 48.8267 85.461 47.4585 85.461 45.519C85.461 43.399 87.0396 41.8955 89.2498 41.8955C91.8358 41.8955 93.3845 43.7148 93.3845 46.7368ZM90.7834 45.5039C90.7834 44.5868 90.182 43.9403 89.3551 43.9403C88.5131 43.9403 87.8966 44.5718 87.8966 45.4137C87.8966 46.2406 88.483 46.827 89.3099 46.827C90.1669 46.827 90.7834 46.2857 90.7834 45.5039Z"
        fill="white" />
    <path
        d="M102.047 46.7368C102.047 50.2851 100.288 52.3599 97.4315 52.3599C96.4843 52.3599 95.4468 52.1494 94.4996 51.6533L95.3867 49.7739C96.0332 50.1047 96.7098 50.3151 97.3262 50.3151C98.5741 50.3151 99.4612 49.5333 99.5665 48.1351C98.9951 48.5711 98.2734 48.8267 97.4766 48.8267C95.507 48.8267 94.1238 47.4585 94.1238 45.519C94.1238 43.399 95.7024 41.8955 97.9126 41.8955C100.499 41.8955 102.047 43.7148 102.047 46.7368ZM99.4462 45.5039C99.4462 44.5868 98.8448 43.9403 98.0178 43.9403C97.1759 43.9403 96.5594 44.5718 96.5594 45.4137C96.5594 46.2406 97.1458 46.827 97.9727 46.827C98.8297 46.827 99.4462 46.2857 99.4462 45.5039Z"
        fill="white" />
</svg>
    