<svg width="119" height="73" viewBox="0 0 119 73" fill="none" xmlns="http://www.w3.org/2000/svg">
    <path
        d="M114.926 3.13672H35.5133C17.9845 3.13672 3.77303 17.306 3.77303 34.7851C2.30273 53.3012 16.6795 69.6821 35.5133 69.585H97.1512C107.669 69.585 116.195 61.0834 116.195 50.5962V4.403C116.195 3.70436 115.627 3.13672 114.925 3.13672H114.926Z"
        fill="#0F1646" />
    <path
        d="M47.9095 18.7059C43.8818 15.4529 38.7177 13.5425 33.1036 13.6604C20.6262 13.9202 10.6362 24.2634 10.8213 36.7057C11.0063 49.0869 21.1287 59.0665 33.5897 59.0665C40.2734 59.0665 46.2838 56.1945 50.4495 51.6206C50.7757 51.2625 50.9552 50.7953 50.9552 50.3117V35.7047C50.9552 33.6579 49.2912 31.9997 47.2395 31.9997H30.4345C29.4798 31.9997 28.7058 32.7715 28.7058 33.7234V39.7011C28.7058 40.653 29.4798 41.4248 30.4345 41.4248H40.9379C41.251 41.4248 41.5039 41.6781 41.5039 41.9892V46.1548C41.5039 46.6155 41.2718 47.0456 40.8875 47.3021C38.8173 48.6819 36.342 49.4963 33.6882 49.5148C26.3761 49.5683 20.4292 43.6899 20.3974 36.4186C20.3667 29.2466 26.0422 23.3999 33.2327 23.211C36.5215 23.1248 39.5475 24.2383 41.9013 26.1453L47.9084 18.7059H47.9095Z"
        fill="white" />
    <path
        d="M47.9095 18.7059C43.8818 15.4529 38.7177 13.5425 33.1036 13.6604C20.6262 13.9202 10.6362 24.2634 10.8213 36.7057C10.9198 43.3308 13.8659 49.2681 18.4914 53.3562C15.2355 50.0803 13.2221 45.5555 13.2221 40.558C13.2221 30.5588 21.282 22.4535 31.2238 22.4535C34.0681 22.4535 35.73 22.7395 38.7516 24.2514L38.7494 24.2535C39.8913 24.7382 40.951 25.3757 41.9013 26.1442L43.3672 27.2664C44.1117 27.8363 45.1769 27.7096 45.7659 26.9804L49.5572 22.2864C50.1473 21.5551 50.0422 20.4874 49.3207 19.8838L47.9095 18.7048V18.7059Z"
        fill="#3A78B0" />
    <path
        d="M19.2884 40.1712C19.2884 36.2686 20.3679 32.7055 22.2356 29.6894C22.4852 29.2702 22.7556 28.8663 23.049 28.4788C23.0534 28.4733 23.0567 28.4679 23.0611 28.4613C25.4269 25.3382 29.1514 23.2859 33.3401 23.2084C35.2636 23.1724 37.093 23.5501 38.7505 24.2542L38.7527 24.252C35.7311 22.739 34.0692 22.4541 31.2249 22.4541C21.2831 22.4541 13.2233 30.5594 13.2233 40.5587C13.2233 45.5561 15.2366 50.0809 18.4925 53.3569C22.5115 56.909 27.7982 59.0672 33.5919 59.0672C33.6849 59.0672 33.9028 59.0694 33.9148 59.065C25.5889 57.3752 19.2884 49.558 19.2884 40.1712Z"
        fill="#92B3D1" />
    <path
        d="M57.1431 29.5801H59.348C60.4701 29.5801 61.2639 30.3126 61.2639 31.3409C61.2639 32.3692 60.4701 33.1104 59.348 33.1104H58.1689V34.9356H57.142V29.5812L57.1431 29.5801ZM58.17 32.2895H59.1881C59.7979 32.2895 60.2151 31.8987 60.2151 31.3409C60.2151 30.783 59.7979 30.3922 59.1881 30.3922H58.17V32.2884V32.2895Z"
        fill="white" />
    <path d="M63.8705 29.5801H64.9368V34.1223H67.3344V34.9356H63.8705V29.5812V29.5801Z" fill="white" />
    <path
        d="M71.5681 29.5801H72.5545L74.7594 34.9345H73.6854L73.1884 33.6595H70.9353L70.4382 34.9345H69.3643L71.5692 29.5801H71.5681ZM71.2232 32.8866H72.907L72.0651 30.7427L71.2232 32.8866Z"
        fill="white" />
    <path d="M77.7262 30.3924H76.0183V29.5791H80.4927V30.3924H78.7925V34.9346H77.7262V30.3924Z"
        fill="white" />
    <path d="M83.0349 29.5801H84.1012V34.9345H83.0349V29.5801Z" fill="white" />
    <path
        d="M87.1479 29.5801H88.1825L91.0454 33.4848V29.5801H92.0318V34.9345H90.9972L88.1344 31.0298V34.9345H87.1479V29.5801Z"
        fill="white" />
    <path
        d="M100.017 32.8387C100.017 34.1377 98.9674 35.0296 97.5157 35.0296C96.064 35.0296 95.0065 34.1366 95.0065 32.8387V29.5791H96.0728V32.7983C96.0728 33.6192 96.6738 34.1934 97.5157 34.1934C98.3576 34.1934 98.951 33.6192 98.951 32.7983V29.5791H100.017V32.8387Z"
        fill="white" />
    <path
        d="M102.992 29.5801H104.026L105.79 31.986L107.546 29.5801H108.581V34.9345H107.594V31.0298L106.087 33.094H105.493L103.978 31.0298V34.9345H102.992V29.5801Z"
        fill="white" />
    <path
        d="M57.0697 38.2744H59.0327C60.0322 38.2744 60.7394 38.9272 60.7394 39.8431C60.7394 40.7589 60.0322 41.4183 59.0327 41.4183H57.9828V43.0437H57.0686V38.2755L57.0697 38.2744ZM57.9838 40.6869H58.8903C59.4334 40.6869 59.8045 40.3387 59.8045 39.842C59.8045 39.3453 59.4334 38.9971 58.8903 38.9971H57.9838V40.6858V40.6869Z"
        fill="white" />
    <path d="M63.5586 38.2744H64.5078V42.3189H66.6426V43.0426H63.5586V38.2744Z" fill="white" />
    <path
        d="M70.9133 38.2744H71.7913L73.7543 43.0426H72.7974L72.3551 41.9073H70.3484L69.9061 43.0426H68.9492L70.9122 38.2744H70.9133ZM70.6067 41.2196H72.1066L71.3567 39.3104L70.6067 41.2196Z"
        fill="white" />
    <path
        d="M76.3894 38.2744H77.3101L79.8588 41.7512V38.2744H80.7368V43.0426H79.8161L77.2674 39.5658V43.0426H76.3894V38.2744Z"
        fill="white" />
    <path d="M116.707 37.0225H83.3906V44.1955H116.707V37.0225Z" fill="#BF9890" />
    <path
        d="M88.7081 52.6624H86.1989V51.9692L88.6764 48.4629H89.6551V51.8819H90.3689V52.6624H89.6551V53.8173H88.7092V52.6624H88.7081ZM88.7081 51.8819V49.6822L87.1524 51.8819H88.7081Z"
        fill="white" />
    <path
        d="M94.2323 53.9136C93.7671 53.9136 93.2536 53.8099 92.7894 53.5632L93.1419 52.8296C93.4868 53.0054 93.8557 53.1167 94.1918 53.1167C95.0414 53.1167 95.5789 52.5032 95.603 51.3636C95.3381 51.7304 94.8651 51.9618 94.3276 51.9618C93.293 51.9618 92.5715 51.2522 92.5715 50.2327C92.5715 49.1487 93.3817 48.3682 94.4874 48.3682C95.7782 48.3682 96.5719 49.2851 96.5719 50.8789C96.5719 52.7991 95.6983 53.9147 94.2301 53.9147L94.2323 53.9136ZM94.529 49.164C93.9521 49.164 93.5185 49.6017 93.5185 50.1923C93.5185 50.7828 93.9192 51.1802 94.5126 51.1802C95.106 51.1802 95.5395 50.7981 95.5395 50.272C95.5395 49.6181 95.1224 49.164 94.529 49.164Z"
        fill="white" />
    <path
        d="M100.543 53.9136C100.077 53.9136 99.564 53.8099 99.0998 53.5632L99.4523 52.8296C99.7972 53.0054 100.166 53.1167 100.502 53.1167C101.352 53.1167 101.889 52.5032 101.913 51.3636C101.649 51.7304 101.176 51.9618 100.638 51.9618C99.6034 51.9618 98.882 51.2522 98.882 50.2327C98.882 49.1487 99.6921 48.3682 100.798 48.3682C102.089 48.3682 102.882 49.2851 102.882 50.8789C102.882 52.7991 102.009 53.9147 100.541 53.9147L100.543 53.9136ZM100.839 49.164C100.262 49.164 99.829 49.6017 99.829 50.1923C99.829 50.7828 100.23 51.1802 100.823 51.1802C101.416 51.1802 101.85 50.7981 101.85 50.272C101.85 49.6181 101.433 49.164 100.839 49.164Z"
        fill="white" />
    <path
        d="M106.853 53.9136C106.388 53.9136 105.874 53.8099 105.41 53.5632L105.763 52.8296C106.108 53.0054 106.477 53.1167 106.813 53.1167C107.662 53.1167 108.2 52.5032 108.224 51.3636C107.959 51.7304 107.486 51.9618 106.948 51.9618C105.914 51.9618 105.192 51.2522 105.192 50.2327C105.192 49.1487 106.003 48.3682 107.108 48.3682C108.399 48.3682 109.193 49.2851 109.193 50.8789C109.193 52.7991 108.319 53.9147 106.851 53.9147L106.853 53.9136ZM107.15 49.164C106.573 49.164 106.139 49.6017 106.139 50.1923C106.139 50.7828 106.54 51.1802 107.133 51.1802C107.727 51.1802 108.16 50.7981 108.16 50.272C108.16 49.6181 107.743 49.164 107.15 49.164Z"
        fill="white" />
    <path
        d="M86.1824 38.2236H88.1453C89.1449 38.2236 89.8521 38.8764 89.8521 39.7923C89.8521 40.7082 89.1449 41.3675 88.1453 41.3675H87.0954V42.9918H86.1813V38.2236H86.1824ZM87.0965 40.6361H88.003C88.546 40.6361 88.9172 40.2879 88.9172 39.7912C88.9172 39.2945 88.546 38.9463 88.003 38.9463H87.0965V40.635V40.6361Z"
        fill="#0F1646" />
    <path d="M92.6724 38.2236H93.6215V42.2681H95.7564V42.9918H92.6724V38.2236Z" fill="#0F1646" />
    <path
        d="M102.582 41.1263C102.582 42.2823 101.647 43.0781 100.354 43.0781C99.0615 43.0781 98.12 42.2834 98.12 41.1263V38.2236H99.0692V41.0902C99.0692 41.8216 99.6045 42.3325 100.354 42.3325C101.104 42.3325 101.632 41.8216 101.632 41.0902V38.2236H102.581V41.1263H102.582Z"
        fill="#0F1646" />
    <path
        d="M107.231 38.1398C107.752 38.1398 108.287 38.2533 108.865 38.4727L108.651 39.1757C108.166 38.9847 107.708 38.8842 107.301 38.8842C106.744 38.8842 106.387 39.1255 106.387 39.5021C106.387 40.5239 109.036 39.8569 109.036 41.6875C109.036 42.5183 108.3 43.0783 107.23 43.0783C106.68 43.0783 106.073 42.9582 105.423 42.6875L105.638 41.9856C106.195 42.1984 106.723 42.3327 107.159 42.3327C107.744 42.3327 108.108 42.0838 108.108 41.6864C108.108 40.6363 105.452 41.2891 105.452 39.501C105.452 38.6921 106.18 38.1387 107.23 38.1387L107.231 38.1398Z"
        fill="#0F1646" />
</svg>
    