<svg width="110" height="64" viewBox="0 0 110 64" fill="none" xmlns="http://www.w3.org/2000/svg">
    <path
        d="M107.495 0H31.2286C14.3946 0 0.74635 13.6472 0.74635 30.4823C-0.665685 48.3162 13.1413 64.0936 31.2286 64H90.4237C100.525 64 108.713 55.8117 108.713 45.7108V1.21963C108.713 0.54673 108.167 0 107.493 0H107.495Z"
        fill="#1F2E8D" />
    <path
        d="M51.8037 12.3682L57.3604 12.3419C60.1109 12.3282 62.0654 14.1093 62.078 16.6453C62.0896 19.1813 60.1529 20.9991 57.4024 21.0128L55.1388 21.0233L55.1577 24.883L51.8647 24.8988L51.8048 12.3682H51.8037ZM55.1251 18.4127L56.8462 18.4043C57.9681 18.399 58.7325 17.6862 58.7272 16.661C58.722 15.6727 57.9513 14.9494 56.8294 14.9546L55.1083 14.963L55.1251 18.4127Z"
        fill="white" />
    <path
        d="M64.1484 12.3088L67.5729 12.292L67.6202 22.212L72.7279 22.1878L72.7405 24.7984L64.2094 24.8394L64.1495 12.3088H64.1484Z"
        fill="white" />
    <path
        d="M79.3768 12.2364L82.5384 12.2217L87.6882 24.7281L84.2637 24.745L83.3164 22.2132L78.6955 22.2352L77.7724 24.7754L74.3301 24.7923L79.3779 12.2375L79.3768 12.2364ZM79.5629 19.7687L82.407 19.755L80.9665 15.9394L79.5629 19.7687Z"
        fill="white" />
    <path
        d="M89.3472 12.1877L92.6402 12.1719L98.4029 20.0322L98.3651 12.1446L101.508 12.1299L101.568 24.6605L98.2746 24.6763L92.5308 16.816L92.5687 24.7036L89.4071 24.7183L89.3472 12.1877Z"
        fill="white" />
    <path
        d="M109.352 39.5408H57.5749C56.0882 39.5408 55.3281 37.7587 56.3563 36.6852L63.0117 29.7407C64.7203 27.9575 67.0838 26.9492 69.5536 26.9492H109.352V39.5408Z"
        fill="#B77EDF" />
    <path
        d="M69.8145 29.8507H72.77C74.2746 29.8507 75.3386 30.8358 75.3386 32.2184C75.3386 33.601 74.2746 34.5967 72.77 34.5967H71.1898V37.0496H69.8135V29.8496L69.8145 29.8507ZM71.1908 33.4938H72.5555C73.3725 33.4938 73.9318 32.9691 73.9318 32.2184C73.9318 31.4677 73.3725 30.9431 72.5555 30.9431H71.1908V33.4927V33.4938Z"
        fill="white" />
    <path d="M78.7158 29.8507H80.1457V35.9572H83.3599V37.0496H78.7158V29.8496V29.8507Z" fill="white" />
    <path
        d="M92.7644 34.2319C92.7644 35.9782 91.3565 37.1779 89.4104 37.1779C87.4642 37.1779 86.0459 35.9782 86.0459 34.2319V29.8496H87.4758V34.1782C87.4758 35.2822 88.2822 36.0529 89.4104 36.0529C90.5385 36.0529 91.3345 35.2812 91.3345 34.1782V29.8496H92.7644V34.2319Z"
        fill="white" />
    <path
        d="M98.8919 29.7227C99.6763 29.7227 100.483 29.894 101.353 30.2263L101.03 31.2871C100.3 30.998 99.6111 30.8477 98.9992 30.8477C98.1612 30.8477 97.6229 31.2114 97.6229 31.7803C97.6229 33.3227 101.611 32.3154 101.611 35.0796C101.611 36.3328 100.504 37.1792 98.8909 37.1792C98.0634 37.1792 97.1498 36.9973 96.1709 36.5904L96.4937 35.5296C97.3316 35.8513 98.1276 36.0542 98.7836 36.0542C99.6647 36.0542 100.214 35.6789 100.214 35.0796C100.214 33.494 96.2151 34.4792 96.2151 31.7803C96.2151 30.5585 97.3117 29.7237 98.8919 29.7237V29.7227Z"
        fill="white" />
    <path
        d="M43.1335 14.9964C39.2654 11.8632 34.3059 10.0233 28.9143 10.1368C16.9315 10.387 7.33744 20.3491 7.51512 32.333C7.69281 44.258 17.4141 53.8699 29.3812 53.8699C35.8 53.8699 41.5722 51.1037 45.5728 46.6983C45.8861 46.3535 46.0585 45.9035 46.0585 45.4377V31.3689C46.0585 29.3975 44.4604 27.8004 42.4901 27.8004H26.3521C25.4352 27.8004 24.6919 28.5437 24.6919 29.4606V35.218C24.6919 36.1349 25.4352 36.8782 26.3521 36.8782H36.4392C36.7399 36.8782 36.9828 37.1221 36.9828 37.4218V41.4339C36.9828 41.8776 36.7599 42.2919 36.3909 42.539C34.4027 43.8679 32.0254 44.6523 29.4768 44.6702C22.4545 44.7217 16.7433 39.0599 16.7128 32.0565C16.6834 25.1487 22.1338 19.5174 29.0395 19.3355C32.1979 19.2525 35.104 20.3249 37.3645 22.1617L43.1335 14.9964Z"
        fill="white" />
    <path
        d="M43.1335 14.9964C39.2654 11.8632 34.3059 10.0233 28.9143 10.1368C16.9315 10.387 7.33744 20.3491 7.51512 32.333C7.60975 38.714 10.4391 44.4325 14.8813 48.37C11.7544 45.2148 9.82085 40.8567 9.82085 36.0434C9.82085 26.4125 17.5613 18.6059 27.1091 18.6059C29.8406 18.6059 31.4367 18.8813 34.3385 20.3375L34.3364 20.3396C35.433 20.8064 36.4508 21.4205 37.3634 22.1607L38.7713 23.2415C39.4862 23.7903 40.5092 23.6684 41.0749 22.966L44.7159 18.445C45.2826 17.7406 45.1817 16.7123 44.4888 16.1309L43.1335 14.9953V14.9964Z"
        fill="#0063C5" />
    <path
        d="M15.6466 35.6698C15.6466 31.911 16.6832 28.4792 18.4769 25.5742C18.7167 25.1704 18.9763 24.7814 19.2581 24.4082C19.2623 24.4029 19.2655 24.3977 19.2697 24.3913C21.5418 21.3833 25.1187 19.4066 29.1413 19.332C30.9886 19.2973 32.7455 19.6611 34.3374 20.3392L34.3395 20.3371C31.4376 18.8799 29.8416 18.6055 27.11 18.6055C17.5622 18.6055 9.82178 26.4121 9.82178 36.043C9.82178 40.8563 11.7553 45.2144 14.8822 48.3697C18.7419 51.7909 23.8191 53.8695 29.3831 53.8695C29.4725 53.8695 29.6817 53.8717 29.6933 53.8674C21.6974 52.2399 15.6466 44.7108 15.6466 35.6698Z"
        fill="#4091E3" />
    <path
        d="M77.8391 51.6795L81.2971 43.6808H77.0723V41.5759H84.1688V43.2298L80.6055 51.6795H77.8391Z"
        fill="white" />
    <path
        d="M93.2977 46.2368C93.2977 49.7851 91.5386 51.8599 88.6819 51.8599C87.7347 51.8599 86.6973 51.6494 85.7501 51.1533L86.6372 49.2739C87.2837 49.6047 87.9602 49.8151 88.5767 49.8151C89.8246 49.8151 90.7117 49.0333 90.8169 47.6351C90.2456 48.0711 89.5239 48.3267 88.727 48.3267C86.7574 48.3267 85.3742 46.9585 85.3742 45.019C85.3742 42.899 86.9529 41.3955 89.163 41.3955C91.7491 41.3955 93.2977 43.2148 93.2977 46.2368ZM90.6966 45.0039C90.6966 44.0868 90.0952 43.4403 89.2683 43.4403C88.4263 43.4403 87.8099 44.0718 87.8099 44.9137C87.8099 45.7406 88.3963 46.327 89.2232 46.327C90.0802 46.327 90.6966 45.7857 90.6966 45.0039Z"
        fill="white" />
    <path
        d="M101.96 46.2368C101.96 49.7851 100.201 51.8599 97.3447 51.8599C96.3975 51.8599 95.3601 51.6494 94.4129 51.1533L95.2999 49.2739C95.9464 49.6047 96.623 49.8151 97.2395 49.8151C98.4874 49.8151 99.3744 49.0333 99.4797 47.6351C98.9084 48.0711 98.1867 48.3267 97.3898 48.3267C95.4202 48.3267 94.037 46.9585 94.037 45.019C94.037 42.899 95.6157 41.3955 97.8258 41.3955C100.412 41.3955 101.96 43.2148 101.96 46.2368ZM99.3594 45.0039C99.3594 44.0868 98.758 43.4403 97.9311 43.4403C97.0891 43.4403 96.4727 44.0718 96.4727 44.9137C96.4727 45.7406 97.059 46.327 97.886 46.327C98.743 46.327 99.3594 45.7857 99.3594 45.0039Z"
        fill="white" />
</svg>
    