<svg width="102" height="62" viewBox="0 0 102 62" fill="none" xmlns="http://www.w3.org/2000/svg">
    <path
        d="M97.8365 2.68341H30.1168C15.1691 2.68341 3.05013 14.8014 3.05013 29.75C1.79631 45.5856 14.0562 59.595 30.1168 59.5119H82.6788C91.6478 59.5119 98.9186 52.2411 98.9186 43.2721V3.76637C98.9186 3.16888 98.434 2.68341 97.8356 2.68341H97.8365Z"
        fill="#0F1646" />
    <path
        d="M40.6875 15.7219C37.2528 12.9398 32.8491 11.3061 28.0616 11.4069C17.4215 11.6291 8.90252 20.4748 9.06029 31.1159C9.21807 41.7047 17.85 50.2395 28.4762 50.2395C34.1757 50.2395 39.3011 47.7833 42.8534 43.8715C43.1316 43.5653 43.2847 43.1657 43.2847 42.7521V30.2598C43.2847 28.5093 41.8657 27.0912 40.1161 27.0912H25.7855C24.9715 27.0912 24.3114 27.7512 24.3114 28.5653V33.6777C24.3114 34.4918 24.9715 35.1518 25.7855 35.1518H34.7424C35.0094 35.1518 35.2251 35.3684 35.2251 35.6345V39.197C35.2251 39.591 35.0271 39.9588 34.6995 40.1782C32.934 41.3583 30.8232 42.0548 28.5602 42.0706C22.3247 42.1164 17.2535 37.089 17.2264 30.8704C17.2003 24.7367 22.04 19.7364 28.1718 19.5749C30.9763 19.5011 33.5567 20.4534 35.564 22.0844L40.6866 15.7219H40.6875Z"
        fill="white" />
    <path
        d="M40.6875 15.7219C37.2528 12.9398 32.8491 11.3061 28.0616 11.4069C17.4215 11.6291 8.90252 20.4748 9.06029 31.1159C9.14432 36.7818 11.6566 41.8596 15.601 45.3559C12.8245 42.5542 11.1077 38.6845 11.1077 34.4105C11.1077 25.8589 17.9807 18.927 26.4587 18.927C28.8841 18.927 30.3013 19.1716 32.878 20.4646L32.8762 20.4664C33.8499 20.881 34.7536 21.4262 35.564 22.0834L36.814 23.0431C37.4489 23.5305 38.3573 23.4222 38.8595 22.7985L42.0926 18.7841C42.5958 18.1586 42.5061 17.2456 41.8909 16.7293L40.6875 15.721V15.7219Z"
        fill="#3A78B0" />
    <path
        d="M16.2807 34.0791C16.2807 30.7415 17.2012 27.6943 18.7939 25.1148C19.0067 24.7563 19.2373 24.4109 19.4875 24.0794C19.4913 24.0748 19.4941 24.0701 19.4978 24.0645C21.5153 21.3935 24.6914 19.6383 28.2633 19.5721C29.9036 19.5412 31.4636 19.8643 32.8771 20.4664L32.879 20.4646C30.3022 19.1706 28.8851 18.9269 26.4596 18.9269C17.9817 18.9269 11.1086 25.8588 11.1086 34.4105C11.1086 38.6845 12.8255 42.5542 15.6019 45.3559C19.0292 48.3938 23.5375 50.2395 28.478 50.2395C28.5574 50.2395 28.7432 50.2414 28.7534 50.2377C21.6535 48.7925 16.2807 42.107 16.2807 34.0791Z"
        fill="#92B3D1" />
    <path
        d="M48.5614 25.0214H50.4416C51.3986 25.0214 52.0754 25.6479 52.0754 26.5273C52.0754 27.4068 51.3986 28.0407 50.4416 28.0407H49.4362V29.6016H48.5605V25.0224L48.5614 25.0214ZM49.4371 27.3386H50.3053C50.8253 27.3386 51.181 27.0044 51.181 26.5273C51.181 26.0503 50.8253 25.716 50.3053 25.716H49.4371V27.3377V27.3386Z"
        fill="white" />
    <path d="M54.2983 25.0214H55.2076V28.9061H57.2522V29.6016H54.2983V25.0224V25.0214Z" fill="white" />
    <path
        d="M60.8623 25.0214H61.7035L63.5838 29.6007H62.6679L62.2441 28.5103H60.3227L59.8989 29.6007H58.983L60.8633 25.0214H60.8623ZM60.5683 27.8493H62.0041L61.2862 26.0157L60.5683 27.8493Z"
        fill="white" />
    <path d="M66.1138 25.717H64.6574V25.0214H68.473V25.717H67.0231V29.6016H66.1138V25.717Z"
        fill="white" />
    <path d="M70.6408 25.0214H71.5501V29.6007H70.6408V25.0214Z" fill="white" />
    <path
        d="M74.1483 25.0214H75.0305L77.4719 28.3609V25.0214H78.313V29.6007H77.4308L74.9895 26.2612V29.6007H74.1483V25.0214Z"
        fill="white" />
    <path
        d="M85.1226 27.8091C85.1226 28.9201 84.2273 29.6829 82.9894 29.6829C81.7515 29.6829 80.8496 28.9192 80.8496 27.8091V25.0214H81.7589V27.7746C81.7589 28.4767 82.2715 28.9677 82.9894 28.9677C83.7073 28.9677 84.2133 28.4767 84.2133 27.7746V25.0214H85.1226V27.8091Z"
        fill="white" />
    <path
        d="M87.6592 25.0214H88.5414L90.0454 27.0791L91.5429 25.0214H92.4252V29.6007H91.584V26.2612L90.2984 28.0267H89.7924L88.5003 26.2612V29.6007H87.6592V25.0214Z"
        fill="white" />
    <path
        d="M48.4989 32.4575H50.1728C51.0251 32.4575 51.6283 33.0157 51.6283 33.799C51.6283 34.5823 51.0251 35.1462 50.1728 35.1462H49.2775V36.5363H48.4979V32.4584L48.4989 32.4575ZM49.2784 34.5207H50.0514C50.5145 34.5207 50.831 34.2229 50.831 33.7981C50.831 33.3733 50.5145 33.0755 50.0514 33.0755H49.2784V34.5198V34.5207Z"
        fill="white" />
    <path d="M54.0323 32.4575H54.8417V35.9164H56.6622V36.5354H54.0323V32.4575Z" fill="white" />
    <path
        d="M60.304 32.4575H61.0528L62.7267 36.5354H61.9107L61.5336 35.5645H59.8223L59.4451 36.5354H58.6292L60.3031 32.4575H60.304ZM60.0426 34.9763H61.3216L60.6821 33.3434L60.0426 34.9763Z"
        fill="white" />
    <path
        d="M64.9739 32.4575H65.7591L67.9325 35.4309V32.4575H68.6812V36.5354H67.896L65.7226 33.5619V36.5354H64.9739V32.4575Z"
        fill="white" />
    <path d="M99.3552 31.3866H70.9442V37.5212H99.3552V31.3866Z" fill="#BF9890" />
    <path
        d="M74.4181 43.092H74.7393C75.2593 43.092 75.6215 42.8128 75.6215 42.417C75.6215 42.0426 75.3414 41.7831 74.9241 41.7831C74.5749 41.7831 74.1996 41.8848 73.8029 42.0697L73.5228 41.4227C74.0559 41.1847 74.5759 41.0885 75.0613 41.0885C75.9025 41.0885 76.4972 41.6001 76.4972 42.3292C76.4972 42.8334 76.2097 43.2217 75.7522 43.3851C76.2582 43.5485 76.6074 43.992 76.6074 44.5372C76.6074 45.3008 75.9651 45.8321 75.0623 45.8321C74.5497 45.8321 73.9821 45.7303 73.4145 45.4708L73.6946 44.8238C74.1119 45.0217 74.5357 45.1375 74.9045 45.1375C75.376 45.1375 75.7111 44.8509 75.7111 44.4494C75.7111 44.02 75.3143 43.7203 74.7402 43.7203H74.419V43.0929L74.4181 43.092Z"
        fill="white" />
    <path
        d="M81.0307 41.8652H78.9245V41.1697H81.9876V41.7215L80.2642 45.749H79.3484L81.0307 41.8643V41.8652Z"
        fill="white" />
    <path
        d="M85.5707 45.8321C85.174 45.8321 84.7361 45.7434 84.3403 45.5324L84.6409 44.905C84.935 45.0553 85.2496 45.1505 85.5362 45.1505C86.2607 45.1505 86.719 44.6259 86.7396 43.6512C86.5137 43.9649 86.1103 44.1628 85.652 44.1628C84.7697 44.1628 84.1545 43.556 84.1545 42.684C84.1545 41.7569 84.8453 41.0894 85.7883 41.0894C86.889 41.0894 87.5658 41.8736 87.5658 43.2367C87.5658 44.8789 86.8208 45.833 85.5689 45.833L85.5707 45.8321ZM85.8237 41.77C85.3317 41.77 84.962 42.1444 84.962 42.6495C84.962 43.1545 85.3037 43.4943 85.8097 43.4943C86.3157 43.4943 86.6854 43.1676 86.6854 42.7176C86.6854 42.1584 86.3297 41.77 85.8237 41.77Z"
        fill="white" />
    <path
        d="M90.952 45.8321C90.5552 45.8321 90.1173 45.7434 89.7215 45.5324L90.0221 44.905C90.3162 45.0553 90.6308 45.1505 90.9174 45.1505C91.6419 45.1505 92.1003 44.6259 92.1208 43.6512C91.8949 43.9649 91.4916 44.1628 91.0332 44.1628C90.1509 44.1628 89.5357 43.556 89.5357 42.684C89.5357 41.7569 90.2266 41.0894 91.1695 41.0894C92.2702 41.0894 92.947 41.8736 92.947 43.2367C92.947 44.8789 92.202 45.833 90.9501 45.833L90.952 45.8321ZM91.205 41.77C90.713 41.77 90.3433 42.1444 90.3433 42.6495C90.3433 43.1545 90.685 43.4943 91.191 43.4943C91.697 43.4943 92.0667 43.1676 92.0667 42.7176C92.0667 42.1584 91.711 41.77 91.205 41.77Z"
        fill="white" />
    <path
        d="M73.3248 32.4145H74.9988C75.8511 32.4145 76.4542 32.9728 76.4542 33.7561C76.4542 34.5394 75.8511 35.1033 74.9988 35.1033H74.1035V36.4924H73.3239V32.4145H73.3248ZM74.1044 34.4777H74.8774C75.3405 34.4777 75.657 34.1799 75.657 33.7551C75.657 33.3304 75.3405 33.0325 74.8774 33.0325H74.1044V34.4768V34.4777Z"
        fill="#0F1646" />
    <path d="M78.8592 32.4145H79.6686V35.8735H81.4891V36.4924H78.8592V32.4145Z" fill="#0F1646" />
    <path
        d="M87.31 34.896C87.31 35.8847 86.5127 36.5652 85.4102 36.5652C84.3076 36.5652 83.5047 35.8856 83.5047 34.896V32.4136H84.3141V34.8652C84.3141 35.4907 84.7707 35.9276 85.4102 35.9276C86.0497 35.9276 86.4997 35.4907 86.4997 34.8652V32.4136H87.3091V34.896H87.31Z"
        fill="#0F1646" />
    <path
        d="M91.2741 32.3417C91.7184 32.3417 92.175 32.4388 92.6679 32.6264L92.4849 33.2277C92.0713 33.0643 91.6811 32.9784 91.3338 32.9784C90.8586 32.9784 90.5543 33.1847 90.5543 33.5068C90.5543 34.3807 92.8135 33.8102 92.8135 35.3759C92.8135 36.0863 92.1862 36.5653 91.2731 36.5653C90.8045 36.5653 90.2863 36.4626 89.7327 36.231L89.9157 35.6307C90.3909 35.8128 90.8409 35.9276 91.2124 35.9276C91.7119 35.9276 92.0219 35.7148 92.0219 35.3749C92.0219 34.4768 89.757 35.0351 89.757 33.5059C89.757 32.8141 90.3778 32.3408 91.2731 32.3408L91.2741 32.3417Z"
        fill="#0F1646" />
</svg>
    