<svg width="110" height="65" viewBox="0 0 110 65" fill="none" xmlns="http://www.w3.org/2000/svg">
    <path
        d="M107.496 0.5H31.2289C14.3949 0.5 0.746594 14.1472 0.746594 30.9823C-0.665441 48.8162 13.1416 64.5936 31.2289 64.5H90.424C100.525 64.5 108.713 56.3117 108.713 46.2108V1.71963C108.713 1.04673 108.167 0.5 107.494 0.5H107.496Z"
        fill="#1F2E8D" />
    <path
        d="M51.8038 12.8682L57.3605 12.8419C60.111 12.8282 62.0655 14.6093 62.0782 17.1453C62.0897 19.6813 60.153 21.4991 57.4026 21.5128L55.1389 21.5233L55.1578 25.383L51.8648 25.3988L51.8049 12.8682H51.8038ZM55.1252 18.9127L56.8464 18.9043C57.9682 18.899 58.7326 18.1862 58.7273 17.161C58.7221 16.1727 57.9514 15.4494 56.8295 15.4546L55.1084 15.463L55.1252 18.9127Z"
        fill="white" />
    <path
        d="M64.1483 12.8088L67.5727 12.792L67.62 22.712L72.7278 22.6878L72.7404 25.2984L64.2093 25.3394L64.1494 12.8088H64.1483Z"
        fill="white" />
    <path
        d="M79.3769 12.7364L82.5385 12.7217L87.6883 25.2281L84.2639 25.245L83.3166 22.7132L78.6956 22.7352L77.7725 25.2754L74.3302 25.2923L79.378 12.7375L79.3769 12.7364ZM79.563 20.2687L82.4071 20.255L80.9667 16.4394L79.563 20.2687Z"
        fill="white" />
    <path
        d="M89.3474 12.6877L92.6404 12.6719L98.4032 20.5322L98.3653 12.6446L101.508 12.6299L101.568 25.1605L98.2749 25.1763L92.5311 17.316L92.5689 25.2036L89.4073 25.2183L89.3474 12.6877Z"
        fill="white" />
    <path
        d="M109.352 40.0408H57.5749C56.0882 40.0408 55.3281 38.2587 56.3563 37.1852L63.0117 30.2407C64.7203 28.4575 67.0838 27.4492 69.5536 27.4492H109.352V40.0408Z"
        fill="#B77EDF" />
    <path
        d="M69.8143 30.3507H72.7709C74.2754 30.3507 75.3395 31.3358 75.3395 32.7184C75.3395 34.101 74.2754 35.0967 72.7709 35.0967H71.1906V37.5496H69.8143V30.3496V30.3507ZM71.1906 33.9938H72.5553C73.3723 33.9938 73.9316 33.4691 73.9316 32.7184C73.9316 31.9677 73.3723 31.4431 72.5553 31.4431H71.1906V33.9927V33.9938Z"
        fill="white" />
    <path d="M78.7156 30.3507H80.1455V36.4572H83.3596V37.5496H78.7156V30.3496V30.3507Z" fill="white" />
    <path
        d="M92.7644 34.7328C92.7644 36.4792 91.3565 37.6789 89.4104 37.6789C87.4642 37.6789 86.0459 36.4792 86.0459 34.7328V30.3506H87.4758V34.6792C87.4758 35.7832 88.2822 36.5539 89.4104 36.5539C90.5385 36.5539 91.3345 35.7821 91.3345 34.6792V30.3506H92.7644V34.7328Z"
        fill="white" />
    <path
        d="M98.8919 30.2227C99.6763 30.2227 100.483 30.394 101.353 30.7263L101.03 31.7871C100.3 31.498 99.6121 31.3477 98.9992 31.3477C98.1612 31.3477 97.6229 31.7114 97.6229 32.2803C97.6229 33.8227 101.611 32.8154 101.611 35.5796C101.611 36.8328 100.504 37.6792 98.8909 37.6792C98.0634 37.6792 97.1498 37.4973 96.1709 37.0904L96.4937 36.0296C97.3316 36.3513 98.1276 36.5542 98.7836 36.5542C99.6647 36.5542 100.214 36.1789 100.214 35.5796C100.214 33.994 96.2151 34.9792 96.2151 32.2803C96.2151 31.0585 97.3117 30.2237 98.8919 30.2237V30.2227Z"
        fill="white" />
    <path
        d="M43.1339 15.4964C39.2658 12.3632 34.3063 10.5233 28.9147 10.6368C16.9319 10.887 7.3378 20.8491 7.51549 32.833C7.69318 44.758 17.4145 54.3699 29.3815 54.3699C35.8004 54.3699 41.5726 51.6037 45.5732 47.1983C45.8865 46.8535 46.0589 46.4035 46.0589 45.9377V31.8689C46.0589 29.8975 44.4608 28.3004 42.4904 28.3004H26.3524C25.4356 28.3004 24.6923 29.0437 24.6923 29.9606V35.718C24.6923 36.6349 25.4356 37.3782 26.3524 37.3782H36.4396C36.7403 37.3782 36.9832 37.6221 36.9832 37.9218V41.9339C36.9832 42.3776 36.7603 42.7919 36.3912 43.039C34.403 44.3679 32.0258 45.1523 29.4772 45.1702C22.4549 45.2217 16.7437 39.5599 16.7132 32.5565C16.6837 25.6487 22.1342 20.0174 29.0398 19.8355C32.1982 19.7525 35.1043 20.8249 37.3648 22.6617L43.1339 15.4964Z"
        fill="white" />
    <path
        d="M43.1339 15.4964C39.2658 12.3632 34.3063 10.5233 28.9147 10.6368C16.9319 10.887 7.3378 20.8491 7.51549 32.833C7.61012 39.214 10.4394 44.9325 14.8816 48.87C11.7548 45.7148 9.82122 41.3567 9.82122 36.5434C9.82122 26.9125 17.5617 19.1059 27.1094 19.1059C29.841 19.1059 31.437 19.3813 34.3389 20.8375L34.3368 20.8396C35.4334 21.3064 36.4512 21.9205 37.3638 22.6607L38.7716 23.7415C39.4866 24.2903 40.5096 24.1684 41.0752 23.466L44.7163 18.945C45.283 18.2406 45.182 17.2123 44.4892 16.6309L43.1339 15.4953V15.4964Z"
        fill="#0063C5" />
    <path
        d="M15.647 36.1698C15.647 32.411 16.6837 28.9792 18.4774 26.0742C18.7171 25.6704 18.9768 25.2814 19.2586 24.9082C19.2628 24.9029 19.266 24.8977 19.2702 24.8913C21.5423 21.8833 25.1191 19.9066 29.1418 19.832C30.9891 19.7973 32.746 20.1611 34.3378 20.8392L34.34 20.8371C31.4381 19.3799 29.842 19.1055 27.1105 19.1055C17.5627 19.1055 9.82227 26.9121 9.82227 36.543C9.82227 41.3563 11.7558 45.7144 14.8827 48.8697C18.7424 52.2909 23.8196 54.3695 29.3836 54.3695C29.473 54.3695 29.6822 54.3717 29.6938 54.3674C21.6979 52.7399 15.647 45.2108 15.647 36.1698Z"
        fill="#4091E3" />
    <path
        d="M82.8886 44.2856H79.0415V45.9247C79.2381 45.91 79.4789 45.91 79.6597 45.91C81.8319 45.91 83.2502 47.1727 83.2502 49.1273C83.2502 51.0818 81.6206 52.4655 79.3285 52.4655C78.152 52.4655 77.0049 52.1343 75.9945 51.5182L77.0049 49.5783C77.744 50.0599 78.4832 50.3154 79.1172 50.3154C80.0529 50.3154 80.6554 49.8496 80.6554 49.0821C80.6554 48.2252 79.9762 47.7289 78.7849 47.7289C78.1814 47.7289 77.4875 47.8036 76.7179 47.9697V42.1807H82.8875V44.2856H82.8886Z"
        fill="white" />
    <path
        d="M88.032 52.4646C87.0815 52.4646 86.0406 52.2543 85.0901 51.7581L85.9807 49.8782C86.6294 50.2094 87.3086 50.4196 87.9268 50.4196C89.1791 50.4196 90.0685 49.6374 90.1747 48.239C89.6017 48.6754 88.8773 48.9309 88.0782 48.9309C86.1016 48.9309 84.7137 47.563 84.7137 45.6231C84.7137 43.5035 86.2982 42 88.5156 42C91.1105 42 92.6645 43.8189 92.6645 46.8417C92.6645 50.3902 90.8992 52.4646 88.033 52.4646H88.032ZM88.6208 44.045C87.7765 44.045 87.1572 44.6769 87.1572 45.518C87.1572 46.3591 87.746 46.9311 88.5755 46.9311C89.4051 46.9311 90.0538 46.3896 90.0538 45.6084C90.0538 44.6916 89.4503 44.045 88.6208 44.045Z"
        fill="white" />
    <path
        d="M97.379 52.4646C96.4286 52.4646 95.3877 52.2543 94.4372 51.7581L95.3277 49.8782C95.9764 50.2094 96.6557 50.4196 97.2739 50.4196C98.5261 50.4196 99.4156 49.6374 99.5218 48.239C98.9488 48.6754 98.2243 48.9309 97.4253 48.9309C95.4486 48.9309 94.0608 47.563 94.0608 45.6231C94.0608 43.5035 95.6453 42 97.8627 42C100.458 42 102.012 43.8189 102.012 46.8417C102.012 50.3902 100.246 52.4646 97.3801 52.4646H97.379ZM97.9678 44.045C97.1235 44.045 96.5043 44.6769 96.5043 45.518C96.5043 46.3591 97.093 46.9311 97.9226 46.9311C98.7522 46.9311 99.4009 46.3896 99.4009 45.6084C99.4009 44.6916 98.7974 44.045 97.9678 44.045Z"
        fill="white" />
</svg>
    