<svg width="110" height="64" viewBox="0 0 110 64" fill="none" xmlns="http://www.w3.org/2000/svg">
    <path
        d="M107.496 0H31.2289C14.3949 0 0.746594 13.6472 0.746594 30.4823C-0.665441 48.3162 13.1416 64.0936 31.2289 64H90.424C100.525 64 108.713 55.8117 108.713 45.7108V1.21963C108.713 0.54673 108.167 0 107.494 0H107.496Z"
        fill="#1F2E8D" />
    <path
        d="M51.8037 12.3682L57.3604 12.3419C60.1109 12.3282 62.0654 14.1093 62.078 16.6453C62.0896 19.1813 60.1529 20.9991 57.4024 21.0128L55.1388 21.0233L55.1577 24.883L51.8647 24.8988L51.8048 12.3682H51.8037ZM55.1251 18.4127L56.8462 18.4043C57.9681 18.399 58.7325 17.6862 58.7272 16.661C58.722 15.6727 57.9513 14.9494 56.8294 14.9546L55.1083 14.963L55.1251 18.4127Z"
        fill="white" />
    <path
        d="M64.1482 12.3088L67.5726 12.292L67.6199 22.212L72.7276 22.1878L72.7403 24.7984L64.2092 24.8394L64.1492 12.3088H64.1482Z"
        fill="white" />
    <path
        d="M79.3768 12.2364L82.5384 12.2217L87.6882 24.7281L84.2637 24.745L83.3164 22.2132L78.6955 22.2352L77.7724 24.7754L74.3301 24.7923L79.3779 12.2375L79.3768 12.2364ZM79.5629 19.7687L82.407 19.755L80.9665 15.9394L79.5629 19.7687Z"
        fill="white" />
    <path
        d="M89.3472 12.1877L92.6402 12.1719L98.4029 20.0322L98.3651 12.1446L101.508 12.1299L101.568 24.6605L98.2746 24.6763L92.5308 16.816L92.5687 24.7036L89.4071 24.7183L89.3472 12.1877Z"
        fill="white" />
    <path
        d="M109.352 39.5408H57.5749C56.0882 39.5408 55.3281 37.7587 56.3563 36.6852L63.0117 29.7407C64.7203 27.9575 67.0838 26.9492 69.5536 26.9492H109.352V39.5408Z"
        fill="#B77EDF" />
    <path
        d="M69.8143 29.8507H72.7698C74.2743 29.8507 75.3384 30.8358 75.3384 32.2184C75.3384 33.601 74.2743 34.5967 72.7698 34.5967H71.1895V37.0496H69.8132V29.8496L69.8143 29.8507ZM71.1906 33.4938H72.5553C73.3722 33.4938 73.9316 32.9691 73.9316 32.2184C73.9316 31.4677 73.3722 30.9431 72.5553 30.9431H71.1906V33.4927V33.4938Z"
        fill="white" />
    <path d="M78.7156 29.8507H80.1455V35.9572H83.3596V37.0496H78.7156V29.8496V29.8507Z" fill="white" />
    <path
        d="M92.7644 34.2319C92.7644 35.9782 91.3565 37.1779 89.4104 37.1779C87.4642 37.1779 86.0459 35.9782 86.0459 34.2319V29.8496H87.4758V34.1782C87.4758 35.2822 88.2822 36.0529 89.4104 36.0529C90.5385 36.0529 91.3345 35.2812 91.3345 34.1782V29.8496H92.7644V34.2319Z"
        fill="white" />
    <path
        d="M98.8919 29.7227C99.6763 29.7227 100.483 29.894 101.353 30.2263L101.03 31.2871C100.3 30.998 99.6111 30.8477 98.9992 30.8477C98.1612 30.8477 97.6229 31.2114 97.6229 31.7803C97.6229 33.3227 101.611 32.3154 101.611 35.0796C101.611 36.3328 100.504 37.1792 98.8909 37.1792C98.0634 37.1792 97.1498 36.9973 96.1709 36.5904L96.4937 35.5296C97.3316 35.8513 98.1276 36.0542 98.7836 36.0542C99.6647 36.0542 100.214 35.6789 100.214 35.0796C100.214 33.494 96.2151 34.4792 96.2151 31.7803C96.2151 30.5585 97.3117 29.7237 98.8919 29.7237V29.7227Z"
        fill="white" />
    <path
        d="M43.134 14.9964C39.2659 11.8632 34.3064 10.0233 28.9148 10.1368C16.932 10.387 7.33793 20.3491 7.51561 32.333C7.6933 44.258 17.4146 53.8699 29.3817 53.8699C35.8005 53.8699 41.5727 51.1037 45.5733 46.6983C45.8866 46.3535 46.059 45.9035 46.059 45.4377V31.3689C46.059 29.3975 44.4609 27.8004 42.4906 27.8004H26.3526C25.4357 27.8004 24.6924 28.5437 24.6924 29.4606V35.218C24.6924 36.1349 25.4357 36.8782 26.3526 36.8782H36.4397C36.7404 36.8782 36.9833 37.1221 36.9833 37.4218V41.4339C36.9833 41.8776 36.7604 42.2919 36.3914 42.539C34.4032 43.8679 32.0259 44.6523 29.4773 44.6702C22.455 44.7217 16.7438 39.0599 16.7133 32.0565C16.6839 25.1487 22.1343 19.5174 29.0399 19.3355C32.1984 19.2525 35.1044 20.3249 37.365 22.1617L43.134 14.9964Z"
        fill="white" />
    <path
        d="M43.134 14.9964C39.2659 11.8632 34.3064 10.0233 28.9148 10.1368C16.932 10.387 7.33793 20.3491 7.51561 32.333C7.61024 38.714 10.4396 44.4325 14.8817 48.37C11.7549 45.2148 9.82134 40.8567 9.82134 36.0434C9.82134 26.4125 17.5618 18.6059 27.1096 18.6059C29.8411 18.6059 31.4371 18.8813 34.339 20.3375L34.3369 20.3396C35.4335 20.8064 36.4513 21.4205 37.3639 22.1607L38.7717 23.2415C39.4867 23.7903 40.5097 23.6684 41.0754 22.966L44.7164 18.445C45.2831 17.7406 45.1821 16.7123 44.4893 16.1309L43.134 14.9953V14.9964Z"
        fill="#0063C5" />
    <path
        d="M15.6473 35.6698C15.6473 31.911 16.684 28.4792 18.4777 25.5742C18.7174 25.1704 18.9771 24.7814 19.2589 24.4082C19.2631 24.4029 19.2662 24.3977 19.2704 24.3913C21.5425 21.3833 25.1194 19.4066 29.1421 19.332C30.9894 19.2973 32.7463 19.6611 34.3381 20.3392L34.3402 20.3371C31.4383 18.8799 29.8423 18.6055 27.1107 18.6055C17.5629 18.6055 9.82251 26.4121 9.82251 36.043C9.82251 40.8563 11.756 45.2144 14.8829 48.3697C18.7426 51.7909 23.8198 53.8695 29.3839 53.8695C29.4732 53.8695 29.6825 53.8717 29.694 53.8674C21.6981 52.2399 15.6473 44.7108 15.6473 35.6698Z"
        fill="#4091E3" />
    <path
        d="M71.5784 51.6795V44.1169L69.5487 45.2595L68.6616 43.4854L72.0144 41.5759H74.2246V51.6795H71.5784Z"
        fill="white" />
    <path
        d="M77.9258 51.6795L81.3839 43.6808H77.159V41.5759H84.2556V43.2298L80.6923 51.6795H77.9258Z"
        fill="white" />
    <path
        d="M93.3845 46.2368C93.3845 49.7851 91.6253 51.8599 88.7687 51.8599C87.8215 51.8599 86.7841 51.6494 85.8368 51.1533L86.7239 49.2739C87.3704 49.6047 88.047 49.8151 88.6634 49.8151C89.9113 49.8151 90.7984 49.0333 90.9037 47.6351C90.3323 48.0711 89.6106 48.3267 88.8138 48.3267C86.8442 48.3267 85.461 46.9585 85.461 45.019C85.461 42.899 87.0396 41.3955 89.2498 41.3955C91.8358 41.3955 93.3845 43.2148 93.3845 46.2368ZM90.7834 45.0039C90.7834 44.0868 90.182 43.4403 89.3551 43.4403C88.5131 43.4403 87.8966 44.0718 87.8966 44.9137C87.8966 45.7406 88.483 46.327 89.3099 46.327C90.1669 46.327 90.7834 45.7857 90.7834 45.0039Z"
        fill="white" />
    <path
        d="M102.047 46.2368C102.047 49.7851 100.288 51.8599 97.4315 51.8599C96.4843 51.8599 95.4468 51.6494 94.4996 51.1533L95.3867 49.2739C96.0332 49.6047 96.7098 49.8151 97.3262 49.8151C98.5741 49.8151 99.4612 49.0333 99.5665 47.6351C98.9951 48.0711 98.2734 48.3267 97.4766 48.3267C95.507 48.3267 94.1238 46.9585 94.1238 45.019C94.1238 42.899 95.7024 41.3955 97.9126 41.3955C100.499 41.3955 102.047 43.2148 102.047 46.2368ZM99.4462 45.0039C99.4462 44.0868 98.8448 43.4403 98.0178 43.4403C97.1759 43.4403 96.5594 44.0718 96.5594 44.9137C96.5594 45.7406 97.1458 46.327 97.9727 46.327C98.8297 46.327 99.4462 45.7857 99.4462 45.0039Z"
        fill="white" />
</svg>
    