<svg width="96" height="57" viewBox="0 0 96 57" fill="none" xmlns="http://www.w3.org/2000/svg">
    <path
        d="M93.9335 0.5H27.2001C12.4704 0.5 0.528117 12.4413 0.528117 27.172C-0.707413 42.7767 11.3737 56.5819 27.2001 56.5H78.9958C87.8341 56.5 94.9988 49.3352 94.9988 40.497V1.56717C94.9988 0.978389 94.5214 0.5 93.9317 0.5H93.9335Z"
        fill="#1F2E8D" />
    <path
        d="M45.2031 11.3219L50.0652 11.2989C52.4719 11.2869 54.1821 12.8454 54.1932 15.0644C54.2033 17.2834 52.5087 18.874 50.102 18.886L48.1213 18.8952L48.1379 22.2724L45.2565 22.2862L45.204 11.3219H45.2031ZM48.1093 16.6109L49.6153 16.6035C50.597 16.5989 51.2658 15.9751 51.2612 15.0782C51.2566 14.2134 50.5822 13.5804 49.6006 13.585L48.0946 13.5924L48.1093 16.6109Z"
        fill="white" />
    <path
        d="M56.0046 11.2706L59.001 11.2559L59.0424 19.9359L63.5117 19.9147L63.5227 22.199L56.058 22.2349L56.0056 11.2706H56.0046Z"
        fill="white" />
    <path
        d="M69.3295 11.2062L72.0958 11.1934L76.6019 22.1365L73.6055 22.1512L72.7766 19.9359L68.7333 19.9552L67.9256 22.1779L64.9136 22.1926L69.3304 11.2072L69.3295 11.2062ZM69.4923 17.797L71.9808 17.785L70.7205 14.4464L69.4923 17.797Z"
        fill="white" />
    <path
        d="M78.0537 11.1639L80.9351 11.1501L85.9775 18.0278L85.9444 11.1262L88.6942 11.1133L88.7466 22.0776L85.8652 22.0914L80.8394 15.2136L80.8725 22.1153L78.1062 22.1282L78.0537 11.1639Z"
        fill="white" />
    <path
        d="M95.5582 35.0977H50.2529C48.9521 35.0977 48.2869 33.5384 49.1867 32.5991L55.0101 26.5226C56.5051 24.9623 58.5732 24.0801 60.7343 24.0801H95.5582V35.0977Z"
        fill="#B77EDF" />
    <path
        d="M60.9623 26.6201H63.5484C64.8649 26.6201 65.7959 27.4821 65.7959 28.6919C65.7959 29.9016 64.8649 30.7728 63.5484 30.7728H62.1657V32.9192H60.9614V26.6191L60.9623 26.6201ZM62.1666 29.8078H63.3607C64.0755 29.8078 64.565 29.3487 64.565 28.6919C64.565 28.035 64.0755 27.5759 63.3607 27.5759H62.1666V29.8069V29.8078Z"
        fill="white" />
    <path d="M68.751 26.6201H70.0021V31.9633H72.8145V32.9192H68.751V26.6191V26.6201Z" fill="white" />
    <path
        d="M81.0437 30.4536C81.0437 31.9817 79.8118 33.0314 78.109 33.0314C76.4061 33.0314 75.165 31.9817 75.165 30.4536V26.6191H76.4162V30.4067C76.4162 31.3727 77.1218 32.047 78.109 32.047C79.0961 32.047 79.7925 31.3717 79.7925 30.4067V26.6191H81.0437V30.4536Z"
        fill="white" />
    <path
        d="M86.4053 26.5078C87.0916 26.5078 87.7972 26.6578 88.559 26.9485L88.2765 27.8767C87.6372 27.6237 87.0346 27.4922 86.4992 27.4922C85.7659 27.4922 85.2949 27.8105 85.2949 28.3082C85.2949 29.6578 88.7844 28.7765 88.7844 31.1951C88.7844 32.2917 87.8156 33.0323 86.4044 33.0323C85.6804 33.0323 84.8809 32.8731 84.0244 32.5171L84.3068 31.5889C85.0401 31.8704 85.7365 32.0479 86.3106 32.0479C87.0815 32.0479 87.5617 31.7195 87.5617 31.1951C87.5617 29.8078 84.0631 30.6698 84.0631 28.3082C84.0631 27.2392 85.0226 26.5087 86.4053 26.5087V26.5078Z"
        fill="white" />
    <path
        d="M37.617 13.6217C34.2324 10.8802 29.8928 9.27022 25.1752 9.36958C14.6902 9.58854 6.29538 18.3053 6.45086 28.7912C6.60633 39.2256 15.1125 47.6361 25.5836 47.6361C31.2001 47.6361 36.2508 45.2156 39.7513 41.3609C40.0255 41.0592 40.1763 40.6654 40.1763 40.2579V27.9476C40.1763 26.2227 38.778 24.8252 37.0539 24.8252H22.9332C22.131 24.8252 21.4805 25.4756 21.4805 26.2779V31.3157C21.4805 32.1179 22.131 32.7683 22.9332 32.7683H31.7595C32.0226 32.7683 32.2351 32.9817 32.2351 33.2439V36.7546C32.2351 37.1428 32.04 37.5053 31.7171 37.7215C29.9775 38.8843 27.8974 39.5706 25.6674 39.5863C19.5228 39.6313 14.5255 34.6773 14.4988 28.5493C14.4731 22.505 19.2422 17.5776 25.2847 17.4185C28.0483 17.3458 30.5911 18.2842 32.569 19.8914L37.617 13.6217Z"
        fill="white" />
    <path
        d="M37.617 13.6217C34.2324 10.8802 29.8928 9.27022 25.1752 9.36958C14.6902 9.58854 6.29538 18.3053 6.45086 28.7912C6.53365 34.3746 9.00932 39.3784 12.8962 42.8237C10.1602 40.0628 8.46837 36.2495 8.46837 32.0378C8.46837 23.6108 15.2412 16.78 23.5956 16.78C25.9857 16.78 27.3822 17.021 29.9213 18.2952L29.9195 18.297C30.879 18.7055 31.7696 19.2428 32.5681 19.8905L33.8 20.8362C34.4256 21.3164 35.3207 21.2097 35.8156 20.5952L39.0015 16.6392C39.4974 16.0229 39.4091 15.1231 38.8028 14.6144L37.617 13.6208V13.6217Z"
        fill="#0063C5" />
    <path
        d="M13.5659 31.7105C13.5659 28.4216 14.473 25.4188 16.0425 22.8769C16.2523 22.5236 16.4795 22.1832 16.726 21.8567C16.7297 21.8521 16.7325 21.8475 16.7362 21.8419C18.7242 19.2099 21.854 17.4803 25.3738 17.415C26.9902 17.3846 28.5275 17.703 29.9204 18.2963L29.9222 18.2945C27.3831 17.0194 25.9865 16.7793 23.5964 16.7793C15.2421 16.7793 8.46924 23.6101 8.46924 32.0371C8.46924 36.2488 10.1611 40.0621 12.8971 42.823C16.2743 45.8166 20.7169 47.6354 25.5854 47.6354C25.6636 47.6354 25.8467 47.6372 25.8568 47.6335C18.8604 46.2094 13.5659 39.6214 13.5659 31.7105Z"
        fill="#4091E3" />
    <path
        d="M62.5058 45.7192V39.1019L60.7298 40.1017L59.9536 38.5493L62.8873 36.8786H64.8212V45.7192H62.5058Z"
        fill="white" />
    <path
        d="M67.3625 45.7192V44.2721L70.2042 41.4304C70.8093 40.8253 71.1251 40.3254 71.1251 39.8123C71.1251 39.1282 70.6251 38.6546 69.9147 38.6546C69.2569 38.6546 68.7307 38.9572 68.0598 39.3518L67.1915 37.6548C68.2834 37.0364 69.349 36.7207 70.3883 36.7207C72.1644 36.7207 73.3878 37.8652 73.3878 39.4834C73.3878 40.4306 72.9537 41.3384 72.0854 42.2066L70.4146 43.8774H73.4931V45.7192H67.3625Z"
        fill="white" />
    <path
        d="M81.5861 40.9568C81.5861 44.0616 80.0469 45.8771 77.5473 45.8771C76.7185 45.8771 75.8107 45.6929 74.9819 45.2587L75.7581 43.6143C76.3238 43.9037 76.9158 44.0879 77.4552 44.0879C78.5471 44.0879 79.3233 43.4038 79.4154 42.1803C78.9155 42.5618 78.284 42.7855 77.5868 42.7855C75.8634 42.7855 74.653 41.5883 74.653 39.8912C74.653 38.0363 76.0344 36.7207 77.9683 36.7207C80.2311 36.7207 81.5861 38.3125 81.5861 40.9568ZM79.3102 39.8781C79.3102 39.0756 78.7839 38.5099 78.0604 38.5099C77.3236 38.5099 76.7843 39.0624 76.7843 39.7991C76.7843 40.5227 77.2973 41.0358 78.0209 41.0358C78.7708 41.0358 79.3102 40.5622 79.3102 39.8781Z"
        fill="white" />
    <path
        d="M89.166 40.9568C89.166 44.0616 87.6268 45.8771 85.1272 45.8771C84.2984 45.8771 83.3907 45.6929 82.5619 45.2587L83.3381 43.6143C83.9038 43.9037 84.4958 44.0879 85.0351 44.0879C86.1271 44.0879 86.9033 43.4038 86.9953 42.1803C86.4954 42.5618 85.864 42.7855 85.1667 42.7855C83.4433 42.7855 82.233 41.5883 82.233 39.8912C82.233 38.0363 83.6143 36.7207 85.5482 36.7207C87.811 36.7207 89.166 38.3125 89.166 40.9568ZM86.8901 39.8781C86.8901 39.0756 86.3639 38.5099 85.6403 38.5099C84.9036 38.5099 84.3642 39.0624 84.3642 39.7991C84.3642 40.5227 84.8773 41.0358 85.6008 41.0358C86.3507 41.0358 86.8901 40.5622 86.8901 39.8781Z"
        fill="white" />
</svg>
    